<svg width="1440" height="494" viewBox="0 0 1440 494" fill="none" xmlns="http://www.w3.org/2000/svg">
<rect x="-6.5" y="1" width="1452" height="492" fill="url(#paint0_linear_3589_6905)" stroke="#42E8E0" stroke-width="2"/>
<path d="M327.494 80V67.4H329.906L335.27 76.292H333.992L339.266 67.4H341.66L341.696 80H338.96L338.942 71.594H339.446L335.234 78.668H333.92L329.618 71.594H330.23V80H327.494ZM350.805 80.216C349.809 80.216 348.885 80.054 348.033 79.73C347.193 79.406 346.461 78.95 345.837 78.362C345.225 77.774 344.745 77.084 344.397 76.292C344.061 75.5 343.893 74.636 343.893 73.7C343.893 72.764 344.061 71.9 344.397 71.108C344.745 70.316 345.231 69.626 345.855 69.038C346.479 68.45 347.211 67.994 348.051 67.67C348.891 67.346 349.803 67.184 350.787 67.184C351.783 67.184 352.695 67.346 353.523 67.67C354.363 67.994 355.089 68.45 355.701 69.038C356.325 69.626 356.811 70.316 357.159 71.108C357.507 71.888 357.681 72.752 357.681 73.7C357.681 74.636 357.507 75.506 357.159 76.31C356.811 77.102 356.325 77.792 355.701 78.38C355.089 78.956 354.363 79.406 353.523 79.73C352.695 80.054 351.789 80.216 350.805 80.216ZM350.787 77.732C351.351 77.732 351.867 77.636 352.335 77.444C352.815 77.252 353.235 76.976 353.595 76.616C353.955 76.256 354.231 75.83 354.423 75.338C354.627 74.846 354.729 74.3 354.729 73.7C354.729 73.1 354.627 72.554 354.423 72.062C354.231 71.57 353.955 71.144 353.595 70.784C353.247 70.424 352.833 70.148 352.353 69.956C351.873 69.764 351.351 69.668 350.787 69.668C350.223 69.668 349.701 69.764 349.221 69.956C348.753 70.148 348.339 70.424 347.979 70.784C347.619 71.144 347.337 71.57 347.133 72.062C346.941 72.554 346.845 73.1 346.845 73.7C346.845 74.288 346.941 74.834 347.133 75.338C347.337 75.83 347.613 76.256 347.961 76.616C348.321 76.976 348.741 77.252 349.221 77.444C349.701 77.636 350.223 77.732 350.787 77.732ZM359.873 80V67.4H362.285L369.719 76.472H368.549V67.4H371.429V80H369.035L361.583 70.928H362.753V80H359.873Z" fill="#606060"/>
<path d="M489.303 80V69.776H485.271V67.4H496.251V69.776H492.219V80H489.303ZM503.207 80.216C501.419 80.216 500.021 79.718 499.013 78.722C498.005 77.726 497.501 76.304 497.501 74.456V67.4H500.417V74.348C500.417 75.548 500.663 76.412 501.155 76.94C501.647 77.468 502.337 77.732 503.225 77.732C504.113 77.732 504.803 77.468 505.295 76.94C505.787 76.412 506.033 75.548 506.033 74.348V67.4H508.913V74.456C508.913 76.304 508.409 77.726 507.401 78.722C506.393 79.718 504.995 80.216 503.207 80.216ZM514.477 72.476H520.543V74.744H514.477V72.476ZM514.693 77.66H521.551V80H511.795V67.4H521.317V69.74H514.693V77.66Z" fill="#606060"/>
<path d="M639.918 80L635.796 67.4H638.82L642.402 78.56H640.89L644.634 67.4H647.334L650.934 78.56H649.476L653.148 67.4H655.938L651.816 80H648.684L645.498 70.208H646.326L643.05 80H639.918ZM660.248 72.476H666.314V74.744H660.248V72.476ZM660.464 77.66H667.322V80H657.566V67.4H667.088V69.74H660.464V77.66ZM669.642 80V67.4H675.366C676.734 67.4 677.94 67.664 678.984 68.192C680.028 68.708 680.844 69.434 681.432 70.37C682.02 71.306 682.314 72.416 682.314 73.7C682.314 74.972 682.02 76.082 681.432 77.03C680.844 77.966 680.028 78.698 678.984 79.226C677.94 79.742 676.734 80 675.366 80H669.642ZM672.558 77.606H675.222C676.062 77.606 676.788 77.45 677.4 77.138C678.024 76.814 678.504 76.358 678.84 75.77C679.188 75.182 679.362 74.492 679.362 73.7C679.362 72.896 679.188 72.206 678.84 71.63C678.504 71.042 678.024 70.592 677.4 70.28C676.788 69.956 676.062 69.794 675.222 69.794H672.558V77.606Z" fill="#606060"/>
<path d="M799.704 80V69.776H795.672V67.4H806.652V69.776H802.62V80H799.704ZM816.861 67.4H819.777V80H816.861V67.4ZM811.137 80H808.221V67.4H811.137V80ZM817.077 74.834H810.921V72.368H817.077V74.834ZM828.356 80.216C826.568 80.216 825.17 79.718 824.162 78.722C823.154 77.726 822.65 76.304 822.65 74.456V67.4H825.566V74.348C825.566 75.548 825.812 76.412 826.304 76.94C826.796 77.468 827.486 77.732 828.374 77.732C829.262 77.732 829.952 77.468 830.444 76.94C830.936 76.412 831.182 75.548 831.182 74.348V67.4H834.062V74.456C834.062 76.304 833.558 77.726 832.55 78.722C831.542 79.718 830.144 80.216 828.356 80.216Z" fill="#606060"/>
<path d="M951.995 73.07H958.043V75.41H951.995V73.07ZM952.211 80H949.295V67.4H958.817V69.74H952.211V80ZM960.791 80V67.4H966.245C967.373 67.4 968.345 67.586 969.161 67.958C969.977 68.318 970.607 68.84 971.051 69.524C971.495 70.208 971.717 71.024 971.717 71.972C971.717 72.908 971.495 73.718 971.051 74.402C970.607 75.074 969.977 75.59 969.161 75.95C968.345 76.31 967.373 76.49 966.245 76.49H962.411L963.707 75.212V80H960.791ZM968.801 80L965.651 75.428H968.765L971.951 80H968.801ZM963.707 75.536L962.411 74.168H966.083C966.983 74.168 967.655 73.976 968.099 73.592C968.543 73.196 968.765 72.656 968.765 71.972C968.765 71.276 968.543 70.736 968.099 70.352C967.655 69.968 966.983 69.776 966.083 69.776H962.411L963.707 68.39V75.536ZM974.027 80V67.4H976.943V80H974.027Z" fill="#606060"/>
<path d="M1100.92 71.27L1102.16 68.66C1100.85 67.814 1098.97 67.238 1097.12 67.238C1094.08 67.238 1092.08 68.732 1092.08 71.09C1092.08 75.554 1098.72 74.258 1098.72 76.4C1098.72 77.066 1098.11 77.426 1097.14 77.426C1095.82 77.426 1093.86 76.634 1092.57 75.518L1091.29 78.092C1092.8 79.334 1095 80.108 1097.1 80.108C1099.91 80.108 1102.18 78.794 1102.18 76.22C1102.18 71.684 1095.54 72.872 1095.54 70.784C1095.54 70.208 1096.06 69.92 1096.85 69.92C1097.89 69.92 1099.59 70.514 1100.92 71.27ZM1113.08 80H1116.59L1111.3 67.382H1107.91L1102.49 80H1105.88L1106.76 77.768H1112.21L1113.08 80ZM1107.75 75.248L1109.51 70.748L1111.24 75.248H1107.75ZM1115.28 67.382V70.1H1119.02V80H1122.32V70.1H1126.1V67.382H1115.28Z" fill="#A4B4F0"/>
<g filter="url(#filter0_d_3589_6905)">
<rect x="277.5" y="181" width="132" height="224" rx="8" fill="#00439F" shape-rendering="crispEdges"/>
<path d="M292.338 255L297.954 242.4H300.834L306.468 255H303.408L298.8 243.876H299.952L295.326 255H292.338ZM295.146 252.3L295.92 250.086H302.4L303.192 252.3H295.146ZM313.629 255.216C312.657 255.216 311.751 255.06 310.911 254.748C310.083 254.424 309.363 253.968 308.751 253.38C308.139 252.792 307.659 252.102 307.311 251.31C306.975 250.518 306.807 249.648 306.807 248.7C306.807 247.752 306.975 246.882 307.311 246.09C307.659 245.298 308.139 244.608 308.751 244.02C309.375 243.432 310.101 242.982 310.929 242.67C311.757 242.346 312.663 242.184 313.647 242.184C314.739 242.184 315.723 242.376 316.599 242.76C317.487 243.132 318.231 243.684 318.831 244.416L316.959 246.144C316.527 245.652 316.047 245.286 315.519 245.046C314.991 244.794 314.415 244.668 313.791 244.668C313.203 244.668 312.663 244.764 312.171 244.956C311.679 245.148 311.253 245.424 310.893 245.784C310.533 246.144 310.251 246.57 310.047 247.062C309.855 247.554 309.759 248.1 309.759 248.7C309.759 249.3 309.855 249.846 310.047 250.338C310.251 250.83 310.533 251.256 310.893 251.616C311.253 251.976 311.679 252.252 312.171 252.444C312.663 252.636 313.203 252.732 313.791 252.732C314.415 252.732 314.991 252.612 315.519 252.372C316.047 252.12 316.527 251.742 316.959 251.238L318.831 252.966C318.231 253.698 317.487 254.256 316.599 254.64C315.723 255.024 314.733 255.216 313.629 255.216ZM318.916 255L324.532 242.4H327.412L333.046 255H329.986L325.378 243.876H326.53L321.904 255H318.916ZM321.724 252.3L322.498 250.086H328.978L329.77 252.3H321.724ZM334.353 255V242.4H340.077C341.445 242.4 342.651 242.664 343.695 243.192C344.739 243.708 345.555 244.434 346.143 245.37C346.731 246.306 347.025 247.416 347.025 248.7C347.025 249.972 346.731 251.082 346.143 252.03C345.555 252.966 344.739 253.698 343.695 254.226C342.651 254.742 341.445 255 340.077 255H334.353ZM337.269 252.606H339.933C340.773 252.606 341.499 252.45 342.111 252.138C342.735 251.814 343.215 251.358 343.551 250.77C343.899 250.182 344.073 249.492 344.073 248.7C344.073 247.896 343.899 247.206 343.551 246.63C343.215 246.042 342.735 245.592 342.111 245.28C341.499 244.956 340.773 244.794 339.933 244.794H337.269V252.606ZM351.906 247.476H357.972V249.744H351.906V247.476ZM352.122 252.66H358.98V255H349.224V242.4H358.746V244.74H352.122V252.66ZM361.301 255V242.4H363.713L369.077 251.292H367.799L373.073 242.4H375.467L375.503 255H372.767L372.749 246.594H373.253L369.041 253.668H367.727L363.425 246.594H364.037V255H361.301ZM381.624 255V249.852L382.29 251.616L376.746 242.4H379.842L384.09 249.474H382.308L386.574 242.4H389.436L383.892 251.616L384.54 249.852V255H381.624ZM300.024 277.216C299.052 277.216 298.146 277.06 297.306 276.748C296.478 276.424 295.758 275.968 295.146 275.38C294.534 274.792 294.054 274.102 293.706 273.31C293.37 272.518 293.202 271.648 293.202 270.7C293.202 269.752 293.37 268.882 293.706 268.09C294.054 267.298 294.534 266.608 295.146 266.02C295.77 265.432 296.496 264.982 297.324 264.67C298.152 264.346 299.058 264.184 300.042 264.184C301.134 264.184 302.118 264.376 302.994 264.76C303.882 265.132 304.626 265.684 305.226 266.416L303.354 268.144C302.922 267.652 302.442 267.286 301.914 267.046C301.386 266.794 300.81 266.668 300.186 266.668C299.598 266.668 299.058 266.764 298.566 266.956C298.074 267.148 297.648 267.424 297.288 267.784C296.928 268.144 296.646 268.57 296.442 269.062C296.25 269.554 296.154 270.1 296.154 270.7C296.154 271.3 296.25 271.846 296.442 272.338C296.646 272.83 296.928 273.256 297.288 273.616C297.648 273.976 298.074 274.252 298.566 274.444C299.058 274.636 299.598 274.732 300.186 274.732C300.81 274.732 301.386 274.612 301.914 274.372C302.442 274.12 302.922 273.742 303.354 273.238L305.226 274.966C304.626 275.698 303.882 276.256 302.994 276.64C302.118 277.024 301.128 277.216 300.024 277.216ZM307.195 277V264.4H310.111V274.624H316.429V277H307.195ZM316.473 277L322.089 264.4H324.969L330.603 277H327.543L322.935 265.876H324.087L319.461 277H316.473ZM319.281 274.3L320.055 272.086H326.535L327.327 274.3H319.281ZM336.05 277.216C335.042 277.216 334.076 277.084 333.152 276.82C332.228 276.544 331.484 276.19 330.92 275.758L331.91 273.562C332.45 273.946 333.086 274.264 333.818 274.516C334.562 274.756 335.312 274.876 336.068 274.876C336.644 274.876 337.106 274.822 337.454 274.714C337.814 274.594 338.078 274.432 338.246 274.228C338.414 274.024 338.498 273.79 338.498 273.526C338.498 273.19 338.366 272.926 338.102 272.734C337.838 272.53 337.49 272.368 337.058 272.248C336.626 272.116 336.146 271.996 335.618 271.888C335.102 271.768 334.58 271.624 334.052 271.456C333.536 271.288 333.062 271.072 332.63 270.808C332.198 270.544 331.844 270.196 331.568 269.764C331.304 269.332 331.172 268.78 331.172 268.108C331.172 267.388 331.364 266.734 331.748 266.146C332.144 265.546 332.732 265.072 333.512 264.724C334.304 264.364 335.294 264.184 336.482 264.184C337.274 264.184 338.054 264.28 338.822 264.472C339.59 264.652 340.268 264.928 340.856 265.3L339.956 267.514C339.368 267.178 338.78 266.932 338.192 266.776C337.604 266.608 337.028 266.524 336.464 266.524C335.9 266.524 335.438 266.59 335.078 266.722C334.718 266.854 334.46 267.028 334.304 267.244C334.148 267.448 334.07 267.688 334.07 267.964C334.07 268.288 334.202 268.552 334.466 268.756C334.73 268.948 335.078 269.104 335.51 269.224C335.942 269.344 336.416 269.464 336.932 269.584C337.46 269.704 337.982 269.842 338.498 269.998C339.026 270.154 339.506 270.364 339.938 270.628C340.37 270.892 340.718 271.24 340.982 271.672C341.258 272.104 341.396 272.65 341.396 273.31C341.396 274.018 341.198 274.666 340.802 275.254C340.406 275.842 339.812 276.316 339.02 276.676C338.24 277.036 337.25 277.216 336.05 277.216ZM347.529 277.216C346.521 277.216 345.555 277.084 344.631 276.82C343.707 276.544 342.963 276.19 342.399 275.758L343.389 273.562C343.929 273.946 344.565 274.264 345.297 274.516C346.041 274.756 346.791 274.876 347.547 274.876C348.123 274.876 348.585 274.822 348.933 274.714C349.293 274.594 349.557 274.432 349.725 274.228C349.893 274.024 349.977 273.79 349.977 273.526C349.977 273.19 349.845 272.926 349.581 272.734C349.317 272.53 348.969 272.368 348.537 272.248C348.105 272.116 347.625 271.996 347.097 271.888C346.581 271.768 346.059 271.624 345.531 271.456C345.015 271.288 344.541 271.072 344.109 270.808C343.677 270.544 343.323 270.196 343.047 269.764C342.783 269.332 342.651 268.78 342.651 268.108C342.651 267.388 342.843 266.734 343.227 266.146C343.623 265.546 344.211 265.072 344.991 264.724C345.783 264.364 346.773 264.184 347.961 264.184C348.753 264.184 349.533 264.28 350.301 264.472C351.069 264.652 351.747 264.928 352.335 265.3L351.435 267.514C350.847 267.178 350.259 266.932 349.671 266.776C349.083 266.608 348.507 266.524 347.943 266.524C347.379 266.524 346.917 266.59 346.557 266.722C346.197 266.854 345.939 267.028 345.783 267.244C345.627 267.448 345.549 267.688 345.549 267.964C345.549 268.288 345.681 268.552 345.945 268.756C346.209 268.948 346.557 269.104 346.989 269.224C347.421 269.344 347.895 269.464 348.411 269.584C348.939 269.704 349.461 269.842 349.977 269.998C350.505 270.154 350.985 270.364 351.417 270.628C351.849 270.892 352.197 271.24 352.461 271.672C352.737 272.104 352.875 272.65 352.875 273.31C352.875 274.018 352.677 274.666 352.281 275.254C351.885 275.842 351.291 276.316 350.499 276.676C349.719 277.036 348.729 277.216 347.529 277.216Z" fill="white"/>
<rect x="278" y="181.5" width="131" height="223" rx="7.5" stroke="url(#paint1_linear_3589_6905)" shape-rendering="crispEdges"/>
</g>
<g filter="url(#filter1_d_3589_6905)">
<rect x="594.5" y="181" width="132" height="224" rx="8" fill="#00439F" shape-rendering="crispEdges"/>
<path d="M609.338 255L614.954 242.4H617.834L623.468 255H620.408L615.8 243.876H616.952L612.326 255H609.338ZM612.146 252.3L612.92 250.086H619.4L620.192 252.3H612.146ZM630.629 255.216C629.657 255.216 628.751 255.06 627.911 254.748C627.083 254.424 626.363 253.968 625.751 253.38C625.139 252.792 624.659 252.102 624.311 251.31C623.975 250.518 623.807 249.648 623.807 248.7C623.807 247.752 623.975 246.882 624.311 246.09C624.659 245.298 625.139 244.608 625.751 244.02C626.375 243.432 627.101 242.982 627.929 242.67C628.757 242.346 629.663 242.184 630.647 242.184C631.739 242.184 632.723 242.376 633.599 242.76C634.487 243.132 635.231 243.684 635.831 244.416L633.959 246.144C633.527 245.652 633.047 245.286 632.519 245.046C631.991 244.794 631.415 244.668 630.791 244.668C630.203 244.668 629.663 244.764 629.171 244.956C628.679 245.148 628.253 245.424 627.893 245.784C627.533 246.144 627.251 246.57 627.047 247.062C626.855 247.554 626.759 248.1 626.759 248.7C626.759 249.3 626.855 249.846 627.047 250.338C627.251 250.83 627.533 251.256 627.893 251.616C628.253 251.976 628.679 252.252 629.171 252.444C629.663 252.636 630.203 252.732 630.791 252.732C631.415 252.732 631.991 252.612 632.519 252.372C633.047 252.12 633.527 251.742 633.959 251.238L635.831 252.966C635.231 253.698 634.487 254.256 633.599 254.64C632.723 255.024 631.733 255.216 630.629 255.216ZM635.916 255L641.532 242.4H644.412L650.046 255H646.986L642.378 243.876H643.53L638.904 255H635.916ZM638.724 252.3L639.498 250.086H645.978L646.77 252.3H638.724ZM651.353 255V242.4H657.077C658.445 242.4 659.651 242.664 660.695 243.192C661.739 243.708 662.555 244.434 663.143 245.37C663.731 246.306 664.025 247.416 664.025 248.7C664.025 249.972 663.731 251.082 663.143 252.03C662.555 252.966 661.739 253.698 660.695 254.226C659.651 254.742 658.445 255 657.077 255H651.353ZM654.269 252.606H656.933C657.773 252.606 658.499 252.45 659.111 252.138C659.735 251.814 660.215 251.358 660.551 250.77C660.899 250.182 661.073 249.492 661.073 248.7C661.073 247.896 660.899 247.206 660.551 246.63C660.215 246.042 659.735 245.592 659.111 245.28C658.499 244.956 657.773 244.794 656.933 244.794H654.269V252.606ZM668.906 247.476H674.972V249.744H668.906V247.476ZM669.122 252.66H675.98V255H666.224V242.4H675.746V244.74H669.122V252.66ZM678.301 255V242.4H680.713L686.077 251.292H684.799L690.073 242.4H692.467L692.503 255H689.767L689.749 246.594H690.253L686.041 253.668H684.727L680.425 246.594H681.037V255H678.301ZM698.624 255V249.852L699.29 251.616L693.746 242.4H696.842L701.09 249.474H699.308L703.574 242.4H706.436L700.892 251.616L701.54 249.852V255H698.624ZM617.024 277.216C616.052 277.216 615.146 277.06 614.306 276.748C613.478 276.424 612.758 275.968 612.146 275.38C611.534 274.792 611.054 274.102 610.706 273.31C610.37 272.518 610.202 271.648 610.202 270.7C610.202 269.752 610.37 268.882 610.706 268.09C611.054 267.298 611.534 266.608 612.146 266.02C612.77 265.432 613.496 264.982 614.324 264.67C615.152 264.346 616.058 264.184 617.042 264.184C618.134 264.184 619.118 264.376 619.994 264.76C620.882 265.132 621.626 265.684 622.226 266.416L620.354 268.144C619.922 267.652 619.442 267.286 618.914 267.046C618.386 266.794 617.81 266.668 617.186 266.668C616.598 266.668 616.058 266.764 615.566 266.956C615.074 267.148 614.648 267.424 614.288 267.784C613.928 268.144 613.646 268.57 613.442 269.062C613.25 269.554 613.154 270.1 613.154 270.7C613.154 271.3 613.25 271.846 613.442 272.338C613.646 272.83 613.928 273.256 614.288 273.616C614.648 273.976 615.074 274.252 615.566 274.444C616.058 274.636 616.598 274.732 617.186 274.732C617.81 274.732 618.386 274.612 618.914 274.372C619.442 274.12 619.922 273.742 620.354 273.238L622.226 274.966C621.626 275.698 620.882 276.256 619.994 276.64C619.118 277.024 618.128 277.216 617.024 277.216ZM624.195 277V264.4H627.111V274.624H633.429V277H624.195ZM633.473 277L639.089 264.4H641.969L647.603 277H644.543L639.935 265.876H641.087L636.461 277H633.473ZM636.281 274.3L637.055 272.086H643.535L644.327 274.3H636.281ZM653.05 277.216C652.042 277.216 651.076 277.084 650.152 276.82C649.228 276.544 648.484 276.19 647.92 275.758L648.91 273.562C649.45 273.946 650.086 274.264 650.818 274.516C651.562 274.756 652.312 274.876 653.068 274.876C653.644 274.876 654.106 274.822 654.454 274.714C654.814 274.594 655.078 274.432 655.246 274.228C655.414 274.024 655.498 273.79 655.498 273.526C655.498 273.19 655.366 272.926 655.102 272.734C654.838 272.53 654.49 272.368 654.058 272.248C653.626 272.116 653.146 271.996 652.618 271.888C652.102 271.768 651.58 271.624 651.052 271.456C650.536 271.288 650.062 271.072 649.63 270.808C649.198 270.544 648.844 270.196 648.568 269.764C648.304 269.332 648.172 268.78 648.172 268.108C648.172 267.388 648.364 266.734 648.748 266.146C649.144 265.546 649.732 265.072 650.512 264.724C651.304 264.364 652.294 264.184 653.482 264.184C654.274 264.184 655.054 264.28 655.822 264.472C656.59 264.652 657.268 264.928 657.856 265.3L656.956 267.514C656.368 267.178 655.78 266.932 655.192 266.776C654.604 266.608 654.028 266.524 653.464 266.524C652.9 266.524 652.438 266.59 652.078 266.722C651.718 266.854 651.46 267.028 651.304 267.244C651.148 267.448 651.07 267.688 651.07 267.964C651.07 268.288 651.202 268.552 651.466 268.756C651.73 268.948 652.078 269.104 652.51 269.224C652.942 269.344 653.416 269.464 653.932 269.584C654.46 269.704 654.982 269.842 655.498 269.998C656.026 270.154 656.506 270.364 656.938 270.628C657.37 270.892 657.718 271.24 657.982 271.672C658.258 272.104 658.396 272.65 658.396 273.31C658.396 274.018 658.198 274.666 657.802 275.254C657.406 275.842 656.812 276.316 656.02 276.676C655.24 277.036 654.25 277.216 653.05 277.216ZM664.529 277.216C663.521 277.216 662.555 277.084 661.631 276.82C660.707 276.544 659.963 276.19 659.399 275.758L660.389 273.562C660.929 273.946 661.565 274.264 662.297 274.516C663.041 274.756 663.791 274.876 664.547 274.876C665.123 274.876 665.585 274.822 665.933 274.714C666.293 274.594 666.557 274.432 666.725 274.228C666.893 274.024 666.977 273.79 666.977 273.526C666.977 273.19 666.845 272.926 666.581 272.734C666.317 272.53 665.969 272.368 665.537 272.248C665.105 272.116 664.625 271.996 664.097 271.888C663.581 271.768 663.059 271.624 662.531 271.456C662.015 271.288 661.541 271.072 661.109 270.808C660.677 270.544 660.323 270.196 660.047 269.764C659.783 269.332 659.651 268.78 659.651 268.108C659.651 267.388 659.843 266.734 660.227 266.146C660.623 265.546 661.211 265.072 661.991 264.724C662.783 264.364 663.773 264.184 664.961 264.184C665.753 264.184 666.533 264.28 667.301 264.472C668.069 264.652 668.747 264.928 669.335 265.3L668.435 267.514C667.847 267.178 667.259 266.932 666.671 266.776C666.083 266.608 665.507 266.524 664.943 266.524C664.379 266.524 663.917 266.59 663.557 266.722C663.197 266.854 662.939 267.028 662.783 267.244C662.627 267.448 662.549 267.688 662.549 267.964C662.549 268.288 662.681 268.552 662.945 268.756C663.209 268.948 663.557 269.104 663.989 269.224C664.421 269.344 664.895 269.464 665.411 269.584C665.939 269.704 666.461 269.842 666.977 269.998C667.505 270.154 667.985 270.364 668.417 270.628C668.849 270.892 669.197 271.24 669.461 271.672C669.737 272.104 669.875 272.65 669.875 273.31C669.875 274.018 669.677 274.666 669.281 275.254C668.885 275.842 668.291 276.316 667.499 276.676C666.719 277.036 665.729 277.216 664.529 277.216Z" fill="white"/>
<rect x="595" y="181.5" width="131" height="223" rx="7.5" stroke="url(#paint2_linear_3589_6905)" shape-rendering="crispEdges"/>
</g>
<rect x="436" y="167.5" width="131" height="237" rx="7.5" fill="#F8F8F8"/>
<path d="M506.775 245.64C506.287 245.64 505.898 246.038 505.898 246.516V250.919C505.898 251.407 506.297 251.796 506.775 251.796C507.263 251.796 507.652 251.397 507.652 250.919V246.516C507.662 246.028 507.263 245.64 506.775 245.64Z" fill="#2577CA"/>
<path d="M515.58 245.64C515.092 245.64 514.703 246.038 514.703 246.516V250.919C514.703 251.407 515.102 251.796 515.58 251.796C516.058 251.796 516.456 251.397 516.456 250.919V246.516C516.456 246.028 516.058 245.64 515.58 245.64Z" fill="#2577CA"/>
<path d="M482.138 243C481.65 243 481.262 243.398 481.262 243.877V250.919C481.262 251.408 481.66 251.796 482.138 251.796C482.616 251.796 483.015 251.398 483.015 250.919V243.877C483.015 243.389 482.626 243 482.138 243Z" fill="#2577CA"/>
<path d="M493.574 235.081H493.554C494.132 234.324 494.451 233.397 494.461 232.441V231.534C496.403 230.09 496.802 227.34 495.347 225.398C494.52 224.282 493.206 223.635 491.821 223.635H488.295C485.874 223.625 483.902 225.587 483.892 228.008C483.892 229.393 484.539 230.707 485.655 231.534V232.441C485.655 233.397 485.974 234.324 486.561 235.081H486.541C483.623 235.081 481.262 237.441 481.262 240.36C481.262 240.848 481.66 241.237 482.138 241.237C482.616 241.237 483.015 240.838 483.015 240.36C483.015 238.418 484.589 236.844 486.531 236.844H487.408V237.72C487.408 237.959 487.508 238.199 487.687 238.358L489.57 240.121C489.729 240.271 489.948 240.36 490.167 240.36H490.197C490.436 240.35 490.655 240.251 490.815 240.081L492.448 238.318C492.598 238.159 492.678 237.94 492.678 237.72V236.844H493.554C495.497 236.844 497.071 238.418 497.071 240.36V250.919C497.071 251.407 497.469 251.796 497.947 251.796C498.435 251.796 498.824 251.398 498.824 250.919V240.36C498.854 237.441 496.493 235.081 493.574 235.081ZM487.418 232.441V230.678C487.418 229.701 488.205 228.914 489.181 228.914H490.944C491.921 228.914 492.707 229.701 492.707 230.678V232.441C492.707 233.895 491.522 235.081 490.068 235.081C488.613 235.081 487.418 233.895 487.418 232.441ZM488.295 225.398H491.811C493.265 225.398 494.451 226.583 494.451 228.038C494.451 228.456 494.341 228.875 494.142 229.243C493.574 227.978 492.319 227.161 490.934 227.151H489.181C487.796 227.151 486.531 227.968 485.974 229.243C485.774 228.875 485.665 228.456 485.665 228.028C485.655 226.583 486.84 225.398 488.295 225.398ZM490.137 238.228L489.181 237.332V236.754C489.759 236.874 490.357 236.874 490.944 236.754V237.372L490.137 238.228Z" fill="#2577CA"/>
<path d="M485.658 243C485.17 243 484.781 243.398 484.781 243.877V250.919C484.781 251.398 485.18 251.796 485.658 251.796C486.136 251.796 486.534 251.398 486.534 250.919V243.877C486.544 243.389 486.146 243 485.658 243Z" fill="#2577CA"/>
<path d="M494.459 243C493.971 243 493.582 243.398 493.582 243.877V250.919C493.582 251.408 493.98 251.796 494.459 251.796C494.937 251.796 495.335 251.398 495.335 250.919V243.877C495.335 243.389 494.937 243 494.459 243Z" fill="#2577CA"/>
<path d="M490.06 242.989C490.544 242.989 490.937 242.596 490.937 242.112C490.937 241.628 490.544 241.235 490.06 241.235C489.576 241.235 489.184 241.628 489.184 242.112C489.184 242.596 489.576 242.989 490.06 242.989Z" fill="#2577CA"/>
<path d="M490.06 246.516C490.544 246.516 490.937 246.123 490.937 245.639C490.937 245.155 490.544 244.763 490.06 244.763C489.576 244.763 489.184 245.155 489.184 245.639C489.184 246.123 489.576 246.516 490.06 246.516Z" fill="#2577CA"/>
<path d="M490.935 206.043C490.935 204.1 489.361 202.526 487.419 202.526C487.209 202.526 487 202.546 486.791 202.586C485.347 202.845 484.221 203.981 483.952 205.425C483.793 206.322 483.992 207.258 484.51 208.015C484.659 208.214 484.749 208.444 484.769 208.693C484.281 208.732 483.932 209.161 483.972 209.649C484.012 210.077 484.35 210.406 484.779 210.446V211.233C484.759 212.548 485.685 213.683 486.98 213.932C488.415 214.171 489.779 213.205 490.019 211.771C490.038 211.621 490.058 211.482 490.058 211.332V210.456C490.547 210.426 490.915 210.007 490.885 209.519C490.855 209.091 490.527 208.742 490.098 208.703C490.138 208.434 490.238 208.165 490.397 207.935C490.746 207.358 490.935 206.71 490.935 206.043ZM485.685 205.724C485.825 205.007 486.383 204.449 487.09 204.309C487.199 204.29 487.309 204.28 487.419 204.28C487.837 204.28 488.235 204.429 488.544 204.688C488.943 205.017 489.172 205.515 489.172 206.033C489.172 206.362 489.072 206.69 488.903 206.959C488.564 207.477 488.355 208.065 488.315 208.683H486.532C486.512 208.085 486.313 207.507 485.964 207.019C485.705 206.64 485.606 206.172 485.685 205.724ZM488.295 211.322C488.295 211.581 488.186 211.83 487.986 211.99C487.787 212.159 487.518 212.229 487.259 212.189C486.821 212.079 486.512 211.681 486.532 211.223V210.436H488.295V211.322Z" fill="#2577CA"/>
<path d="M499.744 206.042C500.233 206.042 500.621 205.644 500.621 205.166C500.621 204.688 500.223 204.279 499.744 204.279H495.341C494.853 204.279 494.465 204.678 494.465 205.156C494.465 205.634 494.863 206.033 495.341 206.033H499.744V206.042Z" fill="#2577CA"/>
<path d="M492.695 208.682C492.695 209.171 493.094 209.559 493.572 209.559H497.088C497.576 209.559 497.965 209.161 497.965 208.682C497.965 208.194 497.566 207.806 497.088 207.806H493.572C493.094 207.796 492.695 208.194 492.695 208.682Z" fill="#2577CA"/>
<path d="M491.82 212.198C491.82 212.686 492.219 213.075 492.697 213.075H496.213C496.701 213.075 497.09 212.676 497.09 212.198C497.09 211.72 496.691 211.321 496.213 211.321H492.697C492.209 211.321 491.82 211.71 491.82 212.198Z" fill="#2577CA"/>
<path d="M522.613 217.479C523.102 217.479 523.49 217.08 523.49 216.602V211.322C523.49 208.892 521.518 206.929 519.087 206.919H504.135V203.403C504.135 200.972 502.162 199.01 499.732 199H483.903C481.472 199 479.5 200.972 479.5 203.403V213.086C479.5 215.516 481.472 217.479 483.903 217.489H485.168L487.549 221.463C487.798 221.882 488.336 222.011 488.754 221.762C488.874 221.692 488.983 221.583 489.053 221.463L491.434 217.489H496.215C496.704 217.489 497.092 217.09 497.092 216.612C497.092 216.124 496.694 215.735 496.215 215.735H490.936C490.627 215.735 490.338 215.895 490.179 216.164L488.296 219.302L486.413 216.164C486.254 215.895 485.965 215.735 485.656 215.735H483.903C482.449 215.735 481.263 214.55 481.263 213.096V203.403C481.263 201.949 482.449 200.763 483.903 200.763H499.742C501.196 200.763 502.382 201.949 502.382 203.403V207.009C500.33 207.427 498.865 209.23 498.865 211.322V220.118C498.865 222.549 500.838 224.511 503.268 224.521H509.584L510.112 227.161H505.898C505.41 227.161 505.021 227.56 505.021 228.038C505.021 228.526 505.42 228.914 505.898 228.914H512.941C514.395 228.914 515.581 230.1 515.581 231.554C515.581 233.009 514.395 234.194 512.941 234.194H509.424C507.97 234.194 506.785 233.009 506.785 231.554C506.785 231.066 506.386 230.678 505.908 230.678C505.43 230.678 505.031 231.076 505.031 231.554C505.031 232.929 505.689 234.224 506.795 235.051V235.071C506.795 236.027 507.113 236.953 507.701 237.71H507.681C504.762 237.71 502.402 240.071 502.402 242.99V250.909C502.402 251.398 502.8 251.786 503.278 251.786C503.766 251.786 504.155 251.388 504.155 250.909V242.99C504.155 241.048 505.729 239.474 507.671 239.474H514.714C516.656 239.474 518.23 241.048 518.23 242.99V250.909C518.23 251.398 518.629 251.786 519.107 251.786C519.585 251.786 519.984 251.388 519.984 250.909V242.99C519.984 240.071 517.623 237.71 514.704 237.71H514.684C515.262 236.953 515.581 236.027 515.591 235.071V235.051C517.533 233.606 517.922 230.857 516.477 228.924C515.66 227.829 514.375 227.181 513.011 227.161L515.122 224.511H519.097C521.528 224.511 523.49 222.539 523.5 220.108C523.5 219.62 523.102 219.232 522.623 219.232C522.145 219.232 521.747 219.63 521.747 220.108C521.747 221.563 520.561 222.748 519.107 222.748H514.704C514.435 222.748 514.186 222.868 514.017 223.077L511.676 226.006L511.168 223.456C511.088 223.047 510.719 222.748 510.301 222.748H503.258C501.804 222.748 500.618 221.563 500.618 220.108V211.312C500.618 209.858 501.804 208.673 503.258 208.673H519.097C520.551 208.673 521.737 209.858 521.737 211.312V216.592C521.737 217.08 522.135 217.479 522.613 217.479ZM511.178 237.72C510.032 237.72 509.026 236.973 508.677 235.887C508.926 235.937 509.165 235.957 509.414 235.967H512.931C513.18 235.967 513.429 235.937 513.668 235.887C513.329 236.973 512.323 237.71 511.178 237.72Z" fill="#2577CA"/>
<path d="M509.412 220.117C509.896 220.117 510.288 219.725 510.288 219.241C510.288 218.757 509.896 218.364 509.412 218.364C508.928 218.364 508.535 218.757 508.535 219.241C508.535 219.725 508.928 220.117 509.412 220.117Z" fill="#2577CA"/>
<path d="M510.302 215.566C511.676 215.078 512.393 213.574 511.915 212.199C511.427 210.825 509.923 210.107 508.548 210.586C507.492 210.954 506.785 211.96 506.785 213.076C506.785 213.564 507.184 213.953 507.662 213.953C508.15 213.953 508.538 213.554 508.538 213.076C508.538 212.598 508.937 212.199 509.415 212.199C509.903 212.199 510.292 212.598 510.292 213.076C510.292 213.554 509.893 213.953 509.415 213.953C508.927 213.953 508.538 214.351 508.538 214.829V216.592C508.538 217.08 508.937 217.469 509.415 217.469C509.903 217.469 510.292 217.071 510.292 216.592V215.566H510.302Z" fill="#2577CA"/>
<path d="M519.096 211.321H514.693C514.205 211.321 513.816 211.72 513.816 212.198C513.816 212.676 514.215 213.075 514.693 213.075H519.096C519.584 213.075 519.973 212.676 519.973 212.198C519.973 211.72 519.584 211.321 519.096 211.321Z" fill="#2577CA"/>
<path d="M519.098 214.838H513.818C513.33 214.838 512.941 215.236 512.941 215.715C512.941 216.203 513.34 216.591 513.818 216.591H519.098C519.586 216.591 519.974 216.193 519.974 215.715C519.974 215.236 519.586 214.838 519.098 214.838Z" fill="#2577CA"/>
<path d="M512.943 220.117H519.099C519.588 220.117 519.976 219.719 519.976 219.241C519.976 218.753 519.578 218.364 519.099 218.364H512.943C512.455 218.364 512.067 218.763 512.067 219.241C512.057 219.719 512.455 220.117 512.943 220.117Z" fill="#2577CA"/>
<path d="M503.259 220.117H505.899C506.387 220.117 506.776 219.719 506.776 219.241C506.776 218.753 506.377 218.364 505.899 218.364H503.259C502.771 218.364 502.383 218.763 502.383 219.241C502.383 219.719 502.771 220.117 503.259 220.117Z" fill="#2577CA"/>
<path d="M503.259 216.601H505.023C505.511 216.601 505.899 216.202 505.899 215.724C505.899 215.236 505.501 214.848 505.023 214.848H503.259C502.771 214.848 502.383 215.246 502.383 215.724C502.383 216.202 502.771 216.601 503.259 216.601Z" fill="#2577CA"/>
<path d="M503.259 213.075H504.136C504.624 213.075 505.013 212.676 505.013 212.198C505.013 211.72 504.614 211.321 504.136 211.321H503.259C502.771 211.321 502.383 211.72 502.383 212.198C502.383 212.676 502.771 213.075 503.259 213.075Z" fill="#2577CA"/>
<path d="M453.418 284.066L454.66 281.456C453.346 280.61 451.474 280.034 449.62 280.034C446.578 280.034 444.58 281.528 444.58 283.886C444.58 288.35 451.222 287.054 451.222 289.196C451.222 289.862 450.61 290.222 449.638 290.222C448.324 290.222 446.362 289.43 445.066 288.314L443.788 290.888C445.3 292.13 447.496 292.904 449.602 292.904C452.41 292.904 454.678 291.59 454.678 289.016C454.678 284.48 448.036 285.668 448.036 283.58C448.036 283.004 448.558 282.716 449.35 282.716C450.394 282.716 452.086 283.31 453.418 284.066ZM456.361 280.178V292.796H465.001V289.988H459.655V280.178H456.361ZM475.826 292.796H479.336L474.044 280.178H470.66L465.242 292.796H468.626L469.508 290.564H474.962L475.826 292.796ZM470.498 288.044L472.262 283.544L473.99 288.044H470.498ZM489.27 284.534L491.178 282.248C489.918 280.916 487.956 280.088 486.084 280.088C482.232 280.088 479.334 282.824 479.334 286.46C479.334 290.168 482.16 292.94 485.958 292.94C487.83 292.94 489.846 292.022 491.196 290.6L489.27 288.53C488.388 289.43 487.182 290.006 486.138 290.006C484.194 290.006 482.718 288.458 482.718 286.424C482.718 284.408 484.194 282.878 486.138 282.878C487.236 282.878 488.442 283.526 489.27 284.534ZM504.739 292.796L499.771 285.398L504.451 280.178H500.635L495.901 285.47V280.178H492.607V292.796H495.901V289.718L497.521 287.918L500.797 292.796H504.739ZM511.486 280.178V292.796H514.78V287.954H519.874V292.796H523.168V280.178H519.874V285.326H514.78V280.178H511.486ZM525.619 280.178V292.796H535.753V290.168H528.913V287.792L534.925 287.774V285.164H528.913V282.806H535.573V280.178H525.619ZM537.765 280.178V292.796H546.405V289.988H541.059V280.178H537.765ZM553.452 280.178H547.908V292.796H551.202V289.304H553.452C556.674 289.304 558.528 287.576 558.528 284.606C558.528 281.798 556.674 280.178 553.452 280.178ZM553.29 286.676H551.202V282.806H553.29C554.622 282.806 555.396 283.472 555.396 284.714C555.396 285.992 554.622 286.676 553.29 286.676ZM453.418 306.066L454.66 303.456C453.346 302.61 451.474 302.034 449.62 302.034C446.578 302.034 444.58 303.528 444.58 305.886C444.58 310.35 451.222 309.054 451.222 311.196C451.222 311.862 450.61 312.222 449.638 312.222C448.324 312.222 446.362 311.43 445.066 310.314L443.788 312.888C445.3 314.13 447.496 314.904 449.602 314.904C452.41 314.904 454.678 313.59 454.678 311.016C454.678 306.48 448.036 307.668 448.036 305.58C448.036 305.004 448.558 304.716 449.35 304.716C450.394 304.716 452.086 305.31 453.418 306.066ZM456.361 302.178V314.796H466.495V312.168H459.655V309.792L465.667 309.774V307.164H459.655V304.806H466.315V302.178H456.361ZM477.201 306.066L478.443 303.456C477.129 302.61 475.257 302.034 473.403 302.034C470.361 302.034 468.363 303.528 468.363 305.886C468.363 310.35 475.005 309.054 475.005 311.196C475.005 311.862 474.393 312.222 473.421 312.222C472.107 312.222 470.145 311.43 468.849 310.314L467.571 312.888C469.083 314.13 471.279 314.904 473.385 314.904C476.193 314.904 478.461 313.59 478.461 311.016C478.461 306.48 471.819 307.668 471.819 305.58C471.819 305.004 472.341 304.716 473.133 304.716C474.177 304.716 475.869 305.31 477.201 306.066ZM488.838 306.066L490.08 303.456C488.766 302.61 486.894 302.034 485.04 302.034C481.998 302.034 480 303.528 480 305.886C480 310.35 486.642 309.054 486.642 311.196C486.642 311.862 486.03 312.222 485.058 312.222C483.744 312.222 481.782 311.43 480.486 310.314L479.208 312.888C480.72 314.13 482.916 314.904 485.022 314.904C487.83 314.904 490.098 313.59 490.098 311.016C490.098 306.48 483.456 307.668 483.456 305.58C483.456 305.004 483.978 304.716 484.77 304.716C485.814 304.716 487.506 305.31 488.838 306.066ZM491.781 302.178V314.796H495.075V302.178H491.781ZM503.541 302.088C499.635 302.088 496.719 304.806 496.719 308.478C496.719 312.168 499.635 314.94 503.541 314.94C507.447 314.94 510.363 312.168 510.363 308.478C510.363 304.824 507.447 302.088 503.541 302.088ZM503.577 304.896C505.467 304.896 506.979 306.444 506.979 308.496C506.979 310.548 505.467 312.132 503.577 312.132C501.705 312.132 500.103 310.548 500.103 308.496C500.103 306.444 501.687 304.896 503.577 304.896ZM511.995 302.178V314.796H515.073V307.236L520.797 314.796H523.677V302.178H520.617V309.774L514.893 302.178H511.995ZM534.84 306.066L536.082 303.456C534.768 302.61 532.896 302.034 531.042 302.034C528 302.034 526.002 303.528 526.002 305.886C526.002 310.35 532.644 309.054 532.644 311.196C532.644 311.862 532.032 312.222 531.06 312.222C529.746 312.222 527.784 311.43 526.488 310.314L525.21 312.888C526.722 314.13 528.918 314.904 531.024 314.904C533.832 314.904 536.1 313.59 536.1 311.016C536.1 306.48 529.458 307.668 529.458 305.58C529.458 305.004 529.98 304.716 530.772 304.716C531.816 304.716 533.508 305.31 534.84 306.066Z" fill="#2577CA"/>
<rect x="436" y="167.5" width="131" height="237" rx="7.5" stroke="#A4EFFF"/>
<rect x="756" y="167.5" width="131" height="237" rx="7.5" fill="#F8F8F8"/>
<path d="M826.775 245.64C826.287 245.64 825.898 246.038 825.898 246.516V250.919C825.898 251.407 826.297 251.796 826.775 251.796C827.263 251.796 827.652 251.397 827.652 250.919V246.516C827.662 246.028 827.263 245.64 826.775 245.64Z" fill="#2577CA"/>
<path d="M835.58 245.64C835.092 245.64 834.703 246.038 834.703 246.516V250.919C834.703 251.407 835.102 251.796 835.58 251.796C836.058 251.796 836.456 251.397 836.456 250.919V246.516C836.456 246.028 836.058 245.64 835.58 245.64Z" fill="#2577CA"/>
<path d="M802.138 243C801.65 243 801.262 243.398 801.262 243.877V250.919C801.262 251.408 801.66 251.796 802.138 251.796C802.616 251.796 803.015 251.398 803.015 250.919V243.877C803.015 243.389 802.626 243 802.138 243Z" fill="#2577CA"/>
<path d="M813.574 235.081H813.554C814.132 234.324 814.451 233.397 814.461 232.441V231.534C816.403 230.09 816.802 227.34 815.347 225.398C814.52 224.282 813.206 223.635 811.821 223.635H808.295C805.874 223.625 803.902 225.587 803.892 228.008C803.892 229.393 804.539 230.707 805.655 231.534V232.441C805.655 233.397 805.974 234.324 806.561 235.081H806.541C803.623 235.081 801.262 237.441 801.262 240.36C801.262 240.848 801.66 241.237 802.138 241.237C802.616 241.237 803.015 240.838 803.015 240.36C803.015 238.418 804.589 236.844 806.531 236.844H807.408V237.72C807.408 237.959 807.508 238.199 807.687 238.358L809.57 240.121C809.729 240.271 809.948 240.36 810.167 240.36H810.197C810.436 240.35 810.655 240.251 810.815 240.081L812.448 238.318C812.598 238.159 812.678 237.94 812.678 237.72V236.844H813.554C815.497 236.844 817.071 238.418 817.071 240.36V250.919C817.071 251.407 817.469 251.796 817.947 251.796C818.435 251.796 818.824 251.398 818.824 250.919V240.36C818.854 237.441 816.493 235.081 813.574 235.081ZM807.418 232.441V230.678C807.418 229.701 808.205 228.914 809.181 228.914H810.944C811.921 228.914 812.707 229.701 812.707 230.678V232.441C812.707 233.895 811.522 235.081 810.068 235.081C808.613 235.081 807.418 233.895 807.418 232.441ZM808.295 225.398H811.811C813.265 225.398 814.451 226.583 814.451 228.038C814.451 228.456 814.341 228.875 814.142 229.243C813.574 227.978 812.319 227.161 810.934 227.151H809.181C807.796 227.151 806.531 227.968 805.974 229.243C805.774 228.875 805.665 228.456 805.665 228.028C805.655 226.583 806.84 225.398 808.295 225.398ZM810.137 238.228L809.181 237.332V236.754C809.759 236.874 810.357 236.874 810.944 236.754V237.372L810.137 238.228Z" fill="#2577CA"/>
<path d="M805.658 243C805.17 243 804.781 243.398 804.781 243.877V250.919C804.781 251.398 805.18 251.796 805.658 251.796C806.136 251.796 806.534 251.398 806.534 250.919V243.877C806.544 243.389 806.146 243 805.658 243Z" fill="#2577CA"/>
<path d="M814.459 243C813.971 243 813.582 243.398 813.582 243.877V250.919C813.582 251.408 813.98 251.796 814.459 251.796C814.937 251.796 815.335 251.398 815.335 250.919V243.877C815.335 243.389 814.937 243 814.459 243Z" fill="#2577CA"/>
<path d="M810.06 242.989C810.544 242.989 810.937 242.596 810.937 242.112C810.937 241.628 810.544 241.235 810.06 241.235C809.576 241.235 809.184 241.628 809.184 242.112C809.184 242.596 809.576 242.989 810.06 242.989Z" fill="#2577CA"/>
<path d="M810.06 246.516C810.544 246.516 810.937 246.123 810.937 245.639C810.937 245.155 810.544 244.763 810.06 244.763C809.576 244.763 809.184 245.155 809.184 245.639C809.184 246.123 809.576 246.516 810.06 246.516Z" fill="#2577CA"/>
<path d="M810.935 206.043C810.935 204.1 809.361 202.526 807.419 202.526C807.209 202.526 807 202.546 806.791 202.586C805.347 202.845 804.221 203.981 803.952 205.425C803.793 206.322 803.992 207.258 804.51 208.015C804.659 208.214 804.749 208.444 804.769 208.693C804.281 208.732 803.932 209.161 803.972 209.649C804.012 210.077 804.35 210.406 804.779 210.446V211.233C804.759 212.548 805.685 213.683 806.98 213.932C808.415 214.171 809.779 213.205 810.019 211.771C810.038 211.621 810.058 211.482 810.058 211.332V210.456C810.547 210.426 810.915 210.007 810.885 209.519C810.855 209.091 810.527 208.742 810.098 208.703C810.138 208.434 810.238 208.165 810.397 207.935C810.746 207.358 810.935 206.71 810.935 206.043ZM805.685 205.724C805.825 205.007 806.383 204.449 807.09 204.309C807.199 204.29 807.309 204.28 807.419 204.28C807.837 204.28 808.235 204.429 808.544 204.688C808.943 205.017 809.172 205.515 809.172 206.033C809.172 206.362 809.072 206.69 808.903 206.959C808.564 207.477 808.355 208.065 808.315 208.683H806.532C806.512 208.085 806.313 207.507 805.964 207.019C805.705 206.64 805.606 206.172 805.685 205.724ZM808.295 211.322C808.295 211.581 808.186 211.83 807.986 211.99C807.787 212.159 807.518 212.229 807.259 212.189C806.821 212.079 806.512 211.681 806.532 211.223V210.436H808.295V211.322Z" fill="#2577CA"/>
<path d="M819.744 206.042C820.233 206.042 820.621 205.644 820.621 205.166C820.621 204.688 820.223 204.279 819.744 204.279H815.341C814.853 204.279 814.465 204.678 814.465 205.156C814.465 205.634 814.863 206.033 815.341 206.033H819.744V206.042Z" fill="#2577CA"/>
<path d="M812.695 208.682C812.695 209.171 813.094 209.559 813.572 209.559H817.088C817.576 209.559 817.965 209.161 817.965 208.682C817.965 208.194 817.566 207.806 817.088 207.806H813.572C813.094 207.796 812.695 208.194 812.695 208.682Z" fill="#2577CA"/>
<path d="M811.82 212.198C811.82 212.686 812.219 213.075 812.697 213.075H816.213C816.701 213.075 817.09 212.676 817.09 212.198C817.09 211.72 816.691 211.321 816.213 211.321H812.697C812.209 211.321 811.82 211.71 811.82 212.198Z" fill="#2577CA"/>
<path d="M842.613 217.479C843.102 217.479 843.49 217.08 843.49 216.602V211.322C843.49 208.892 841.518 206.929 839.087 206.919H824.135V203.403C824.135 200.972 822.162 199.01 819.732 199H803.903C801.472 199 799.5 200.972 799.5 203.403V213.086C799.5 215.516 801.472 217.479 803.903 217.489H805.168L807.549 221.463C807.798 221.882 808.336 222.011 808.754 221.762C808.874 221.692 808.983 221.583 809.053 221.463L811.434 217.489H816.215C816.704 217.489 817.092 217.09 817.092 216.612C817.092 216.124 816.694 215.735 816.215 215.735H810.936C810.627 215.735 810.338 215.895 810.179 216.164L808.296 219.302L806.413 216.164C806.254 215.895 805.965 215.735 805.656 215.735H803.903C802.449 215.735 801.263 214.55 801.263 213.096V203.403C801.263 201.949 802.449 200.763 803.903 200.763H819.742C821.196 200.763 822.382 201.949 822.382 203.403V207.009C820.33 207.427 818.865 209.23 818.865 211.322V220.118C818.865 222.549 820.838 224.511 823.268 224.521H829.584L830.112 227.161H825.898C825.41 227.161 825.021 227.56 825.021 228.038C825.021 228.526 825.42 228.914 825.898 228.914H832.941C834.395 228.914 835.581 230.1 835.581 231.554C835.581 233.009 834.395 234.194 832.941 234.194H829.424C827.97 234.194 826.785 233.009 826.785 231.554C826.785 231.066 826.386 230.678 825.908 230.678C825.43 230.678 825.031 231.076 825.031 231.554C825.031 232.929 825.689 234.224 826.795 235.051V235.071C826.795 236.027 827.113 236.953 827.701 237.71H827.681C824.762 237.71 822.402 240.071 822.402 242.99V250.909C822.402 251.398 822.8 251.786 823.278 251.786C823.766 251.786 824.155 251.388 824.155 250.909V242.99C824.155 241.048 825.729 239.474 827.671 239.474H834.714C836.656 239.474 838.23 241.048 838.23 242.99V250.909C838.23 251.398 838.629 251.786 839.107 251.786C839.585 251.786 839.984 251.388 839.984 250.909V242.99C839.984 240.071 837.623 237.71 834.704 237.71H834.684C835.262 236.953 835.581 236.027 835.591 235.071V235.051C837.533 233.606 837.922 230.857 836.477 228.924C835.66 227.829 834.375 227.181 833.011 227.161L835.122 224.511H839.097C841.528 224.511 843.49 222.539 843.5 220.108C843.5 219.62 843.102 219.232 842.623 219.232C842.145 219.232 841.747 219.63 841.747 220.108C841.747 221.563 840.561 222.748 839.107 222.748H834.704C834.435 222.748 834.186 222.868 834.017 223.077L831.676 226.006L831.168 223.456C831.088 223.047 830.719 222.748 830.301 222.748H823.258C821.804 222.748 820.618 221.563 820.618 220.108V211.312C820.618 209.858 821.804 208.673 823.258 208.673H839.097C840.551 208.673 841.737 209.858 841.737 211.312V216.592C841.737 217.08 842.135 217.479 842.613 217.479ZM831.178 237.72C830.032 237.72 829.026 236.973 828.677 235.887C828.926 235.937 829.165 235.957 829.414 235.967H832.931C833.18 235.967 833.429 235.937 833.668 235.887C833.329 236.973 832.323 237.71 831.178 237.72Z" fill="#2577CA"/>
<path d="M829.412 220.117C829.896 220.117 830.288 219.725 830.288 219.241C830.288 218.757 829.896 218.364 829.412 218.364C828.928 218.364 828.535 218.757 828.535 219.241C828.535 219.725 828.928 220.117 829.412 220.117Z" fill="#2577CA"/>
<path d="M830.302 215.566C831.676 215.078 832.393 213.574 831.915 212.199C831.427 210.825 829.923 210.107 828.548 210.586C827.492 210.954 826.785 211.96 826.785 213.076C826.785 213.564 827.184 213.953 827.662 213.953C828.15 213.953 828.538 213.554 828.538 213.076C828.538 212.598 828.937 212.199 829.415 212.199C829.903 212.199 830.292 212.598 830.292 213.076C830.292 213.554 829.893 213.953 829.415 213.953C828.927 213.953 828.538 214.351 828.538 214.829V216.592C828.538 217.08 828.937 217.469 829.415 217.469C829.903 217.469 830.292 217.071 830.292 216.592V215.566H830.302Z" fill="#2577CA"/>
<path d="M839.096 211.321H834.693C834.205 211.321 833.816 211.72 833.816 212.198C833.816 212.676 834.215 213.075 834.693 213.075H839.096C839.584 213.075 839.973 212.676 839.973 212.198C839.973 211.72 839.584 211.321 839.096 211.321Z" fill="#2577CA"/>
<path d="M839.098 214.838H833.818C833.33 214.838 832.941 215.236 832.941 215.715C832.941 216.203 833.34 216.591 833.818 216.591H839.098C839.586 216.591 839.974 216.193 839.974 215.715C839.974 215.236 839.586 214.838 839.098 214.838Z" fill="#2577CA"/>
<path d="M832.943 220.117H839.099C839.588 220.117 839.976 219.719 839.976 219.241C839.976 218.753 839.578 218.364 839.099 218.364H832.943C832.455 218.364 832.067 218.763 832.067 219.241C832.057 219.719 832.455 220.117 832.943 220.117Z" fill="#2577CA"/>
<path d="M823.259 220.117H825.899C826.387 220.117 826.776 219.719 826.776 219.241C826.776 218.753 826.377 218.364 825.899 218.364H823.259C822.771 218.364 822.383 218.763 822.383 219.241C822.383 219.719 822.771 220.117 823.259 220.117Z" fill="#2577CA"/>
<path d="M823.259 216.601H825.023C825.511 216.601 825.899 216.202 825.899 215.724C825.899 215.236 825.501 214.848 825.023 214.848H823.259C822.771 214.848 822.383 215.246 822.383 215.724C822.383 216.202 822.771 216.601 823.259 216.601Z" fill="#2577CA"/>
<path d="M823.259 213.075H824.136C824.624 213.075 825.013 212.676 825.013 212.198C825.013 211.72 824.614 211.321 824.136 211.321H823.259C822.771 211.321 822.383 211.72 822.383 212.198C822.383 212.676 822.771 213.075 823.259 213.075Z" fill="#2577CA"/>
<path d="M773.418 284.066L774.66 281.456C773.346 280.61 771.474 280.034 769.62 280.034C766.578 280.034 764.58 281.528 764.58 283.886C764.58 288.35 771.222 287.054 771.222 289.196C771.222 289.862 770.61 290.222 769.638 290.222C768.324 290.222 766.362 289.43 765.066 288.314L763.788 290.888C765.3 292.13 767.496 292.904 769.602 292.904C772.41 292.904 774.678 291.59 774.678 289.016C774.678 284.48 768.036 285.668 768.036 283.58C768.036 283.004 768.558 282.716 769.35 282.716C770.394 282.716 772.086 283.31 773.418 284.066ZM776.361 280.178V292.796H785.001V289.988H779.655V280.178H776.361ZM795.826 292.796H799.336L794.044 280.178H790.66L785.242 292.796H788.626L789.508 290.564H794.962L795.826 292.796ZM790.498 288.044L792.262 283.544L793.99 288.044H790.498ZM809.27 284.534L811.178 282.248C809.918 280.916 807.956 280.088 806.084 280.088C802.232 280.088 799.334 282.824 799.334 286.46C799.334 290.168 802.16 292.94 805.958 292.94C807.83 292.94 809.846 292.022 811.196 290.6L809.27 288.53C808.388 289.43 807.182 290.006 806.138 290.006C804.194 290.006 802.718 288.458 802.718 286.424C802.718 284.408 804.194 282.878 806.138 282.878C807.236 282.878 808.442 283.526 809.27 284.534ZM824.739 292.796L819.771 285.398L824.451 280.178H820.635L815.901 285.47V280.178H812.607V292.796H815.901V289.718L817.521 287.918L820.797 292.796H824.739ZM831.486 280.178V292.796H834.78V287.954H839.874V292.796H843.168V280.178H839.874V285.326H834.78V280.178H831.486ZM845.619 280.178V292.796H855.753V290.168H848.913V287.792L854.925 287.774V285.164H848.913V282.806H855.573V280.178H845.619ZM857.765 280.178V292.796H866.405V289.988H861.059V280.178H857.765ZM873.452 280.178H867.908V292.796H871.202V289.304H873.452C876.674 289.304 878.528 287.576 878.528 284.606C878.528 281.798 876.674 280.178 873.452 280.178ZM873.29 286.676H871.202V282.806H873.29C874.622 282.806 875.396 283.472 875.396 284.714C875.396 285.992 874.622 286.676 873.29 286.676ZM773.418 306.066L774.66 303.456C773.346 302.61 771.474 302.034 769.62 302.034C766.578 302.034 764.58 303.528 764.58 305.886C764.58 310.35 771.222 309.054 771.222 311.196C771.222 311.862 770.61 312.222 769.638 312.222C768.324 312.222 766.362 311.43 765.066 310.314L763.788 312.888C765.3 314.13 767.496 314.904 769.602 314.904C772.41 314.904 774.678 313.59 774.678 311.016C774.678 306.48 768.036 307.668 768.036 305.58C768.036 305.004 768.558 304.716 769.35 304.716C770.394 304.716 772.086 305.31 773.418 306.066ZM776.361 302.178V314.796H786.495V312.168H779.655V309.792L785.667 309.774V307.164H779.655V304.806H786.315V302.178H776.361ZM797.201 306.066L798.443 303.456C797.129 302.61 795.257 302.034 793.403 302.034C790.361 302.034 788.363 303.528 788.363 305.886C788.363 310.35 795.005 309.054 795.005 311.196C795.005 311.862 794.393 312.222 793.421 312.222C792.107 312.222 790.145 311.43 788.849 310.314L787.571 312.888C789.083 314.13 791.279 314.904 793.385 314.904C796.193 314.904 798.461 313.59 798.461 311.016C798.461 306.48 791.819 307.668 791.819 305.58C791.819 305.004 792.341 304.716 793.133 304.716C794.177 304.716 795.869 305.31 797.201 306.066ZM808.838 306.066L810.08 303.456C808.766 302.61 806.894 302.034 805.04 302.034C801.998 302.034 800 303.528 800 305.886C800 310.35 806.642 309.054 806.642 311.196C806.642 311.862 806.03 312.222 805.058 312.222C803.744 312.222 801.782 311.43 800.486 310.314L799.208 312.888C800.72 314.13 802.916 314.904 805.022 314.904C807.83 314.904 810.098 313.59 810.098 311.016C810.098 306.48 803.456 307.668 803.456 305.58C803.456 305.004 803.978 304.716 804.77 304.716C805.814 304.716 807.506 305.31 808.838 306.066ZM811.781 302.178V314.796H815.075V302.178H811.781ZM823.541 302.088C819.635 302.088 816.719 304.806 816.719 308.478C816.719 312.168 819.635 314.94 823.541 314.94C827.447 314.94 830.363 312.168 830.363 308.478C830.363 304.824 827.447 302.088 823.541 302.088ZM823.577 304.896C825.467 304.896 826.979 306.444 826.979 308.496C826.979 310.548 825.467 312.132 823.577 312.132C821.705 312.132 820.103 310.548 820.103 308.496C820.103 306.444 821.687 304.896 823.577 304.896ZM831.995 302.178V314.796H835.073V307.236L840.797 314.796H843.677V302.178H840.617V309.774L834.893 302.178H831.995ZM854.84 306.066L856.082 303.456C854.768 302.61 852.896 302.034 851.042 302.034C848 302.034 846.002 303.528 846.002 305.886C846.002 310.35 852.644 309.054 852.644 311.196C852.644 311.862 852.032 312.222 851.06 312.222C849.746 312.222 847.784 311.43 846.488 310.314L845.21 312.888C846.722 314.13 848.918 314.904 851.024 314.904C853.832 314.904 856.1 313.59 856.1 311.016C856.1 306.48 849.458 307.668 849.458 305.58C849.458 305.004 849.98 304.716 850.772 304.716C851.816 304.716 853.508 305.31 854.84 306.066Z" fill="#2577CA"/>
<rect x="756" y="167.5" width="131" height="237" rx="7.5" stroke="#A4EFFF"/>
<rect x="1045" y="117.978" width="131" height="201" rx="7.5" fill="#172353"/>
<path d="M1058.91 168.074C1058.08 168.074 1057.28 167.94 1056.51 167.674C1055.75 167.407 1055.17 167.055 1054.75 166.618L1055.22 165.706C1055.62 166.111 1056.16 166.442 1056.83 166.698C1057.5 166.943 1058.2 167.066 1058.91 167.066C1059.91 167.066 1060.67 166.884 1061.17 166.522C1061.67 166.148 1061.92 165.668 1061.92 165.082C1061.92 164.634 1061.78 164.276 1061.5 164.01C1061.24 163.743 1060.91 163.54 1060.51 163.402C1060.12 163.252 1059.57 163.092 1058.86 162.922C1058.02 162.708 1057.35 162.506 1056.85 162.314C1056.35 162.111 1055.91 161.807 1055.55 161.402C1055.2 160.996 1055.02 160.447 1055.02 159.754C1055.02 159.188 1055.17 158.676 1055.47 158.218C1055.77 157.748 1056.23 157.375 1056.85 157.098C1057.47 156.82 1058.23 156.682 1059.15 156.682C1059.79 156.682 1060.42 156.772 1061.02 156.954C1061.64 157.124 1062.18 157.364 1062.62 157.674L1062.22 158.618C1061.75 158.308 1061.25 158.079 1060.72 157.93C1060.19 157.77 1059.66 157.69 1059.15 157.69C1058.17 157.69 1057.43 157.882 1056.93 158.266C1056.44 158.639 1056.19 159.124 1056.19 159.722C1056.19 160.17 1056.33 160.532 1056.59 160.81C1056.87 161.076 1057.21 161.284 1057.62 161.434C1058.03 161.572 1058.59 161.727 1059.28 161.898C1060.1 162.1 1060.76 162.303 1061.26 162.506C1061.78 162.698 1062.21 162.996 1062.56 163.402C1062.91 163.796 1063.09 164.335 1063.09 165.018C1063.09 165.583 1062.93 166.1 1062.62 166.57C1062.33 167.028 1061.86 167.396 1061.23 167.674C1060.6 167.94 1059.83 168.074 1058.91 168.074ZM1072.69 164.986H1066.45L1065.11 167.978H1063.88L1069 156.778H1070.16L1075.28 167.978H1074.04L1072.69 164.986ZM1072.26 164.026L1069.57 158.01L1066.88 164.026H1072.26ZM1078.75 157.802H1074.81V156.778H1083.87V157.802H1079.93V167.978H1078.75V157.802ZM1090.05 168.074C1088.6 168.074 1087.47 167.658 1086.66 166.826C1085.85 165.994 1085.45 164.783 1085.45 163.194V156.778H1086.63V163.146C1086.63 164.447 1086.92 165.418 1087.51 166.058C1088.1 166.698 1088.95 167.018 1090.05 167.018C1091.17 167.018 1092.03 166.698 1092.61 166.058C1093.2 165.418 1093.49 164.447 1093.49 163.146V156.778H1094.65V163.194C1094.65 164.783 1094.24 165.994 1093.43 166.826C1092.63 167.658 1091.51 168.074 1090.05 168.074ZM1105.86 167.978L1103.3 164.378C1103.01 164.41 1102.72 164.426 1102.41 164.426H1099.4V167.978H1098.21V156.778H1102.41C1103.84 156.778 1104.96 157.119 1105.77 157.802C1106.58 158.484 1106.98 159.423 1106.98 160.618C1106.98 161.492 1106.76 162.234 1106.31 162.842C1105.87 163.439 1105.24 163.871 1104.42 164.138L1107.16 167.978H1105.86ZM1102.37 163.418C1103.48 163.418 1104.33 163.172 1104.92 162.682C1105.51 162.191 1105.8 161.503 1105.8 160.618C1105.8 159.711 1105.51 159.018 1104.92 158.538C1104.33 158.047 1103.48 157.802 1102.37 157.802H1099.4V163.418H1102.37ZM1109.78 156.778H1114.34C1115.52 156.778 1116.57 157.018 1117.47 157.498C1118.38 157.967 1119.08 158.628 1119.59 159.482C1120.09 160.324 1120.34 161.29 1120.34 162.378C1120.34 163.466 1120.09 164.436 1119.59 165.29C1119.08 166.132 1118.38 166.794 1117.47 167.274C1116.57 167.743 1115.52 167.978 1114.34 167.978H1109.78V156.778ZM1114.27 166.954C1115.25 166.954 1116.11 166.762 1116.85 166.378C1117.59 165.983 1118.16 165.444 1118.56 164.762C1118.97 164.068 1119.17 163.274 1119.17 162.378C1119.17 161.482 1118.97 160.692 1118.56 160.01C1118.16 159.316 1117.59 158.778 1116.85 158.394C1116.11 157.999 1115.25 157.802 1114.27 157.802H1110.96V166.954H1114.27ZM1129.86 164.986H1123.62L1122.28 167.978H1121.05L1126.17 156.778H1127.34L1132.46 167.978H1131.21L1129.86 164.986ZM1129.43 164.026L1126.74 158.01L1124.06 164.026H1129.43ZM1137.49 164.106V167.978H1136.32V164.106L1131.84 156.778H1133.11L1136.95 163.066L1140.79 156.778H1141.97L1137.49 164.106ZM1072.69 175.778L1069.06 186.978H1065.66L1063.52 180.162L1061.28 186.978H1057.89L1054.26 175.778H1057.52L1059.78 182.93L1062.14 175.778H1065.06L1067.31 182.994L1069.66 175.778H1072.69ZM1079.31 187.202C1078.13 187.202 1077.06 186.951 1076.11 186.45C1075.18 185.948 1074.43 185.255 1073.89 184.37C1073.36 183.484 1073.09 182.487 1073.09 181.378C1073.09 180.268 1073.36 179.271 1073.89 178.386C1074.43 177.5 1075.18 176.807 1076.11 176.306C1077.06 175.804 1078.13 175.554 1079.31 175.554C1080.5 175.554 1081.56 175.804 1082.5 176.306C1083.45 176.807 1084.19 177.5 1084.72 178.386C1085.27 179.271 1085.54 180.268 1085.54 181.378C1085.54 182.487 1085.27 183.484 1084.72 184.37C1084.19 185.255 1083.45 185.948 1082.5 186.45C1081.56 186.951 1080.5 187.202 1079.31 187.202ZM1079.31 184.578C1079.88 184.578 1080.39 184.444 1080.85 184.178C1081.31 183.911 1081.67 183.538 1081.94 183.058C1082.21 182.567 1082.34 182.007 1082.34 181.378C1082.34 180.748 1082.21 180.194 1081.94 179.714C1081.67 179.223 1081.31 178.844 1080.85 178.578C1080.39 178.311 1079.88 178.178 1079.31 178.178C1078.75 178.178 1078.24 178.311 1077.78 178.578C1077.32 178.844 1076.96 179.223 1076.69 179.714C1076.42 180.194 1076.29 180.748 1076.29 181.378C1076.29 182.007 1076.42 182.567 1076.69 183.058C1076.96 183.538 1077.32 183.911 1077.78 184.178C1078.24 184.444 1078.75 184.578 1079.31 184.578ZM1092.09 184.002H1090.37V186.978H1087.2V175.778H1092.32C1093.33 175.778 1094.21 175.948 1094.96 176.29C1095.7 176.62 1096.28 177.1 1096.69 177.73C1097.09 178.348 1097.29 179.079 1097.29 179.922C1097.29 180.732 1097.1 181.442 1096.72 182.05C1096.34 182.647 1095.81 183.116 1095.1 183.458L1097.52 186.978H1094.13L1092.09 184.002ZM1094.09 179.922C1094.09 179.399 1093.93 178.994 1093.6 178.706C1093.27 178.418 1092.78 178.274 1092.13 178.274H1090.37V181.554H1092.13C1092.78 181.554 1093.27 181.415 1093.6 181.138C1093.93 180.85 1094.09 180.444 1094.09 179.922ZM1103.36 182.914L1102.18 184.178V186.978H1099.04V175.778H1102.18V180.434L1106.51 175.778H1110L1105.43 180.738L1110.24 186.978H1106.56L1103.36 182.914ZM1114.77 187.202C1113.87 187.202 1112.99 187.09 1112.13 186.866C1111.28 186.642 1110.59 186.343 1110.05 185.97L1111.09 183.634C1111.6 183.964 1112.18 184.231 1112.84 184.434C1113.5 184.636 1114.15 184.738 1114.79 184.738C1116.01 184.738 1116.61 184.434 1116.61 183.826C1116.61 183.506 1116.44 183.271 1116.09 183.122C1115.75 182.962 1115.19 182.796 1114.42 182.626C1113.58 182.444 1112.88 182.252 1112.31 182.05C1111.75 181.836 1111.26 181.5 1110.85 181.042C1110.45 180.583 1110.25 179.964 1110.25 179.186C1110.25 178.503 1110.43 177.89 1110.81 177.346C1111.18 176.791 1111.73 176.354 1112.47 176.034C1113.22 175.714 1114.13 175.554 1115.21 175.554C1115.94 175.554 1116.67 175.639 1117.38 175.81C1118.1 175.97 1118.73 176.21 1119.27 176.53L1118.29 178.882C1117.23 178.306 1116.19 178.018 1115.19 178.018C1114.56 178.018 1114.1 178.114 1113.81 178.306C1113.53 178.487 1113.38 178.727 1113.38 179.026C1113.38 179.324 1113.55 179.548 1113.89 179.698C1114.24 179.847 1114.79 180.002 1115.54 180.162C1116.4 180.343 1117.1 180.54 1117.65 180.754C1118.22 180.956 1118.71 181.287 1119.11 181.746C1119.53 182.194 1119.73 182.807 1119.73 183.586C1119.73 184.258 1119.55 184.866 1119.17 185.41C1118.8 185.954 1118.24 186.391 1117.49 186.722C1116.75 187.042 1115.84 187.202 1114.77 187.202ZM1131.85 175.778V186.978H1128.69V182.61H1124.37V186.978H1121.2V175.778H1124.37V179.986H1128.69V175.778H1131.85ZM1139.74 187.202C1138.55 187.202 1137.49 186.951 1136.54 186.45C1135.6 185.948 1134.86 185.255 1134.31 184.37C1133.78 183.484 1133.51 182.487 1133.51 181.378C1133.51 180.268 1133.78 179.271 1134.31 178.386C1134.86 177.5 1135.6 176.807 1136.54 176.306C1137.49 175.804 1138.55 175.554 1139.74 175.554C1140.92 175.554 1141.98 175.804 1142.92 176.306C1143.87 176.807 1144.61 177.5 1145.14 178.386C1145.69 179.271 1145.96 180.268 1145.96 181.378C1145.96 182.487 1145.69 183.484 1145.14 184.37C1144.61 185.255 1143.87 185.948 1142.92 186.45C1141.98 186.951 1140.92 187.202 1139.74 187.202ZM1139.74 184.578C1140.3 184.578 1140.81 184.444 1141.27 184.178C1141.73 183.911 1142.09 183.538 1142.36 183.058C1142.63 182.567 1142.76 182.007 1142.76 181.378C1142.76 180.748 1142.63 180.194 1142.36 179.714C1142.09 179.223 1141.73 178.844 1141.27 178.578C1140.81 178.311 1140.3 178.178 1139.74 178.178C1139.17 178.178 1138.66 178.311 1138.2 178.578C1137.74 178.844 1137.38 179.223 1137.11 179.714C1136.85 180.194 1136.71 180.748 1136.71 181.378C1136.71 182.007 1136.85 182.567 1137.11 183.058C1137.38 183.538 1137.74 183.911 1138.2 184.178C1138.66 184.444 1139.17 184.578 1139.74 184.578ZM1152.74 175.778C1153.75 175.778 1154.63 175.948 1155.38 176.29C1156.13 176.62 1156.7 177.1 1157.11 177.73C1157.51 178.348 1157.72 179.079 1157.72 179.922C1157.72 180.764 1157.51 181.495 1157.11 182.114C1156.7 182.732 1156.13 183.212 1155.38 183.554C1154.63 183.884 1153.75 184.05 1152.74 184.05H1150.79V186.978H1147.62V175.778H1152.74ZM1152.55 181.554C1153.2 181.554 1153.69 181.415 1154.02 181.138C1154.35 180.85 1154.52 180.444 1154.52 179.922C1154.52 179.399 1154.35 178.994 1154.02 178.706C1153.69 178.418 1153.2 178.274 1152.55 178.274H1150.79V181.554H1152.55ZM1071.2 194.778L1067.42 205.978H1066.18L1062.9 196.426L1059.6 205.978H1058.37L1054.59 194.778H1055.81L1059.04 204.41L1062.38 194.778H1063.49L1066.78 204.458L1070.06 194.778H1071.2ZM1073.37 194.778H1074.55V205.978H1073.37V194.778ZM1080.38 195.802H1076.44V194.778H1085.5V195.802H1081.56V205.978H1080.38V195.802ZM1096.75 194.778V205.978H1095.58V200.81H1088.57V205.978H1087.39V194.778H1088.57V199.77H1095.58V194.778H1096.75ZM1067.46 213.778V224.978H1066.32V216.018L1061.92 223.554H1061.36L1056.96 216.066V224.978H1055.82V213.778H1056.8L1061.66 222.082L1066.48 213.778H1067.46ZM1079.03 223.954V224.978H1071.11V213.778H1078.79V214.802H1072.29V218.786H1078.08V219.794H1072.29V223.954H1079.03ZM1091.17 213.778V224.978H1090.19L1082.99 215.89V224.978H1081.81V213.778H1082.78L1090 222.866V213.778H1091.17ZM1097 214.802H1093.06V213.778H1102.12V214.802H1098.18V224.978H1097V214.802ZM1108.75 225.074C1107.64 225.074 1106.63 224.828 1105.73 224.338C1104.83 223.836 1104.13 223.154 1103.62 222.29C1103.11 221.426 1102.86 220.455 1102.86 219.378C1102.86 218.3 1103.11 217.33 1103.62 216.466C1104.13 215.602 1104.83 214.924 1105.73 214.434C1106.63 213.932 1107.64 213.682 1108.75 213.682C1109.86 213.682 1110.86 213.927 1111.74 214.418C1112.64 214.908 1113.34 215.591 1113.86 216.466C1114.37 217.33 1114.62 218.3 1114.62 219.378C1114.62 220.455 1114.37 221.431 1113.86 222.306C1113.34 223.17 1112.64 223.847 1111.74 224.338C1110.86 224.828 1109.86 225.074 1108.75 225.074ZM1108.75 224.018C1109.64 224.018 1110.44 223.82 1111.15 223.426C1111.87 223.02 1112.43 222.466 1112.83 221.762C1113.24 221.047 1113.44 220.252 1113.44 219.378C1113.44 218.503 1113.24 217.714 1112.83 217.01C1112.43 216.295 1111.87 215.74 1111.15 215.346C1110.44 214.94 1109.64 214.738 1108.75 214.738C1107.87 214.738 1107.06 214.94 1106.34 215.346C1105.62 215.74 1105.06 216.295 1104.64 217.01C1104.23 217.714 1104.03 218.503 1104.03 219.378C1104.03 220.252 1104.23 221.047 1104.64 221.762C1105.06 222.466 1105.62 223.02 1106.34 223.426C1107.06 223.82 1107.87 224.018 1108.75 224.018ZM1124.93 224.978L1122.37 221.378C1122.08 221.41 1121.78 221.426 1121.47 221.426H1118.46V224.978H1117.28V213.778H1121.47C1122.9 213.778 1124.02 214.119 1124.83 214.802C1125.64 215.484 1126.05 216.423 1126.05 217.618C1126.05 218.492 1125.82 219.234 1125.37 219.842C1124.94 220.439 1124.31 220.871 1123.49 221.138L1126.22 224.978H1124.93ZM1121.44 220.418C1122.55 220.418 1123.39 220.172 1123.98 219.682C1124.57 219.191 1124.86 218.503 1124.86 217.618C1124.86 216.711 1124.57 216.018 1123.98 215.538C1123.39 215.047 1122.55 214.802 1121.44 214.802H1118.46V220.418H1121.44Z" fill="#FFFDFF"/>
<rect x="1045" y="117.978" width="131" height="201" rx="7.5" stroke="#FF8C1A"/>
<rect x="120.059" y="164.5" width="107" height="240" rx="7.5" fill="#172353"/>
<path d="M140.903 203.128C140.017 203.128 139.228 202.904 138.535 202.456C137.852 201.997 137.313 201.336 136.919 200.472C136.524 199.608 136.327 198.584 136.327 197.4C136.327 196.216 136.524 195.192 136.919 194.328C137.313 193.464 137.852 192.808 138.535 192.36C139.228 191.901 140.017 191.672 140.903 191.672C141.777 191.672 142.556 191.901 143.239 192.36C143.932 192.808 144.476 193.464 144.871 194.328C145.265 195.192 145.463 196.216 145.463 197.4C145.463 198.584 145.265 199.608 144.871 200.472C144.476 201.336 143.932 201.997 143.239 202.456C142.556 202.904 141.777 203.128 140.903 203.128ZM140.903 201.704C141.799 201.704 142.513 201.336 143.047 200.6C143.591 199.864 143.863 198.797 143.863 197.4C143.863 196.003 143.591 194.936 143.047 194.2C142.513 193.464 141.799 193.096 140.903 193.096C139.996 193.096 139.271 193.464 138.727 194.2C138.193 194.936 137.927 196.003 137.927 197.4C137.927 198.797 138.193 199.864 138.727 200.6C139.271 201.336 139.996 201.704 140.903 201.704ZM151.83 196.2C152.566 196.2 153.222 196.339 153.798 196.616C154.385 196.893 154.844 197.293 155.174 197.816C155.505 198.328 155.67 198.92 155.67 199.592C155.67 200.296 155.494 200.915 155.142 201.448C154.801 201.981 154.326 202.397 153.718 202.696C153.121 202.984 152.449 203.128 151.702 203.128C150.198 203.128 149.036 202.643 148.214 201.672C147.404 200.701 146.998 199.325 146.998 197.544C146.998 196.296 147.217 195.235 147.654 194.36C148.102 193.475 148.721 192.808 149.51 192.36C150.31 191.901 151.238 191.672 152.294 191.672C152.838 191.672 153.35 191.731 153.83 191.848C154.31 191.955 154.726 192.115 155.078 192.328L154.47 193.576C153.937 193.224 153.222 193.048 152.326 193.048C151.164 193.048 150.252 193.411 149.59 194.136C148.929 194.851 148.598 195.896 148.598 197.272C148.598 197.443 148.604 197.576 148.614 197.672C148.934 197.192 149.372 196.829 149.926 196.584C150.492 196.328 151.126 196.2 151.83 196.2ZM151.638 201.832C152.374 201.832 152.972 201.635 153.43 201.24C153.889 200.845 154.118 200.317 154.118 199.656C154.118 198.995 153.884 198.472 153.414 198.088C152.956 197.693 152.337 197.496 151.558 197.496C151.057 197.496 150.609 197.592 150.214 197.784C149.83 197.976 149.526 198.237 149.302 198.568C149.089 198.899 148.982 199.267 148.982 199.672C148.982 200.067 149.084 200.429 149.286 200.76C149.5 201.08 149.804 201.341 150.198 201.544C150.604 201.736 151.084 201.832 151.638 201.832ZM157.929 196.632C157.631 196.632 157.375 196.531 157.161 196.328C156.948 196.115 156.841 195.848 156.841 195.528C156.841 195.219 156.948 194.963 157.161 194.76C157.375 194.547 157.631 194.44 157.929 194.44C158.228 194.44 158.479 194.541 158.681 194.744C158.884 194.947 158.985 195.208 158.985 195.528C158.985 195.848 158.879 196.115 158.665 196.328C158.463 196.531 158.217 196.632 157.929 196.632ZM157.929 203.096C157.631 203.096 157.375 202.995 157.161 202.792C156.948 202.579 156.841 202.312 156.841 201.992C156.841 201.683 156.948 201.427 157.161 201.224C157.375 201.011 157.631 200.904 157.929 200.904C158.228 200.904 158.479 201.005 158.681 201.208C158.884 201.411 158.985 201.672 158.985 201.992C158.985 202.312 158.879 202.579 158.665 202.792C158.463 202.995 158.217 203.096 157.929 203.096ZM164.786 196.504C165.885 196.611 166.722 196.952 167.298 197.528C167.874 198.093 168.162 198.819 168.162 199.704C168.162 200.344 168.002 200.925 167.682 201.448C167.362 201.96 166.882 202.371 166.242 202.68C165.613 202.979 164.84 203.128 163.922 203.128C163.122 203.128 162.354 203.011 161.618 202.776C160.882 202.531 160.28 202.195 159.81 201.768L160.546 200.504C160.93 200.867 161.421 201.16 162.018 201.384C162.616 201.597 163.25 201.704 163.922 201.704C164.754 201.704 165.4 201.528 165.858 201.176C166.328 200.824 166.562 200.339 166.562 199.72C166.562 199.101 166.333 198.621 165.874 198.28C165.416 197.939 164.722 197.768 163.794 197.768H162.898V196.648L165.714 193.192H160.322V191.8H167.714V192.888L164.786 196.504ZM174.231 203.128C173.345 203.128 172.556 202.904 171.863 202.456C171.18 201.997 170.641 201.336 170.247 200.472C169.852 199.608 169.655 198.584 169.655 197.4C169.655 196.216 169.852 195.192 170.247 194.328C170.641 193.464 171.18 192.808 171.863 192.36C172.556 191.901 173.345 191.672 174.231 191.672C175.105 191.672 175.884 191.901 176.567 192.36C177.26 192.808 177.804 193.464 178.199 194.328C178.593 195.192 178.791 196.216 178.791 197.4C178.791 198.584 178.593 199.608 178.199 200.472C177.804 201.336 177.26 201.997 176.567 202.456C175.884 202.904 175.105 203.128 174.231 203.128ZM174.231 201.704C175.127 201.704 175.841 201.336 176.375 200.6C176.919 199.864 177.191 198.797 177.191 197.4C177.191 196.003 176.919 194.936 176.375 194.2C175.841 193.464 175.127 193.096 174.231 193.096C173.324 193.096 172.599 193.464 172.055 194.2C171.521 194.936 171.255 196.003 171.255 197.4C171.255 198.797 171.521 199.864 172.055 200.6C172.599 201.336 173.324 201.704 174.231 201.704ZM189.903 191.8C191.354 191.8 192.495 192.147 193.327 192.84C194.159 193.533 194.575 194.488 194.575 195.704C194.575 196.92 194.159 197.875 193.327 198.568C192.495 199.261 191.354 199.608 189.903 199.608H187.135V203H185.535V191.8H189.903ZM189.855 198.216C190.869 198.216 191.642 198.003 192.175 197.576C192.709 197.139 192.975 196.515 192.975 195.704C192.975 194.893 192.709 194.275 192.175 193.848C191.642 193.411 190.869 193.192 189.855 193.192H187.135V198.216H189.855ZM207.31 203L207.294 194.84L203.246 201.64H202.51L198.462 194.888V203H196.926V191.8H198.238L202.91 199.672L207.518 191.8H208.83L208.846 203H207.31Z" fill="#D8D8D8"/>
<path d="M140.903 290.128C140.017 290.128 139.228 289.904 138.535 289.456C137.852 288.997 137.313 288.336 136.919 287.472C136.524 286.608 136.327 285.584 136.327 284.4C136.327 283.216 136.524 282.192 136.919 281.328C137.313 280.464 137.852 279.808 138.535 279.36C139.228 278.901 140.017 278.672 140.903 278.672C141.777 278.672 142.556 278.901 143.239 279.36C143.932 279.808 144.476 280.464 144.871 281.328C145.265 282.192 145.463 283.216 145.463 284.4C145.463 285.584 145.265 286.608 144.871 287.472C144.476 288.336 143.932 288.997 143.239 289.456C142.556 289.904 141.777 290.128 140.903 290.128ZM140.903 288.704C141.799 288.704 142.513 288.336 143.047 287.6C143.591 286.864 143.863 285.797 143.863 284.4C143.863 283.003 143.591 281.936 143.047 281.2C142.513 280.464 141.799 280.096 140.903 280.096C139.996 280.096 139.271 280.464 138.727 281.2C138.193 281.936 137.927 283.003 137.927 284.4C137.927 285.797 138.193 286.864 138.727 287.6C139.271 288.336 139.996 288.704 140.903 288.704ZM155.049 278.8V279.888L150.521 290H148.825L153.257 280.192H148.137V282.192H146.601V278.8H155.049ZM157.195 283.632C156.896 283.632 156.64 283.531 156.427 283.328C156.214 283.115 156.107 282.848 156.107 282.528C156.107 282.219 156.214 281.963 156.427 281.76C156.64 281.547 156.896 281.44 157.195 281.44C157.494 281.44 157.744 281.541 157.947 281.744C158.15 281.947 158.251 282.208 158.251 282.528C158.251 282.848 158.144 283.115 157.931 283.328C157.728 283.531 157.483 283.632 157.195 283.632ZM157.195 290.096C156.896 290.096 156.64 289.995 156.427 289.792C156.214 289.579 156.107 289.312 156.107 288.992C156.107 288.683 156.214 288.427 156.427 288.224C156.64 288.011 156.896 287.904 157.195 287.904C157.494 287.904 157.744 288.005 157.947 288.208C158.15 288.411 158.251 288.672 158.251 288.992C158.251 289.312 158.144 289.579 157.931 289.792C157.728 289.995 157.483 290.096 157.195 290.096ZM164.052 283.504C165.151 283.611 165.988 283.952 166.564 284.528C167.14 285.093 167.428 285.819 167.428 286.704C167.428 287.344 167.268 287.925 166.948 288.448C166.628 288.96 166.148 289.371 165.508 289.68C164.879 289.979 164.105 290.128 163.188 290.128C162.388 290.128 161.62 290.011 160.884 289.776C160.148 289.531 159.545 289.195 159.076 288.768L159.812 287.504C160.196 287.867 160.687 288.16 161.284 288.384C161.881 288.597 162.516 288.704 163.188 288.704C164.02 288.704 164.665 288.528 165.124 288.176C165.593 287.824 165.828 287.339 165.828 286.72C165.828 286.101 165.599 285.621 165.14 285.28C164.681 284.939 163.988 284.768 163.06 284.768H162.164V283.648L164.98 280.192H159.588V278.8H166.98V279.888L164.052 283.504ZM173.496 290.128C172.611 290.128 171.822 289.904 171.128 289.456C170.446 288.997 169.907 288.336 169.512 287.472C169.118 286.608 168.92 285.584 168.92 284.4C168.92 283.216 169.118 282.192 169.512 281.328C169.907 280.464 170.446 279.808 171.128 279.36C171.822 278.901 172.611 278.672 173.496 278.672C174.371 278.672 175.15 278.901 175.832 279.36C176.526 279.808 177.07 280.464 177.464 281.328C177.859 282.192 178.056 283.216 178.056 284.4C178.056 285.584 177.859 286.608 177.464 287.472C177.07 288.336 176.526 288.997 175.832 289.456C175.15 289.904 174.371 290.128 173.496 290.128ZM173.496 288.704C174.392 288.704 175.107 288.336 175.64 287.6C176.184 286.864 176.456 285.797 176.456 284.4C176.456 283.003 176.184 281.936 175.64 281.2C175.107 280.464 174.392 280.096 173.496 280.096C172.59 280.096 171.864 280.464 171.32 281.2C170.787 281.936 170.52 283.003 170.52 284.4C170.52 285.797 170.787 286.864 171.32 287.6C171.864 288.336 172.59 288.704 173.496 288.704ZM189.169 278.8C190.62 278.8 191.761 279.147 192.593 279.84C193.425 280.533 193.841 281.488 193.841 282.704C193.841 283.92 193.425 284.875 192.593 285.568C191.761 286.261 190.62 286.608 189.169 286.608H186.401V290H184.801V278.8H189.169ZM189.121 285.216C190.134 285.216 190.908 285.003 191.441 284.576C191.974 284.139 192.241 283.515 192.241 282.704C192.241 281.893 191.974 281.275 191.441 280.848C190.908 280.411 190.134 280.192 189.121 280.192H186.401V285.216H189.121ZM206.576 290L206.56 281.84L202.512 288.64H201.776L197.728 281.888V290H196.192V278.8H197.504L202.176 286.672L206.784 278.8H208.096L208.112 290H206.576Z" fill="#D8D8D8"/>
<path d="M140.903 377.128C140.017 377.128 139.228 376.904 138.535 376.456C137.852 375.997 137.313 375.336 136.919 374.472C136.524 373.608 136.327 372.584 136.327 371.4C136.327 370.216 136.524 369.192 136.919 368.328C137.313 367.464 137.852 366.808 138.535 366.36C139.228 365.901 140.017 365.672 140.903 365.672C141.777 365.672 142.556 365.901 143.239 366.36C143.932 366.808 144.476 367.464 144.871 368.328C145.265 369.192 145.463 370.216 145.463 371.4C145.463 372.584 145.265 373.608 144.871 374.472C144.476 375.336 143.932 375.997 143.239 376.456C142.556 376.904 141.777 377.128 140.903 377.128ZM140.903 375.704C141.799 375.704 142.513 375.336 143.047 374.6C143.591 373.864 143.863 372.797 143.863 371.4C143.863 370.003 143.591 368.936 143.047 368.2C142.513 367.464 141.799 367.096 140.903 367.096C139.996 367.096 139.271 367.464 138.727 368.2C138.193 368.936 137.927 370.003 137.927 371.4C137.927 372.797 138.193 373.864 138.727 374.6C139.271 375.336 139.996 375.704 140.903 375.704ZM153.846 371.128C154.486 371.373 154.977 371.725 155.318 372.184C155.66 372.643 155.83 373.192 155.83 373.832C155.83 374.504 155.649 375.091 155.286 375.592C154.924 376.083 154.406 376.461 153.734 376.728C153.062 376.995 152.273 377.128 151.366 377.128C150.47 377.128 149.686 376.995 149.014 376.728C148.353 376.461 147.841 376.083 147.478 375.592C147.116 375.091 146.934 374.504 146.934 373.832C146.934 373.192 147.1 372.643 147.43 372.184C147.772 371.725 148.262 371.373 148.902 371.128C148.39 370.883 148.001 370.557 147.734 370.152C147.468 369.747 147.334 369.267 147.334 368.712C147.334 368.093 147.5 367.555 147.83 367.096C148.172 366.637 148.646 366.285 149.254 366.04C149.862 365.795 150.566 365.672 151.366 365.672C152.177 365.672 152.886 365.795 153.494 366.04C154.113 366.285 154.588 366.637 154.918 367.096C155.26 367.555 155.43 368.093 155.43 368.712C155.43 369.256 155.292 369.736 155.014 370.152C154.748 370.557 154.358 370.883 153.846 371.128ZM151.366 366.968C150.609 366.968 150.012 367.133 149.574 367.464C149.137 367.784 148.918 368.221 148.918 368.776C148.918 369.331 149.132 369.768 149.558 370.088C149.996 370.408 150.598 370.568 151.366 370.568C152.145 370.568 152.753 370.408 153.19 370.088C153.638 369.768 153.862 369.331 153.862 368.776C153.862 368.221 153.633 367.784 153.174 367.464C152.726 367.133 152.124 366.968 151.366 366.968ZM151.366 375.832C152.252 375.832 152.95 375.651 153.462 375.288C153.974 374.915 154.23 374.413 154.23 373.784C154.23 373.165 153.974 372.68 153.462 372.328C152.95 371.965 152.252 371.784 151.366 371.784C150.481 371.784 149.788 371.965 149.286 372.328C148.785 372.68 148.534 373.165 148.534 373.784C148.534 374.413 148.785 374.915 149.286 375.288C149.788 375.651 150.481 375.832 151.366 375.832ZM158.351 370.632C158.053 370.632 157.797 370.531 157.583 370.328C157.37 370.115 157.263 369.848 157.263 369.528C157.263 369.219 157.37 368.963 157.583 368.76C157.797 368.547 158.053 368.44 158.351 368.44C158.65 368.44 158.901 368.541 159.103 368.744C159.306 368.947 159.407 369.208 159.407 369.528C159.407 369.848 159.301 370.115 159.087 370.328C158.885 370.531 158.639 370.632 158.351 370.632ZM158.351 377.096C158.053 377.096 157.797 376.995 157.583 376.792C157.37 376.579 157.263 376.312 157.263 375.992C157.263 375.683 157.37 375.427 157.583 375.224C157.797 375.011 158.053 374.904 158.351 374.904C158.65 374.904 158.901 375.005 159.103 375.208C159.306 375.411 159.407 375.672 159.407 375.992C159.407 376.312 159.301 376.579 159.087 376.792C158.885 376.995 158.639 377.096 158.351 377.096ZM165.208 370.504C166.307 370.611 167.144 370.952 167.72 371.528C168.296 372.093 168.584 372.819 168.584 373.704C168.584 374.344 168.424 374.925 168.104 375.448C167.784 375.96 167.304 376.371 166.664 376.68C166.035 376.979 165.262 377.128 164.344 377.128C163.544 377.128 162.776 377.011 162.04 376.776C161.304 376.531 160.702 376.195 160.232 375.768L160.968 374.504C161.352 374.867 161.843 375.16 162.44 375.384C163.038 375.597 163.672 375.704 164.344 375.704C165.176 375.704 165.822 375.528 166.28 375.176C166.75 374.824 166.984 374.339 166.984 373.72C166.984 373.101 166.755 372.621 166.296 372.28C165.838 371.939 165.144 371.768 164.216 371.768H163.32V370.648L166.136 367.192H160.744V365.8H168.136V366.888L165.208 370.504ZM174.653 377.128C173.767 377.128 172.978 376.904 172.285 376.456C171.602 375.997 171.063 375.336 170.669 374.472C170.274 373.608 170.077 372.584 170.077 371.4C170.077 370.216 170.274 369.192 170.669 368.328C171.063 367.464 171.602 366.808 172.285 366.36C172.978 365.901 173.767 365.672 174.653 365.672C175.527 365.672 176.306 365.901 176.989 366.36C177.682 366.808 178.226 367.464 178.621 368.328C179.015 369.192 179.213 370.216 179.213 371.4C179.213 372.584 179.015 373.608 178.621 374.472C178.226 375.336 177.682 375.997 176.989 376.456C176.306 376.904 175.527 377.128 174.653 377.128ZM174.653 375.704C175.549 375.704 176.263 375.336 176.797 374.6C177.341 373.864 177.613 372.797 177.613 371.4C177.613 370.003 177.341 368.936 176.797 368.2C176.263 367.464 175.549 367.096 174.653 367.096C173.746 367.096 173.021 367.464 172.477 368.2C171.943 368.936 171.677 370.003 171.677 371.4C171.677 372.797 171.943 373.864 172.477 374.6C173.021 375.336 173.746 375.704 174.653 375.704ZM190.325 365.8C191.776 365.8 192.917 366.147 193.749 366.84C194.581 367.533 194.997 368.488 194.997 369.704C194.997 370.92 194.581 371.875 193.749 372.568C192.917 373.261 191.776 373.608 190.325 373.608H187.557V377H185.957V365.8H190.325ZM190.277 372.216C191.291 372.216 192.064 372.003 192.597 371.576C193.131 371.139 193.397 370.515 193.397 369.704C193.397 368.893 193.131 368.275 192.597 367.848C192.064 367.411 191.291 367.192 190.277 367.192H187.557V372.216H190.277ZM207.732 377L207.716 368.84L203.668 375.64H202.932L198.884 368.888V377H197.348V365.8H198.66L203.332 373.672L207.94 365.8H209.252L209.268 377H207.732Z" fill="#D8D8D8"/>
<rect x="120.059" y="164.5" width="107" height="240" rx="7.5" stroke="#7E7ABC"/>
<defs>
<filter id="filter0_d_3589_6905" x="277.5" y="165" width="132" height="240" filterUnits="userSpaceOnUse" color-interpolation-filters="sRGB">
<feFlood flood-opacity="0" result="BackgroundImageFix"/>
<feColorMatrix in="SourceAlpha" type="matrix" values="0 0 0 0 0 0 0 0 0 0 0 0 0 0 0 0 0 0 127 0" result="hardAlpha"/>
<feOffset dy="-16"/>
<feComposite in2="hardAlpha" operator="out"/>
<feColorMatrix type="matrix" values="0 0 0 0 0.247059 0 0 0 0 0.517647 0 0 0 0 0.807843 0 0 0 1 0"/>
<feBlend mode="normal" in2="BackgroundImageFix" result="effect1_dropShadow_3589_6905"/>
<feBlend mode="normal" in="SourceGraphic" in2="effect1_dropShadow_3589_6905" result="shape"/>
</filter>
<filter id="filter1_d_3589_6905" x="594.5" y="165" width="132" height="240" filterUnits="userSpaceOnUse" color-interpolation-filters="sRGB">
<feFlood flood-opacity="0" result="BackgroundImageFix"/>
<feColorMatrix in="SourceAlpha" type="matrix" values="0 0 0 0 0 0 0 0 0 0 0 0 0 0 0 0 0 0 127 0" result="hardAlpha"/>
<feOffset dy="-16"/>
<feComposite in2="hardAlpha" operator="out"/>
<feColorMatrix type="matrix" values="0 0 0 0 0.247059 0 0 0 0 0.517647 0 0 0 0 0.807843 0 0 0 1 0"/>
<feBlend mode="normal" in2="BackgroundImageFix" result="effect1_dropShadow_3589_6905"/>
<feBlend mode="normal" in="SourceGraphic" in2="effect1_dropShadow_3589_6905" result="shape"/>
</filter>
<linearGradient id="paint0_linear_3589_6905" x1="719.5" y1="0" x2="719.5" y2="494" gradientUnits="userSpaceOnUse">
<stop stop-color="white"/>
<stop offset="1" stop-color="#E3E3E3"/>
</linearGradient>
<linearGradient id="paint1_linear_3589_6905" x1="343.5" y1="181" x2="343.5" y2="405" gradientUnits="userSpaceOnUse">
<stop stop-color="#00FFE0"/>
<stop offset="0.479167" stop-color="#00D1FF"/>
<stop offset="1" stop-color="#FA00FF"/>
</linearGradient>
<linearGradient id="paint2_linear_3589_6905" x1="660.5" y1="181" x2="660.5" y2="405" gradientUnits="userSpaceOnUse">
<stop stop-color="#00FFE0"/>
<stop offset="0.479167" stop-color="#00D1FF"/>
<stop offset="1" stop-color="#FA00FF"/>
</linearGradient>
</defs>
</svg>
