<svg width="25" height="25" viewBox="0 0 25 25" fill="none" xmlns="http://www.w3.org/2000/svg">
<mask id="mask0_4334_8592" style="mask-type:alpha" maskUnits="userSpaceOnUse" x="14" y="2" width="10" height="10">
<path fill-rule="evenodd" clip-rule="evenodd" d="M14.8359 2.67383H23.4467V11.2783H14.8359V2.67383Z" fill="white"/>
</mask>
<g mask="url(#mask0_4334_8592)">
<path fill-rule="evenodd" clip-rule="evenodd" d="M22.6901 11.2783C22.3099 11.2783 21.9832 10.993 21.9398 10.6067C21.5577 7.20238 18.9136 4.56036 15.5082 4.18221C15.0938 4.13582 14.7943 3.76272 14.8407 3.34725C14.8861 2.9328 15.2561 2.62725 15.6756 2.67969C19.7879 3.1365 22.9815 6.32608 23.4424 10.4373C23.4887 10.8528 23.1903 11.2269 22.7758 11.2733C22.7476 11.2763 22.7183 11.2783 22.6901 11.2783Z" fill="#123D7E"/>
</g>
<path fill-rule="evenodd" clip-rule="evenodd" d="M19.1225 11.2893C18.7676 11.2893 18.4519 11.0392 18.3813 10.6782C18.0909 9.18577 16.9403 8.03518 15.4499 7.74577C15.0395 7.6661 14.7723 7.2698 14.8519 6.85938C14.9316 6.44896 15.335 6.18072 15.7383 6.2614C17.8368 6.66879 19.4573 8.28829 19.8657 10.3878C19.9454 10.7992 19.6782 11.1955 19.2687 11.2752C19.2193 11.2843 19.1709 11.2893 19.1225 11.2893Z" fill="#123D7E"/>
<mask id="mask1_4334_8592" style="mask-type:alpha" maskUnits="userSpaceOnUse" x="2" y="2" width="22" height="22">
<path fill-rule="evenodd" clip-rule="evenodd" d="M2.37891 2.67383H23.0514V23.3466H2.37891V2.67383Z" fill="white"/>
</mask>
<g mask="url(#mask1_4334_8592)">
<path fill-rule="evenodd" clip-rule="evenodd" d="M4.75778 5.76055C4.7598 5.76055 4.70938 5.81299 4.64585 5.87551C4.40181 6.11248 3.8966 6.60559 3.89156 7.63719C3.88349 9.08021 4.8324 11.7595 9.40148 16.3276C13.9484 20.8735 16.6237 21.8335 18.0707 21.8335H18.0919C19.1235 21.8274 19.6156 21.3222 19.8526 21.0792C19.9242 21.0056 19.9827 20.9501 20.024 20.9169C21.0294 19.9054 21.5437 19.1542 21.5386 18.6711C21.5326 18.179 20.9205 17.5982 20.0744 16.7925C19.8052 16.5374 19.5127 16.258 19.2042 15.9495C18.4035 15.1518 18.0092 15.2879 17.1369 15.5945C15.9319 16.017 14.2811 16.5958 11.7087 14.0214C9.13526 11.449 9.71207 9.7982 10.1326 8.59215C10.4371 7.72089 10.5763 7.32458 9.7766 6.52391C9.464 6.21131 9.18265 5.91484 8.9235 5.64257C8.12282 4.80156 7.54501 4.19349 7.05593 4.18643H7.04786C6.56484 4.18643 5.81459 4.70274 4.75274 5.76458C4.75576 5.76156 4.75677 5.76055 4.75778 5.76055ZM18.0708 23.3466C15.5578 23.3466 12.2815 21.346 8.3326 17.3981C4.36756 13.434 2.36387 10.1477 2.37899 7.62967C2.38807 5.9658 3.26034 5.1137 3.58807 4.79404C3.60521 4.77286 3.6637 4.71538 3.68387 4.69521C5.13092 3.24815 6.12521 2.6532 7.07513 2.67437C8.20151 2.6895 9.0042 3.53353 10.0197 4.60143C10.2708 4.86462 10.542 5.15202 10.8455 5.45454C12.3168 6.92681 11.8983 8.12782 11.5605 9.09185C11.1934 10.1436 10.8758 11.0512 12.7776 12.953C14.6795 14.8549 15.5861 14.5372 16.6368 14.1671C17.6018 13.8303 18.7998 13.4088 20.2741 14.8811C20.5736 15.1806 20.856 15.4488 21.1182 15.6979C22.1901 16.7184 23.0371 17.5241 23.0513 18.6535C23.0624 19.6156 22.4775 20.5977 21.0334 22.0418L20.3941 21.6082L20.9356 22.1355C20.616 22.4633 19.7659 23.3366 18.101 23.3466H18.0708Z" fill="#123D7E"/>
</g>
</svg>
