<svg width="19" height="18" viewBox="0 0 19 18" fill="none" xmlns="http://www.w3.org/2000/svg">
<path d="M13.623 0.209961H5.3865C2.166 0.209961 0 2.30197 0 5.41361V12.595C0 15.6978 2.166 17.7899 5.3865 17.7899H13.623C16.8435 17.7899 19 15.6978 19 12.595V5.41361C19 2.30197 16.8435 0.209961 13.623 0.209961Z" fill="black"/>
<path d="M13.4702 11.1674L11.1275 9.00104L13.4689 6.83467C13.9192 6.41919 13.9192 5.74296 13.4689 5.32748C13.0185 4.90834 12.2903 4.90956 11.8399 5.32626L9.49723 7.49262L7.15455 5.32382C6.70418 4.90712 5.97465 4.90956 5.52429 5.32382C5.07524 5.74052 5.07524 6.41675 5.52429 6.83223L7.86828 9.00104L5.52955 11.1637C5.07919 11.5804 5.07919 12.2567 5.52955 12.6709C5.75473 12.8805 6.04839 12.9841 6.34337 12.9841C6.63966 12.9841 6.93332 12.8805 7.1585 12.6722L9.49723 10.5082L11.8412 12.6758C12.0664 12.8842 12.3601 12.9877 12.655 12.9877C12.95 12.9877 13.245 12.8829 13.4702 12.6758C13.9205 12.2591 13.9205 11.5841 13.4702 11.1674Z" fill="white"/>
</svg>
