<svg width="24" height="24" viewBox="0 0 24 24" fill="none" xmlns="http://www.w3.org/2000/svg">
<g id="Iconly/Bulk/Tick Square">
<g id="Group 17803">
<circle id="Ellipse 6009" cx="11.75" cy="11.75" r="9.75" fill="#FFC121"/>
<g id="Frame 17716">
<g id="Group 17802">
<g id="Union">
<mask id="path-2-inside-1_429:5504" fill="white">
<path fill-rule="evenodd" clip-rule="evenodd" d="M7.35798 14.1148C6.88067 14.5921 6.88067 15.366 7.35798 15.8433C7.83529 16.3206 8.60916 16.3206 9.08646 15.8433L11.4654 13.4643L14.1159 16.1147C14.5932 16.5921 15.367 16.5921 15.8443 16.1147C16.3216 15.6374 16.3216 14.8636 15.8443 14.3863L13.1939 11.7358L15.8433 9.08646C16.3206 8.60916 16.3206 7.83529 15.8433 7.35798C15.366 6.88067 14.5921 6.88067 14.1148 7.35798L11.4654 10.0073L9.08754 7.62946C8.61024 7.15216 7.83637 7.15216 7.35906 7.62946C6.88175 8.10677 6.88175 8.88064 7.35906 9.35795L9.73694 11.7358L7.35798 14.1148Z"/>
</mask>
<path fill-rule="evenodd" clip-rule="evenodd" d="M7.35798 14.1148C6.88067 14.5921 6.88067 15.366 7.35798 15.8433C7.83529 16.3206 8.60916 16.3206 9.08646 15.8433L11.4654 13.4643L14.1159 16.1147C14.5932 16.5921 15.367 16.5921 15.8443 16.1147C16.3216 15.6374 16.3216 14.8636 15.8443 14.3863L13.1939 11.7358L15.8433 9.08646C16.3206 8.60916 16.3206 7.83529 15.8433 7.35798C15.366 6.88067 14.5921 6.88067 14.1148 7.35798L11.4654 10.0073L9.08754 7.62946C8.61024 7.15216 7.83637 7.15216 7.35906 7.62946C6.88175 8.10677 6.88175 8.88064 7.35906 9.35795L9.73694 11.7358L7.35798 14.1148Z" fill="#033A70"/>
<path d="M7.35798 15.8433L7.4994 15.7018H7.4994L7.35798 15.8433ZM7.35798 14.1148L7.4994 14.2562L7.35798 14.1148ZM9.08646 15.8433L9.22789 15.9847L9.08646 15.8433ZM11.4654 13.4643L11.6068 13.3229L11.4654 13.1815L11.324 13.3229L11.4654 13.4643ZM14.1159 16.1147L13.9744 16.2562L14.1159 16.1147ZM15.8443 14.3863L15.7029 14.5277L15.8443 14.3863ZM13.1939 11.7358L13.0525 11.5944L12.9111 11.7358L13.0525 11.8772L13.1939 11.7358ZM15.8433 9.08646L15.7018 8.94504L15.8433 9.08646ZM15.8433 7.35798L15.7018 7.4994L15.8433 7.35798ZM14.1148 7.35798L13.9734 7.21656L14.1148 7.35798ZM11.4654 10.0073L11.324 10.1488L11.4654 10.2902L11.6068 10.1488L11.4654 10.0073ZM9.08754 7.62946L8.94612 7.77089V7.77089L9.08754 7.62946ZM7.35906 7.62946L7.21764 7.48804L7.21764 7.48804L7.35906 7.62946ZM7.35906 9.35795L7.50048 9.21653L7.35906 9.35795ZM9.73694 11.7358L9.87836 11.8772L10.0198 11.7358L9.87836 11.5944L9.73694 11.7358ZM7.4994 15.7018C7.1002 15.3026 7.1002 14.6554 7.4994 14.2562L7.21656 13.9734C6.66115 14.5288 6.66115 15.4293 7.21656 15.9847L7.4994 15.7018ZM8.94504 15.7018C8.54584 16.101 7.8986 16.101 7.4994 15.7018L7.21656 15.9847C7.77197 16.5401 8.67247 16.5401 9.22789 15.9847L8.94504 15.7018ZM11.324 13.3229L8.94504 15.7018L9.22789 15.9847L11.6068 13.6057L11.324 13.3229ZM11.324 13.6057L13.9744 16.2562L14.2573 15.9733L11.6068 13.3229L11.324 13.6057ZM13.9744 16.2562C14.5298 16.8116 15.4304 16.8116 15.9858 16.2562L15.7029 15.9733C15.3037 16.3725 14.6565 16.3725 14.2573 15.9733L13.9744 16.2562ZM15.9858 16.2562C16.5412 15.7008 16.5412 14.8003 15.9858 14.2448L15.7029 14.5277C16.1021 14.9269 16.1021 15.5741 15.7029 15.9733L15.9858 16.2562ZM15.9858 14.2448L13.3353 11.5944L13.0525 11.8772L15.7029 14.5277L15.9858 14.2448ZM15.7018 8.94504L13.0525 11.5944L13.3353 11.8772L15.9847 9.22789L15.7018 8.94504ZM15.7018 7.4994C16.101 7.8986 16.101 8.54584 15.7018 8.94504L15.9847 9.22789C16.5401 8.67247 16.5401 7.77197 15.9847 7.21656L15.7018 7.4994ZM14.2562 7.4994C14.6554 7.1002 15.3026 7.1002 15.7018 7.4994L15.9847 7.21656C15.4293 6.66115 14.5288 6.66115 13.9734 7.21656L14.2562 7.4994ZM11.6068 10.1488L14.2562 7.4994L13.9734 7.21656L11.324 9.86592L11.6068 10.1488ZM11.6068 9.86592L9.22896 7.48804L8.94612 7.77089L11.324 10.1488L11.6068 9.86592ZM9.22896 7.48804C8.67355 6.93263 7.77305 6.93263 7.21764 7.48804L7.50048 7.77089C7.89968 7.37168 8.54692 7.37168 8.94612 7.77089L9.22896 7.48804ZM7.21764 7.48804C6.66223 8.04346 6.66223 8.94396 7.21764 9.49937L7.50048 9.21653C7.10128 8.81732 7.10128 8.17009 7.50048 7.77089L7.21764 7.48804ZM7.21764 9.49937L9.59551 11.8772L9.87836 11.5944L7.50048 9.21653L7.21764 9.49937ZM7.4994 14.2562L9.87836 11.8772L9.59551 11.5944L7.21656 13.9734L7.4994 14.2562Z" fill="#FFC121" mask="url(#path-2-inside-1_429:5504)"/>
</g>
</g>
</g>
</g>
</g>
</svg>
