<svg width="155" height="155" viewBox="0 0 155 155" fill="none" xmlns="http://www.w3.org/2000/svg">
<g filter="url(#filter0_d_4304_8771)">
<path d="M123.399 117.44C148.868 91.9716 148.868 50.6794 123.399 25.2111C97.9301 -0.257204 56.6369 -0.257208 31.1681 25.2111C5.69919 50.6793 5.69919 91.9716 31.1681 117.44C56.6369 142.908 97.9301 142.908 123.399 117.44Z" fill="url(#paint0_linear_4304_8771)"/>
</g>
<path d="M81.1049 56.422H68.8348C68.4793 56.422 68.1273 56.4921 67.7989 56.6281C67.4705 56.7642 67.1722 56.9637 66.9209 57.2151C66.6696 57.4665 66.4703 57.765 66.3345 58.0934C66.1986 58.4219 66.1287 58.7739 66.1289 59.1294V86.822C66.1288 86.9947 66.1811 87.1634 66.2788 87.3058C66.3765 87.4482 66.5151 87.5577 66.6763 87.6197C66.8375 87.6818 67.0137 87.6935 67.1816 87.6534C67.3496 87.6133 67.5015 87.5232 67.6173 87.395L75.5429 78.636C75.7031 78.4587 75.8988 78.3171 76.1172 78.2202C76.3357 78.1233 76.572 78.0733 76.811 78.0734H81.4651C82.9037 78.0732 84.3279 77.7863 85.6543 77.2294C86.9808 76.6726 88.183 75.8569 89.1905 74.83C90.1981 73.8032 90.9909 72.5858 91.5226 71.249C92.0543 69.9122 92.3141 68.4829 92.287 67.0445C92.1729 64.1666 90.9408 61.4467 88.8526 59.463C86.7644 57.4793 83.9849 56.3884 81.1049 56.422Z" stroke="white" stroke-width="2" stroke-linecap="round" stroke-linejoin="round"/>
<path d="M77.5 102.956C95.1731 102.956 109.5 88.6292 109.5 70.9561C109.5 53.2829 95.1731 38.9561 77.5 38.9561C59.8269 38.9561 45.5 53.2829 45.5 70.9561C45.5 88.6292 59.8269 102.956 77.5 102.956Z" stroke="white" stroke-width="2" stroke-linecap="round" stroke-linejoin="round"/>
<path d="M50.0371 54.5213C51.0109 53.4591 52.1952 52.6112 53.5146 52.0319C54.8341 51.4525 56.2597 51.1542 57.7007 51.1561C62.6876 51.1488 67.4923 53.0303 71.1482 56.4219M84.6343 39.7537C85.9476 40.3506 87.122 41.2149 88.0825 42.2912C89.043 43.3676 89.7685 44.6323 90.2127 46.0048C91.7255 50.6359 91.471 55.6629 89.4983 60.1176M109.377 68.1235C109.212 69.5525 108.752 70.9316 108.025 72.1733C107.299 73.4149 106.322 74.492 105.157 75.3362C102.328 77.3943 99.003 78.6655 95.522 79.0203C92.0409 79.3751 88.5281 78.8008 85.3413 77.3559M90.0758 100.391C88.6613 100.681 87.2018 100.673 85.7907 100.367C84.3796 100.06 83.0479 99.4631 81.8808 98.6128C79.0697 96.5722 76.8451 93.8276 75.4306 90.6548C74.0162 87.4821 73.4616 83.993 73.8228 80.538M53.374 91.9791C52.6686 90.7264 52.2312 89.3408 52.0895 87.9101C51.9478 86.4794 52.1049 85.0348 52.551 83.6681C53.562 80.55 55.332 77.732 57.7019 75.4674C60.0717 73.2028 62.9671 71.5625 66.1279 70.6939" stroke="white" stroke-width="2" stroke-linecap="round" stroke-linejoin="round"/>
<defs>
<filter id="filter0_d_4304_8771" x="0.0664062" y="0.109863" width="154.434" height="154.431" filterUnits="userSpaceOnUse" color-interpolation-filters="sRGB">
<feFlood flood-opacity="0" result="BackgroundImageFix"/>
<feColorMatrix in="SourceAlpha" type="matrix" values="0 0 0 0 0 0 0 0 0 0 0 0 0 0 0 0 0 0 127 0" result="hardAlpha"/>
<feOffset dy="6"/>
<feGaussianBlur stdDeviation="6"/>
<feComposite in2="hardAlpha" operator="out"/>
<feColorMatrix type="matrix" values="0 0 0 0 0 0 0 0 0 0 0 0 0 0 0 0 0 0 0.25 0"/>
<feBlend mode="normal" in2="BackgroundImageFix" result="effect1_dropShadow_4304_8771"/>
<feBlend mode="normal" in="SourceGraphic" in2="effect1_dropShadow_4304_8771" result="shape"/>
</filter>
<linearGradient id="paint0_linear_4304_8771" x1="165.224" y1="-17.4692" x2="-53.6757" y2="150.78" gradientUnits="userSpaceOnUse">
<stop stop-color="#EF5DA8"/>
<stop offset="1" stop-color="#FF8800"/>
</linearGradient>
</defs>
</svg>
