<svg width="155" height="155" viewBox="0 0 155 155" fill="none" xmlns="http://www.w3.org/2000/svg">
<g filter="url(#filter0_d_4304_8759)">
<path d="M123.399 117.44C148.868 91.9716 148.868 50.6794 123.399 25.2111C97.9301 -0.257204 56.6369 -0.257208 31.1681 25.2111C5.69919 50.6793 5.69919 91.9716 31.1681 117.44C56.6369 142.908 97.9301 142.908 123.399 117.44Z" fill="url(#paint0_linear_4304_8759)"/>
</g>
<path d="M52.3 40.9561C50.4965 40.9561 48.7669 41.6748 47.4917 42.9543C46.2164 44.2337 45.5 45.969 45.5 47.7784V62.3028C45.6331 62.2937 45.7666 62.2894 45.9 62.29H49.5V47.7784C49.5 46.2277 50.7544 44.9692 52.3 44.9692H102.7C104.247 44.9692 105.5 46.2277 105.5 47.7784V62.29H109.1C109.234 62.29 109.367 62.2932 109.5 62.3028V47.7784C109.5 45.969 108.784 44.2337 107.508 42.9543C106.233 41.6748 104.503 40.9561 102.7 40.9561H52.3ZM45.5 85.5021V74.315C45.6328 74.3247 45.7656 74.3295 45.9 74.3295H49.5V85.5021C49.5 87.0544 50.7544 88.3113 52.3 88.3113H102.7C103.443 88.3113 104.155 88.0154 104.68 87.4885C105.205 86.9617 105.5 86.2472 105.5 85.5021V74.3295H109.1C109.234 74.3295 109.367 74.3247 109.5 74.315V85.5021C109.5 87.3115 108.784 89.0468 107.508 90.3262C106.233 91.6057 104.503 92.3245 102.7 92.3245H88.7V97.9429H93.1C93.6304 97.9429 94.1391 98.1543 94.5142 98.5306C94.8893 98.9069 95.1 99.4173 95.1 99.9495C95.1 100.482 94.8893 100.992 94.5142 101.368C94.1391 101.745 93.6304 101.956 93.1 101.956H61.9C61.3696 101.956 60.8609 101.745 60.4858 101.368C60.1107 100.992 59.9 100.482 59.9 99.9495C59.9 99.4173 60.1107 98.9069 60.4858 98.5306C60.8609 98.1543 61.3696 97.9429 61.9 97.9429H66.3V92.3245H52.3C50.4965 92.3245 48.7669 91.6057 47.4917 90.3262C46.2164 89.0468 45.5 87.3115 45.5 85.5021ZM84.7 92.3245H70.3V97.9429H84.7V92.3245ZM69.404 50.3757C69.276 49.9766 69.0267 49.6278 68.691 49.3781C68.3552 49.1285 67.95 48.9906 67.5322 48.9839C67.1144 48.9771 66.7049 49.1019 66.3614 49.3406C66.0179 49.5793 65.7575 49.92 65.6168 50.3147L59.8088 66.6403H47.5C46.9696 66.6403 46.4609 66.8517 46.0858 67.228C45.7107 67.6043 45.5 68.1147 45.5 68.6468C45.5 69.179 45.7107 69.6894 46.0858 70.0657C46.4609 70.442 46.9696 70.6534 47.5 70.6534H61.2184C62.0632 70.6534 62.8184 70.1205 63.1016 69.3211L67.3976 57.2447L75.596 82.9016C75.7186 83.2858 75.9538 83.6241 76.2709 83.8722C76.588 84.1203 76.9723 84.2667 77.3736 84.2924C77.7749 84.318 78.1746 84.2217 78.5206 84.016C78.8665 83.8103 79.1426 83.5047 79.3128 83.1392L88.6088 63.1536L91.2456 69.4254C91.5592 70.1686 92.2856 70.6518 93.0888 70.6518H107.5C108.03 70.6518 108.539 70.4404 108.914 70.0641C109.289 69.6878 109.5 69.1774 109.5 68.6452C109.5 68.1131 109.289 67.6027 108.914 67.2264C108.539 66.8501 108.03 66.6387 107.5 66.6387H94.4152L90.5432 57.4309C90.393 57.0729 90.1424 56.7663 89.8218 56.5484C89.5013 56.3305 89.1247 56.2107 88.7376 56.2034C88.3505 56.196 87.9696 56.3016 87.6411 56.5073C87.3127 56.7129 87.0508 57.0098 86.8872 57.3618L77.8472 76.8016L69.404 50.3741V50.3757Z" fill="white"/>
<defs>
<filter id="filter0_d_4304_8759" x="0.0664062" y="0.109863" width="154.434" height="154.431" filterUnits="userSpaceOnUse" color-interpolation-filters="sRGB">
<feFlood flood-opacity="0" result="BackgroundImageFix"/>
<feColorMatrix in="SourceAlpha" type="matrix" values="0 0 0 0 0 0 0 0 0 0 0 0 0 0 0 0 0 0 127 0" result="hardAlpha"/>
<feOffset dy="6"/>
<feGaussianBlur stdDeviation="6"/>
<feComposite in2="hardAlpha" operator="out"/>
<feColorMatrix type="matrix" values="0 0 0 0 0 0 0 0 0 0 0 0 0 0 0 0 0 0 0.25 0"/>
<feBlend mode="normal" in2="BackgroundImageFix" result="effect1_dropShadow_4304_8759"/>
<feBlend mode="normal" in="SourceGraphic" in2="effect1_dropShadow_4304_8759" result="shape"/>
</filter>
<linearGradient id="paint0_linear_4304_8759" x1="165.224" y1="-17.4692" x2="-53.6757" y2="150.78" gradientUnits="userSpaceOnUse">
<stop stop-color="#EF5DA8"/>
<stop offset="1" stop-color="#FF8800"/>
</linearGradient>
</defs>
</svg>
