<svg width="155" height="155" viewBox="0 0 155 155" fill="none" xmlns="http://www.w3.org/2000/svg">
<g filter="url(#filter0_d_4304_8699)">
<path d="M123.399 117.594C148.868 92.1254 148.868 50.8332 123.399 25.3649C97.9301 -0.103395 56.6369 -0.103399 31.1681 25.3649C5.69919 50.8332 5.69919 92.1254 31.1681 117.594C56.6369 143.062 97.9301 143.062 123.399 117.594Z" fill="url(#paint0_linear_4304_8699)"/>
</g>
<g clip-path="url(#clip0_4304_8699)">
<path d="M109.946 50.321H65.5096C62.4419 50.321 59.9551 52.8924 59.9551 56.0643V84.7805C59.9551 87.9524 62.4419 90.5237 65.5096 90.5237H109.946C113.013 90.5237 115.5 87.9524 115.5 84.7805V56.0643C115.5 52.8924 113.013 50.321 109.946 50.321Z" stroke="white" stroke-width="1.86368" stroke-linecap="round" stroke-linejoin="round"/>
<path d="M98.9092 90.5239V44.8616C98.9092 43.3478 98.3202 41.896 97.2718 40.8256C96.2233 39.7552 94.8014 39.1538 93.3186 39.1538H82.1375C80.6547 39.1538 79.2328 39.7552 78.1843 40.8256C77.1359 41.896 76.5469 43.3478 76.5469 44.8616V90.5239" stroke="white" stroke-width="1.86368" stroke-linecap="round" stroke-linejoin="round"/>
<path d="M42.7027 85.5542C42.7027 84.6149 42.4329 83.6968 41.9273 82.9158C41.4217 82.1348 40.7031 81.5261 39.8624 81.1667C39.0216 80.8072 38.0965 80.7132 37.2039 80.8964C36.3114 81.0797 35.4916 81.532 34.8481 82.1961C34.2046 82.8603 33.7664 83.7065 33.5888 84.6277C33.4113 85.549 33.5024 86.5038 33.8507 87.3716C34.1989 88.2394 34.7887 88.9811 35.5453 89.5029C36.302 90.0247 37.1916 90.3033 38.1016 90.3033C39.3207 90.2994 40.4888 89.7977 41.3509 88.908C42.213 88.0182 42.6989 86.8125 42.7027 85.5542ZM34.6507 85.5542C34.6507 84.8498 34.8531 84.1611 35.2323 83.5754C35.6115 82.9897 36.1504 82.5331 36.781 82.2636C37.4116 81.994 38.1054 81.9234 38.7748 82.0609C39.4442 82.1983 40.0591 82.5375 40.5417 83.0357C41.0243 83.5338 41.353 84.1684 41.4861 84.8594C41.6193 85.5503 41.5509 86.2664 41.2898 86.9173C41.0286 87.5681 40.5863 88.1244 40.0188 88.5157C39.4513 88.9071 38.7841 89.116 38.1016 89.116C37.1875 89.1121 36.312 88.7356 35.6656 88.0685C35.0193 87.4013 34.6545 86.4977 34.6507 85.5542ZM49.4319 80.9833L51.905 83.521L54.3781 80.9833C54.4889 80.8975 54.6259 80.8559 54.764 80.866C54.9021 80.8762 55.032 80.9374 55.1299 81.0384C55.2278 81.1395 55.2871 81.2736 55.2969 81.4161C55.3067 81.5586 55.2664 81.7 55.1833 81.8143L52.7246 84.367L55.1833 86.9196C55.2664 87.0339 55.3067 87.1753 55.2969 87.3178C55.2871 87.4604 55.2278 87.5945 55.1299 87.6955C55.032 87.7966 54.9021 87.8578 54.764 87.8679C54.6259 87.878 54.4889 87.8364 54.3781 87.7507L51.905 85.2129L49.4319 87.7507C49.3796 87.8063 49.3171 87.8506 49.2479 87.8808C49.1787 87.911 49.1044 87.9265 49.0293 87.9265C48.9542 87.9265 48.8799 87.911 48.8107 87.8808C48.7416 87.8506 48.679 87.8063 48.6267 87.7507C48.5728 87.6967 48.5299 87.6321 48.5006 87.5607C48.4714 87.4893 48.4563 87.4126 48.4563 87.3351C48.4563 87.2576 48.4714 87.1809 48.5006 87.1095C48.5299 87.0381 48.5728 86.9735 48.6267 86.9196L51.0854 84.367L48.6267 81.8143C48.5728 81.7604 48.5299 81.6958 48.5006 81.6244C48.4714 81.553 48.4563 81.4763 48.4563 81.3988C48.4563 81.3213 48.4714 81.2446 48.5006 81.1732C48.5299 81.1018 48.5728 81.0372 48.6267 80.9833C48.679 80.9276 48.7416 80.8834 48.8107 80.8532C48.8799 80.8229 48.9542 80.8074 49.0293 80.8074C49.1044 80.8074 49.1787 80.8229 49.2479 80.8532C49.3171 80.8834 49.3796 80.9276 49.4319 80.9833ZM35.6285 107.934C35.5762 107.99 35.5136 108.034 35.4445 108.064C35.3753 108.094 35.301 108.11 35.2259 108.11C35.1508 108.11 35.0764 108.094 35.0073 108.064C34.9381 108.034 34.8755 107.99 34.8233 107.934C34.7693 107.88 34.7265 107.816 34.6972 107.744C34.6679 107.673 34.6528 107.596 34.6528 107.519C34.6528 107.441 34.6679 107.364 34.6972 107.293C34.7265 107.222 34.7693 107.157 34.8233 107.103L37.282 104.55L34.8233 101.998C34.7693 101.944 34.7265 101.879 34.6972 101.808C34.6679 101.736 34.6528 101.66 34.6528 101.582C34.6528 101.505 34.6679 101.428 34.6972 101.357C34.7265 101.285 34.7693 101.221 34.8233 101.167C34.8755 101.111 34.9381 101.067 35.0073 101.037C35.0764 101.006 35.1508 100.991 35.2259 100.991C35.301 100.991 35.3753 101.006 35.4445 101.037C35.5136 101.067 35.5762 101.111 35.6285 101.167L38.1016 103.704L40.5747 101.167C40.6855 101.081 40.8225 101.039 40.9606 101.049C41.0987 101.06 41.2286 101.121 41.3265 101.222C41.4244 101.323 41.4837 101.457 41.4935 101.6C41.5033 101.742 41.463 101.883 41.3799 101.998L38.9212 104.55L41.3799 107.103C41.463 107.217 41.5033 107.359 41.4935 107.501C41.4837 107.644 41.4244 107.778 41.3265 107.879C41.2286 107.98 41.0987 108.041 40.9606 108.051C40.8225 108.061 40.6855 108.02 40.5747 107.934L38.1016 105.396L35.6285 107.934ZM49.0581 101.078C46.0386 100.217 43.436 97.5604 42.7171 94.6071L42.7171 94.4587C42.7187 94.327 42.7615 94.1994 42.8393 94.0951C42.9171 93.9907 43.0256 93.9152 43.1485 93.8799C43.297 93.8435 43.4535 93.868 43.5849 93.9483C43.7163 94.0285 43.8125 94.1583 43.853 94.3103C44.4569 96.8332 46.7862 99.1929 49.3888 99.9349C51.1861 100.454 53.918 100.469 56.6931 97.6049L57.9872 96.2396L53.6305 96.2396C53.4779 96.2396 53.3316 96.177 53.2238 96.0657C53.1159 95.9544 53.0553 95.8034 53.0553 95.6459C53.0553 95.4885 53.1159 95.3375 53.2238 95.2262C53.3316 95.1149 53.4779 95.0523 53.6305 95.0523L59.3819 95.0523C59.5344 95.0523 59.6807 95.1149 59.7886 95.2262C59.8964 95.3375 59.957 95.4885 59.957 95.6459L59.957 101.582C59.957 101.74 59.8964 101.891 59.7886 102.002C59.6807 102.113 59.5344 102.176 59.3819 102.176C59.2293 102.176 59.0831 102.113 58.9752 102.002C58.8673 101.891 58.8067 101.74 58.8067 101.582L58.8067 97.0855L57.4839 98.436C55.0108 100.989 52.0201 101.924 49.0581 101.078Z" fill="white"/>
<circle cx="38.5" cy="85.6318" r="4" fill="white"/>
</g>
<defs>
<filter id="filter0_d_4304_8699" x="0.0664062" y="0.263672" width="154.434" height="154.431" filterUnits="userSpaceOnUse" color-interpolation-filters="sRGB">
<feFlood flood-opacity="0" result="BackgroundImageFix"/>
<feColorMatrix in="SourceAlpha" type="matrix" values="0 0 0 0 0 0 0 0 0 0 0 0 0 0 0 0 0 0 127 0" result="hardAlpha"/>
<feOffset dy="6"/>
<feGaussianBlur stdDeviation="6"/>
<feComposite in2="hardAlpha" operator="out"/>
<feColorMatrix type="matrix" values="0 0 0 0 0 0 0 0 0 0 0 0 0 0 0 0 0 0 0.25 0"/>
<feBlend mode="normal" in2="BackgroundImageFix" result="effect1_dropShadow_4304_8699"/>
<feBlend mode="normal" in="SourceGraphic" in2="effect1_dropShadow_4304_8699" result="shape"/>
</filter>
<linearGradient id="paint0_linear_4304_8699" x1="165.224" y1="-17.3154" x2="-53.6757" y2="150.934" gradientUnits="userSpaceOnUse">
<stop stop-color="#EF5DA8"/>
<stop offset="1" stop-color="#FF8800"/>
</linearGradient>
<clipPath id="clip0_4304_8699">
<rect width="88" height="88" fill="white" transform="translate(33.2852 27.4795)"/>
</clipPath>
</defs>
</svg>
