<svg width="155" height="155" viewBox="0 0 155 155" fill="none" xmlns="http://www.w3.org/2000/svg">
<g filter="url(#filter0_d_4304_8744)">
<path d="M123.399 117.44C148.868 91.9716 148.868 50.6794 123.399 25.2111C97.9301 -0.257204 56.6369 -0.257208 31.1681 25.2111C5.69919 50.6793 5.69919 91.9716 31.1681 117.44C56.6369 142.908 97.9301 142.908 123.399 117.44Z" fill="url(#paint0_linear_4304_8744)"/>
</g>
<path d="M103.797 44.515C93.4633 34.1536 76.69 34.1308 66.3312 44.4638C56.3338 54.4325 55.9125 70.4883 65.3692 80.9693L63.3459 82.9926C61.7124 81.3592 59.0601 81.3563 57.4266 82.9926L43.6129 96.806C41.9794 98.4394 41.9766 101.092 43.6129 102.725L45.585 104.697C47.2185 106.331 49.868 106.331 51.5044 104.697L65.3181 90.8839C66.9516 89.2505 66.9544 86.5982 65.3181 84.9647L67.3414 82.9414C78.1983 92.7508 94.9487 91.9027 104.761 81.049C114.235 70.5652 113.811 54.4894 103.797 44.515ZM63.3459 88.9118L49.5322 102.725C48.9886 103.269 48.1035 103.269 47.56 102.725L45.5879 100.75C45.0444 100.207 45.0444 99.3245 45.5879 98.7781L59.4016 84.9647C59.9537 84.4383 60.8216 84.4383 61.3736 84.9647L63.3459 86.9397C63.8894 87.4861 63.8894 88.3683 63.3459 88.9118ZM101.827 80.0359C92.5641 89.2988 77.5437 89.2988 68.2805 80.0359C59.0173 70.7729 59.0173 55.753 68.2805 46.49C77.5437 37.227 92.5612 37.227 101.827 46.49C111.073 55.7587 111.073 70.7644 101.827 80.0359Z" fill="white"/>
<path d="M90.7308 49.8936C89.7107 49.8936 88.7324 50.3018 88.0111 51.0285C87.2898 51.7552 86.8846 52.7408 86.8846 53.7686V61.5186C87.9047 61.5186 88.883 61.9268 89.6043 62.6535C90.3256 63.3802 90.7308 64.3658 90.7308 65.3936V75.0811C90.7308 76.1088 90.3256 77.0944 89.6043 77.8211C88.883 78.5478 87.9047 78.9561 86.8846 78.9561H75.3462C74.3261 78.9561 73.3478 78.5478 72.6265 77.8211C71.9052 77.0944 71.5 76.1088 71.5 75.0811V65.3936C71.5 64.3658 71.9052 63.3802 72.6265 62.6535C73.3478 61.9268 74.3261 61.5186 75.3462 61.5186H84.9615V53.7686C84.9615 52.227 85.5694 50.7486 86.6513 49.6585C87.7332 48.5684 89.2007 47.9561 90.7308 47.9561C92.2609 47.9561 93.7283 48.5684 94.8102 49.6585C95.8922 50.7486 96.5 52.227 96.5 53.7686V61.5186C96.5 61.7755 96.3987 62.0219 96.2184 62.2036C96.038 62.3852 95.7935 62.4873 95.5385 62.4873C95.2834 62.4873 95.0389 62.3852 94.8585 62.2036C94.6782 62.0219 94.5769 61.7755 94.5769 61.5186V53.7686C94.5769 52.7408 94.1717 51.7552 93.4504 51.0285C92.7291 50.3018 91.7508 49.8936 90.7308 49.8936Z" fill="white"/>
<defs>
<filter id="filter0_d_4304_8744" x="0.0664062" y="0.109863" width="154.434" height="154.431" filterUnits="userSpaceOnUse" color-interpolation-filters="sRGB">
<feFlood flood-opacity="0" result="BackgroundImageFix"/>
<feColorMatrix in="SourceAlpha" type="matrix" values="0 0 0 0 0 0 0 0 0 0 0 0 0 0 0 0 0 0 127 0" result="hardAlpha"/>
<feOffset dy="6"/>
<feGaussianBlur stdDeviation="6"/>
<feComposite in2="hardAlpha" operator="out"/>
<feColorMatrix type="matrix" values="0 0 0 0 0 0 0 0 0 0 0 0 0 0 0 0 0 0 0.25 0"/>
<feBlend mode="normal" in2="BackgroundImageFix" result="effect1_dropShadow_4304_8744"/>
<feBlend mode="normal" in="SourceGraphic" in2="effect1_dropShadow_4304_8744" result="shape"/>
</filter>
<linearGradient id="paint0_linear_4304_8744" x1="165.224" y1="-17.4692" x2="-53.6757" y2="150.78" gradientUnits="userSpaceOnUse">
<stop stop-color="#EF5DA8"/>
<stop offset="1" stop-color="#FF8800"/>
</linearGradient>
</defs>
</svg>
