<svg width="155" height="155" viewBox="0 0 155 155" fill="none" xmlns="http://www.w3.org/2000/svg">
<g filter="url(#filter0_d_4304_8729)">
<path d="M123.399 117.44C148.868 91.9721 148.868 50.6798 123.399 25.2116C97.9301 -0.256716 56.6369 -0.25672 31.1681 25.2116C5.69919 50.6798 5.69919 91.9721 31.1681 117.44C56.6369 142.909 97.9301 142.909 123.399 117.44Z" fill="url(#paint0_linear_4304_8729)"/>
</g>
<path d="M104.94 67.183H102V87.2205L89.12 74.3405L86.6525 76.808L99.305 89.478H55.905L68.155 76.808L65.635 74.3755L53 87.448V57.138L74.7525 78.7855C75.4083 79.4374 76.2954 79.8033 77.22 79.8033C78.1446 79.8033 79.0317 79.4374 79.6875 78.7855L91.3425 67.183H86.39L77.22 76.3005L55.2925 54.478H81.105L83.1175 50.978H53C52.0717 50.978 51.1815 51.3468 50.5251 52.0032C49.8687 52.6595 49.5 53.5498 49.5 54.478V89.478C49.5 90.4063 49.8687 91.2965 50.5251 91.9529C51.1815 92.6093 52.0717 92.978 53 92.978H102C102.928 92.978 103.819 92.6093 104.475 91.9529C105.131 91.2965 105.5 90.4063 105.5 89.478V67.148L104.94 67.183Z" fill="white"/>
<path d="M92.9877 42.2278L82.9777 59.5703C82.786 59.9093 82.686 60.2924 82.6875 60.6818C82.689 61.0712 82.7921 61.4534 82.9864 61.7909C83.1807 62.1283 83.4597 62.4093 83.7957 62.606C84.1318 62.8028 84.5133 62.9085 84.9027 62.9128H104.94C105.33 62.9085 105.711 62.8028 106.047 62.606C106.383 62.4093 106.662 62.1283 106.856 61.7909C107.051 61.4534 107.154 61.0712 107.155 60.6818C107.157 60.2924 107.057 59.9093 106.865 59.5703L96.8552 42.2278C96.6578 41.8902 96.3754 41.6101 96.0361 41.4155C95.6969 41.2208 95.3126 41.1184 94.9214 41.1184C94.5303 41.1184 94.146 41.2208 93.8067 41.4155C93.4675 41.6101 93.1851 41.8902 92.9877 42.2278Z" fill="white"/>
<defs>
<filter id="filter0_d_4304_8729" x="0.0664062" y="0.110352" width="154.434" height="154.431" filterUnits="userSpaceOnUse" color-interpolation-filters="sRGB">
<feFlood flood-opacity="0" result="BackgroundImageFix"/>
<feColorMatrix in="SourceAlpha" type="matrix" values="0 0 0 0 0 0 0 0 0 0 0 0 0 0 0 0 0 0 127 0" result="hardAlpha"/>
<feOffset dy="6"/>
<feGaussianBlur stdDeviation="6"/>
<feComposite in2="hardAlpha" operator="out"/>
<feColorMatrix type="matrix" values="0 0 0 0 0 0 0 0 0 0 0 0 0 0 0 0 0 0 0.25 0"/>
<feBlend mode="normal" in2="BackgroundImageFix" result="effect1_dropShadow_4304_8729"/>
<feBlend mode="normal" in="SourceGraphic" in2="effect1_dropShadow_4304_8729" result="shape"/>
</filter>
<linearGradient id="paint0_linear_4304_8729" x1="165.224" y1="-17.4687" x2="-53.6757" y2="150.78" gradientUnits="userSpaceOnUse">
<stop stop-color="#EF5DA8"/>
<stop offset="1" stop-color="#FF8800"/>
</linearGradient>
</defs>
</svg>
