<svg width="155" height="156" viewBox="0 0 155 156" fill="none" xmlns="http://www.w3.org/2000/svg">
<g filter="url(#filter0_d_4304_8787)">
<path d="M123.399 118.006C148.868 92.5375 148.868 51.2453 123.399 25.777C97.9301 0.308714 56.6369 0.30871 31.1681 25.777C5.69919 51.2453 5.69919 92.5375 31.1681 118.006C56.6369 143.474 97.9301 143.474 123.399 118.006Z" fill="url(#paint0_linear_4304_8787)"/>
</g>
<path d="M88.3528 88.3846L96.2045 102H90.9731L83.1213 88.3846H71.9059L64.0541 102H58.8227L66.6744 88.3846H52.5667C51.9655 88.3846 51.389 88.1455 50.9639 87.72C50.5388 87.2944 50.3 86.7172 50.3 86.1154V47.5385H45.7667C45.1655 47.5385 44.589 47.2994 44.1639 46.8738C43.7388 46.4483 43.5 45.8711 43.5 45.2692C43.5 44.6674 43.7388 44.0902 44.1639 43.6646C44.589 43.2391 45.1655 43 45.7667 43H109.233C109.834 43 110.411 43.2391 110.836 43.6646C111.261 44.0902 111.5 44.6674 111.5 45.2692C111.5 45.8711 111.261 46.4483 110.836 46.8738C110.411 47.2994 109.834 47.5385 109.233 47.5385H104.7V86.1154C104.7 86.7172 104.461 87.2944 104.036 87.72C103.611 88.1455 103.034 88.3846 102.433 88.3846H88.3528ZM100.167 47.5385H54.8333V83.8462H100.167V47.5385ZM66.1667 65.6923C66.7678 65.6923 67.3444 65.9314 67.7694 66.357C68.1945 66.7825 68.4333 67.3597 68.4333 67.9615V72.5C68.4333 73.1018 68.1945 73.679 67.7694 74.1046C67.3444 74.5302 66.7678 74.7692 66.1667 74.7692C65.5655 74.7692 64.989 74.5302 64.5639 74.1046C64.1388 73.679 63.9 73.1018 63.9 72.5V67.9615C63.9 67.3597 64.1388 66.7825 64.5639 66.357C64.989 65.9314 65.5655 65.6923 66.1667 65.6923ZM77.5 61.1538C78.1012 61.1538 78.6777 61.3929 79.1028 61.8185C79.5279 62.2441 79.7667 62.8212 79.7667 63.4231V72.5C79.7667 73.1018 79.5279 73.679 79.1028 74.1046C78.6777 74.5302 78.1012 74.7692 77.5 74.7692C76.8988 74.7692 76.3223 74.5302 75.8972 74.1046C75.4721 73.679 75.2333 73.1018 75.2333 72.5V63.4231C75.2333 62.8212 75.4721 62.2441 75.8972 61.8185C76.3223 61.3929 76.8988 61.1538 77.5 61.1538ZM88.8333 56.6154C89.4345 56.6154 90.011 56.8545 90.4361 57.28C90.8612 57.7056 91.1 58.2828 91.1 58.8846V72.5C91.1 73.1018 90.8612 73.679 90.4361 74.1046C90.011 74.5302 89.4345 74.7692 88.8333 74.7692C88.2322 74.7692 87.6556 74.5302 87.2306 74.1046C86.8055 73.679 86.5667 73.1018 86.5667 72.5V58.8846C86.5667 58.2828 86.8055 57.7056 87.2306 57.28C87.6556 56.8545 88.2322 56.6154 88.8333 56.6154Z" fill="white"/>
<defs>
<filter id="filter0_d_4304_8787" x="0.0664062" y="0.675781" width="154.434" height="154.431" filterUnits="userSpaceOnUse" color-interpolation-filters="sRGB">
<feFlood flood-opacity="0" result="BackgroundImageFix"/>
<feColorMatrix in="SourceAlpha" type="matrix" values="0 0 0 0 0 0 0 0 0 0 0 0 0 0 0 0 0 0 127 0" result="hardAlpha"/>
<feOffset dy="6"/>
<feGaussianBlur stdDeviation="6"/>
<feComposite in2="hardAlpha" operator="out"/>
<feColorMatrix type="matrix" values="0 0 0 0 0 0 0 0 0 0 0 0 0 0 0 0 0 0 0.25 0"/>
<feBlend mode="normal" in2="BackgroundImageFix" result="effect1_dropShadow_4304_8787"/>
<feBlend mode="normal" in="SourceGraphic" in2="effect1_dropShadow_4304_8787" result="shape"/>
</filter>
<linearGradient id="paint0_linear_4304_8787" x1="165.224" y1="-16.9033" x2="-53.6757" y2="151.346" gradientUnits="userSpaceOnUse">
<stop stop-color="#EF5DA8"/>
<stop offset="1" stop-color="#FF8800"/>
</linearGradient>
</defs>
</svg>
