<svg width="155" height="155" viewBox="0 0 155 155" fill="none" xmlns="http://www.w3.org/2000/svg">
<g filter="url(#filter0_d_4304_8715)">
<path d="M123.399 117.44C148.868 91.9716 148.868 50.6794 123.399 25.2111C97.9301 -0.257204 56.6369 -0.257208 31.1681 25.2111C5.69919 50.6793 5.69919 91.9716 31.1681 117.44C56.6369 142.908 97.9301 142.908 123.399 117.44Z" fill="url(#paint0_linear_4304_8715)"/>
</g>
<path d="M77.2811 35.9121C57.7326 35.9008 41.8785 51.7404 41.8672 71.2884C41.8615 82.1928 46.8846 92.4938 55.4803 99.2053C55.5086 99.2251 55.5313 99.2506 55.5596 99.2676C65.4812 107.007 78.7741 108.883 90.4522 104.191C96.8664 108.656 105.683 107.075 110.148 100.661C113.528 95.8056 113.528 89.3604 110.151 84.5017C117.432 66.3561 108.627 45.7428 90.4806 38.459C86.2819 36.7734 81.8027 35.9093 77.2811 35.9121ZM44.6975 71.3252C44.6918 53.3325 59.2739 38.7395 77.267 38.731C95.2601 38.7253 109.853 53.307 109.862 71.2997C109.862 74.9742 109.244 78.6232 108.026 82.0908C102.737 77.2576 94.6594 77.1641 89.2623 81.8783C88.7354 81.5469 88.2028 81.2239 87.6475 80.9378C92.9766 75.2122 92.6564 66.2484 86.9279 60.9166C81.1993 55.5848 72.2382 55.9078 66.9063 61.6362C61.8463 67.0728 61.8435 75.4926 66.9006 80.9321C61.1749 83.904 56.979 89.1678 55.3613 95.4118C48.5704 89.2471 44.6946 80.5015 44.6975 71.3252ZM65.9486 71.3252C65.9486 65.067 71.0227 59.993 77.2811 59.993C83.5394 59.993 88.6135 65.067 88.6135 71.3252C88.6135 77.5834 83.5394 82.6574 77.2811 82.6574C71.0227 82.6518 65.9543 77.5806 65.9486 71.3252ZM57.8176 97.4403C59.016 91.0348 63.277 85.6265 69.2237 82.9606C74.0599 86.3291 80.4797 86.3347 85.3215 82.9719C85.9958 83.2722 86.653 83.6122 87.2905 83.9861C83.1202 89.4001 83.4403 97.0266 88.0526 102.072C77.8307 105.659 66.4954 103.922 57.8176 97.4403ZM98.5294 103.908C92.2711 103.908 87.197 98.8341 87.197 92.5759C87.197 86.3177 92.2711 81.2437 98.5294 81.2437C104.788 81.2437 109.862 86.3177 109.862 92.5759C109.856 98.8313 104.785 103.9 98.5294 103.908Z" fill="white"/>
<path d="M98.4951 98.298C97.0691 98.2306 95.7238 97.6161 94.7388 96.5823C93.7537 95.5484 93.2046 94.1746 93.2055 92.7463C93.2055 89.6785 95.6975 87.1853 98.7638 87.1853C101.747 87.1853 104.174 89.5302 104.313 92.4775L102.367 91.8936C102.216 91.2511 101.896 90.6608 101.44 90.1835C100.984 89.7063 100.409 89.3595 99.7745 89.179C99.1398 88.9986 98.4685 88.9909 97.8299 89.157C97.1914 89.323 96.6087 89.6566 96.1421 90.1234C95.6756 90.5902 95.3421 91.1731 95.1762 91.812C95.0102 92.4509 95.0178 93.1226 95.1982 93.7575C95.3786 94.3925 95.7252 94.9677 96.2022 95.4238C96.6792 95.8799 97.2693 96.2002 97.9115 96.3517L98.4951 98.298ZM108.028 92.7463C108.028 93.0244 108.018 93.3024 107.99 93.5805L106.166 93.0336C106.175 92.941 106.175 92.839 106.175 92.7463C106.175 88.6497 102.858 85.3317 98.7638 85.3317C94.6692 85.3317 91.3528 88.6497 91.3528 92.7463C91.3528 96.8429 94.6692 100.161 98.7638 100.161C98.8564 100.161 98.9583 100.161 99.051 100.152L99.5975 101.978C99.3196 102.005 99.0417 102.015 98.7638 102.015C93.6502 102.015 89.5 97.8624 89.5 92.7463C89.5 87.6302 93.6502 83.478 98.7638 83.478C103.877 83.478 108.028 87.6302 108.028 92.7463ZM104.535 96.6946L108.028 95.5268L98.7638 92.7463L101.543 102.015L102.71 98.5205L106.666 102.478L108.5 100.643L104.535 96.6946Z" fill="white"/>
<circle cx="77.5" cy="71.478" r="12" fill="white"/>
<defs>
<filter id="filter0_d_4304_8715" x="0.0664062" y="0.109863" width="154.434" height="154.431" filterUnits="userSpaceOnUse" color-interpolation-filters="sRGB">
<feFlood flood-opacity="0" result="BackgroundImageFix"/>
<feColorMatrix in="SourceAlpha" type="matrix" values="0 0 0 0 0 0 0 0 0 0 0 0 0 0 0 0 0 0 127 0" result="hardAlpha"/>
<feOffset dy="6"/>
<feGaussianBlur stdDeviation="6"/>
<feComposite in2="hardAlpha" operator="out"/>
<feColorMatrix type="matrix" values="0 0 0 0 0 0 0 0 0 0 0 0 0 0 0 0 0 0 0.25 0"/>
<feBlend mode="normal" in2="BackgroundImageFix" result="effect1_dropShadow_4304_8715"/>
<feBlend mode="normal" in="SourceGraphic" in2="effect1_dropShadow_4304_8715" result="shape"/>
</filter>
<linearGradient id="paint0_linear_4304_8715" x1="165.224" y1="-17.4692" x2="-53.6757" y2="150.78" gradientUnits="userSpaceOnUse">
<stop stop-color="#EF5DA8"/>
<stop offset="1" stop-color="#FF8800"/>
</linearGradient>
</defs>
</svg>
