<svg width="367" height="172" viewBox="0 0 367 172" fill="none" xmlns="http://www.w3.org/2000/svg">
<line x1="6.9957" y1="0.994236" x2="6.99571" y2="157.762" stroke="#D8D8D8" stroke-width="0.467965" stroke-linecap="round"/>
<path d="M2.73719 168.815C2.32288 168.815 1.94851 168.71 1.61407 168.501C1.28463 168.291 1.02506 167.986 0.835381 167.587C0.645699 167.183 0.550858 166.694 0.550858 166.12C0.550858 165.546 0.645699 165.059 0.835381 164.66C1.02506 164.255 1.28463 163.948 1.61407 163.739C1.94851 163.529 2.32288 163.424 2.73719 163.424C3.15649 163.424 3.53086 163.529 3.86031 163.739C4.18975 163.948 4.44932 164.255 4.639 164.66C4.83367 165.059 4.93101 165.546 4.93101 166.12C4.93101 166.694 4.83367 167.183 4.639 167.587C4.44932 167.986 4.18975 168.291 3.86031 168.501C3.53086 168.71 3.15649 168.815 2.73719 168.815ZM2.73719 167.969C2.98178 167.969 3.19392 167.904 3.37362 167.774C3.55332 167.64 3.69309 167.435 3.79292 167.16C3.89774 166.886 3.95015 166.539 3.95015 166.12C3.95015 165.695 3.89774 165.348 3.79292 165.079C3.69309 164.804 3.55332 164.602 3.37362 164.472C3.19392 164.338 2.98178 164.27 2.73719 164.27C2.50258 164.27 2.29293 164.338 2.10824 164.472C1.92855 164.602 1.78629 164.804 1.68146 165.079C1.58163 165.348 1.53171 165.695 1.53171 166.12C1.53171 166.539 1.58163 166.886 1.68146 167.16C1.78629 167.435 1.92855 167.64 2.10824 167.774C2.29293 167.904 2.50258 167.969 2.73719 167.969ZM6.32256 168.74L9.90155 163.499H10.6353L7.05633 168.74H6.32256ZM6.75683 166.322C6.51224 166.322 6.29511 166.262 6.10542 166.142C5.91574 166.022 5.76849 165.855 5.66367 165.64C5.55884 165.426 5.50643 165.174 5.50643 164.884C5.50643 164.595 5.55884 164.343 5.66367 164.128C5.76849 163.913 5.91574 163.746 6.10542 163.626C6.29511 163.507 6.51224 163.447 6.75683 163.447C7.0114 163.447 7.23104 163.507 7.41573 163.626C7.60541 163.746 7.75266 163.913 7.85748 164.128C7.96231 164.343 8.01472 164.595 8.01472 164.884C8.01472 165.174 7.96231 165.426 7.85748 165.64C7.75266 165.855 7.60541 166.022 7.41573 166.142C7.23104 166.262 7.0114 166.322 6.75683 166.322ZM6.76432 165.798C6.96398 165.798 7.11872 165.72 7.22854 165.566C7.34335 165.406 7.40075 165.179 7.40075 164.884C7.40075 164.59 7.34335 164.365 7.22854 164.21C7.11872 164.051 6.96398 163.971 6.76432 163.971C6.56465 163.971 6.40492 164.051 6.28512 164.21C6.17032 164.37 6.11291 164.595 6.11291 164.884C6.11291 165.174 6.17032 165.398 6.28512 165.558C6.40492 165.718 6.56465 165.798 6.76432 165.798ZM10.1936 168.793C9.94898 168.793 9.73184 168.733 9.54216 168.613C9.35248 168.493 9.20522 168.326 9.1004 168.111C8.99558 167.897 8.94316 167.645 8.94316 167.355C8.94316 167.066 8.99558 166.813 9.1004 166.599C9.20522 166.384 9.35248 166.217 9.54216 166.097C9.73184 165.977 9.94898 165.917 10.1936 165.917C10.4481 165.917 10.6678 165.977 10.8525 166.097C11.0421 166.217 11.1894 166.384 11.2942 166.599C11.399 166.813 11.4515 167.066 11.4515 167.355C11.4515 167.645 11.399 167.897 11.2942 168.111C11.1894 168.326 11.0421 168.493 10.8525 168.613C10.6678 168.733 10.4481 168.793 10.1936 168.793ZM10.1936 168.269C10.3932 168.269 10.5505 168.189 10.6653 168.029C10.7801 167.869 10.8375 167.645 10.8375 167.355C10.8375 167.066 10.7801 166.841 10.6653 166.681C10.5505 166.521 10.3932 166.442 10.1936 166.442C9.99889 166.442 9.84166 166.521 9.72186 166.681C9.60705 166.836 9.54965 167.061 9.54965 167.355C9.54965 167.65 9.60705 167.877 9.72186 168.036C9.84166 168.191 9.99889 168.269 10.1936 168.269Z" fill="#9B9B9B"/>
<line x1="46.3043" y1="0.994236" x2="46.3043" y2="157.762" stroke="#D8D8D8" stroke-width="0.467965" stroke-linecap="round"/>
<path d="M42.335 168.815C41.9657 168.815 41.6038 168.763 41.2494 168.658C40.9 168.548 40.6054 168.398 40.3658 168.209L40.7777 167.452C40.9673 167.607 41.197 167.732 41.4665 167.827C41.741 167.922 42.0256 167.969 42.3201 167.969C42.6645 167.969 42.934 167.897 43.1287 167.752C43.3284 167.607 43.4282 167.412 43.4282 167.168C43.4282 167.003 43.3858 166.858 43.3009 166.734C43.2211 166.609 43.0763 166.514 42.8667 166.449C42.662 166.384 42.38 166.352 42.0206 166.352H40.7552L41.0247 163.499H44.1021V164.315H41.3841L41.8933 163.851L41.6911 165.985L41.182 165.528H42.2377C42.7568 165.528 43.1736 165.598 43.4881 165.738C43.8076 165.873 44.0397 166.062 44.1844 166.307C44.3342 166.546 44.4091 166.821 44.4091 167.13C44.4091 167.435 44.3342 167.714 44.1844 167.969C44.0347 168.224 43.8051 168.428 43.4956 168.583C43.1911 168.738 42.8043 168.815 42.335 168.815ZM45.6312 168.74L49.2101 163.499H49.9439L46.3649 168.74H45.6312ZM46.0654 166.322C45.8208 166.322 45.6037 166.262 45.414 166.142C45.2243 166.022 45.0771 165.855 44.9723 165.64C44.8674 165.426 44.815 165.174 44.815 164.884C44.815 164.595 44.8674 164.343 44.9723 164.128C45.0771 163.913 45.2243 163.746 45.414 163.626C45.6037 163.507 45.8208 163.447 46.0654 163.447C46.32 163.447 46.5396 163.507 46.7243 163.626C46.914 163.746 47.0613 163.913 47.1661 164.128C47.2709 164.343 47.3233 164.595 47.3233 164.884C47.3233 165.174 47.2709 165.426 47.1661 165.64C47.0613 165.855 46.914 166.022 46.7243 166.142C46.5396 166.262 46.32 166.322 46.0654 166.322ZM46.0729 165.798C46.2726 165.798 46.4273 165.72 46.5371 165.566C46.6519 165.406 46.7093 165.179 46.7093 164.884C46.7093 164.59 46.6519 164.365 46.5371 164.21C46.4273 164.051 46.2726 163.971 46.0729 163.971C45.8732 163.971 45.7135 164.051 45.5937 164.21C45.4789 164.37 45.4215 164.595 45.4215 164.884C45.4215 165.174 45.4789 165.398 45.5937 165.558C45.7135 165.718 45.8732 165.798 46.0729 165.798ZM49.5022 168.793C49.2576 168.793 49.0404 168.733 48.8508 168.613C48.6611 168.493 48.5138 168.326 48.409 168.111C48.3042 167.897 48.2518 167.645 48.2518 167.355C48.2518 167.066 48.3042 166.813 48.409 166.599C48.5138 166.384 48.6611 166.217 48.8508 166.097C49.0404 165.977 49.2576 165.917 49.5022 165.917C49.7567 165.917 49.9764 165.977 50.1611 166.097C50.3507 166.217 50.498 166.384 50.6028 166.599C50.7076 166.813 50.76 167.066 50.76 167.355C50.76 167.645 50.7076 167.897 50.6028 168.111C50.498 168.326 50.3507 168.493 50.1611 168.613C49.9764 168.733 49.7567 168.793 49.5022 168.793ZM49.5022 168.269C49.7018 168.269 49.8591 168.189 49.9739 168.029C50.0887 167.869 50.1461 167.645 50.1461 167.355C50.1461 167.066 50.0887 166.841 49.9739 166.681C49.8591 166.521 49.7018 166.442 49.5022 166.442C49.3075 166.442 49.1502 166.521 49.0304 166.681C48.9156 166.836 48.8582 167.061 48.8582 167.355C48.8582 167.65 48.9156 167.877 49.0304 168.036C49.1502 168.191 49.3075 168.269 49.5022 168.269Z" fill="#9B9B9B"/>
<line x1="85.6129" y1="0.994236" x2="85.6129" y2="157.762" stroke="#D8D8D8" stroke-width="0.467965" stroke-linecap="round"/>
<path d="M77.155 168.74V163.873L77.5818 164.315H76.0468V163.499H78.1283V168.74H77.155ZM81.3544 168.815C80.9401 168.815 80.5657 168.71 80.2313 168.501C79.9018 168.291 79.6422 167.986 79.4526 167.587C79.2629 167.183 79.168 166.694 79.168 166.12C79.168 165.546 79.2629 165.059 79.4526 164.66C79.6422 164.255 79.9018 163.948 80.2313 163.739C80.5657 163.529 80.9401 163.424 81.3544 163.424C81.7737 163.424 82.148 163.529 82.4775 163.739C82.8069 163.948 83.0665 164.255 83.2562 164.66C83.4509 165.059 83.5482 165.546 83.5482 166.12C83.5482 166.694 83.4509 167.183 83.2562 167.587C83.0665 167.986 82.8069 168.291 82.4775 168.501C82.148 168.71 81.7737 168.815 81.3544 168.815ZM81.3544 167.969C81.599 167.969 81.8111 167.904 81.9908 167.774C82.1705 167.64 82.3103 167.435 82.4101 167.16C82.5149 166.886 82.5673 166.539 82.5673 166.12C82.5673 165.695 82.5149 165.348 82.4101 165.079C82.3103 164.804 82.1705 164.602 81.9908 164.472C81.8111 164.338 81.599 164.27 81.3544 164.27C81.1198 164.27 80.9101 164.338 80.7254 164.472C80.5457 164.602 80.4035 164.804 80.2986 165.079C80.1988 165.348 80.1489 165.695 80.1489 166.12C80.1489 166.539 80.1988 166.886 80.2986 167.16C80.4035 167.435 80.5457 167.64 80.7254 167.774C80.9101 167.904 81.1198 167.969 81.3544 167.969ZM84.9397 168.74L88.5187 163.499H89.2525L85.6735 168.74H84.9397ZM85.374 166.322C85.1294 166.322 84.9123 166.262 84.7226 166.142C84.5329 166.022 84.3857 165.855 84.2809 165.64C84.176 165.426 84.1236 165.174 84.1236 164.884C84.1236 164.595 84.176 164.343 84.2809 164.128C84.3857 163.913 84.5329 163.746 84.7226 163.626C84.9123 163.507 85.1294 163.447 85.374 163.447C85.6286 163.447 85.8482 163.507 86.0329 163.626C86.2226 163.746 86.3698 163.913 86.4747 164.128C86.5795 164.343 86.6319 164.595 86.6319 164.884C86.6319 165.174 86.5795 165.426 86.4747 165.64C86.3698 165.855 86.2226 166.022 86.0329 166.142C85.8482 166.262 85.6286 166.322 85.374 166.322ZM85.3815 165.798C85.5812 165.798 85.7359 165.72 85.8457 165.566C85.9605 165.406 86.0179 165.179 86.0179 164.884C86.0179 164.59 85.9605 164.365 85.8457 164.21C85.7359 164.051 85.5812 163.971 85.3815 163.971C85.1818 163.971 85.0221 164.051 84.9023 164.21C84.7875 164.37 84.7301 164.595 84.7301 164.884C84.7301 165.174 84.7875 165.398 84.9023 165.558C85.0221 165.718 85.1818 165.798 85.3815 165.798ZM88.8108 168.793C88.5662 168.793 88.349 168.733 88.1593 168.613C87.9697 168.493 87.8224 168.326 87.7176 168.111C87.6128 167.897 87.5604 167.645 87.5604 167.355C87.5604 167.066 87.6128 166.813 87.7176 166.599C87.8224 166.384 87.9697 166.217 88.1593 166.097C88.349 165.977 88.5662 165.917 88.8108 165.917C89.0653 165.917 89.285 165.977 89.4696 166.097C89.6593 166.217 89.8066 166.384 89.9114 166.599C90.0162 166.813 90.0686 167.066 90.0686 167.355C90.0686 167.645 90.0162 167.897 89.9114 168.111C89.8066 168.326 89.6593 168.493 89.4696 168.613C89.285 168.733 89.0653 168.793 88.8108 168.793ZM88.8108 168.269C89.0104 168.269 89.1677 168.189 89.2825 168.029C89.3973 167.869 89.4547 167.645 89.4547 167.355C89.4547 167.066 89.3973 166.841 89.2825 166.681C89.1677 166.521 89.0104 166.442 88.8108 166.442C88.6161 166.442 88.4588 166.521 88.339 166.681C88.2242 166.836 88.1668 167.061 88.1668 167.355C88.1668 167.65 88.2242 167.877 88.339 168.036C88.4588 168.191 88.6161 168.269 88.8108 168.269Z" fill="#9B9B9B"/>
<line x1="124.923" y1="0.994236" x2="124.923" y2="157.762" stroke="#D8D8D8" stroke-width="0.467965" stroke-linecap="round"/>
<path d="M117.204 168.74V163.873L117.631 164.315H116.096V163.499H118.177V168.74H117.204ZM120.954 168.815C120.585 168.815 120.223 168.763 119.869 168.658C119.519 168.548 119.225 168.398 118.985 168.209L119.397 167.452C119.586 167.607 119.816 167.732 120.086 167.827C120.36 167.922 120.645 167.969 120.939 167.969C121.284 167.969 121.553 167.897 121.748 167.752C121.948 167.607 122.047 167.412 122.047 167.168C122.047 167.003 122.005 166.858 121.92 166.734C121.84 166.609 121.695 166.514 121.486 166.449C121.281 166.384 120.999 166.352 120.64 166.352H119.374L119.644 163.499H122.721V164.315H120.003L120.512 163.851L120.31 165.985L119.801 165.528H120.857C121.376 165.528 121.793 165.598 122.107 165.738C122.427 165.873 122.659 166.062 122.804 166.307C122.953 166.546 123.028 166.821 123.028 167.13C123.028 167.435 122.953 167.714 122.804 167.969C122.654 168.224 122.424 168.428 122.115 168.583C121.81 168.738 121.423 168.815 120.954 168.815ZM124.25 168.74L127.829 163.499H128.563L124.984 168.74H124.25ZM124.685 166.322C124.44 166.322 124.223 166.262 124.033 166.142C123.843 166.022 123.696 165.855 123.591 165.64C123.487 165.426 123.434 165.174 123.434 164.884C123.434 164.595 123.487 164.343 123.591 164.128C123.696 163.913 123.843 163.746 124.033 163.626C124.223 163.507 124.44 163.447 124.685 163.447C124.939 163.447 125.159 163.507 125.343 163.626C125.533 163.746 125.68 163.913 125.785 164.128C125.89 164.343 125.942 164.595 125.942 164.884C125.942 165.174 125.89 165.426 125.785 165.64C125.68 165.855 125.533 166.022 125.343 166.142C125.159 166.262 124.939 166.322 124.685 166.322ZM124.692 165.798C124.892 165.798 125.046 165.72 125.156 165.566C125.271 165.406 125.328 165.179 125.328 164.884C125.328 164.59 125.271 164.365 125.156 164.21C125.046 164.051 124.892 163.971 124.692 163.971C124.492 163.971 124.333 164.051 124.213 164.21C124.098 164.37 124.041 164.595 124.041 164.884C124.041 165.174 124.098 165.398 124.213 165.558C124.333 165.718 124.492 165.798 124.692 165.798ZM128.121 168.793C127.877 168.793 127.66 168.733 127.47 168.613C127.28 168.493 127.133 168.326 127.028 168.111C126.923 167.897 126.871 167.645 126.871 167.355C126.871 167.066 126.923 166.813 127.028 166.599C127.133 166.384 127.28 166.217 127.47 166.097C127.66 165.977 127.877 165.917 128.121 165.917C128.376 165.917 128.596 165.977 128.78 166.097C128.97 166.217 129.117 166.384 129.222 166.599C129.327 166.813 129.379 167.066 129.379 167.355C129.379 167.645 129.327 167.897 129.222 168.111C129.117 168.326 128.97 168.493 128.78 168.613C128.596 168.733 128.376 168.793 128.121 168.793ZM128.121 168.269C128.321 168.269 128.478 168.189 128.593 168.029C128.708 167.869 128.765 167.645 128.765 167.355C128.765 167.066 128.708 166.841 128.593 166.681C128.478 166.521 128.321 166.442 128.121 166.442C127.927 166.442 127.769 166.521 127.65 166.681C127.535 166.836 127.477 167.061 127.477 167.355C127.477 167.65 127.535 167.877 127.65 168.036C127.769 168.191 127.927 168.269 128.121 168.269Z" fill="#9B9B9B"/>
<line x1="164.232" y1="0.994236" x2="164.232" y2="157.762" stroke="#D8D8D8" stroke-width="0.467965" stroke-linecap="round"/>
<path d="M153.362 168.74V168.089L155.443 166.112C155.618 165.947 155.748 165.803 155.833 165.678C155.918 165.553 155.972 165.438 155.997 165.333C156.027 165.224 156.042 165.121 156.042 165.026C156.042 164.787 155.96 164.602 155.795 164.472C155.631 164.338 155.388 164.27 155.069 164.27C154.814 164.27 154.582 164.315 154.373 164.405C154.168 164.495 153.991 164.632 153.841 164.817L153.16 164.293C153.364 164.018 153.639 163.806 153.983 163.656C154.333 163.502 154.722 163.424 155.151 163.424C155.531 163.424 155.86 163.487 156.14 163.611C156.424 163.731 156.641 163.903 156.791 164.128C156.946 164.353 157.023 164.62 157.023 164.929C157.023 165.099 157.001 165.269 156.956 165.438C156.911 165.603 156.826 165.778 156.701 165.962C156.576 166.147 156.394 166.354 156.155 166.584L154.365 168.284L154.163 167.917H157.225V168.74H153.362ZM159.974 168.815C159.559 168.815 159.185 168.71 158.85 168.501C158.521 168.291 158.261 167.986 158.072 167.587C157.882 167.183 157.787 166.694 157.787 166.12C157.787 165.546 157.882 165.059 158.072 164.66C158.261 164.255 158.521 163.948 158.85 163.739C159.185 163.529 159.559 163.424 159.974 163.424C160.393 163.424 160.767 163.529 161.097 163.739C161.426 163.948 161.686 164.255 161.875 164.66C162.07 165.059 162.167 165.546 162.167 166.12C162.167 166.694 162.07 167.183 161.875 167.587C161.686 167.986 161.426 168.291 161.097 168.501C160.767 168.71 160.393 168.815 159.974 168.815ZM159.974 167.969C160.218 167.969 160.43 167.904 160.61 167.774C160.79 167.64 160.929 167.435 161.029 167.16C161.134 166.886 161.186 166.539 161.186 166.12C161.186 165.695 161.134 165.348 161.029 165.079C160.929 164.804 160.79 164.602 160.61 164.472C160.43 164.338 160.218 164.27 159.974 164.27C159.739 164.27 159.529 164.338 159.345 164.472C159.165 164.602 159.023 164.804 158.918 165.079C158.818 165.348 158.768 165.695 158.768 166.12C158.768 166.539 158.818 166.886 158.918 167.16C159.023 167.435 159.165 167.64 159.345 167.774C159.529 167.904 159.739 167.969 159.974 167.969ZM163.559 168.74L167.138 163.499H167.872L164.293 168.74H163.559ZM163.993 166.322C163.749 166.322 163.531 166.262 163.342 166.142C163.152 166.022 163.005 165.855 162.9 165.64C162.795 165.426 162.743 165.174 162.743 164.884C162.743 164.595 162.795 164.343 162.9 164.128C163.005 163.913 163.152 163.746 163.342 163.626C163.531 163.507 163.749 163.447 163.993 163.447C164.248 163.447 164.467 163.507 164.652 163.626C164.842 163.746 164.989 163.913 165.094 164.128C165.199 164.343 165.251 164.595 165.251 164.884C165.251 165.174 165.199 165.426 165.094 165.64C164.989 165.855 164.842 166.022 164.652 166.142C164.467 166.262 164.248 166.322 163.993 166.322ZM164.001 165.798C164.2 165.798 164.355 165.72 164.465 165.566C164.58 165.406 164.637 165.179 164.637 164.884C164.637 164.59 164.58 164.365 164.465 164.21C164.355 164.051 164.2 163.971 164.001 163.971C163.801 163.971 163.641 164.051 163.521 164.21C163.407 164.37 163.349 164.595 163.349 164.884C163.349 165.174 163.407 165.398 163.521 165.558C163.641 165.718 163.801 165.798 164.001 165.798ZM167.43 168.793C167.185 168.793 166.968 168.733 166.778 168.613C166.589 168.493 166.442 168.326 166.337 168.111C166.232 167.897 166.179 167.645 166.179 167.355C166.179 167.066 166.232 166.813 166.337 166.599C166.442 166.384 166.589 166.217 166.778 166.097C166.968 165.977 167.185 165.917 167.43 165.917C167.684 165.917 167.904 165.977 168.089 166.097C168.278 166.217 168.426 166.384 168.531 166.599C168.635 166.813 168.688 167.066 168.688 167.355C168.688 167.645 168.635 167.897 168.531 168.111C168.426 168.326 168.278 168.493 168.089 168.613C167.904 168.733 167.684 168.793 167.43 168.793ZM167.43 168.269C167.63 168.269 167.787 168.189 167.902 168.029C168.016 167.869 168.074 167.645 168.074 167.355C168.074 167.066 168.016 166.841 167.902 166.681C167.787 166.521 167.63 166.442 167.43 166.442C167.235 166.442 167.078 166.521 166.958 166.681C166.843 166.836 166.786 167.061 166.786 167.355C166.786 167.65 166.843 167.877 166.958 168.036C167.078 168.191 167.235 168.269 167.43 168.269Z" fill="#9B9B9B"/>
<line x1="203.541" y1="0.994236" x2="203.541" y2="157.762" stroke="#D8D8D8" stroke-width="0.467965" stroke-linecap="round"/>
<path d="M193.409 168.74V168.089L195.49 166.112C195.665 165.947 195.795 165.803 195.88 165.678C195.965 165.553 196.02 165.438 196.045 165.333C196.075 165.224 196.089 165.121 196.089 165.026C196.089 164.787 196.007 164.602 195.842 164.472C195.678 164.338 195.436 164.27 195.116 164.27C194.862 164.27 194.629 164.315 194.42 164.405C194.215 164.495 194.038 164.632 193.888 164.817L193.207 164.293C193.411 164.018 193.686 163.806 194.03 163.656C194.38 163.502 194.769 163.424 195.198 163.424C195.578 163.424 195.907 163.487 196.187 163.611C196.471 163.731 196.688 163.903 196.838 164.128C196.993 164.353 197.07 164.62 197.07 164.929C197.07 165.099 197.048 165.269 197.003 165.438C196.958 165.603 196.873 165.778 196.748 165.962C196.624 166.147 196.441 166.354 196.202 166.584L194.412 168.284L194.21 167.917H197.272V168.74H193.409ZM199.571 168.815C199.202 168.815 198.84 168.763 198.486 168.658C198.136 168.548 197.842 168.398 197.602 168.209L198.014 167.452C198.204 167.607 198.433 167.732 198.703 167.827C198.977 167.922 199.262 167.969 199.556 167.969C199.901 167.969 200.17 167.897 200.365 167.752C200.565 167.607 200.665 167.412 200.665 167.168C200.665 167.003 200.622 166.858 200.537 166.734C200.457 166.609 200.313 166.514 200.103 166.449C199.898 166.384 199.616 166.352 199.257 166.352H197.992L198.261 163.499H201.338V164.315H198.62L199.13 163.851L198.927 165.985L198.418 165.528H199.474C199.993 165.528 200.41 165.598 200.724 165.738C201.044 165.873 201.276 166.062 201.421 166.307C201.571 166.546 201.645 166.821 201.645 167.13C201.645 167.435 201.571 167.714 201.421 167.969C201.271 168.224 201.041 168.428 200.732 168.583C200.427 168.738 200.041 168.815 199.571 168.815ZM202.867 168.74L206.446 163.499H207.18L203.601 168.74H202.867ZM203.302 166.322C203.057 166.322 202.84 166.262 202.65 166.142C202.461 166.022 202.313 165.855 202.209 165.64C202.104 165.426 202.051 165.174 202.051 164.884C202.051 164.595 202.104 164.343 202.209 164.128C202.313 163.913 202.461 163.746 202.65 163.626C202.84 163.507 203.057 163.447 203.302 163.447C203.556 163.447 203.776 163.507 203.961 163.626C204.15 163.746 204.298 163.913 204.402 164.128C204.507 164.343 204.56 164.595 204.56 164.884C204.56 165.174 204.507 165.426 204.402 165.64C204.298 165.855 204.15 166.022 203.961 166.142C203.776 166.262 203.556 166.322 203.302 166.322ZM203.309 165.798C203.509 165.798 203.664 165.72 203.773 165.566C203.888 165.406 203.946 165.179 203.946 164.884C203.946 164.59 203.888 164.365 203.773 164.21C203.664 164.051 203.509 163.971 203.309 163.971C203.11 163.971 202.95 164.051 202.83 164.21C202.715 164.37 202.658 164.595 202.658 164.884C202.658 165.174 202.715 165.398 202.83 165.558C202.95 165.718 203.11 165.798 203.309 165.798ZM206.738 168.793C206.494 168.793 206.277 168.733 206.087 168.613C205.897 168.493 205.75 168.326 205.645 168.111C205.54 167.897 205.488 167.645 205.488 167.355C205.488 167.066 205.54 166.813 205.645 166.599C205.75 166.384 205.897 166.217 206.087 166.097C206.277 165.977 206.494 165.917 206.738 165.917C206.993 165.917 207.213 165.977 207.397 166.097C207.587 166.217 207.734 166.384 207.839 166.599C207.944 166.813 207.996 167.066 207.996 167.355C207.996 167.645 207.944 167.897 207.839 168.111C207.734 168.326 207.587 168.493 207.397 168.613C207.213 168.733 206.993 168.793 206.738 168.793ZM206.738 168.269C206.938 168.269 207.095 168.189 207.21 168.029C207.325 167.869 207.382 167.645 207.382 167.355C207.382 167.066 207.325 166.841 207.21 166.681C207.095 166.521 206.938 166.442 206.738 166.442C206.544 166.442 206.387 166.521 206.267 166.681C206.152 166.836 206.095 167.061 206.095 167.355C206.095 167.65 206.152 167.877 206.267 168.036C206.387 168.191 206.544 168.269 206.738 168.269Z" fill="#9B9B9B"/>
<line x1="242.849" y1="0.994236" x2="242.849" y2="157.762" stroke="#D8D8D8" stroke-width="0.467965" stroke-linecap="round"/>
<path d="M233.694 168.815C233.324 168.815 232.962 168.763 232.608 168.658C232.259 168.548 231.964 168.398 231.724 168.209L232.144 167.452C232.333 167.607 232.563 167.732 232.833 167.827C233.102 167.922 233.384 167.969 233.679 167.969C234.028 167.969 234.3 167.899 234.495 167.759C234.69 167.615 234.787 167.42 234.787 167.175C234.787 166.936 234.697 166.746 234.517 166.606C234.338 166.467 234.048 166.397 233.649 166.397H233.17V165.73L234.667 163.948L234.794 164.315H231.979V163.499H235.551V164.15L234.053 165.932L233.544 165.633H233.836C234.48 165.633 234.962 165.778 235.281 166.067C235.605 166.352 235.768 166.719 235.768 167.168C235.768 167.462 235.693 167.734 235.543 167.984C235.393 168.234 235.164 168.436 234.854 168.59C234.55 168.74 234.163 168.815 233.694 168.815ZM238.591 168.815C238.176 168.815 237.802 168.71 237.468 168.501C237.138 168.291 236.879 167.986 236.689 167.587C236.499 167.183 236.404 166.694 236.404 166.12C236.404 165.546 236.499 165.059 236.689 164.66C236.879 164.255 237.138 163.948 237.468 163.739C237.802 163.529 238.176 163.424 238.591 163.424C239.01 163.424 239.384 163.529 239.714 163.739C240.043 163.948 240.303 164.255 240.493 164.66C240.687 165.059 240.785 165.546 240.785 166.12C240.785 166.694 240.687 167.183 240.493 167.587C240.303 167.986 240.043 168.291 239.714 168.501C239.384 168.71 239.01 168.815 238.591 168.815ZM238.591 167.969C238.835 167.969 239.047 167.904 239.227 167.774C239.407 167.64 239.547 167.435 239.646 167.16C239.751 166.886 239.804 166.539 239.804 166.12C239.804 165.695 239.751 165.348 239.646 165.079C239.547 164.804 239.407 164.602 239.227 164.472C239.047 164.338 238.835 164.27 238.591 164.27C238.356 164.27 238.146 164.338 237.962 164.472C237.782 164.602 237.64 164.804 237.535 165.079C237.435 165.348 237.385 165.695 237.385 166.12C237.385 166.539 237.435 166.886 237.535 167.16C237.64 167.435 237.782 167.64 237.962 167.774C238.146 167.904 238.356 167.969 238.591 167.969ZM242.176 168.74L245.755 163.499H246.489L242.91 168.74H242.176ZM242.61 166.322C242.366 166.322 242.149 166.262 241.959 166.142C241.769 166.022 241.622 165.855 241.517 165.64C241.412 165.426 241.36 165.174 241.36 164.884C241.36 164.595 241.412 164.343 241.517 164.128C241.622 163.913 241.769 163.746 241.959 163.626C242.149 163.507 242.366 163.447 242.61 163.447C242.865 163.447 243.085 163.507 243.269 163.626C243.459 163.746 243.606 163.913 243.711 164.128C243.816 164.343 243.868 164.595 243.868 164.884C243.868 165.174 243.816 165.426 243.711 165.64C243.606 165.855 243.459 166.022 243.269 166.142C243.085 166.262 242.865 166.322 242.61 166.322ZM242.618 165.798C242.817 165.798 242.972 165.72 243.082 165.566C243.197 165.406 243.254 165.179 243.254 164.884C243.254 164.59 243.197 164.365 243.082 164.21C242.972 164.051 242.817 163.971 242.618 163.971C242.418 163.971 242.258 164.051 242.139 164.21C242.024 164.37 241.966 164.595 241.966 164.884C241.966 165.174 242.024 165.398 242.139 165.558C242.258 165.718 242.418 165.798 242.618 165.798ZM246.047 168.793C245.802 168.793 245.585 168.733 245.396 168.613C245.206 168.493 245.059 168.326 244.954 168.111C244.849 167.897 244.797 167.645 244.797 167.355C244.797 167.066 244.849 166.813 244.954 166.599C245.059 166.384 245.206 166.217 245.396 166.097C245.585 165.977 245.802 165.917 246.047 165.917C246.302 165.917 246.521 165.977 246.706 166.097C246.896 166.217 247.043 166.384 247.148 166.599C247.253 166.813 247.305 167.066 247.305 167.355C247.305 167.645 247.253 167.897 247.148 168.111C247.043 168.326 246.896 168.493 246.706 168.613C246.521 168.733 246.302 168.793 246.047 168.793ZM246.047 168.269C246.247 168.269 246.404 168.189 246.519 168.029C246.634 167.869 246.691 167.645 246.691 167.355C246.691 167.066 246.634 166.841 246.519 166.681C246.404 166.521 246.247 166.442 246.047 166.442C245.852 166.442 245.695 166.521 245.575 166.681C245.461 166.836 245.403 167.061 245.403 167.355C245.403 167.65 245.461 167.877 245.575 168.036C245.695 168.191 245.852 168.269 246.047 168.269Z" fill="#9B9B9B"/>
<line x1="282.16" y1="0.994236" x2="282.16" y2="157.762" stroke="#D8D8D8" stroke-width="0.467965" stroke-linecap="round"/>
<path d="M273.816 168.815C273.446 168.815 273.085 168.763 272.73 168.658C272.381 168.548 272.086 168.398 271.847 168.209L272.266 167.452C272.456 167.607 272.685 167.732 272.955 167.827C273.224 167.922 273.506 167.969 273.801 167.969C274.15 167.969 274.422 167.899 274.617 167.759C274.812 167.615 274.909 167.42 274.909 167.175C274.909 166.936 274.819 166.746 274.639 166.606C274.46 166.467 274.17 166.397 273.771 166.397H273.292V165.73L274.789 163.948L274.917 164.315H272.101V163.499H275.673V164.15L274.175 165.932L273.666 165.633H273.958C274.602 165.633 275.084 165.778 275.403 166.067C275.728 166.352 275.89 166.719 275.89 167.168C275.89 167.462 275.815 167.734 275.665 167.984C275.516 168.234 275.286 168.436 274.976 168.59C274.672 168.74 274.285 168.815 273.816 168.815ZM278.191 168.815C277.821 168.815 277.459 168.763 277.105 168.658C276.755 168.548 276.461 168.398 276.221 168.209L276.633 167.452C276.823 167.607 277.052 167.732 277.322 167.827C277.597 167.922 277.881 167.969 278.176 167.969C278.52 167.969 278.79 167.897 278.984 167.752C279.184 167.607 279.284 167.412 279.284 167.168C279.284 167.003 279.241 166.858 279.156 166.734C279.077 166.609 278.932 166.514 278.722 166.449C278.517 166.384 278.235 166.352 277.876 166.352H276.611L276.88 163.499H279.958V164.315H277.24L277.749 163.851L277.547 165.985L277.037 165.528H278.093C278.612 165.528 279.029 165.598 279.344 165.738C279.663 165.873 279.895 166.062 280.04 166.307C280.19 166.546 280.265 166.821 280.265 167.13C280.265 167.435 280.19 167.714 280.04 167.969C279.89 168.224 279.661 168.428 279.351 168.583C279.047 168.738 278.66 168.815 278.191 168.815ZM281.487 168.74L285.066 163.499H285.799L282.22 168.74H281.487ZM281.921 166.322C281.676 166.322 281.459 166.262 281.269 166.142C281.08 166.022 280.933 165.855 280.828 165.64C280.723 165.426 280.67 165.174 280.67 164.884C280.67 164.595 280.723 164.343 280.828 164.128C280.933 163.913 281.08 163.746 281.269 163.626C281.459 163.507 281.676 163.447 281.921 163.447C282.175 163.447 282.395 163.507 282.58 163.626C282.769 163.746 282.917 163.913 283.022 164.128C283.126 164.343 283.179 164.595 283.179 164.884C283.179 165.174 283.126 165.426 283.022 165.64C282.917 165.855 282.769 166.022 282.58 166.142C282.395 166.262 282.175 166.322 281.921 166.322ZM281.928 165.798C282.128 165.798 282.283 165.72 282.393 165.566C282.507 165.406 282.565 165.179 282.565 164.884C282.565 164.59 282.507 164.365 282.393 164.21C282.283 164.051 282.128 163.971 281.928 163.971C281.729 163.971 281.569 164.051 281.449 164.21C281.334 164.37 281.277 164.595 281.277 164.884C281.277 165.174 281.334 165.398 281.449 165.558C281.569 165.718 281.729 165.798 281.928 165.798ZM285.358 168.793C285.113 168.793 284.896 168.733 284.706 168.613C284.517 168.493 284.369 168.326 284.264 168.111C284.16 167.897 284.107 167.645 284.107 167.355C284.107 167.066 284.16 166.813 284.264 166.599C284.369 166.384 284.517 166.217 284.706 166.097C284.896 165.977 285.113 165.917 285.358 165.917C285.612 165.917 285.832 165.977 286.017 166.097C286.206 166.217 286.353 166.384 286.458 166.599C286.563 166.813 286.616 167.066 286.616 167.355C286.616 167.645 286.563 167.897 286.458 168.111C286.353 168.326 286.206 168.493 286.017 168.613C285.832 168.733 285.612 168.793 285.358 168.793ZM285.358 168.269C285.557 168.269 285.715 168.189 285.829 168.029C285.944 167.869 286.002 167.645 286.002 167.355C286.002 167.066 285.944 166.841 285.829 166.681C285.715 166.521 285.557 166.442 285.358 166.442C285.163 166.442 285.006 166.521 284.886 166.681C284.771 166.836 284.714 167.061 284.714 167.355C284.714 167.65 284.771 167.877 284.886 168.036C285.006 168.191 285.163 168.269 285.358 168.269Z" fill="#9B9B9B"/>
<line x1="321.468" y1="0.994236" x2="321.468" y2="157.762" stroke="#D8D8D8" stroke-width="0.467965" stroke-linecap="round"/>
<path d="M309.867 167.55V166.876L312.45 163.499H313.491L310.945 166.876L310.458 166.726H314.614V167.55H309.867ZM312.742 168.74V167.55L312.772 166.726V165.67H313.685V168.74H312.742ZM317.21 168.815C316.796 168.815 316.421 168.71 316.087 168.501C315.757 168.291 315.498 167.986 315.308 167.587C315.118 167.183 315.024 166.694 315.024 166.12C315.024 165.546 315.118 165.059 315.308 164.66C315.498 164.255 315.757 163.948 316.087 163.739C316.421 163.529 316.796 163.424 317.21 163.424C317.629 163.424 318.004 163.529 318.333 163.739C318.662 163.948 318.922 164.255 319.112 164.66C319.306 165.059 319.404 165.546 319.404 166.12C319.404 166.694 319.306 167.183 319.112 167.587C318.922 167.986 318.662 168.291 318.333 168.501C318.004 168.71 317.629 168.815 317.21 168.815ZM317.21 167.969C317.454 167.969 317.667 167.904 317.846 167.774C318.026 167.64 318.166 167.435 318.266 167.16C318.37 166.886 318.423 166.539 318.423 166.12C318.423 165.695 318.37 165.348 318.266 165.079C318.166 164.804 318.026 164.602 317.846 164.472C317.667 164.338 317.454 164.27 317.21 164.27C316.975 164.27 316.766 164.338 316.581 164.472C316.401 164.602 316.259 164.804 316.154 165.079C316.054 165.348 316.004 165.695 316.004 166.12C316.004 166.539 316.054 166.886 316.154 167.16C316.259 167.435 316.401 167.64 316.581 167.774C316.766 167.904 316.975 167.969 317.21 167.969ZM320.795 168.74L324.374 163.499H325.108L321.529 168.74H320.795ZM321.229 166.322C320.985 166.322 320.768 166.262 320.578 166.142C320.388 166.022 320.241 165.855 320.136 165.64C320.031 165.426 319.979 165.174 319.979 164.884C319.979 164.595 320.031 164.343 320.136 164.128C320.241 163.913 320.388 163.746 320.578 163.626C320.768 163.507 320.985 163.447 321.229 163.447C321.484 163.447 321.704 163.507 321.888 163.626C322.078 163.746 322.225 163.913 322.33 164.128C322.435 164.343 322.487 164.595 322.487 164.884C322.487 165.174 322.435 165.426 322.33 165.64C322.225 165.855 322.078 166.022 321.888 166.142C321.704 166.262 321.484 166.322 321.229 166.322ZM321.237 165.798C321.437 165.798 321.591 165.72 321.701 165.566C321.816 165.406 321.873 165.179 321.873 164.884C321.873 164.59 321.816 164.365 321.701 164.21C321.591 164.051 321.437 163.971 321.237 163.971C321.037 163.971 320.878 164.051 320.758 164.21C320.643 164.37 320.586 164.595 320.586 164.884C320.586 165.174 320.643 165.398 320.758 165.558C320.878 165.718 321.037 165.798 321.237 165.798ZM324.666 168.793C324.422 168.793 324.204 168.733 324.015 168.613C323.825 168.493 323.678 168.326 323.573 168.111C323.468 167.897 323.416 167.645 323.416 167.355C323.416 167.066 323.468 166.813 323.573 166.599C323.678 166.384 323.825 166.217 324.015 166.097C324.204 165.977 324.422 165.917 324.666 165.917C324.921 165.917 325.14 165.977 325.325 166.097C325.515 166.217 325.662 166.384 325.767 166.599C325.872 166.813 325.924 167.066 325.924 167.355C325.924 167.645 325.872 167.897 325.767 168.111C325.662 168.326 325.515 168.493 325.325 168.613C325.14 168.733 324.921 168.793 324.666 168.793ZM324.666 168.269C324.866 168.269 325.023 168.189 325.138 168.029C325.253 167.869 325.31 167.645 325.31 167.355C325.31 167.066 325.253 166.841 325.138 166.681C325.023 166.521 324.866 166.442 324.666 166.442C324.472 166.442 324.314 166.521 324.195 166.681C324.08 166.836 324.022 167.061 324.022 167.355C324.022 167.65 324.08 167.877 324.195 168.036C324.314 168.191 324.472 168.269 324.666 168.269Z" fill="#9B9B9B"/>
<line x1="360.777" y1="0.994236" x2="360.777" y2="157.762" stroke="#D8D8D8" stroke-width="0.467965" stroke-linecap="round"/>
<path d="M349.914 167.55V166.876L352.497 163.499H353.538L350.992 166.876L350.505 166.726H354.661V167.55H349.914ZM352.789 168.74V167.55L352.819 166.726V165.67H353.733V168.74H352.789ZM356.808 168.815C356.438 168.815 356.076 168.763 355.722 168.658C355.373 168.548 355.078 168.398 354.839 168.209L355.25 167.452C355.44 167.607 355.67 167.732 355.939 167.827C356.214 167.922 356.498 167.969 356.793 167.969C357.137 167.969 357.407 167.897 357.601 167.752C357.801 167.607 357.901 167.412 357.901 167.168C357.901 167.003 357.858 166.858 357.774 166.734C357.694 166.609 357.549 166.514 357.339 166.449C357.135 166.384 356.853 166.352 356.493 166.352H355.228L355.497 163.499H358.575V164.315H355.857L356.366 163.851L356.164 165.985L355.655 165.528H356.71C357.229 165.528 357.646 165.598 357.961 165.738C358.28 165.873 358.512 166.062 358.657 166.307C358.807 166.546 358.882 166.821 358.882 167.13C358.882 167.435 358.807 167.714 358.657 167.969C358.507 168.224 358.278 168.428 357.968 168.583C357.664 168.738 357.277 168.815 356.808 168.815ZM360.104 168.74L363.683 163.499H364.417L360.838 168.74H360.104ZM360.538 166.322C360.293 166.322 360.076 166.262 359.887 166.142C359.697 166.022 359.55 165.855 359.445 165.64C359.34 165.426 359.288 165.174 359.288 164.884C359.288 164.595 359.34 164.343 359.445 164.128C359.55 163.913 359.697 163.746 359.887 163.626C360.076 163.507 360.293 163.447 360.538 163.447C360.793 163.447 361.012 163.507 361.197 163.626C361.387 163.746 361.534 163.913 361.639 164.128C361.744 164.343 361.796 164.595 361.796 164.884C361.796 165.174 361.744 165.426 361.639 165.64C361.534 165.855 361.387 166.022 361.197 166.142C361.012 166.262 360.793 166.322 360.538 166.322ZM360.546 165.798C360.745 165.798 360.9 165.72 361.01 165.566C361.125 165.406 361.182 165.179 361.182 164.884C361.182 164.59 361.125 164.365 361.01 164.21C360.9 164.051 360.745 163.971 360.546 163.971C360.346 163.971 360.186 164.051 360.066 164.21C359.952 164.37 359.894 164.595 359.894 164.884C359.894 165.174 359.952 165.398 360.066 165.558C360.186 165.718 360.346 165.798 360.546 165.798ZM363.975 168.793C363.73 168.793 363.513 168.733 363.323 168.613C363.134 168.493 362.986 168.326 362.882 168.111C362.777 167.897 362.724 167.645 362.724 167.355C362.724 167.066 362.777 166.813 362.882 166.599C362.986 166.384 363.134 166.217 363.323 166.097C363.513 165.977 363.73 165.917 363.975 165.917C364.229 165.917 364.449 165.977 364.634 166.097C364.823 166.217 364.971 166.384 365.075 166.599C365.18 166.813 365.233 167.066 365.233 167.355C365.233 167.645 365.18 167.897 365.075 168.111C364.971 168.326 364.823 168.493 364.634 168.613C364.449 168.733 364.229 168.793 363.975 168.793ZM363.975 168.269C364.174 168.269 364.332 168.189 364.447 168.029C364.561 167.869 364.619 167.645 364.619 167.355C364.619 167.066 364.561 166.841 364.447 166.681C364.332 166.521 364.174 166.442 363.975 166.442C363.78 166.442 363.623 166.521 363.503 166.681C363.388 166.836 363.331 167.061 363.331 167.355C363.331 167.65 363.388 167.877 363.503 168.036C363.623 168.191 363.78 168.269 363.975 168.269Z" fill="#9B9B9B"/>
<rect x="2.05664" y="10.606" width="55.6878" height="31.1197" rx="3.74372" fill="url(#paint0_linear_5122_11563)"/>
<path d="M41.7841 28.3159L44.1405 22.9846L44.4915 23.5696H41.3412L41.9429 22.9345V24.5222H40.7395V22.4665H45.4274V23.3439L43.2548 28.3159H41.7841ZM46.9067 28.3159L50.901 22.4665H51.8954L47.9011 28.3159H46.9067ZM47.4164 25.6252C47.1323 25.6252 46.8816 25.5611 46.6643 25.433C46.4471 25.2993 46.2744 25.1127 46.1462 24.8731C46.0237 24.628 45.9624 24.3411 45.9624 24.0124C45.9624 23.6838 46.0237 23.3997 46.1462 23.1601C46.2744 22.9206 46.4471 22.7339 46.6643 22.6002C46.8816 22.4665 47.1323 22.3997 47.4164 22.3997C47.7005 22.3997 47.9512 22.4665 48.1685 22.6002C48.3857 22.7339 48.5556 22.9206 48.6782 23.1601C48.8008 23.3997 48.862 23.6838 48.862 24.0124C48.862 24.3411 48.8008 24.628 48.6782 24.8731C48.5556 25.1127 48.3857 25.2993 48.1685 25.433C47.9512 25.5611 47.7005 25.6252 47.4164 25.6252ZM47.4164 24.94C47.6002 24.94 47.7479 24.8648 47.8593 24.7144C47.9707 24.5584 48.0264 24.3244 48.0264 24.0124C48.0264 23.7005 47.9707 23.4693 47.8593 23.3189C47.7479 23.1629 47.6002 23.0849 47.4164 23.0849C47.2381 23.0849 47.0905 23.1629 46.9735 23.3189C46.8621 23.4693 46.8064 23.7005 46.8064 24.0124C46.8064 24.3188 46.8621 24.55 46.9735 24.706C47.0905 24.862 47.2381 24.94 47.4164 24.94ZM51.3856 28.3828C51.1071 28.3828 50.8564 28.3187 50.6336 28.1906C50.4163 28.0569 50.2464 27.8703 50.1238 27.6307C50.0013 27.3856 49.94 27.0987 49.94 26.77C49.94 26.4413 50.0013 26.1572 50.1238 25.9177C50.2464 25.6781 50.4163 25.4915 50.6336 25.3578C50.8564 25.2241 51.1071 25.1573 51.3856 25.1573C51.6753 25.1573 51.9288 25.2241 52.146 25.3578C52.3633 25.4915 52.5332 25.6781 52.6558 25.9177C52.7783 26.1572 52.8396 26.4413 52.8396 26.77C52.8396 27.0987 52.7783 27.3856 52.6558 27.6307C52.5332 27.8703 52.3633 28.0569 52.146 28.1906C51.9288 28.3187 51.6753 28.3828 51.3856 28.3828ZM51.3856 27.6976C51.5695 27.6976 51.7171 27.6223 51.8285 27.4719C51.9399 27.316 51.9956 27.082 51.9956 26.77C51.9956 26.4636 51.9399 26.2324 51.8285 26.0764C51.7171 25.9205 51.5695 25.8425 51.3856 25.8425C51.2074 25.8425 51.0597 25.9205 50.9427 26.0764C50.8313 26.2269 50.7756 26.458 50.7756 26.77C50.7756 27.082 50.8313 27.316 50.9427 27.4719C51.0597 27.6223 51.2074 27.6976 51.3856 27.6976Z" fill="white"/>
<path d="M63.8382 31.2119V23.7109H64.9741L68.2638 29.1866H67.653L70.8892 23.7109H72.0251L72.0465 31.2119H70.7178L70.707 25.779H70.9856L68.2424 30.3546H67.6209L64.8348 25.779H65.1563V31.2119H63.8382ZM76.546 31.2869C75.9602 31.2869 75.4387 31.1619 74.9815 30.9119C74.5243 30.6547 74.1635 30.3046 73.8992 29.8617C73.6349 29.4188 73.5027 28.9152 73.5027 28.3508C73.5027 27.7793 73.6349 27.2756 73.8992 26.8399C74.1635 26.3969 74.5243 26.0505 74.9815 25.8004C75.4387 25.5504 75.9602 25.4254 76.546 25.4254C77.1389 25.4254 77.664 25.5504 78.1212 25.8004C78.5856 26.0505 78.9463 26.3934 79.2035 26.8292C79.4678 27.2649 79.6 27.7721 79.6 28.3508C79.6 28.9152 79.4678 29.4188 79.2035 29.8617C78.9463 30.3046 78.5856 30.6547 78.1212 30.9119C77.664 31.1619 77.1389 31.2869 76.546 31.2869ZM76.546 30.1403C76.8746 30.1403 77.1675 30.0689 77.4247 29.926C77.6819 29.7831 77.8819 29.576 78.0248 29.3045C78.1748 29.033 78.2498 28.7151 78.2498 28.3508C78.2498 27.9793 78.1748 27.6614 78.0248 27.3971C77.8819 27.1256 77.6819 26.9184 77.4247 26.7756C77.1675 26.6327 76.8782 26.5613 76.5567 26.5613C76.2281 26.5613 75.9352 26.6327 75.678 26.7756C75.428 26.9184 75.2279 27.1256 75.0779 27.3971C74.9279 27.6614 74.8529 27.9793 74.8529 28.3508C74.8529 28.7151 74.9279 29.033 75.0779 29.3045C75.2279 29.576 75.428 29.7831 75.678 29.926C75.9352 30.0689 76.2245 30.1403 76.546 30.1403ZM87.5608 31.2119L85.8892 28.4687L86.9822 27.7936L89.1575 31.2119H87.5608ZM84.8069 28.9187V27.8043H86.725V28.9187H84.8069ZM87.1108 28.5115L85.8463 28.3615L87.5822 25.4897H89.0074L87.1108 28.5115ZM81.5171 31.2119H79.9312L82.0958 27.7936L83.1888 28.4687L81.5171 31.2119ZM85.2033 31.2119H83.8746V25.4897H85.2033V31.2119ZM84.2711 28.9187H82.3637V27.8043H84.2711V28.9187ZM81.9672 28.5115L80.0705 25.4897H81.4957L83.2209 28.3615L81.9672 28.5115ZM93.5203 31.2119V30.0546L93.4453 29.8081V27.7829C93.4453 27.3899 93.3274 27.0863 93.0917 26.872C92.8559 26.6506 92.4987 26.5398 92.0201 26.5398C91.6986 26.5398 91.3807 26.5898 91.0664 26.6898C90.7592 26.7899 90.4985 26.9292 90.2841 27.1078L89.7591 26.1326C90.0662 25.8969 90.4306 25.7219 90.8521 25.6075C91.2807 25.4861 91.7236 25.4254 92.1808 25.4254C93.0095 25.4254 93.6489 25.6254 94.099 26.0255C94.5562 26.4184 94.7848 27.0292 94.7848 27.8579V31.2119H93.5203ZM91.7201 31.2869C91.2914 31.2869 90.9164 31.2155 90.5949 31.0726C90.2734 30.9226 90.0234 30.719 89.8448 30.4618C89.6733 30.1975 89.5876 29.901 89.5876 29.5724C89.5876 29.2509 89.6626 28.9616 89.8126 28.7044C89.9698 28.4472 90.2234 28.2436 90.5735 28.0936C90.9235 27.9436 91.3879 27.8686 91.9665 27.8686H93.6275V28.758H92.063C91.6058 28.758 91.2986 28.833 91.1414 28.983C90.9842 29.1259 90.9057 29.3045 90.9057 29.5188C90.9057 29.7617 91.0021 29.9546 91.195 30.0975C91.3879 30.2403 91.6558 30.3118 91.9987 30.3118C92.3273 30.3118 92.6202 30.2368 92.8774 30.0868C93.1417 29.9367 93.331 29.7153 93.4453 29.4224L93.6703 30.2261C93.5417 30.5618 93.3096 30.8226 92.9738 31.0083C92.6452 31.1941 92.2273 31.2869 91.7201 31.2869ZM96.4423 31.2119V25.4897H97.8461L100.15 29.551H99.5927L102.015 25.4897H103.268L103.279 31.2119H102.068V26.9256L102.282 27.0649L100.139 30.6118H99.5606L97.4067 26.9685L97.6639 26.9042V31.2119H96.4423ZM111.959 30.5904V26.6256H109.762L109.73 27.5471C109.716 27.8757 109.694 28.1936 109.666 28.5008C109.637 28.8009 109.591 29.0795 109.527 29.3366C109.462 29.5867 109.369 29.7939 109.248 29.9582C109.127 30.1225 108.966 30.2296 108.766 30.2796L107.437 30.076C107.651 30.076 107.823 30.0082 107.951 29.8724C108.087 29.7296 108.191 29.5367 108.262 29.2938C108.341 29.0438 108.398 28.7616 108.434 28.4472C108.469 28.1258 108.494 27.7936 108.509 27.4507L108.584 25.4897H113.299V30.5904H111.959ZM107.233 32.4871V30.076H114.145V32.4871H112.891V31.2119H108.476V32.4871H107.233ZM118.813 31.2119V30.0546L118.738 29.8081V27.7829C118.738 27.3899 118.62 27.0863 118.385 26.872C118.149 26.6506 117.792 26.5398 117.313 26.5398C116.992 26.5398 116.674 26.5898 116.359 26.6898C116.052 26.7899 115.792 26.9292 115.577 27.1078L115.052 26.1326C115.359 25.8969 115.724 25.7219 116.145 25.6075C116.574 25.4861 117.017 25.4254 117.474 25.4254C118.303 25.4254 118.942 25.6254 119.392 26.0255C119.849 26.4184 120.078 27.0292 120.078 27.8579V31.2119H118.813ZM117.013 31.2869C116.584 31.2869 116.209 31.2155 115.888 31.0726C115.566 30.9226 115.316 30.719 115.138 30.4618C114.966 30.1975 114.881 29.901 114.881 29.5724C114.881 29.2509 114.956 28.9616 115.106 28.7044C115.263 28.4472 115.516 28.2436 115.867 28.0936C116.217 27.9436 116.681 27.8686 117.26 27.8686H118.921V28.758H117.356C116.899 28.758 116.592 28.833 116.434 28.983C116.277 29.1259 116.199 29.3045 116.199 29.5188C116.199 29.7617 116.295 29.9546 116.488 30.0975C116.681 30.2403 116.949 30.3118 117.292 30.3118C117.62 30.3118 117.913 30.2368 118.17 30.0868C118.435 29.9367 118.624 29.7153 118.738 29.4224L118.963 30.2261C118.835 30.5618 118.603 30.8226 118.267 31.0083C117.938 31.1941 117.52 31.2869 117.013 31.2869ZM127.869 31.2869C127.404 31.2869 126.979 31.1798 126.594 30.9655C126.215 30.7511 125.911 30.4297 125.683 30.001C125.461 29.5653 125.351 29.0152 125.351 28.3508C125.351 27.6793 125.458 27.1292 125.672 26.7006C125.893 26.2719 126.193 25.954 126.572 25.7469C126.951 25.5325 127.383 25.4254 127.869 25.4254C128.433 25.4254 128.93 25.5468 129.358 25.7897C129.794 26.0326 130.137 26.3719 130.387 26.8077C130.644 27.2435 130.773 27.7579 130.773 28.3508C130.773 28.9437 130.644 29.4617 130.387 29.9046C130.137 30.3404 129.794 30.6797 129.358 30.9226C128.93 31.1655 128.433 31.2869 127.869 31.2869ZM124.697 33.2908V25.4897H125.972V26.8399L125.929 28.3615L126.036 29.8832V33.2908H124.697ZM127.719 30.1403C128.04 30.1403 128.326 30.0689 128.576 29.926C128.833 29.7831 129.037 29.576 129.187 29.3045C129.337 29.033 129.412 28.7151 129.412 28.3508C129.412 27.9793 129.337 27.6614 129.187 27.3971C129.037 27.1256 128.833 26.9184 128.576 26.7756C128.326 26.6327 128.04 26.5613 127.719 26.5613C127.397 26.5613 127.108 26.6327 126.851 26.7756C126.594 26.9184 126.39 27.1256 126.24 27.3971C126.09 27.6614 126.015 27.9793 126.015 28.3508C126.015 28.7151 126.09 29.033 126.24 29.3045C126.39 29.576 126.594 29.7831 126.851 29.926C127.108 30.0689 127.397 30.1403 127.719 30.1403ZM135.504 31.2119V30.0546L135.429 29.8081V27.7829C135.429 27.3899 135.312 27.0863 135.076 26.872C134.84 26.6506 134.483 26.5398 134.004 26.5398C133.683 26.5398 133.365 26.5898 133.051 26.6898C132.743 26.7899 132.483 26.9292 132.268 27.1078L131.743 26.1326C132.05 25.8969 132.415 25.7219 132.836 25.6075C133.265 25.4861 133.708 25.4254 134.165 25.4254C134.994 25.4254 135.633 25.6254 136.083 26.0255C136.54 26.4184 136.769 27.0292 136.769 27.8579V31.2119H135.504ZM133.704 31.2869C133.276 31.2869 132.901 31.2155 132.579 31.0726C132.258 30.9226 132.008 30.719 131.829 30.4618C131.658 30.1975 131.572 29.901 131.572 29.5724C131.572 29.2509 131.647 28.9616 131.797 28.7044C131.954 28.4472 132.208 28.2436 132.558 28.0936C132.908 27.9436 133.372 27.8686 133.951 27.8686H135.612V28.758H134.047C133.59 28.758 133.283 28.833 133.126 28.983C132.968 29.1259 132.89 29.3045 132.89 29.5188C132.89 29.7617 132.986 29.9546 133.179 30.0975C133.372 30.2403 133.64 30.3118 133.983 30.3118C134.311 30.3118 134.604 30.2368 134.862 30.0868C135.126 29.9367 135.315 29.7153 135.429 29.4224L135.655 30.2261C135.526 30.5618 135.294 30.8226 134.958 31.0083C134.629 31.1941 134.211 31.2869 133.704 31.2869ZM141.159 31.3191C140.687 31.3191 140.266 31.2476 139.895 31.1048C139.523 30.9619 139.202 30.744 138.93 30.4511C138.666 30.151 138.462 29.7724 138.319 29.3152C138.176 28.858 138.105 28.3151 138.105 27.6864C138.105 27.2292 138.144 26.8113 138.223 26.4327C138.301 26.054 138.419 25.7147 138.576 25.4147C138.734 25.1075 138.93 24.836 139.166 24.6003C139.409 24.3645 139.691 24.1681 140.012 24.0109C140.334 23.8537 140.698 23.7323 141.105 23.6466L143.763 23.0786L143.956 24.2788L141.545 24.7717C141.409 24.8003 141.245 24.8432 141.052 24.9003C140.866 24.9503 140.673 25.0289 140.473 25.1361C140.28 25.2361 140.098 25.3825 139.927 25.5754C139.762 25.7611 139.627 26.004 139.519 26.3041C139.419 26.597 139.369 26.9649 139.369 27.4078C139.369 27.5435 139.373 27.6471 139.38 27.7186C139.394 27.7829 139.405 27.8543 139.412 27.9329C139.427 28.0043 139.434 28.1115 139.434 28.2544L138.93 27.7293C139.073 27.3649 139.269 27.0542 139.519 26.797C139.777 26.5327 140.073 26.3327 140.409 26.1969C140.752 26.054 141.123 25.9826 141.523 25.9826C142.059 25.9826 142.534 26.0933 142.949 26.3148C143.363 26.5363 143.688 26.847 143.924 27.2471C144.159 27.6471 144.277 28.1008 144.277 28.608C144.277 29.1366 144.149 29.6045 143.892 30.0117C143.634 30.4189 143.27 30.7404 142.799 30.9762C142.334 31.2048 141.788 31.3191 141.159 31.3191ZM141.266 30.2368C141.588 30.2368 141.87 30.1689 142.113 30.0332C142.363 29.8903 142.556 29.6974 142.691 29.4545C142.834 29.2116 142.906 28.9402 142.906 28.6401C142.906 28.3401 142.834 28.0793 142.691 27.8579C142.556 27.6293 142.363 27.4471 142.113 27.3114C141.87 27.1756 141.58 27.1078 141.245 27.1078C140.923 27.1078 140.634 27.1721 140.377 27.3006C140.127 27.4292 139.93 27.6078 139.787 27.8364C139.652 28.0579 139.584 28.3151 139.584 28.608C139.584 28.908 139.655 29.1831 139.798 29.4331C139.941 29.6831 140.137 29.8796 140.387 30.0225C140.645 30.1653 140.938 30.2368 141.266 30.2368ZM148.124 31.2869C147.538 31.2869 147.017 31.1619 146.56 30.9119C146.102 30.6547 145.742 30.3046 145.477 29.8617C145.213 29.4188 145.081 28.9152 145.081 28.3508C145.081 27.7793 145.213 27.2756 145.477 26.8399C145.742 26.3969 146.102 26.0505 146.56 25.8004C147.017 25.5504 147.538 25.4254 148.124 25.4254C148.717 25.4254 149.242 25.5504 149.699 25.8004C150.164 26.0505 150.525 26.3934 150.782 26.8292C151.046 27.2649 151.178 27.7721 151.178 28.3508C151.178 28.9152 151.046 29.4188 150.782 29.8617C150.525 30.3046 150.164 30.6547 149.699 30.9119C149.242 31.1619 148.717 31.2869 148.124 31.2869ZM148.124 30.1403C148.453 30.1403 148.746 30.0689 149.003 29.926C149.26 29.7831 149.46 29.576 149.603 29.3045C149.753 29.033 149.828 28.7151 149.828 28.3508C149.828 27.9793 149.753 27.6614 149.603 27.3971C149.46 27.1256 149.26 26.9184 149.003 26.7756C148.746 26.6327 148.456 26.5613 148.135 26.5613C147.806 26.5613 147.513 26.6327 147.256 26.7756C147.006 26.9184 146.806 27.1256 146.656 27.3971C146.506 27.6614 146.431 27.9793 146.431 28.3508C146.431 28.7151 146.506 29.033 146.656 29.3045C146.806 29.576 147.006 29.7831 147.256 29.926C147.513 30.0689 147.803 30.1403 148.124 30.1403ZM153.482 31.2119V26.3041L153.792 26.6256H151.467V25.4897H156.825V26.6256H154.51L154.821 26.3041V31.2119H153.482ZM161.268 31.2119V30.0546L161.193 29.8081V27.7829C161.193 27.3899 161.076 27.0863 160.84 26.872C160.604 26.6506 160.247 26.5398 159.768 26.5398C159.447 26.5398 159.129 26.5898 158.815 26.6898C158.507 26.7899 158.247 26.9292 158.032 27.1078L157.507 26.1326C157.814 25.8969 158.179 25.7219 158.6 25.6075C159.029 25.4861 159.472 25.4254 159.929 25.4254C160.758 25.4254 161.397 25.6254 161.847 26.0255C162.304 26.4184 162.533 27.0292 162.533 27.8579V31.2119H161.268ZM159.468 31.2869C159.04 31.2869 158.665 31.2155 158.343 31.0726C158.022 30.9226 157.772 30.719 157.593 30.4618C157.421 30.1975 157.336 29.901 157.336 29.5724C157.336 29.2509 157.411 28.9616 157.561 28.7044C157.718 28.4472 157.972 28.2436 158.322 28.0936C158.672 27.9436 159.136 27.8686 159.715 27.8686H161.376V28.758H159.811C159.354 28.758 159.047 28.833 158.89 28.983C158.732 29.1259 158.654 29.3045 158.654 29.5188C158.654 29.7617 158.75 29.9546 158.943 30.0975C159.136 30.2403 159.404 30.3118 159.747 30.3118C160.075 30.3118 160.368 30.2368 160.625 30.0868C160.89 29.9367 161.079 29.7153 161.193 29.4224L161.418 30.2261C161.29 30.5618 161.058 30.8226 160.722 31.0083C160.393 31.1941 159.975 31.2869 159.468 31.2869ZM164.19 31.2119V25.4897H165.594L167.898 29.551H167.341L169.763 25.4897H171.016L171.027 31.2119H169.816V26.9256L170.031 27.0649L167.887 30.6118H167.309L165.155 26.9685L165.412 26.9042V31.2119H164.19ZM178.336 31.2869C177.75 31.2869 177.228 31.1619 176.771 30.9119C176.314 30.6547 175.953 30.3046 175.689 29.8617C175.425 29.4188 175.292 28.9152 175.292 28.3508C175.292 27.7793 175.425 27.2756 175.689 26.8399C175.953 26.3969 176.314 26.0505 176.771 25.8004C177.228 25.5504 177.75 25.4254 178.336 25.4254C178.929 25.4254 179.454 25.5504 179.911 25.8004C180.375 26.0505 180.736 26.3934 180.993 26.8292C181.257 27.2649 181.39 27.7721 181.39 28.3508C181.39 28.9152 181.257 29.4188 180.993 29.8617C180.736 30.3046 180.375 30.6547 179.911 30.9119C179.454 31.1619 178.929 31.2869 178.336 31.2869ZM178.336 30.1403C178.664 30.1403 178.957 30.0689 179.214 29.926C179.472 29.7831 179.672 29.576 179.814 29.3045C179.964 29.033 180.039 28.7151 180.039 28.3508C180.039 27.9793 179.964 27.6614 179.814 27.3971C179.672 27.1256 179.472 26.9184 179.214 26.7756C178.957 26.6327 178.668 26.5613 178.346 26.5613C178.018 26.5613 177.725 26.6327 177.468 26.7756C177.218 26.9184 177.018 27.1256 176.868 27.3971C176.718 27.6614 176.643 27.9793 176.643 28.3508C176.643 28.7151 176.718 29.033 176.868 29.3045C177.018 29.576 177.218 29.7831 177.468 29.926C177.725 30.0689 178.014 30.1403 178.336 30.1403ZM186.572 30.5904V26.6256H184.375L184.343 27.5471C184.329 27.8757 184.307 28.1936 184.279 28.5008C184.25 28.8009 184.204 29.0795 184.14 29.3366C184.075 29.5867 183.982 29.7939 183.861 29.9582C183.74 30.1225 183.579 30.2296 183.379 30.2796L182.05 30.076C182.264 30.076 182.436 30.0082 182.564 29.8724C182.7 29.7296 182.804 29.5367 182.875 29.2938C182.954 29.0438 183.011 28.7616 183.047 28.4472C183.082 28.1258 183.107 27.7936 183.122 27.4507L183.197 25.4897H187.912V30.5904H186.572ZM181.846 32.4871V30.076H188.758V32.4871H187.504V31.2119H183.089V32.4871H181.846ZM196.838 30.5904V26.6256H194.641L194.609 27.5471C194.595 27.8757 194.573 28.1936 194.545 28.5008C194.516 28.8009 194.47 29.0795 194.405 29.3366C194.341 29.5867 194.248 29.7939 194.127 29.9582C194.005 30.1225 193.845 30.2296 193.645 30.2796L192.316 30.076C192.53 30.076 192.702 30.0082 192.83 29.8724C192.966 29.7296 193.069 29.5367 193.141 29.2938C193.22 29.0438 193.277 28.7616 193.312 28.4472C193.348 28.1258 193.373 27.7936 193.387 27.4507L193.462 25.4897H198.177V30.5904H196.838ZM192.112 32.4871V30.076H199.024V32.4871H197.77V31.2119H193.355V32.4871H192.112ZM202.771 31.2869C202.185 31.2869 201.663 31.1619 201.206 30.9119C200.749 30.6547 200.388 30.3046 200.124 29.8617C199.859 29.4188 199.727 28.9152 199.727 28.3508C199.727 27.7793 199.859 27.2756 200.124 26.8399C200.388 26.3969 200.749 26.0505 201.206 25.8004C201.663 25.5504 202.185 25.4254 202.771 25.4254C203.364 25.4254 203.889 25.5504 204.346 25.8004C204.81 26.0505 205.171 26.3934 205.428 26.8292C205.692 27.2649 205.825 27.7721 205.825 28.3508C205.825 28.9152 205.692 29.4188 205.428 29.8617C205.171 30.3046 204.81 30.6547 204.346 30.9119C203.889 31.1619 203.364 31.2869 202.771 31.2869ZM202.771 30.1403C203.099 30.1403 203.392 30.0689 203.649 29.926C203.906 29.7831 204.106 29.576 204.249 29.3045C204.399 29.033 204.474 28.7151 204.474 28.3508C204.474 27.9793 204.399 27.6614 204.249 27.3971C204.106 27.1256 203.906 26.9184 203.649 26.7756C203.392 26.6327 203.103 26.5613 202.781 26.5613C202.453 26.5613 202.16 26.6327 201.903 26.7756C201.653 26.9184 201.453 27.1256 201.303 27.3971C201.153 27.6614 201.077 27.9793 201.077 28.3508C201.077 28.7151 201.153 29.033 201.303 29.3045C201.453 29.576 201.653 29.7831 201.903 29.926C202.16 30.0689 202.449 30.1403 202.771 30.1403ZM207.148 31.2119V25.4897H208.552L210.855 29.551H210.298L212.72 25.4897H213.974L213.985 31.2119H212.774V26.9256L212.988 27.0649L210.845 30.6118H210.266L208.112 26.9685L208.369 26.9042V31.2119H207.148ZM219.253 31.2119V30.0546L219.178 29.8081V27.7829C219.178 27.3899 219.06 27.0863 218.824 26.872C218.589 26.6506 218.232 26.5398 217.753 26.5398C217.431 26.5398 217.113 26.5898 216.799 26.6898C216.492 26.7899 216.231 26.9292 216.017 27.1078L215.492 26.1326C215.799 25.8969 216.163 25.7219 216.585 25.6075C217.013 25.4861 217.456 25.4254 217.914 25.4254C218.742 25.4254 219.382 25.6254 219.832 26.0255C220.289 26.4184 220.518 27.0292 220.518 27.8579V31.2119H219.253ZM217.453 31.2869C217.024 31.2869 216.649 31.2155 216.328 31.0726C216.006 30.9226 215.756 30.719 215.578 30.4618C215.406 30.1975 215.32 29.901 215.32 29.5724C215.32 29.2509 215.395 28.9616 215.545 28.7044C215.703 28.4472 215.956 28.2436 216.306 28.0936C216.656 27.9436 217.121 27.8686 217.699 27.8686H219.36V28.758H217.796C217.339 28.758 217.031 28.833 216.874 28.983C216.717 29.1259 216.638 29.3045 216.638 29.5188C216.638 29.7617 216.735 29.9546 216.928 30.0975C217.121 30.2403 217.389 30.3118 217.731 30.3118C218.06 30.3118 218.353 30.2368 218.61 30.0868C218.874 29.9367 219.064 29.7153 219.178 29.4224L219.403 30.2261C219.275 30.5618 219.042 30.8226 218.707 31.0083C218.378 31.1941 217.96 31.2869 217.453 31.2869Z" fill="#606060"/>
<rect x="2.05664" y="46.4053" width="110.908" height="31.1197" rx="3.74372" fill="url(#paint1_linear_5122_11563)"/>
<path d="M93.4044 64.9653V59.6173L93.9893 60.2023H92.2345V59.1159H94.7581V64.9653H93.4044ZM95.7074 63.737V62.8261L98.465 59.1159H99.8855L97.1865 62.8261L96.5263 62.6339H101.131V63.737H95.7074ZM98.8577 64.9653V63.737L98.8995 62.6339V61.5393H100.178V64.9653H98.8577ZM102.127 64.9653L106.121 59.1159H107.115L103.121 64.9653H102.127ZM102.636 62.2746C102.352 62.2746 102.101 62.2106 101.884 62.0824C101.667 61.9487 101.494 61.7621 101.366 61.5226C101.244 61.2774 101.182 60.9905 101.182 60.6619C101.182 60.3332 101.244 60.0491 101.366 59.8095C101.494 59.57 101.667 59.3833 101.884 59.2496C102.101 59.1159 102.352 59.0491 102.636 59.0491C102.92 59.0491 103.171 59.1159 103.388 59.2496C103.606 59.3833 103.775 59.57 103.898 59.8095C104.021 60.0491 104.082 60.3332 104.082 60.6619C104.082 60.9905 104.021 61.2774 103.898 61.5226C103.775 61.7621 103.606 61.9487 103.388 62.0824C103.171 62.2106 102.92 62.2746 102.636 62.2746ZM102.636 61.5894C102.82 61.5894 102.968 61.5142 103.079 61.3638C103.191 61.2078 103.246 60.9738 103.246 60.6619C103.246 60.3499 103.191 60.1187 103.079 59.9683C102.968 59.8123 102.82 59.7343 102.636 59.7343C102.458 59.7343 102.31 59.8123 102.193 59.9683C102.082 60.1187 102.026 60.3499 102.026 60.6619C102.026 60.9683 102.082 61.1994 102.193 61.3554C102.31 61.5114 102.458 61.5894 102.636 61.5894ZM106.605 65.0322C106.327 65.0322 106.076 64.9681 105.853 64.84C105.636 64.7063 105.466 64.5197 105.344 64.2801C105.221 64.035 105.16 63.7481 105.16 63.4194C105.16 63.0907 105.221 62.8066 105.344 62.5671C105.466 62.3275 105.636 62.1409 105.853 62.0072C106.076 61.8735 106.327 61.8067 106.605 61.8067C106.895 61.8067 107.149 61.8735 107.366 62.0072C107.583 62.1409 107.753 62.3275 107.876 62.5671C107.998 62.8066 108.059 63.0907 108.059 63.4194C108.059 63.7481 107.998 64.035 107.876 64.2801C107.753 64.5197 107.583 64.7063 107.366 64.84C107.149 64.9681 106.895 65.0322 106.605 65.0322ZM106.605 64.347C106.789 64.347 106.937 64.2718 107.048 64.1213C107.16 63.9654 107.215 63.7314 107.215 63.4194C107.215 63.113 107.16 62.8818 107.048 62.7259C106.937 62.5699 106.789 62.4919 106.605 62.4919C106.427 62.4919 106.28 62.5699 106.163 62.7259C106.051 62.8763 105.995 63.1075 105.995 63.4194C105.995 63.7314 106.051 63.9654 106.163 64.1213C106.28 64.2718 106.427 64.347 106.605 64.347Z" fill="white"/>
<path d="M130.685 65.3571V59.6777H127.749L127.696 61.0064C127.674 61.5065 127.642 61.9816 127.599 62.4316C127.563 62.8746 127.503 63.2782 127.417 63.6425C127.338 64.0069 127.228 64.3105 127.085 64.5534C126.942 64.7963 126.767 64.957 126.56 65.0356L125.06 64.8213C125.331 64.8355 125.552 64.7427 125.724 64.5427C125.903 64.3426 126.042 64.064 126.142 63.7068C126.242 63.3496 126.317 62.9317 126.367 62.4531C126.417 61.9673 126.453 61.4422 126.474 60.8778L126.56 58.4989H132.057V65.3571H130.685ZM124.802 67.5967L124.813 64.8213H133.139V67.5967H131.853V66H126.099V67.5967H124.802ZM136.757 66.075C136.171 66.075 135.65 65.95 135.193 65.7C134.735 65.4428 134.375 65.0927 134.11 64.6498C133.846 64.2069 133.714 63.7032 133.714 63.1389C133.714 62.5674 133.846 62.0637 134.11 61.628C134.375 61.185 134.735 60.8386 135.193 60.5885C135.65 60.3385 136.171 60.2135 136.757 60.2135C137.35 60.2135 137.875 60.3385 138.332 60.5885C138.797 60.8386 139.157 61.1815 139.415 61.6172C139.679 62.053 139.811 62.5602 139.811 63.1389C139.811 63.7032 139.679 64.2069 139.415 64.6498C139.157 65.0927 138.797 65.4428 138.332 65.7C137.875 65.95 137.35 66.075 136.757 66.075ZM136.757 64.9284C137.086 64.9284 137.379 64.857 137.636 64.7141C137.893 64.5712 138.093 64.3641 138.236 64.0926C138.386 63.8211 138.461 63.5032 138.461 63.1389C138.461 62.7674 138.386 62.4495 138.236 62.1852C138.093 61.9137 137.893 61.7065 137.636 61.5637C137.379 61.4208 137.089 61.3493 136.768 61.3493C136.439 61.3493 136.146 61.4208 135.889 61.5637C135.639 61.7065 135.439 61.9137 135.289 62.1852C135.139 62.4495 135.064 62.7674 135.064 63.1389C135.064 63.5032 135.139 63.8211 135.289 64.0926C135.439 64.3641 135.639 64.5712 135.889 64.7141C136.146 64.857 136.436 64.9284 136.757 64.9284ZM143.685 66.075C143.099 66.075 142.577 65.95 142.12 65.7C141.663 65.4428 141.302 65.0927 141.038 64.6498C140.774 64.2069 140.641 63.7032 140.641 63.1389C140.641 62.5674 140.774 62.0637 141.038 61.628C141.302 61.185 141.663 60.8386 142.12 60.5885C142.577 60.3385 143.099 60.2135 143.685 60.2135C144.278 60.2135 144.803 60.3385 145.26 60.5885C145.724 60.8386 146.085 61.1815 146.342 61.6172C146.607 62.053 146.739 62.5602 146.739 63.1389C146.739 63.7032 146.607 64.2069 146.342 64.6498C146.085 65.0927 145.724 65.4428 145.26 65.7C144.803 65.95 144.278 66.075 143.685 66.075ZM143.685 64.9284C144.013 64.9284 144.306 64.857 144.563 64.7141C144.821 64.5712 145.021 64.3641 145.163 64.0926C145.313 63.8211 145.389 63.5032 145.389 63.1389C145.389 62.7674 145.313 62.4495 145.163 62.1852C145.021 61.9137 144.821 61.7065 144.563 61.5637C144.306 61.4208 144.017 61.3493 143.695 61.3493C143.367 61.3493 143.074 61.4208 142.817 61.5637C142.567 61.7065 142.367 61.9137 142.217 62.1852C142.067 62.4495 141.992 62.7674 141.992 63.1389C141.992 63.5032 142.067 63.8211 142.217 64.0926C142.367 64.3641 142.567 64.5712 142.817 64.7141C143.074 64.857 143.363 64.9284 143.685 64.9284ZM150.794 66.1072C150.323 66.1072 149.901 66.0357 149.53 65.8928C149.159 65.75 148.837 65.5321 148.566 65.2392C148.301 64.9391 148.098 64.5605 147.955 64.1033C147.812 63.6461 147.74 63.1032 147.74 62.4745C147.74 62.0173 147.78 61.5994 147.858 61.2208C147.937 60.8421 148.055 60.5028 148.212 60.2028C148.369 59.8956 148.566 59.6241 148.801 59.3884C149.044 59.1526 149.326 58.9561 149.648 58.799C149.969 58.6418 150.334 58.5204 150.741 58.4346L153.398 57.8667L153.591 59.0669L151.18 59.5598C151.044 59.5884 150.88 59.6312 150.687 59.6884C150.502 59.7384 150.309 59.817 150.109 59.9241C149.916 60.0242 149.734 60.1706 149.562 60.3635C149.398 60.5492 149.262 60.7921 149.155 61.0922C149.055 61.3851 149.005 61.753 149.005 62.1959C149.005 62.3316 149.008 62.4352 149.016 62.5066C149.03 62.5709 149.041 62.6424 149.048 62.721C149.062 62.7924 149.069 62.8996 149.069 63.0424L148.566 62.5174C148.708 62.153 148.905 61.8423 149.155 61.5851C149.412 61.3208 149.709 61.1207 150.044 60.985C150.387 60.8421 150.759 60.7707 151.159 60.7707C151.695 60.7707 152.17 60.8814 152.584 61.1029C152.998 61.3243 153.323 61.6351 153.559 62.0352C153.795 62.4352 153.913 62.8888 153.913 63.3961C153.913 63.9247 153.784 64.3926 153.527 64.7998C153.27 65.207 152.905 65.5285 152.434 65.7643C151.97 65.9929 151.423 66.1072 150.794 66.1072ZM150.902 65.0249C151.223 65.0249 151.505 64.957 151.748 64.8213C151.998 64.6784 152.191 64.4855 152.327 64.2426C152.47 63.9997 152.541 63.7283 152.541 63.4282C152.541 63.1282 152.47 62.8674 152.327 62.646C152.191 62.4174 151.998 62.2352 151.748 62.0994C151.505 61.9637 151.216 61.8958 150.88 61.8958C150.559 61.8958 150.269 61.9601 150.012 62.0887C149.762 62.2173 149.566 62.3959 149.423 62.6245C149.287 62.846 149.219 63.1032 149.219 63.3961C149.219 63.6961 149.291 63.9711 149.434 64.2212C149.576 64.4712 149.773 64.6677 150.023 64.8105C150.28 64.9534 150.573 65.0249 150.902 65.0249ZM155.567 68.1539C155.288 68.1539 155.009 68.1074 154.731 68.0146C154.452 67.9217 154.22 67.7931 154.034 67.6288L154.57 66.6429C154.706 66.7644 154.859 66.8608 155.031 66.9323C155.202 67.0037 155.377 67.0394 155.556 67.0394C155.799 67.0394 155.995 66.9787 156.145 66.8573C156.295 66.7358 156.435 66.5322 156.563 66.2465L156.895 65.4964L157.003 65.3356L159.167 60.2778H160.453L157.774 66.4608C157.596 66.8894 157.396 67.2287 157.174 67.4788C156.96 67.7288 156.717 67.9038 156.445 68.0039C156.181 68.1039 155.888 68.1539 155.567 68.1539ZM156.745 66.2036L154.163 60.2778H155.556L157.656 65.2177L156.745 66.2036ZM164.995 63.739C164.723 63.8676 164.434 63.9747 164.127 64.0604C163.827 64.139 163.509 64.1783 163.173 64.1783C162.451 64.1783 161.891 64.0104 161.491 63.6747C161.091 63.3389 160.891 62.8174 160.891 62.1102V60.2778H162.23V62.0244C162.23 62.4031 162.337 62.6781 162.551 62.8496C162.773 63.021 163.077 63.1067 163.462 63.1067C163.719 63.1067 163.977 63.0746 164.234 63.0103C164.491 62.946 164.745 62.8567 164.995 62.7424V63.739ZM164.898 66V60.2778H166.238V66H164.898ZM168.553 68.1539C168.275 68.1539 167.996 68.1074 167.717 68.0146C167.439 67.9217 167.207 67.7931 167.021 67.6288L167.557 66.6429C167.692 66.7644 167.846 66.8608 168.018 66.9323C168.189 67.0037 168.364 67.0394 168.543 67.0394C168.785 67.0394 168.982 66.9787 169.132 66.8573C169.282 66.7358 169.421 66.5322 169.55 66.2465L169.882 65.4964L169.989 65.3356L172.154 60.2778H173.44L170.761 66.4608C170.582 66.8894 170.382 67.2287 170.161 67.4788C169.946 67.7288 169.703 67.9038 169.432 68.0039C169.168 68.1039 168.875 68.1539 168.553 68.1539ZM169.732 66.2036L167.15 60.2778H168.543L170.643 65.2177L169.732 66.2036ZM174.37 66V60.2778H177.167C177.86 60.2778 178.403 60.4064 178.796 60.6635C179.196 60.9207 179.396 61.285 179.396 61.7565C179.396 62.2209 179.21 62.5852 178.839 62.8496C178.467 63.1067 177.974 63.2353 177.36 63.2353L177.521 62.9031C178.213 62.9031 178.728 63.0317 179.064 63.2889C179.406 63.5389 179.578 63.9068 179.578 64.3926C179.578 64.8998 179.389 65.2963 179.01 65.5821C178.631 65.8607 178.056 66 177.285 66H174.37ZM175.645 65.0249H177.178C177.542 65.0249 177.817 64.9677 178.003 64.8534C178.188 64.732 178.281 64.5498 178.281 64.3069C178.281 64.0497 178.196 63.8604 178.024 63.739C177.853 63.6175 177.585 63.5568 177.22 63.5568H175.645V65.0249ZM175.645 62.6674H177.049C177.392 62.6674 177.649 62.6067 177.821 62.4852C177.999 62.3566 178.088 62.178 178.088 61.9494C178.088 61.7137 177.999 61.5387 177.821 61.4244C177.649 61.3101 177.392 61.2529 177.049 61.2529H175.645V62.6674ZM184.477 66V64.8427L184.402 64.5962V62.5709C184.402 62.178 184.284 61.8744 184.048 61.6601C183.812 61.4386 183.455 61.3279 182.976 61.3279C182.655 61.3279 182.337 61.3779 182.023 61.4779C181.715 61.5779 181.455 61.7173 181.24 61.8958L180.715 60.9207C181.023 60.685 181.387 60.5099 181.808 60.3956C182.237 60.2742 182.68 60.2135 183.137 60.2135C183.966 60.2135 184.605 60.4135 185.055 60.8136C185.512 61.2065 185.741 61.8173 185.741 62.646V66H184.477ZM182.676 66.075C182.248 66.075 181.873 66.0036 181.551 65.8607C181.23 65.7107 180.98 65.5071 180.801 65.2499C180.63 64.9856 180.544 64.6891 180.544 64.3605C180.544 64.039 180.619 63.7497 180.769 63.4925C180.926 63.2353 181.18 63.0317 181.53 62.8817C181.88 62.7317 182.344 62.6567 182.923 62.6567H184.584V63.5461H183.019C182.562 63.5461 182.255 63.6211 182.098 63.7711C181.94 63.914 181.862 64.0926 181.862 64.3069C181.862 64.5498 181.958 64.7427 182.151 64.8856C182.344 65.0284 182.612 65.0999 182.955 65.0999C183.284 65.0999 183.576 65.0249 183.834 64.8748C184.098 64.7248 184.287 64.5034 184.402 64.2105L184.627 65.0141C184.498 65.3499 184.266 65.6107 183.93 65.7964C183.601 65.9821 183.184 66.075 182.676 66.075ZM194.375 62.4102C195.075 62.4102 195.614 62.5602 195.993 62.8603C196.371 63.1532 196.561 63.5782 196.561 64.1355C196.561 64.7212 196.35 65.1785 195.928 65.5071C195.507 65.8357 194.925 66 194.182 66H191.513V63.5461H188.738V66H187.399V60.2778H188.738V62.4102H191.513V60.2778H192.853V62.4102H194.375ZM194.096 65.0356C194.453 65.0356 194.725 64.9641 194.91 64.8213C195.096 64.6712 195.189 64.4676 195.189 64.2105C195.189 63.9533 195.096 63.7604 194.91 63.6318C194.725 63.5032 194.453 63.4389 194.096 63.4389H192.853V65.0356H194.096ZM200.374 66.075C199.739 66.075 199.181 65.95 198.703 65.7C198.231 65.4428 197.863 65.0927 197.599 64.6498C197.342 64.2069 197.213 63.7032 197.213 63.1389C197.213 62.5674 197.338 62.0637 197.588 61.628C197.846 61.185 198.196 60.8386 198.639 60.5885C199.089 60.3385 199.599 60.2135 200.171 60.2135C200.728 60.2135 201.225 60.3349 201.66 60.5778C202.096 60.8207 202.439 61.1636 202.689 61.6065C202.939 62.0494 203.064 62.5709 203.064 63.171C203.064 63.2282 203.061 63.2925 203.053 63.3639C203.053 63.4354 203.05 63.5032 203.043 63.5675H198.274V62.6781H202.335L201.81 62.9567C201.818 62.6281 201.75 62.3388 201.607 62.0887C201.464 61.8387 201.267 61.6422 201.017 61.4994C200.775 61.3565 200.492 61.285 200.171 61.285C199.842 61.285 199.553 61.3565 199.303 61.4994C199.06 61.6422 198.867 61.8423 198.724 62.0994C198.589 62.3495 198.521 62.646 198.521 62.9889V63.2032C198.521 63.5461 198.599 63.8497 198.756 64.114C198.914 64.3783 199.135 64.5819 199.421 64.7248C199.707 64.8677 200.035 64.9391 200.407 64.9391C200.728 64.9391 201.017 64.8891 201.275 64.7891C201.532 64.6891 201.76 64.5319 201.96 64.3176L202.678 65.1427C202.421 65.4428 202.096 65.675 201.703 65.8393C201.317 65.9964 200.875 66.075 200.374 66.075Z" fill="#606060"/>
<rect x="2.05664" y="82.2046" width="268.144" height="31.1197" rx="3.74372" fill="url(#paint2_linear_5122_11563)"/>
<path d="M12.7693 100.622V94.9423H9.83319L9.77962 96.2711C9.75818 96.7712 9.72604 97.2462 9.68317 97.6963C9.64745 98.1392 9.58673 98.5428 9.50101 98.9072C9.42242 99.2715 9.31169 99.5751 9.16882 99.818C9.02594 100.061 8.85091 100.222 8.64374 100.3L7.14353 100.086C7.415 100.1 7.63646 100.007 7.80791 99.8073C7.9865 99.6073 8.12581 99.3287 8.22582 98.9715C8.32584 98.6143 8.40085 98.1964 8.45086 97.7177C8.50086 97.2319 8.53658 96.7069 8.55801 96.1425L8.64374 93.7636H14.1409V100.622H12.7693ZM6.88635 102.861L6.89707 100.086H15.2232V102.861H13.9373V101.265H8.18296V102.861H6.88635ZM19.8568 101.265V100.107L19.7818 99.8609V97.8356C19.7818 97.4427 19.6639 97.1391 19.4282 96.9247C19.1924 96.7033 18.8352 96.5926 18.3566 96.5926C18.0351 96.5926 17.7172 96.6426 17.4029 96.7426C17.0957 96.8426 16.835 96.9819 16.6207 97.1605L16.0956 96.1854C16.4028 95.9496 16.7671 95.7746 17.1886 95.6603C17.6172 95.5388 18.0601 95.4781 18.5173 95.4781C19.346 95.4781 19.9854 95.6781 20.4355 96.0782C20.8927 96.4711 21.1213 97.0819 21.1213 97.9106V101.265H19.8568ZM18.0566 101.34C17.6279 101.34 17.2529 101.268 16.9314 101.125C16.6099 100.975 16.3599 100.772 16.1813 100.515C16.0098 100.25 15.9241 99.9537 15.9241 99.6251C15.9241 99.3037 15.9991 99.0143 16.1492 98.7572C16.3063 98.5 16.5599 98.2964 16.91 98.1464C17.26 97.9963 17.7244 97.9213 18.303 97.9213H19.964V98.8107H18.3995C17.9423 98.8107 17.6351 98.8857 17.4779 99.0358C17.3207 99.1786 17.2422 99.3572 17.2422 99.5716C17.2422 99.8144 17.3386 100.007 17.5315 100.15C17.7244 100.293 17.9923 100.365 18.3352 100.365C18.6638 100.365 18.9567 100.29 19.2139 100.139C19.4782 99.9895 19.6675 99.768 19.7818 99.4751L20.0068 100.279C19.8783 100.615 19.6461 100.875 19.3103 101.061C18.9817 101.247 18.5638 101.34 18.0566 101.34ZM28.3442 101.34C27.7442 101.34 27.2084 101.215 26.7369 100.965C26.2725 100.707 25.9082 100.357 25.6439 99.9145C25.3795 99.4715 25.2474 98.9679 25.2474 98.4035C25.2474 97.832 25.3795 97.3284 25.6439 96.8926C25.9082 96.4497 26.2725 96.1032 26.7369 95.8532C27.2084 95.6031 27.7442 95.4781 28.3442 95.4781C28.9015 95.4781 29.3908 95.5924 29.8123 95.821C30.2409 96.0425 30.566 96.3711 30.7874 96.8069L29.7587 97.407C29.5873 97.1355 29.3765 96.9355 29.1265 96.8069C28.8836 96.6783 28.6193 96.614 28.3335 96.614C28.0049 96.614 27.7084 96.6854 27.4441 96.8283C27.1798 96.9712 26.9726 97.1784 26.8226 97.4498C26.6726 97.7141 26.5976 98.032 26.5976 98.4035C26.5976 98.775 26.6726 99.0965 26.8226 99.368C26.9726 99.6323 27.1798 99.8359 27.4441 99.9788C27.7084 100.122 28.0049 100.193 28.3335 100.193C28.6193 100.193 28.8836 100.129 29.1265 100C29.3765 99.8716 29.5873 99.6716 29.7587 99.4001L30.7874 100C30.566 100.429 30.2409 100.761 29.8123 100.997C29.3908 101.225 28.9015 101.34 28.3442 101.34ZM34.5513 101.34C33.9155 101.34 33.3583 101.215 32.8796 100.965C32.4081 100.707 32.0402 100.357 31.7759 99.9145C31.5187 99.4715 31.3901 98.9679 31.3901 98.4035C31.3901 97.832 31.5151 97.3284 31.7652 96.8926C32.0224 96.4497 32.3724 96.1032 32.8153 95.8532C33.2654 95.6031 33.7762 95.4781 34.3477 95.4781C34.9049 95.4781 35.4014 95.5996 35.8372 95.8425C36.273 96.0853 36.6159 96.4282 36.8659 96.8712C37.1159 97.3141 37.241 97.8356 37.241 98.4357C37.241 98.4928 37.2374 98.5571 37.2302 98.6286C37.2302 98.7 37.2267 98.7679 37.2195 98.8322H32.451V97.9428H36.5123L35.9872 98.2214C35.9943 97.8927 35.9265 97.6034 35.7836 97.3534C35.6407 97.1033 35.4443 96.9069 35.1942 96.764C34.9513 96.6211 34.6692 96.5497 34.3477 96.5497C34.0191 96.5497 33.7297 96.6211 33.4797 96.764C33.2368 96.9069 33.0439 97.1069 32.9011 97.3641C32.7653 97.6141 32.6974 97.9106 32.6974 98.2535V98.4678C32.6974 98.8107 32.776 99.1143 32.9332 99.3787C33.0904 99.643 33.3118 99.8466 33.5976 99.9895C33.8833 100.132 34.2119 100.204 34.5834 100.204C34.9049 100.204 35.1942 100.154 35.4514 100.054C35.7086 99.9537 35.9372 99.7966 36.1372 99.5823L36.8552 100.407C36.598 100.707 36.273 100.94 35.88 101.104C35.4943 101.261 35.0514 101.34 34.5513 101.34ZM41.6675 101.265V95.5424H44.4643C45.1573 95.5424 45.7002 95.671 46.0931 95.9282C46.4932 96.1854 46.6932 96.5497 46.6932 97.0212C46.6932 97.4855 46.5075 97.8499 46.136 98.1142C45.7645 98.3714 45.2716 98.5 44.6572 98.5L44.8179 98.1678C45.5109 98.1678 46.0253 98.2964 46.361 98.5536C46.7039 98.8036 46.8754 99.1715 46.8754 99.6573C46.8754 100.164 46.6861 100.561 46.3074 100.847C45.9288 101.125 45.3537 101.265 44.5822 101.265H41.6675ZM42.9427 100.29H44.475C44.8394 100.29 45.1144 100.232 45.3002 100.118C45.4859 99.9966 45.5788 99.8144 45.5788 99.5716C45.5788 99.3144 45.493 99.1251 45.3216 99.0036C45.1501 98.8822 44.8822 98.8214 44.5179 98.8214H42.9427V100.29ZM42.9427 97.932H44.3464C44.6894 97.932 44.9465 97.8713 45.118 97.7499C45.2966 97.6213 45.3859 97.4427 45.3859 97.2141C45.3859 96.9783 45.2966 96.8033 45.118 96.689C44.9465 96.5747 44.6894 96.5175 44.3464 96.5175H42.9427V97.932ZM51.474 101.34C51.0096 101.34 50.5846 101.233 50.1988 101.018C49.8202 100.804 49.5165 100.482 49.2879 100.054C49.0665 99.618 48.9557 99.0679 48.9557 98.4035C48.9557 97.732 49.0629 97.1819 49.2772 96.7533C49.4987 96.3247 49.7987 96.0068 50.1774 95.7996C50.556 95.5853 50.9882 95.4781 51.474 95.4781C52.0383 95.4781 52.5348 95.5996 52.9635 95.8425C53.3992 96.0853 53.7421 96.4247 53.9922 96.8605C54.2494 97.2962 54.3779 97.8106 54.3779 98.4035C54.3779 98.9965 54.2494 99.5144 53.9922 99.9573C53.7421 100.393 53.3992 100.732 52.9635 100.975C52.5348 101.218 52.0383 101.34 51.474 101.34ZM48.3021 103.344V95.5424H49.5773V96.8926L49.5344 98.4142L49.6416 99.9359V103.344H48.3021ZM51.3239 100.193C51.6454 100.193 51.9312 100.122 52.1812 99.9788C52.4384 99.8359 52.642 99.6287 52.792 99.3572C52.942 99.0858 53.017 98.7679 53.017 98.4035C53.017 98.032 52.942 97.7141 52.792 97.4498C52.642 97.1784 52.4384 96.9712 52.1812 96.8283C51.9312 96.6854 51.6454 96.614 51.3239 96.614C51.0025 96.614 50.7131 96.6854 50.456 96.8283C50.1988 96.9712 49.9952 97.1784 49.8452 97.4498C49.6951 97.7141 49.6201 98.032 49.6201 98.4035C49.6201 98.7679 49.6951 99.0858 49.8452 99.3572C49.9952 99.6287 50.1988 99.8359 50.456 99.9788C50.7131 100.122 51.0025 100.193 51.3239 100.193ZM59.1097 101.265V100.107L59.0347 99.8609V97.8356C59.0347 97.4427 58.9168 97.1391 58.6811 96.9247C58.4453 96.7033 58.0882 96.5926 57.6095 96.5926C57.288 96.5926 56.9701 96.6426 56.6558 96.7426C56.3486 96.8426 56.0879 96.9819 55.8736 97.1605L55.3485 96.1854C55.6557 95.9496 56.02 95.7746 56.4415 95.6603C56.8701 95.5388 57.313 95.4781 57.7703 95.4781C58.5989 95.4781 59.2383 95.6781 59.6884 96.0782C60.1456 96.4711 60.3742 97.0819 60.3742 97.9106V101.265H59.1097ZM57.3095 101.34C56.8808 101.34 56.5058 101.268 56.1843 101.125C55.8628 100.975 55.6128 100.772 55.4342 100.515C55.2628 100.25 55.177 99.9537 55.177 99.6251C55.177 99.3037 55.252 99.0143 55.4021 98.7572C55.5592 98.5 55.8128 98.2964 56.1629 98.1464C56.5129 97.9963 56.9773 97.9213 57.5559 97.9213H59.2169V98.8107H57.6524C57.1952 98.8107 56.888 98.8857 56.7308 99.0358C56.5737 99.1786 56.4951 99.3572 56.4951 99.5716C56.4951 99.8144 56.5915 100.007 56.7844 100.15C56.9773 100.293 57.2452 100.365 57.5881 100.365C57.9167 100.365 58.2096 100.29 58.4668 100.139C58.7311 99.9895 58.9204 99.768 59.0347 99.4751L59.2597 100.279C59.1312 100.615 58.899 100.875 58.5632 101.061C58.2346 101.247 57.8167 101.34 57.3095 101.34ZM64.7642 101.372C64.2927 101.372 63.8712 101.3 63.4998 101.157C63.1283 101.015 62.8068 100.797 62.5353 100.504C62.271 100.204 62.0674 99.8252 61.9245 99.368C61.7817 98.9107 61.7102 98.3678 61.7102 97.7391C61.7102 97.2819 61.7495 96.864 61.8281 96.4854C61.9067 96.1068 62.0246 95.7674 62.1817 95.4674C62.3389 95.1602 62.5353 94.8887 62.7711 94.653C63.014 94.4173 63.2962 94.2208 63.6176 94.0636C63.9391 93.9065 64.3035 93.785 64.7107 93.6993L67.3682 93.1314L67.5611 94.3315L65.15 94.8245C65.0143 94.853 64.85 94.8959 64.6571 94.953C64.4713 95.003 64.2785 95.0816 64.0784 95.1888C63.8855 95.2888 63.7034 95.4353 63.5319 95.6281C63.3676 95.8139 63.2319 96.0568 63.1247 96.3568C63.0247 96.6497 62.9747 97.0176 62.9747 97.4605C62.9747 97.5963 62.9783 97.6999 62.9854 97.7713C62.9997 97.8356 63.0104 97.907 63.0176 97.9856C63.0318 98.0571 63.039 98.1642 63.039 98.3071L62.5353 97.782C62.6782 97.4177 62.8747 97.1069 63.1247 96.8497C63.3819 96.5854 63.6784 96.3854 64.0141 96.2497C64.357 96.1068 64.7285 96.0353 65.1286 96.0353C65.6644 96.0353 66.1394 96.1461 66.5538 96.3675C66.9681 96.589 67.2932 96.8997 67.5289 97.2998C67.7647 97.6999 67.8825 98.1535 67.8825 98.6607C67.8825 99.1894 67.7539 99.6573 67.4968 100.064C67.2396 100.472 66.8752 100.793 66.4038 101.029C65.9394 101.258 65.3929 101.372 64.7642 101.372ZM64.8714 100.29C65.1929 100.29 65.475 100.222 65.7179 100.086C65.968 99.943 66.1609 99.7501 66.2966 99.5073C66.4395 99.2644 66.5109 98.9929 66.5109 98.6929C66.5109 98.3928 66.4395 98.1321 66.2966 97.9106C66.1609 97.682 65.968 97.4998 65.7179 97.3641C65.475 97.2284 65.1857 97.1605 64.85 97.1605C64.5285 97.1605 64.2392 97.2248 63.982 97.3534C63.7319 97.482 63.5355 97.6606 63.3926 97.8892C63.2569 98.1106 63.189 98.3678 63.189 98.6607C63.189 98.9608 63.2604 99.2358 63.4033 99.4858C63.5462 99.7359 63.7427 99.9323 63.9927 100.075C64.2499 100.218 64.5428 100.29 64.8714 100.29ZM71.7294 101.34C71.1436 101.34 70.6221 101.215 70.1649 100.965C69.7077 100.707 69.3469 100.357 69.0826 99.9145C68.8183 99.4715 68.6861 98.9679 68.6861 98.4035C68.6861 97.832 68.8183 97.3284 69.0826 96.8926C69.3469 96.4497 69.7077 96.1032 70.1649 95.8532C70.6221 95.6031 71.1436 95.4781 71.7294 95.4781C72.3224 95.4781 72.8474 95.6031 73.3046 95.8532C73.769 96.1032 74.1298 96.4461 74.3869 96.8819C74.6513 97.3177 74.7834 97.8249 74.7834 98.4035C74.7834 98.9679 74.6513 99.4715 74.3869 99.9145C74.1298 100.357 73.769 100.707 73.3046 100.965C72.8474 101.215 72.3224 101.34 71.7294 101.34ZM71.7294 100.193C72.058 100.193 72.3509 100.122 72.6081 99.9788C72.8653 99.8359 73.0653 99.6287 73.2082 99.3572C73.3582 99.0858 73.4332 98.7679 73.4332 98.4035C73.4332 98.032 73.3582 97.7141 73.2082 97.4498C73.0653 97.1784 72.8653 96.9712 72.6081 96.8283C72.3509 96.6854 72.0616 96.614 71.7401 96.614C71.4115 96.614 71.1186 96.6854 70.8614 96.8283C70.6114 96.9712 70.4114 97.1784 70.2614 97.4498C70.1113 97.7141 70.0363 98.032 70.0363 98.4035C70.0363 98.7679 70.1113 99.0858 70.2614 99.3572C70.4114 99.6287 70.6114 99.8359 70.8614 99.9788C71.1186 100.122 71.4079 100.193 71.7294 100.193ZM77.0868 101.265V96.3568L77.3976 96.6783H75.0722V95.5424H80.4301V96.6783H78.1155L78.4263 96.3568V101.265H77.0868ZM84.8737 101.265V100.107L84.7987 99.8609V97.8356C84.7987 97.4427 84.6808 97.1391 84.4451 96.9247C84.2093 96.7033 83.8521 96.5926 83.3735 96.5926C83.052 96.5926 82.7341 96.6426 82.4198 96.7426C82.1126 96.8426 81.8518 96.9819 81.6375 97.1605L81.1124 96.1854C81.4196 95.9496 81.784 95.7746 82.2055 95.6603C82.6341 95.5388 83.077 95.4781 83.5342 95.4781C84.3629 95.4781 85.0023 95.6781 85.4523 96.0782C85.9095 96.4711 86.1382 97.0819 86.1382 97.9106V101.265H84.8737ZM83.0734 101.34C82.6448 101.34 82.2697 101.268 81.9483 101.125C81.6268 100.975 81.3768 100.772 81.1982 100.515C81.0267 100.25 80.941 99.9537 80.941 99.6251C80.941 99.3037 81.016 99.0143 81.166 98.7572C81.3232 98.5 81.5768 98.2964 81.9268 98.1464C82.2769 97.9963 82.7412 97.9213 83.3199 97.9213H84.9808V98.8107H83.4163C82.9591 98.8107 82.6519 98.8857 82.4948 99.0358C82.3376 99.1786 82.259 99.3572 82.259 99.5716C82.259 99.8144 82.3555 100.007 82.5484 100.15C82.7412 100.293 83.0091 100.365 83.352 100.365C83.6807 100.365 83.9736 100.29 84.2307 100.139C84.4951 99.9895 84.6844 99.768 84.7987 99.4751L85.0237 100.279C84.8951 100.615 84.6629 100.875 84.3272 101.061C83.9986 101.247 83.5806 101.34 83.0734 101.34ZM87.7957 101.265V95.5424H89.1994L91.5033 99.6037H90.9461L93.3679 95.5424H94.6216L94.6324 101.265H93.4215V96.9783L93.6358 97.1176L91.4926 100.665H90.914L88.7601 97.0212L89.0173 96.9569V101.265H87.7957Z" fill="white"/>
<path d="M249.963 100.865C249.556 100.865 249.152 100.812 248.751 100.706C248.35 100.595 248.01 100.439 247.732 100.238L248.258 99.202C248.481 99.3636 248.74 99.4917 249.035 99.5864C249.33 99.6811 249.628 99.7285 249.929 99.7285C250.269 99.7285 250.537 99.6616 250.731 99.5279C250.926 99.3942 251.024 99.2104 251.024 98.9764C251.024 98.7536 250.938 98.5781 250.765 98.45C250.592 98.3218 250.314 98.2578 249.929 98.2578H249.311V97.3636L250.94 95.5169L251.091 96.0016H248.024V94.9153H252.119V95.7927L250.498 97.6394L249.812 97.2467H250.205C250.924 97.2467 251.467 97.4082 251.835 97.7313C252.202 98.0544 252.386 98.4695 252.386 98.9764C252.386 99.3051 252.3 99.6143 252.127 99.904C251.954 100.188 251.69 100.419 251.333 100.598C250.977 100.776 250.52 100.865 249.963 100.865ZM252.944 99.5363V98.6254L255.702 94.9153H257.122L254.423 98.6254L253.763 98.4333H258.367V99.5363H252.944ZM256.095 100.765V99.5363L256.136 98.4333V97.3386H257.415V100.765H256.095ZM259.363 100.765L263.358 94.9153H264.352L260.358 100.765H259.363ZM259.873 98.0739C259.589 98.0739 259.338 98.0099 259.121 97.8817C258.904 97.748 258.731 97.5614 258.603 97.3219C258.48 97.0768 258.419 96.7899 258.419 96.4612C258.419 96.1325 258.48 95.8484 258.603 95.6088C258.731 95.3693 258.904 95.1827 259.121 95.049C259.338 94.9153 259.589 94.8484 259.873 94.8484C260.157 94.8484 260.408 94.9153 260.625 95.049C260.842 95.1827 261.012 95.3693 261.135 95.6088C261.257 95.8484 261.319 96.1325 261.319 96.4612C261.319 96.7899 261.257 97.0768 261.135 97.3219C261.012 97.5614 260.842 97.748 260.625 97.8817C260.408 98.0099 260.157 98.0739 259.873 98.0739ZM259.873 97.3887C260.057 97.3887 260.205 97.3135 260.316 97.1631C260.427 97.0071 260.483 96.7731 260.483 96.4612C260.483 96.1492 260.427 95.918 260.316 95.7676C260.205 95.6116 260.057 95.5336 259.873 95.5336C259.695 95.5336 259.547 95.6116 259.43 95.7676C259.319 95.918 259.263 96.1492 259.263 96.4612C259.263 96.7676 259.319 96.9988 259.43 97.1547C259.547 97.3107 259.695 97.3887 259.873 97.3887ZM263.842 100.831C263.564 100.831 263.313 100.767 263.09 100.639C262.873 100.506 262.703 100.319 262.58 100.079C262.458 99.8343 262.397 99.5474 262.397 99.2187C262.397 98.8901 262.458 98.6059 262.58 98.3664C262.703 98.1269 262.873 97.9402 263.09 97.8065C263.313 97.6728 263.564 97.606 263.842 97.606C264.132 97.606 264.385 97.6728 264.603 97.8065C264.82 97.9402 264.99 98.1269 265.112 98.3664C265.235 98.6059 265.296 98.8901 265.296 99.2187C265.296 99.5474 265.235 99.8343 265.112 100.079C264.99 100.319 264.82 100.506 264.603 100.639C264.385 100.767 264.132 100.831 263.842 100.831ZM263.842 100.146C264.026 100.146 264.174 100.071 264.285 99.9207C264.397 99.7647 264.452 99.5307 264.452 99.2187C264.452 98.9123 264.397 98.6812 264.285 98.5252C264.174 98.3692 264.026 98.2912 263.842 98.2912C263.664 98.2912 263.516 98.3692 263.399 98.5252C263.288 98.6756 263.232 98.9068 263.232 99.2187C263.232 99.5307 263.288 99.7647 263.399 99.9207C263.516 100.071 263.664 100.146 263.842 100.146Z" fill="white"/>
<rect x="2.05664" y="118.004" width="354.717" height="31.1197" rx="3.74372" fill="url(#paint3_linear_5122_11563)"/>
<path d="M7.79719 137.064V129.563H14.4303V137.064H13.0587V130.399L13.3801 130.742H8.84734L9.16882 130.399V137.064H7.79719ZM19.5672 137.139C19.1029 137.139 18.6778 137.032 18.2921 136.818C17.9134 136.603 17.6098 136.282 17.3812 135.853C17.1598 135.417 17.049 134.867 17.049 134.203C17.049 133.531 17.1562 132.981 17.3705 132.553C17.592 132.124 17.892 131.806 18.2706 131.599C18.6493 131.385 19.0815 131.277 19.5672 131.277C20.1316 131.277 20.6281 131.399 21.0567 131.642C21.4925 131.885 21.8354 132.224 22.0855 132.66C22.3426 133.096 22.4712 133.61 22.4712 134.203C22.4712 134.796 22.3426 135.314 22.0855 135.757C21.8354 136.192 21.4925 136.532 21.0567 136.775C20.6281 137.018 20.1316 137.139 19.5672 137.139ZM16.3954 139.143V131.342H17.6705V132.692L17.6277 134.214L17.7348 135.735V139.143H16.3954ZM19.4172 135.992C19.7387 135.992 20.0245 135.921 20.2745 135.778C20.5317 135.635 20.7353 135.428 20.8853 135.157C21.0353 134.885 21.1103 134.567 21.1103 134.203C21.1103 133.831 21.0353 133.513 20.8853 133.249C20.7353 132.978 20.5317 132.771 20.2745 132.628C20.0245 132.485 19.7387 132.413 19.4172 132.413C19.0957 132.413 18.8064 132.485 18.5492 132.628C18.2921 132.771 18.0885 132.978 17.9384 133.249C17.7884 133.513 17.7134 133.831 17.7134 134.203C17.7134 134.567 17.7884 134.885 17.9384 135.157C18.0885 135.428 18.2921 135.635 18.5492 135.778C18.8064 135.921 19.0957 135.992 19.4172 135.992ZM26.3547 137.139C25.7689 137.139 25.2474 137.014 24.7902 136.764C24.333 136.507 23.9722 136.157 23.7079 135.714C23.4436 135.271 23.3114 134.767 23.3114 134.203C23.3114 133.631 23.4436 133.128 23.7079 132.692C23.9722 132.249 24.333 131.903 24.7902 131.652C25.2474 131.402 25.7689 131.277 26.3547 131.277C26.9476 131.277 27.4727 131.402 27.9299 131.652C28.3943 131.903 28.755 132.245 29.0122 132.681C29.2765 133.117 29.4087 133.624 29.4087 134.203C29.4087 134.767 29.2765 135.271 29.0122 135.714C28.755 136.157 28.3943 136.507 27.9299 136.764C27.4727 137.014 26.9476 137.139 26.3547 137.139ZM26.3547 135.992C26.6833 135.992 26.9762 135.921 27.2334 135.778C27.4906 135.635 27.6906 135.428 27.8335 135.157C27.9835 134.885 28.0585 134.567 28.0585 134.203C28.0585 133.831 27.9835 133.513 27.8335 133.249C27.6906 132.978 27.4906 132.771 27.2334 132.628C26.9762 132.485 26.6869 132.413 26.3654 132.413C26.0368 132.413 25.7439 132.485 25.4867 132.628C25.2367 132.771 25.0367 132.978 24.8866 133.249C24.7366 133.513 24.6616 133.831 24.6616 134.203C24.6616 134.567 24.7366 134.885 24.8866 135.157C25.0367 135.428 25.2367 135.635 25.4867 135.778C25.7439 135.921 26.0332 135.992 26.3547 135.992ZM30.7319 137.064V131.342H32.1357L34.4396 135.403H33.8824L36.3042 131.342H37.5579L37.5686 137.064H36.3577V132.778L36.572 132.917L34.4289 136.464H33.8502L31.6964 132.821L31.9535 132.756V137.064H30.7319ZM42.0335 137.139C41.3977 137.139 40.8405 137.014 40.3618 136.764C39.8903 136.507 39.5224 136.157 39.2581 135.714C39.0009 135.271 38.8723 134.767 38.8723 134.203C38.8723 133.631 38.9974 133.128 39.2474 132.692C39.5046 132.249 39.8546 131.903 40.2975 131.652C40.7476 131.402 41.2584 131.277 41.8299 131.277C42.3871 131.277 42.8836 131.399 43.3194 131.642C43.7552 131.885 44.0981 132.228 44.3481 132.67C44.5982 133.113 44.7232 133.635 44.7232 134.235C44.7232 134.292 44.7196 134.356 44.7125 134.428C44.7125 134.499 44.7089 134.567 44.7017 134.631H39.9332V133.742H43.9945L43.4694 134.021C43.4766 133.692 43.4087 133.403 43.2658 133.153C43.1229 132.903 42.9265 132.706 42.6765 132.563C42.4336 132.42 42.1514 132.349 41.8299 132.349C41.5013 132.349 41.212 132.42 40.9619 132.563C40.719 132.706 40.5262 132.906 40.3833 133.163C40.2475 133.413 40.1797 133.71 40.1797 134.053V134.267C40.1797 134.61 40.2583 134.914 40.4154 135.178C40.5726 135.442 40.794 135.646 41.0798 135.789C41.3656 135.932 41.6942 136.003 42.0657 136.003C42.3871 136.003 42.6765 135.953 42.9336 135.853C43.1908 135.753 43.4194 135.596 43.6194 135.382L44.3374 136.207C44.0802 136.507 43.7552 136.739 43.3623 136.903C42.9765 137.06 42.5336 137.139 42.0335 137.139ZM46.1882 137.064V131.342H47.5277V133.667H50.4103V131.342H51.7497V137.064H50.4103V134.803H47.5277V137.064H46.1882ZM57.0168 137.064V135.907L56.9418 135.66V133.635C56.9418 133.242 56.8239 132.938 56.5882 132.724C56.3524 132.503 55.9952 132.392 55.5166 132.392C55.1951 132.392 54.8772 132.442 54.5629 132.542C54.2557 132.642 53.9949 132.781 53.7806 132.96L53.2555 131.985C53.5627 131.749 53.9271 131.574 54.3486 131.46C54.7772 131.338 55.2201 131.277 55.6773 131.277C56.506 131.277 57.1454 131.477 57.5954 131.878C58.0527 132.27 58.2813 132.881 58.2813 133.71V137.064H57.0168ZM55.2165 137.139C54.7879 137.139 54.4129 137.068 54.0914 136.925C53.7699 136.775 53.5199 136.571 53.3413 136.314C53.1698 136.05 53.0841 135.753 53.0841 135.424C53.0841 135.103 53.1591 134.814 53.3091 134.556C53.4663 134.299 53.7199 134.096 54.0699 133.946C54.42 133.796 54.8843 133.721 55.463 133.721H57.1239V134.61H55.5594C55.1022 134.61 54.795 134.685 54.6379 134.835C54.4807 134.978 54.4021 135.157 54.4021 135.371C54.4021 135.614 54.4986 135.807 54.6915 135.95C54.8843 136.092 55.1522 136.164 55.4951 136.164C55.8238 136.164 56.1167 136.089 56.3738 135.939C56.6382 135.789 56.8275 135.567 56.9418 135.274L57.1668 136.078C57.0382 136.414 56.806 136.675 56.4703 136.86C56.1417 137.046 55.7238 137.139 55.2165 137.139ZM62.9003 137.064V131.342H64.2397V133.667H67.1223V131.342H68.4618V137.064H67.1223V134.803H64.2397V137.064H62.9003ZM73.7288 137.064V135.907L73.6538 135.66V133.635C73.6538 133.242 73.536 132.938 73.3002 132.724C73.0645 132.503 72.7073 132.392 72.2286 132.392C71.9072 132.392 71.5893 132.442 71.2749 132.542C70.9677 132.642 70.707 132.781 70.4927 132.96L69.9676 131.985C70.2748 131.749 70.6391 131.574 71.0606 131.46C71.4892 131.338 71.9322 131.277 72.3894 131.277C73.2181 131.277 73.8574 131.477 74.3075 131.878C74.7647 132.27 74.9933 132.881 74.9933 133.71V137.064H73.7288ZM71.9286 137.139C71.5 137.139 71.1249 137.068 70.8034 136.925C70.482 136.775 70.2319 136.571 70.0533 136.314C69.8819 136.05 69.7961 135.753 69.7961 135.424C69.7961 135.103 69.8712 134.814 70.0212 134.556C70.1783 134.299 70.4319 134.096 70.782 133.946C71.132 133.796 71.5964 133.721 72.175 133.721H73.836V134.61H72.2715C71.8143 134.61 71.5071 134.685 71.3499 134.835C71.1928 134.978 71.1142 135.157 71.1142 135.371C71.1142 135.614 71.2106 135.807 71.4035 135.95C71.5964 136.092 71.8643 136.164 72.2072 136.164C72.5358 136.164 72.8287 136.089 73.0859 135.939C73.3502 135.789 73.5395 135.567 73.6538 135.274L73.8789 136.078C73.7503 136.414 73.5181 136.675 73.1823 136.86C72.8537 137.046 72.4358 137.139 71.9286 137.139ZM83.7165 137.064L81.6483 134.321L82.7413 133.646L85.2917 137.064H83.7165ZM79.6123 137.064V131.342H80.9518V137.064H79.6123ZM80.5553 134.771V133.656H82.4949V134.771H80.5553ZM82.8699 134.364L81.6162 134.214L83.7165 131.342H85.1524L82.8699 134.364ZM89.6037 137.064V135.907L89.5287 135.66V133.635C89.5287 133.242 89.4108 132.938 89.1751 132.724C88.9393 132.503 88.5821 132.392 88.1035 132.392C87.782 132.392 87.4641 132.442 87.1498 132.542C86.8426 132.642 86.5819 132.781 86.3675 132.96L85.8425 131.985C86.1497 131.749 86.514 131.574 86.9355 131.46C87.3641 131.338 87.807 131.277 88.2642 131.277C89.0929 131.277 89.7323 131.477 90.1824 131.878C90.6396 132.27 90.8682 132.881 90.8682 133.71V137.064H89.6037ZM87.8035 137.139C87.3748 137.139 86.9998 137.068 86.6783 136.925C86.3568 136.775 86.1068 136.571 85.9282 136.314C85.7567 136.05 85.671 135.753 85.671 135.424C85.671 135.103 85.746 134.814 85.896 134.556C86.0532 134.299 86.3068 134.096 86.6569 133.946C87.0069 133.796 87.4713 133.721 88.0499 133.721H89.7109V134.61H88.1464C87.6892 134.61 87.382 134.685 87.2248 134.835C87.0676 134.978 86.9891 135.157 86.9891 135.371C86.9891 135.614 87.0855 135.807 87.2784 135.95C87.4713 136.092 87.7392 136.164 88.0821 136.164C88.4107 136.164 88.7036 136.089 88.9608 135.939C89.2251 135.789 89.4144 135.567 89.5287 135.274L89.7537 136.078C89.6251 136.414 89.393 136.675 89.0572 136.86C88.7286 137.046 88.3107 137.139 87.8035 137.139ZM95.6976 137.139C95.2332 137.139 94.8082 137.032 94.4224 136.818C94.0438 136.603 93.7401 136.282 93.5115 135.853C93.2901 135.417 93.1794 134.867 93.1794 134.203C93.1794 133.531 93.2865 132.981 93.5008 132.553C93.7223 132.124 94.0223 131.806 94.401 131.599C94.7796 131.385 95.2118 131.277 95.6976 131.277C96.2619 131.277 96.7584 131.399 97.1871 131.642C97.6228 131.885 97.9657 132.224 98.2158 132.66C98.473 133.096 98.6016 133.61 98.6016 134.203C98.6016 134.796 98.473 135.314 98.2158 135.757C97.9657 136.192 97.6228 136.532 97.1871 136.775C96.7584 137.018 96.2619 137.139 95.6976 137.139ZM92.5257 139.143V131.342H93.8009V132.692L93.758 134.214L93.8652 135.735V139.143H92.5257ZM95.5475 135.992C95.869 135.992 96.1548 135.921 96.4048 135.778C96.662 135.635 96.8656 135.428 97.0156 135.157C97.1656 134.885 97.2406 134.567 97.2406 134.203C97.2406 133.831 97.1656 133.513 97.0156 133.249C96.8656 132.978 96.662 132.771 96.4048 132.628C96.1548 132.485 95.869 132.413 95.5475 132.413C95.2261 132.413 94.9367 132.485 94.6796 132.628C94.4224 132.771 94.2188 132.978 94.0688 133.249C93.9187 133.513 93.8437 133.831 93.8437 134.203C93.8437 134.567 93.9187 134.885 94.0688 135.157C94.2188 135.428 94.4224 135.635 94.6796 135.778C94.9367 135.921 95.2261 135.992 95.5475 135.992ZM99.9347 137.064V131.342H101.274V135.114L104.435 131.342H105.657V137.064H104.317V133.292L101.167 137.064H99.9347ZM110.127 137.139C109.491 137.139 108.934 137.014 108.455 136.764C107.984 136.507 107.616 136.157 107.352 135.714C107.094 135.271 106.966 134.767 106.966 134.203C106.966 133.631 107.091 133.128 107.341 132.692C107.598 132.249 107.948 131.903 108.391 131.652C108.841 131.402 109.352 131.277 109.923 131.277C110.481 131.277 110.977 131.399 111.413 131.642C111.849 131.885 112.192 132.228 112.442 132.67C112.692 133.113 112.817 133.635 112.817 134.235C112.817 134.292 112.813 134.356 112.806 134.428C112.806 134.499 112.802 134.567 112.795 134.631H108.027V133.742H112.088L111.563 134.021C111.57 133.692 111.502 133.403 111.359 133.153C111.216 132.903 111.02 132.706 110.77 132.563C110.527 132.42 110.245 132.349 109.923 132.349C109.595 132.349 109.305 132.42 109.055 132.563C108.813 132.706 108.62 132.906 108.477 133.163C108.341 133.413 108.273 133.71 108.273 134.053V134.267C108.273 134.61 108.352 134.914 108.509 135.178C108.666 135.442 108.888 135.646 109.173 135.789C109.459 135.932 109.788 136.003 110.159 136.003C110.481 136.003 110.77 135.953 111.027 135.853C111.284 135.753 111.513 135.596 111.713 135.382L112.431 136.207C112.174 136.507 111.849 136.739 111.456 136.903C111.07 137.06 110.627 137.139 110.127 137.139ZM117.454 137.139C116.989 137.139 116.564 137.032 116.178 136.818C115.8 136.603 115.496 136.282 115.268 135.853C115.046 135.417 114.935 134.867 114.935 134.203C114.935 133.531 115.043 132.981 115.257 132.553C115.478 132.124 115.778 131.806 116.157 131.599C116.536 131.385 116.968 131.277 117.454 131.277C118.018 131.277 118.514 131.399 118.943 131.642C119.379 131.885 119.722 132.224 119.972 132.66C120.229 133.096 120.358 133.61 120.358 134.203C120.358 134.796 120.229 135.314 119.972 135.757C119.722 136.192 119.379 136.532 118.943 136.775C118.514 137.018 118.018 137.139 117.454 137.139ZM114.282 139.143V131.342H115.557V132.692L115.514 134.214L115.621 135.735V139.143H114.282ZM117.304 135.992C117.625 135.992 117.911 135.921 118.161 135.778C118.418 135.635 118.622 135.428 118.772 135.157C118.922 134.885 118.997 134.567 118.997 134.203C118.997 133.831 118.922 133.513 118.772 133.249C118.622 132.978 118.418 132.771 118.161 132.628C117.911 132.485 117.625 132.413 117.304 132.413C116.982 132.413 116.693 132.485 116.436 132.628C116.178 132.771 115.975 132.978 115.825 133.249C115.675 133.513 115.6 133.831 115.6 134.203C115.6 134.567 115.675 134.885 115.825 135.157C115.975 135.428 116.178 135.635 116.436 135.778C116.693 135.921 116.982 135.992 117.304 135.992ZM125.089 137.064V135.907L125.014 135.66V133.635C125.014 133.242 124.896 132.938 124.661 132.724C124.425 132.503 124.068 132.392 123.589 132.392C123.268 132.392 122.95 132.442 122.635 132.542C122.328 132.642 122.067 132.781 121.853 132.96L121.328 131.985C121.635 131.749 122 131.574 122.421 131.46C122.85 131.338 123.293 131.277 123.75 131.277C124.579 131.277 125.218 131.477 125.668 131.878C126.125 132.27 126.354 132.881 126.354 133.71V137.064H125.089ZM123.289 137.139C122.86 137.139 122.485 137.068 122.164 136.925C121.842 136.775 121.592 136.571 121.414 136.314C121.242 136.05 121.157 135.753 121.157 135.424C121.157 135.103 121.232 134.814 121.382 134.556C121.539 134.299 121.792 134.096 122.142 133.946C122.493 133.796 122.957 133.721 123.536 133.721H125.196V134.61H123.632C123.175 134.61 122.868 134.685 122.71 134.835C122.553 134.978 122.475 135.157 122.475 135.371C122.475 135.614 122.571 135.807 122.764 135.95C122.957 136.092 123.225 136.164 123.568 136.164C123.896 136.164 124.189 136.089 124.446 135.939C124.711 135.789 124.9 135.567 125.014 135.274L125.239 136.078C125.111 136.414 124.879 136.675 124.543 136.86C124.214 137.046 123.796 137.139 123.289 137.139Z" fill="white"/>
<path d="M334.377 135.336V134.425L337.134 130.715H338.555L335.856 134.425L335.196 134.233H339.8V135.336H334.377ZM337.527 136.564V135.336L337.569 134.233V133.138H338.847V136.564H337.527ZM342.193 136.664C341.787 136.664 341.383 136.611 340.982 136.505C340.586 136.394 340.246 136.238 339.962 136.038L340.497 135.001C340.72 135.163 340.976 135.291 341.266 135.386C341.561 135.48 341.859 135.528 342.16 135.528C342.5 135.528 342.767 135.461 342.962 135.327C343.157 135.194 343.255 135.007 343.255 134.767C343.255 134.617 343.216 134.483 343.138 134.366C343.06 134.249 342.92 134.16 342.72 134.099C342.525 134.038 342.249 134.007 341.893 134.007H340.397L340.698 130.715H344.266V131.801H341.182L341.884 131.183L341.675 133.531L340.973 132.912H342.21C342.79 132.912 343.255 132.993 343.606 133.155C343.962 133.311 344.221 133.525 344.383 133.798C344.544 134.071 344.625 134.38 344.625 134.726C344.625 135.071 344.539 135.391 344.366 135.687C344.193 135.976 343.926 136.213 343.564 136.397C343.207 136.575 342.751 136.664 342.193 136.664ZM345.937 136.564L349.931 130.715H350.925L346.931 136.564H345.937ZM346.447 133.873C346.162 133.873 345.912 133.809 345.694 133.681C345.477 133.547 345.304 133.361 345.176 133.121C345.054 132.876 344.993 132.589 344.993 132.26C344.993 131.932 345.054 131.648 345.176 131.408C345.304 131.169 345.477 130.982 345.694 130.848C345.912 130.715 346.162 130.648 346.447 130.648C346.731 130.648 346.981 130.715 347.199 130.848C347.416 130.982 347.586 131.169 347.708 131.408C347.831 131.648 347.892 131.932 347.892 132.26C347.892 132.589 347.831 132.876 347.708 133.121C347.586 133.361 347.416 133.547 347.199 133.681C346.981 133.809 346.731 133.873 346.447 133.873ZM346.447 133.188C346.63 133.188 346.778 133.113 346.889 132.962C347.001 132.806 347.057 132.572 347.057 132.26C347.057 131.949 347.001 131.717 346.889 131.567C346.778 131.411 346.63 131.333 346.447 131.333C346.268 131.333 346.121 131.411 346.004 131.567C345.892 131.717 345.837 131.949 345.837 132.26C345.837 132.567 345.892 132.798 346.004 132.954C346.121 133.11 346.268 133.188 346.447 133.188ZM350.416 136.631C350.137 136.631 349.887 136.567 349.664 136.439C349.446 136.305 349.277 136.118 349.154 135.879C349.031 135.634 348.97 135.347 348.97 135.018C348.97 134.689 349.031 134.405 349.154 134.166C349.277 133.926 349.446 133.74 349.664 133.606C349.887 133.472 350.137 133.405 350.416 133.405C350.705 133.405 350.959 133.472 351.176 133.606C351.393 133.74 351.563 133.926 351.686 134.166C351.808 134.405 351.87 134.689 351.87 135.018C351.87 135.347 351.808 135.634 351.686 135.879C351.563 136.118 351.393 136.305 351.176 136.439C350.959 136.567 350.705 136.631 350.416 136.631ZM350.416 135.946C350.6 135.946 350.747 135.87 350.859 135.72C350.97 135.564 351.026 135.33 351.026 135.018C351.026 134.712 350.97 134.48 350.859 134.324C350.747 134.169 350.6 134.091 350.416 134.091C350.237 134.091 350.09 134.169 349.973 134.324C349.861 134.475 349.806 134.706 349.806 135.018C349.806 135.33 349.861 135.564 349.973 135.72C350.09 135.87 350.237 135.946 350.416 135.946Z" fill="white"/>
<defs>
<linearGradient id="paint0_linear_5122_11563" x1="59.807" y1="7.14826" x2="-8.11301" y2="10.4633" gradientUnits="userSpaceOnUse">
<stop stop-color="#CA498C"/>
<stop offset="1" stop-color="#734BAC"/>
</linearGradient>
<linearGradient id="paint1_linear_5122_11563" x1="117.072" y1="42.9476" x2="-17.2502" y2="56.0045" gradientUnits="userSpaceOnUse">
<stop stop-color="#CA498C"/>
<stop offset="1" stop-color="#734BAC"/>
</linearGradient>
<linearGradient id="paint2_linear_5122_11563" x1="280.132" y1="78.7469" x2="-30.5317" y2="151.758" gradientUnits="userSpaceOnUse">
<stop stop-color="#CA498C"/>
<stop offset="1" stop-color="#734BAC"/>
</linearGradient>
<linearGradient id="paint3_linear_5122_11563" x1="369.912" y1="114.546" x2="-25.5304" y2="237.487" gradientUnits="userSpaceOnUse">
<stop stop-color="#CA498C"/>
<stop offset="1" stop-color="#734BAC"/>
</linearGradient>
</defs>
</svg>
