<svg width="23" height="24" viewBox="0 0 23 24" fill="none" xmlns="http://www.w3.org/2000/svg">
<path d="M11.4995 0.231203C8.81813 0.229503 6.22045 1.16483 4.15561 2.87545C2.09078 4.58607 0.688606 6.96445 0.191536 9.59934C-0.305534 12.2342 0.13375 14.96 1.43343 17.3053C2.73312 19.6507 4.81149 21.4681 7.30919 22.4435C7.20856 21.5335 7.11656 20.1348 7.348 19.1415C7.55788 18.2431 8.69638 13.4246 8.69638 13.4246C8.69638 13.4246 8.35281 12.736 8.35281 11.7183C8.35281 10.1183 9.28 8.9252 10.4343 8.9252C11.4147 8.9252 11.8891 9.6612 11.8891 10.5453C11.8891 11.5314 11.2609 13.0063 10.936 14.3733C10.6658 15.5176 11.511 16.452 12.6394 16.452C14.6836 16.452 16.2548 14.2957 16.2548 11.185C16.2548 8.43214 14.2753 6.50733 11.4506 6.50733C8.17888 6.50733 6.25838 8.96114 6.25838 11.4969C6.25838 12.4859 6.63931 13.5453 7.11369 14.1218C7.15454 14.1652 7.18343 14.2185 7.19754 14.2765C7.21165 14.3344 7.21049 14.395 7.19419 14.4524C7.1065 14.8146 6.91244 15.5966 6.87506 15.7562C6.82475 15.9661 6.70831 16.0106 6.48981 15.91C5.05231 15.2416 4.15531 13.1414 4.15531 11.4538C4.15531 7.82695 6.79169 4.49627 11.7539 4.49627C15.743 4.49627 18.8437 7.3382 18.8437 11.1375C18.8437 15.1007 16.3439 18.2905 12.8766 18.2905C11.7108 18.2905 10.6154 17.6853 10.2403 16.9695L9.52438 19.7036C9.26419 20.7026 8.56269 21.9547 8.09406 22.718C9.67527 23.2069 11.3434 23.3487 12.9844 23.1338C14.6255 22.9189 16.2008 22.3523 17.6028 21.4727C19.0048 20.5931 20.2004 19.4213 21.108 18.0372C22.0155 16.6532 22.6136 15.0896 22.8615 13.4531C23.1093 11.8167 23.001 10.1461 22.5439 8.55541C22.0868 6.9647 21.2918 5.49139 20.2131 4.23613C19.1345 2.98086 17.7975 1.97322 16.2937 1.28204C14.7899 0.590852 13.1546 0.232412 11.4995 0.231203Z" fill="#606060"/>
</svg>
