<svg width="97" height="98" viewBox="0 0 97 98" fill="none" xmlns="http://www.w3.org/2000/svg">
<path d="M73.6879 46.1652C73.4999 45.4137 73.1168 44.7252 72.5775 44.1692C72.0381 43.6132 71.3616 43.2094 70.6163 42.9985C67.8929 42.3335 56.9996 42.3335 56.9996 42.3335C56.9996 42.3335 46.1063 42.3335 43.3829 43.0618C42.6376 43.2727 41.9611 43.6765 41.4217 44.2326C40.8824 44.7886 40.4994 45.4771 40.3113 46.2285C39.8129 48.9923 39.5691 51.796 39.5829 54.6043C39.5652 57.4338 39.809 60.2589 40.3113 63.0435C40.5186 63.7716 40.9103 64.4339 41.4483 64.9664C41.9864 65.499 42.6527 65.8837 43.3829 66.0835C46.1063 66.8118 56.9996 66.8118 56.9996 66.8118C56.9996 66.8118 67.8929 66.8118 70.6163 66.0835C71.3616 65.8726 72.0381 65.4688 72.5775 64.9128C73.1168 64.3568 73.4999 63.6683 73.6879 62.9168C74.1825 60.1738 74.4263 57.3915 74.4163 54.6043C74.434 51.7748 74.1902 48.9498 73.6879 46.1652Z" fill="#1567FF" stroke="#1567FF" stroke-width="1.5" stroke-linecap="round" stroke-linejoin="round"/>
<path d="M53.4375 59.7822L62.5417 54.6047L53.4375 49.4272V59.7822Z" fill="white" stroke="white" stroke-width="1.5" stroke-linecap="round" stroke-linejoin="round"/>
<path d="M87.25 28H26.5833C22.3952 28 19 31.3952 19 35.5833V73.5C19 77.6882 22.3952 81.0833 26.5833 81.0833H87.25C91.4382 81.0833 94.8333 77.6882 94.8333 73.5V35.5833C94.8333 31.3952 91.4382 28 87.25 28Z" stroke="#1567FF" stroke-width="3" stroke-linecap="round" stroke-linejoin="round"/>
<path d="M41.75 96.25H72.0833" stroke="#1567FF" stroke-width="3" stroke-linecap="round" stroke-linejoin="round"/>
<path d="M56.917 81.0835V96.2502" stroke="#1567FF" stroke-width="3" stroke-linecap="round" stroke-linejoin="round"/>
<circle cx="21" cy="21" r="21" fill="#1567FF"/>
<g clip-path="url(#clip0_2835_8535)">
<path d="M21 8.26514V33.7344" stroke="white" stroke-width="1.63439" stroke-linecap="round" stroke-linejoin="round"/>
<path d="M26.7883 12.8965H18.1056C17.031 12.8965 16.0004 13.3234 15.2405 14.0833C14.4806 14.8431 14.0537 15.8738 14.0537 16.9484C14.0537 18.023 14.4806 19.0537 15.2405 19.8135C16.0004 20.5734 17.031 21.0003 18.1056 21.0003H23.8941C24.9687 21.0003 25.9994 21.4272 26.7592 22.1871C27.5191 22.947 27.946 23.9776 27.946 25.0523C27.946 26.1269 27.5191 27.1575 26.7592 27.9174C25.9994 28.6773 24.9687 29.1042 23.8941 29.1042H14.0537" stroke="white" stroke-width="1.63439" stroke-linecap="round" stroke-linejoin="round"/>
</g>
<path d="M81.1537 18.2904C81.0788 18.2148 80.9896 18.1548 80.8913 18.1138C80.793 18.0729 80.6876 18.0518 80.5811 18.0518C80.4747 18.0518 80.3693 18.0729 80.271 18.1138C80.1727 18.1548 80.0835 18.2148 80.0086 18.2904L77.6537 20.6452V14.1936C77.6537 13.338 77.3139 12.5175 76.7089 11.9126C76.1039 11.3076 75.2834 10.9678 74.4279 10.9678H42.3553C42.1414 10.9678 41.9363 11.0527 41.785 11.204C41.6338 11.3552 41.5488 11.5603 41.5488 11.7742C41.5488 11.9881 41.6338 12.1932 41.785 12.3445C41.9363 12.4957 42.1414 12.5807 42.3553 12.5807H74.4279C74.8557 12.5807 75.2659 12.7506 75.5684 13.0531C75.8709 13.3556 76.0408 13.7658 76.0408 14.1936V20.6452L73.686 18.2904C73.5352 18.1353 73.329 18.0465 73.1127 18.0434C72.8964 18.0404 72.6878 18.1234 72.5328 18.2742C72.3777 18.425 72.2889 18.6312 72.2859 18.8475C72.2828 19.0638 72.3658 19.2724 72.5166 19.4275L76.2424 23.1613C76.3206 23.2349 76.4105 23.2949 76.5086 23.3387C76.6051 23.3814 76.7095 23.4034 76.815 23.4034C76.9205 23.4034 77.0249 23.3814 77.1215 23.3387C77.2211 23.298 77.3116 23.2376 77.3876 23.1613L81.1215 19.4275C81.276 19.2807 81.3662 19.0786 81.3722 18.8656C81.3783 18.6525 81.2997 18.4457 81.1537 18.2904Z" fill="#1567FF"/>
<defs>
<clipPath id="clip0_2835_8535">
<rect width="27.7846" height="27.7846" fill="white" transform="translate(7.10742 7.10791)"/>
</clipPath>
</defs>
</svg>
