<svg width="116" height="170" viewBox="0 0 116 170" fill="none" xmlns="http://www.w3.org/2000/svg">
<rect x="115.023" y="169.401" width="6.27407" height="6.27407" rx="2" transform="rotate(180 115.023 169.401)" fill="#04AA9C"/>
<rect x="87.8359" y="169.401" width="6.27407" height="6.27407" rx="2" transform="rotate(180 87.8359 169.401)" fill="#04AA9C"/>
<rect x="60.6484" y="169.4" width="6.27407" height="6.27407" rx="2" transform="rotate(180 60.6484 169.4)" fill="#04AA9C"/>
<rect x="33.4609" y="169.401" width="6.27407" height="6.27407" rx="2" transform="rotate(180 33.4609 169.401)" fill="#04AA9C"/>
<rect x="6.27344" y="169.401" width="6.27407" height="6.27407" rx="2" transform="rotate(180 6.27344 169.401)" fill="#04AA9C"/>
<rect x="115.023" y="142.213" width="6.27407" height="6.27407" rx="2" transform="rotate(180 115.023 142.213)" fill="#04AA9C"/>
<rect x="87.8359" y="142.213" width="6.27407" height="6.27407" rx="2" transform="rotate(180 87.8359 142.213)" fill="#04AA9C"/>
<rect x="60.6484" y="142.212" width="6.27407" height="6.27407" rx="2" transform="rotate(180 60.6484 142.212)" fill="#04AA9C"/>
<rect x="33.4609" y="142.213" width="6.27407" height="6.27407" rx="2" transform="rotate(180 33.4609 142.213)" fill="#04AA9C"/>
<rect x="6.27344" y="142.213" width="6.27407" height="6.27407" rx="2" transform="rotate(180 6.27344 142.213)" fill="#04AA9C"/>
<rect x="115.023" y="115.026" width="6.27407" height="6.27407" rx="2" transform="rotate(180 115.023 115.026)" fill="#04AA9C"/>
<rect x="87.8359" y="115.026" width="6.27407" height="6.27407" rx="2" transform="rotate(180 87.8359 115.026)" fill="#04AA9C"/>
<rect x="60.6484" y="115.026" width="6.27407" height="6.27407" rx="2" transform="rotate(180 60.6484 115.026)" fill="#04AA9C"/>
<rect x="33.4609" y="115.027" width="6.27407" height="6.27407" rx="2" transform="rotate(180 33.4609 115.027)" fill="#04AA9C"/>
<rect x="6.27344" y="115.026" width="6.27407" height="6.27407" rx="2" transform="rotate(180 6.27344 115.026)" fill="#04AA9C"/>
<rect x="115.023" y="87.8394" width="6.27407" height="6.27407" rx="2" transform="rotate(180 115.023 87.8394)" fill="#04AA9C"/>
<rect x="87.8359" y="87.8394" width="6.27407" height="6.27407" rx="2" transform="rotate(180 87.8359 87.8394)" fill="#04AA9C"/>
<rect x="60.6484" y="87.8394" width="6.27407" height="6.27407" rx="2" transform="rotate(180 60.6484 87.8394)" fill="#04AA9C"/>
<rect x="33.4609" y="87.8398" width="6.27407" height="6.27407" rx="2" transform="rotate(180 33.4609 87.8398)" fill="#04AA9C"/>
<rect x="6.27344" y="87.8394" width="6.27407" height="6.27407" rx="2" transform="rotate(180 6.27344 87.8394)" fill="#04AA9C"/>
<rect x="115.023" y="60.6489" width="6.27407" height="6.27407" rx="2" transform="rotate(180 115.023 60.6489)" fill="#04AA9C"/>
<rect x="87.8359" y="60.6489" width="6.27407" height="6.27407" rx="2" transform="rotate(180 87.8359 60.6489)" fill="#04AA9C"/>
<rect x="60.6484" y="60.6484" width="6.27407" height="6.27407" rx="2" transform="rotate(180 60.6484 60.6484)" fill="#04AA9C"/>
<rect x="33.4609" y="60.6489" width="6.27407" height="6.27407" rx="2" transform="rotate(180 33.4609 60.6489)" fill="#04AA9C"/>
<rect x="6.27344" y="60.6489" width="6.27407" height="6.27407" rx="2" transform="rotate(180 6.27344 60.6489)" fill="#04AA9C"/>
<rect x="115.023" y="33.4629" width="6.27407" height="6.27407" rx="2" transform="rotate(180 115.023 33.4629)" fill="#04AA9C"/>
<rect x="87.8359" y="33.4629" width="6.27407" height="6.27407" rx="2" transform="rotate(180 87.8359 33.4629)" fill="#04AA9C"/>
<rect x="60.6484" y="33.4624" width="6.27407" height="6.27407" rx="2" transform="rotate(180 60.6484 33.4624)" fill="#04AA9C"/>
<rect x="33.4609" y="33.4629" width="6.27407" height="6.27407" rx="2" transform="rotate(180 33.4609 33.4629)" fill="#04AA9C"/>
<rect x="6.27344" y="33.4629" width="6.27407" height="6.27407" rx="2" transform="rotate(180 6.27344 33.4629)" fill="#04AA9C"/>
<rect x="115.023" y="6.2749" width="6.27407" height="6.27407" rx="2" transform="rotate(180 115.023 6.2749)" fill="#04AA9C"/>
<rect x="87.8359" y="6.2749" width="6.27407" height="6.27407" rx="2" transform="rotate(180 87.8359 6.2749)" fill="#04AA9C"/>
<rect x="60.6484" y="6.27441" width="6.27407" height="6.27407" rx="2" transform="rotate(180 60.6484 6.27441)" fill="#04AA9C"/>
<rect x="33.4609" y="6.2749" width="6.27407" height="6.27407" rx="2" transform="rotate(180 33.4609 6.2749)" fill="#04AA9C"/>
<rect x="6.27344" y="6.2749" width="6.27407" height="6.27407" rx="2" transform="rotate(180 6.27344 6.2749)" fill="#04AA9C"/>
</svg>
