<svg width="101" height="102" viewBox="0 0 101 102" fill="none" xmlns="http://www.w3.org/2000/svg">
<g filter="url(#filter0_d_1811_6825)">
<rect x="18.3672" y="7.95508" width="64" height="64.6483" rx="32" fill="white"/>
<path d="M61.909 47.2581V54.6743H39.174V48.7981L49.427 39.315C50.3186 38.4775 50.913 37.7616 51.2102 37.1672C51.5074 36.5728 51.656 35.9919 51.656 35.4246C51.656 34.7221 51.4128 34.1818 50.9265 33.8035C50.4672 33.3983 49.7918 33.1956 48.9002 33.1956C48.0357 33.1956 47.2251 33.4253 46.4687 33.8846C45.7122 34.3439 45.1313 34.9923 44.726 35.8298L37.5125 32.223C38.5931 30.1967 40.1736 28.6027 42.254 27.441C44.3343 26.2522 46.8469 25.6579 49.7918 25.6579C52.0342 25.6579 54.02 26.0226 55.7491 26.7521C57.4782 27.4815 58.829 28.5217 59.8016 29.8725C60.7743 31.2234 61.2606 32.7769 61.2606 34.533C61.2606 36.1 60.9229 37.5724 60.2474 38.9503C59.599 40.3012 58.3157 41.8412 56.3975 43.5703L52.3449 47.2581H61.909Z" fill="#0A0A0A"/>
<rect x="18.8496" y="8.43753" width="63.0351" height="63.6834" rx="31.5175" stroke="url(#paint0_linear_1811_6825)" stroke-width="0.9649"/>
</g>
<defs>
<filter id="filter0_d_1811_6825" x="0.0340939" y="0.23588" width="100.666" height="101.315" filterUnits="userSpaceOnUse" color-interpolation-filters="sRGB">
<feFlood flood-opacity="0" result="BackgroundImageFix"/>
<feColorMatrix in="SourceAlpha" type="matrix" values="0 0 0 0 0 0 0 0 0 0 0 0 0 0 0 0 0 0 127 0" result="hardAlpha"/>
<feOffset dy="10.6139"/>
<feGaussianBlur stdDeviation="9.16655"/>
<feComposite in2="hardAlpha" operator="out"/>
<feColorMatrix type="matrix" values="0 0 0 0 0 0 0 0 0 0.404023 0 0 0 0 0.616667 0 0 0 0.22 0"/>
<feBlend mode="normal" in2="BackgroundImageFix" result="effect1_dropShadow_1811_6825"/>
<feBlend mode="normal" in="SourceGraphic" in2="effect1_dropShadow_1811_6825" result="shape"/>
</filter>
<linearGradient id="paint0_linear_1811_6825" x1="76.6072" y1="5.54283" x2="46.0735" y2="88.6568" gradientUnits="userSpaceOnUse">
<stop stop-color="#A1FFDD"/>
<stop offset="1" stop-color="#9CC3FF"/>
</linearGradient>
</defs>
</svg>
