<svg width="98" height="98" viewBox="0 0 98 98" fill="none" xmlns="http://www.w3.org/2000/svg">
<g clip-path="url(#clip0_2812_8640)">
<path d="M37.1733 58.1714C37.8775 58.1714 38.5529 58.4511 39.0509 58.9491C39.5488 59.447 39.8286 60.1224 39.8286 60.8266V92.6894C39.8286 93.3937 39.5488 94.069 39.0509 94.567C38.5529 95.0649 37.8775 95.3447 37.1733 95.3447H5.31048C4.60626 95.3447 3.93089 95.0649 3.43294 94.567C2.93499 94.069 2.65524 93.3937 2.65524 92.6894V60.8266C2.65524 60.1224 2.93499 59.447 3.43294 58.9491C3.93089 58.4511 4.60626 58.1714 5.31048 58.1714H37.1733ZM5.31048 55.5161C3.90205 55.5161 2.55131 56.0756 1.5554 57.0715C0.559495 58.0674 0 59.4182 0 60.8266L0 92.6894C0 94.0979 0.559495 95.4486 1.5554 96.4445C2.55131 97.4404 3.90205 97.9999 5.31048 97.9999H37.1733C38.5818 97.9999 39.9325 97.4404 40.9284 96.4445C41.9243 95.4486 42.4838 94.0979 42.4838 92.6894V60.8266C42.4838 59.4182 41.9243 58.0674 40.9284 57.0715C39.9325 56.0756 38.5818 55.5161 37.1733 55.5161H5.31048Z" fill="#9153BE"/>
<path d="M29.1281 68.7124C29.4997 68.344 30.0013 68.1367 30.5245 68.1353C31.0478 68.1338 31.5506 68.3384 31.9242 68.7047C32.2978 69.071 32.5123 69.5696 32.5212 70.0927C32.5301 70.6159 32.3328 71.1216 31.9718 71.5004L21.3721 84.75C21.1899 84.9462 20.9701 85.1037 20.7257 85.213C20.4812 85.3223 20.2173 85.3812 19.9496 85.3861C19.6819 85.3911 19.4159 85.342 19.1676 85.2418C18.9193 85.1417 18.6938 84.9925 18.5045 84.8031L11.4814 77.7774C11.2857 77.595 11.1288 77.3752 11.0199 77.1309C10.9111 76.8866 10.8526 76.6229 10.8478 76.3555C10.8431 76.0881 10.8923 75.8225 10.9925 75.5746C11.0926 75.3266 11.2417 75.1014 11.4308 74.9123C11.6199 74.7231 11.8452 74.5741 12.0931 74.4739C12.3411 74.3738 12.6067 74.3246 12.8741 74.3293C13.1415 74.334 13.4052 74.3925 13.6495 74.5014C13.8937 74.6102 14.1136 74.7671 14.2959 74.9628L19.856 80.5202L29.0776 68.7708C29.0941 68.7502 29.1118 68.7307 29.1307 68.7124H29.1281Z" fill="#9153BE"/>
</g>
<g clip-path="url(#clip1_2812_8640)">
<path d="M37.1733 2.65524C37.8775 2.65524 38.5529 2.93499 39.0509 3.43294C39.5488 3.93089 39.8286 4.60626 39.8286 5.31048V37.1733C39.8286 37.8775 39.5488 38.5529 39.0509 39.0509C38.5529 39.5488 37.8775 39.8286 37.1733 39.8286H5.31048C4.60626 39.8286 3.93089 39.5488 3.43294 39.0509C2.93499 38.5529 2.65524 37.8775 2.65524 37.1733V5.31048C2.65524 4.60626 2.93499 3.93089 3.43294 3.43294C3.93089 2.93499 4.60626 2.65524 5.31048 2.65524H37.1733ZM5.31048 0C3.90205 0 2.55131 0.559495 1.5554 1.5554C0.559495 2.55131 0 3.90205 0 5.31048L0 37.1733C0 38.5818 0.559495 39.9325 1.5554 40.9284C2.55131 41.9243 3.90205 42.4838 5.31048 42.4838H37.1733C38.5818 42.4838 39.9325 41.9243 40.9284 40.9284C41.9243 39.9325 42.4838 38.5818 42.4838 37.1733V5.31048C42.4838 3.90205 41.9243 2.55131 40.9284 1.5554C39.9325 0.559495 38.5818 0 37.1733 0L5.31048 0Z" fill="#9153BE"/>
<path d="M29.1281 13.1963C29.4997 12.8279 30.0013 12.6206 30.5245 12.6191C31.0478 12.6177 31.5506 12.8222 31.9242 13.1885C32.2978 13.5548 32.5123 14.0535 32.5212 14.5766C32.5301 15.0998 32.3328 15.6054 31.9718 15.9843L21.3721 29.2339C21.1899 29.4301 20.9701 29.5876 20.7257 29.6969C20.4812 29.8062 20.2173 29.8651 19.9496 29.87C19.6819 29.875 19.4159 29.8259 19.1676 29.7257C18.9193 29.6256 18.6938 29.4763 18.5045 29.287L11.4814 22.2612C11.2857 22.0789 11.1288 21.8591 11.0199 21.6148C10.9111 21.3705 10.8526 21.1068 10.8478 20.8394C10.8431 20.572 10.8923 20.3064 10.9925 20.0585C11.0926 19.8105 11.2417 19.5852 11.4308 19.3961C11.6199 19.207 11.8452 19.058 12.0931 18.9578C12.3411 18.8576 12.6067 18.8085 12.8741 18.8132C13.1415 18.8179 13.4052 18.8764 13.6495 18.9853C13.8937 19.0941 14.1136 19.251 14.2959 19.4467L19.856 25.0041L29.0776 13.2547C29.0941 13.2341 29.1118 13.2146 29.1307 13.1963H29.1281Z" fill="#9153BE"/>
</g>
<g clip-path="url(#clip2_2812_8640)">
<path d="M92.6896 2.65524C93.3938 2.65524 94.0692 2.93499 94.5671 3.43294C95.0651 3.93089 95.3448 4.60626 95.3448 5.31048V37.1733C95.3448 37.8775 95.0651 38.5529 94.5671 39.0509C94.0692 39.5488 93.3938 39.8286 92.6896 39.8286H60.8267C60.1225 39.8286 59.4471 39.5488 58.9492 39.0509C58.4512 38.5529 58.1715 37.8775 58.1715 37.1733V5.31048C58.1715 4.60626 58.4512 3.93089 58.9492 3.43294C59.4471 2.93499 60.1225 2.65524 60.8267 2.65524H92.6896ZM60.8267 0C59.4183 0 58.0675 0.559495 57.0716 1.5554C56.0757 2.55131 55.5162 3.90205 55.5162 5.31048V37.1733C55.5162 38.5818 56.0757 39.9325 57.0716 40.9284C58.0675 41.9243 59.4183 42.4838 60.8267 42.4838H92.6896C94.098 42.4838 95.4487 41.9243 96.4446 40.9284C97.4405 39.9325 98 38.5818 98 37.1733V5.31048C98 3.90205 97.4405 2.55131 96.4446 1.5554C95.4487 0.559495 94.098 0 92.6896 0L60.8267 0Z" fill="#9153BE"/>
<path d="M84.6443 13.1963C85.0159 12.8279 85.5176 12.6206 86.0408 12.6191C86.564 12.6177 87.0668 12.8222 87.4404 13.1885C87.814 13.5548 88.0285 14.0535 88.0374 14.5766C88.0463 15.0998 87.849 15.6054 87.4881 15.9843L76.8884 29.2339C76.7062 29.4301 76.4863 29.5876 76.2419 29.6969C75.9975 29.8062 75.7335 29.8651 75.4658 29.87C75.1981 29.875 74.9322 29.8259 74.6839 29.7257C74.4356 29.6256 74.21 29.4763 74.0207 29.287L66.9976 22.2612C66.8019 22.0789 66.645 21.8591 66.5362 21.6148C66.4273 21.3705 66.3688 21.1068 66.3641 20.8394C66.3594 20.572 66.4085 20.3064 66.5087 20.0585C66.6089 19.8105 66.7579 19.5852 66.947 19.3961C67.1361 19.207 67.3614 19.058 67.6094 18.9578C67.8573 18.8576 68.1229 18.8085 68.3903 18.8132C68.6577 18.8179 68.9214 18.8764 69.1657 18.9853C69.41 19.0941 69.6298 19.251 69.8121 19.4467L75.3722 25.0041L84.5939 13.2547C84.6103 13.2341 84.628 13.2146 84.647 13.1963H84.6443Z" fill="#9153BE"/>
</g>
<g clip-path="url(#clip3_2812_8640)">
<path d="M60.8267 55.5161C59.4183 55.5161 58.0675 56.0756 57.0716 57.0715C56.0757 58.0674 55.5162 59.4182 55.5162 60.8266V92.6894C55.5162 94.0979 56.0757 95.4486 57.0716 96.4445C58.0675 97.4404 59.4183 97.9999 60.8267 97.9999H92.6896C94.098 97.9999 95.4487 97.4404 96.4446 96.4445C97.4405 95.4486 98 94.0979 98 92.6894V60.8266C98 59.4182 97.4405 58.0674 96.4446 57.0715C95.4487 56.0756 94.098 55.5161 92.6896 55.5161H60.8267ZM87.4587 68.7126C87.8276 69.0811 88.0372 69.5794 88.0427 70.1007C88.0481 70.622 87.849 71.1246 87.488 71.5006L76.8882 84.7503C76.7061 84.9465 76.4862 85.104 76.2418 85.2133C75.9974 85.3226 75.7334 85.3815 75.4657 85.3864C75.198 85.3914 74.9321 85.3423 74.6838 85.2421C74.4355 85.1419 74.2099 84.9927 74.0206 84.8034L66.9975 77.7776C66.8018 77.5953 66.6449 77.3755 66.5361 77.1312C66.4272 76.8869 66.3687 76.6232 66.364 76.3558C66.3592 76.0884 66.4084 75.8228 66.5086 75.5749C66.6088 75.3269 66.7578 75.1016 66.9469 74.9125C67.136 74.7234 67.3613 74.5743 67.6093 74.4742C67.8572 74.374 68.1228 74.3248 68.3902 74.3296C68.6576 74.3343 68.9213 74.3928 69.1656 74.5016C69.4099 74.6105 69.6297 74.7674 69.812 74.9631L75.3721 80.5205L84.5937 68.7711C84.7756 68.5745 84.9951 68.4166 85.2394 68.3068C85.4836 68.1971 85.7475 68.1377 86.0152 68.1322C86.2829 68.1268 86.5489 68.1754 86.7974 68.2751C87.0459 68.3748 87.2717 68.5236 87.4614 68.7126H87.4587Z" fill="#9153BE"/>
</g>
<defs>
<clipPath id="clip0_2812_8640">
<rect width="42.4838" height="42.4838" fill="white" transform="translate(0 55.5161)"/>
</clipPath>
<clipPath id="clip1_2812_8640">
<rect width="42.4838" height="42.4838" fill="white"/>
</clipPath>
<clipPath id="clip2_2812_8640">
<rect width="42.4838" height="42.4838" fill="white" transform="translate(55.5162)"/>
</clipPath>
<clipPath id="clip3_2812_8640">
<rect width="42.4838" height="42.4838" fill="white" transform="translate(55.5162 55.5161)"/>
</clipPath>
</defs>
</svg>
