<svg width="65" height="65" viewBox="0 0 65 65" fill="none" xmlns="http://www.w3.org/2000/svg">
<rect x="0.925042" y="0.483635" width="63.0327" height="63.8399" rx="31.5164" fill="white"/>
<path d="M35.6282 29.335C37.3615 29.335 38.973 29.7142 40.4626 30.4725C41.9522 31.2308 43.1439 32.3006 44.0376 33.6819C44.9314 35.0632 45.3783 36.6476 45.3783 38.4351C45.3783 40.4122 44.8637 42.1591 43.8345 43.6757C42.8324 45.1924 41.4511 46.357 39.6907 47.1695C37.9303 47.982 35.9802 48.3883 33.8406 48.3883C31.1052 48.3883 28.7083 47.8602 26.65 46.8039C24.6187 45.7476 23.0343 44.1768 21.8968 42.0914C20.7593 40.0059 20.1905 37.4465 20.1905 34.4132C20.1905 31.1631 20.8405 28.3464 22.1405 25.9631C23.4676 23.5797 25.3093 21.7651 27.6656 20.5193C30.0489 19.2734 32.8115 18.6505 35.9532 18.6505C37.6594 18.6505 39.2844 18.8536 40.8282 19.2599C42.372 19.6391 43.6855 20.1807 44.7689 20.8849L41.3157 27.5881C39.9074 26.586 38.1876 26.085 36.1563 26.085C34.5042 26.085 33.1365 26.5048 32.0531 27.3443C30.9969 28.1568 30.3062 29.3485 29.9812 30.9194C31.4708 29.8631 33.3531 29.335 35.6282 29.335ZM33.1906 41.7664C34.0573 41.7664 34.7615 41.5091 35.3032 40.9945C35.8448 40.4799 36.1157 39.7757 36.1157 38.8819C36.1157 37.9882 35.8448 37.284 35.3032 36.7694C34.7615 36.2278 34.0573 35.9569 33.1906 35.9569C32.324 35.9569 31.6198 36.2278 31.0781 36.7694C30.5364 37.284 30.2656 37.9882 30.2656 38.8819C30.2656 39.7757 30.5364 40.4799 31.0781 40.9945C31.6198 41.5091 32.324 41.7664 33.1906 41.7664Z" fill="#0A0A0A"/>
<rect x="0.925042" y="0.483635" width="63.0327" height="63.8399" rx="31.5164" stroke="url(#paint0_linear_3425_4073)" stroke-width="0.967271"/>
<defs>
<linearGradient id="paint0_linear_3425_4073" x1="58.6814" y1="-2.41818" x2="28.0154" y2="80.8513" gradientUnits="userSpaceOnUse">
<stop stop-color="#A1FFDD"/>
<stop offset="1" stop-color="#9CC3FF"/>
</linearGradient>
</defs>
</svg>
