<svg width="65" height="65" viewBox="0 0 65 65" fill="none" xmlns="http://www.w3.org/2000/svg">
<rect x="0.925042" y="0.483635" width="63.0327" height="63.8399" rx="31.5164" fill="white"/>
<path d="M32.6623 29.335C36.6436 29.335 39.5687 30.1746 41.4374 31.8538C43.3333 33.5059 44.2812 35.6861 44.2812 38.3944C44.2812 40.182 43.8072 41.8341 42.8593 43.3507C41.9385 44.8403 40.503 46.0591 38.553 47.007C36.603 47.9279 34.179 48.3883 31.2811 48.3883C29.2769 48.3883 27.2727 48.1716 25.2685 47.7383C23.2914 47.3049 21.5581 46.6685 20.0685 45.8289L23.3185 38.7601C24.5102 39.4372 25.756 39.9518 27.056 40.3038C28.3831 40.6559 29.6696 40.832 30.9155 40.832C32.0259 40.832 32.9196 40.6424 33.5967 40.2632C34.3009 39.857 34.653 39.3017 34.653 38.5976C34.653 37.9205 34.3415 37.4194 33.7186 37.0944C33.0957 36.7423 31.9717 36.5663 30.3467 36.5663H22.0998L23.5216 19.3005H42.4124V26.5318H31.403L31.1998 29.335H32.6623Z" fill="#0A0A0A"/>
<rect x="0.925042" y="0.483635" width="63.0327" height="63.8399" rx="31.5164" stroke="url(#paint0_linear_3417_27448)" stroke-width="0.967271"/>
<defs>
<linearGradient id="paint0_linear_3417_27448" x1="58.6814" y1="-2.41818" x2="28.0154" y2="80.8513" gradientUnits="userSpaceOnUse">
<stop stop-color="#A1FFDD"/>
<stop offset="1" stop-color="#9CC3FF"/>
</linearGradient>
</defs>
</svg>
