<svg width="65" height="65" viewBox="0 0 65 65" fill="none" xmlns="http://www.w3.org/2000/svg">
<rect x="0.923856" y="0.48245" width="63.0351" height="63.6834" rx="31.5175" fill="white"/>
<path d="M37.0962 29.5768C39.2846 30.1172 40.9596 31.1033 42.1214 32.5352C43.3101 33.9401 43.9045 35.6422 43.9045 37.6415C43.9045 39.3435 43.4317 40.9376 42.4861 42.4235C41.5675 43.8824 40.1356 45.0712 38.1904 45.9898C36.2451 46.9084 33.8271 47.3677 30.9363 47.3677C28.937 47.3677 26.9377 47.1515 24.9384 46.7192C22.9662 46.287 21.2371 45.6521 19.7511 44.8145L22.9932 37.763C24.1549 38.4385 25.3977 38.9518 26.7216 39.303C28.0724 39.6542 29.3693 39.8299 30.612 39.8299C31.7198 39.8299 32.6113 39.6407 33.2867 39.2625C33.9622 38.8843 34.2999 38.3439 34.2999 37.6415C34.2999 36.3446 33.1787 35.6962 30.9363 35.6962H27.1674V29.82L31.3415 25.5648H21.2101V18.3512H42.3645V24.2274L37.0962 29.5768Z" fill="#0A0A0A"/>
<rect x="0.923856" y="0.48245" width="63.0351" height="63.6834" rx="31.5175" stroke="url(#paint0_linear_3417_27380)" stroke-width="0.9649"/>
<defs>
<linearGradient id="paint0_linear_3417_27380" x1="58.6814" y1="-2.41225" x2="28.1477" y2="80.7017" gradientUnits="userSpaceOnUse">
<stop stop-color="#A1FFDD"/>
<stop offset="1" stop-color="#9CC3FF"/>
</linearGradient>
</defs>
</svg>
