<svg width="65" height="65" viewBox="0 0 65 65" fill="none" xmlns="http://www.w3.org/2000/svg">
<rect x="0.923856" y="0.48245" width="63.0351" height="63.6834" rx="31.5175" fill="white"/>
<path d="M43.9827 39.303V46.7192H21.2477V40.843L31.5008 31.36C32.3923 30.5224 32.9867 29.8065 33.2839 29.2121C33.5811 28.6177 33.7297 28.0369 33.7297 27.4695C33.7297 26.767 33.4865 26.2267 33.0002 25.8485C32.5409 25.4432 31.8655 25.2406 30.9739 25.2406C30.1094 25.2406 29.2989 25.4702 28.5424 25.9295C27.7859 26.3888 27.205 27.0372 26.7998 27.8747L19.5862 24.268C20.6669 22.2417 22.2474 20.6476 24.3277 19.4859C26.408 18.2972 28.9206 17.7028 31.8655 17.7028C34.1079 17.7028 36.0937 18.0675 37.8228 18.797C39.5519 19.5264 40.9027 20.5666 41.8754 21.9175C42.848 23.2683 43.3343 24.8218 43.3343 26.5779C43.3343 28.1449 42.9966 29.6174 42.3212 30.9952C41.6727 32.3461 40.3894 33.8861 38.4712 35.6152L34.4186 39.303H43.9827Z" fill="#0A0A0A"/>
<rect x="0.923856" y="0.48245" width="63.0351" height="63.6834" rx="31.5175" stroke="url(#paint0_linear_3417_27376)" stroke-width="0.9649"/>
<defs>
<linearGradient id="paint0_linear_3417_27376" x1="58.6814" y1="-2.41225" x2="28.1477" y2="80.7017" gradientUnits="userSpaceOnUse">
<stop stop-color="#A1FFDD"/>
<stop offset="1" stop-color="#9CC3FF"/>
</linearGradient>
</defs>
</svg>
