<svg width="65" height="65" viewBox="0 0 65 65" fill="none" xmlns="http://www.w3.org/2000/svg">
<rect x="0.925042" y="0.483635" width="63.0327" height="63.8399" rx="31.5164" fill="white"/>
<path d="M31.0375 18.6505C33.7729 18.6505 36.1563 19.1786 38.1876 20.2349C40.2459 21.2912 41.8438 22.862 42.9814 24.9474C44.1189 27.0329 44.6876 29.5923 44.6876 32.6256C44.6876 35.8757 44.0241 38.6924 42.697 41.0757C41.397 43.4591 39.5553 45.2737 37.1719 46.5195C34.8157 47.7654 32.0667 48.3883 28.925 48.3883C27.2187 48.3883 25.5937 48.1852 24.0499 47.7789C22.5062 47.3997 21.1926 46.8581 20.1093 46.1539L23.5624 39.4507C24.9708 40.4528 26.6906 40.9538 28.7218 40.9538C30.3739 40.9538 31.7281 40.5476 32.7844 39.7351C33.8677 38.8955 34.5719 37.6903 34.8969 36.1194C33.4073 37.1757 31.525 37.7038 29.25 37.7038C27.5166 37.7038 25.9052 37.3246 24.4156 36.5663C22.926 35.808 21.7343 34.7382 20.8405 33.3569C19.9468 31.9756 19.4999 30.3912 19.4999 28.6037C19.4999 26.6266 20.0009 24.8797 21.003 23.3631C22.0322 21.8464 23.427 20.6818 25.1874 19.8693C26.9479 19.0568 28.8979 18.6505 31.0375 18.6505ZM31.6875 31.0819C32.5542 31.0819 33.2583 30.8246 33.8 30.31C34.3417 29.7683 34.6125 29.0506 34.6125 28.1569C34.6125 27.2631 34.3417 26.5589 33.8 26.0443C33.2583 25.5297 32.5542 25.2724 31.6875 25.2724C30.8208 25.2724 30.1166 25.5297 29.575 26.0443C29.0333 26.5589 28.7625 27.2631 28.7625 28.1569C28.7625 29.0506 29.0333 29.7683 29.575 30.31C30.1166 30.8246 30.8208 31.0819 31.6875 31.0819Z" fill="#0A0A0A"/>
<rect x="0.925042" y="0.483635" width="63.0327" height="63.8399" rx="31.5164" stroke="url(#paint0_linear_3425_4088)" stroke-width="0.967271"/>
<defs>
<linearGradient id="paint0_linear_3425_4088" x1="58.6814" y1="-2.41818" x2="28.0154" y2="80.8513" gradientUnits="userSpaceOnUse">
<stop stop-color="#A1FFDD"/>
<stop offset="1" stop-color="#9CC3FF"/>
</linearGradient>
</defs>
</svg>
