<svg width="65" height="66" viewBox="0 0 65 66" fill="none" xmlns="http://www.w3.org/2000/svg">
<rect x="0.925042" y="0.483635" width="63.0327" height="64.5091" rx="31.5164" fill="white"/>
<path d="M41.3844 32.7475C42.6031 33.5059 43.5375 34.4402 44.1875 35.5507C44.8646 36.634 45.2032 37.8799 45.2032 39.2882C45.2032 41.1028 44.6615 42.7007 43.5782 44.082C42.5219 45.4633 41.0188 46.5331 39.0687 47.2914C37.1458 48.0227 34.9385 48.3883 32.4468 48.3883C29.9551 48.3883 27.7343 48.0227 25.7842 47.2914C23.8613 46.5331 22.3582 45.4633 21.2748 44.082C20.2186 42.7007 19.6904 41.1028 19.6904 39.2882C19.6904 37.8799 20.0154 36.634 20.6654 35.5507C21.3425 34.4402 22.2905 33.5059 23.5092 32.7475C21.6405 31.2579 20.7061 29.3892 20.7061 27.1412C20.7061 25.4349 21.1936 23.9454 22.1686 22.6724C23.1707 21.3995 24.5519 20.4109 26.3124 19.7068C28.0999 19.0026 30.1447 18.6505 32.4468 18.6505C34.7489 18.6505 36.7802 19.0026 38.5406 19.7068C40.3281 20.4109 41.7094 21.3995 42.6844 22.6724C43.6865 23.9454 44.1875 25.4349 44.1875 27.1412C44.1875 29.3892 43.2532 31.2579 41.3844 32.7475ZM32.4468 25.1099C31.7697 25.1099 31.2145 25.3266 30.7812 25.76C30.3749 26.1933 30.1718 26.7891 30.1718 27.5475C30.1718 28.3058 30.3749 28.9016 30.7812 29.335C31.2145 29.7683 31.7697 29.985 32.4468 29.985C33.1239 29.985 33.6656 29.7683 34.0718 29.335C34.5052 28.9016 34.7218 28.3058 34.7218 27.5475C34.7218 26.7891 34.5052 26.1933 34.0718 25.76C33.6656 25.3266 33.1239 25.1099 32.4468 25.1099ZM32.4468 41.9289C33.3676 41.9289 34.1124 41.658 34.6812 41.1163C35.277 40.5747 35.575 39.857 35.575 38.9632C35.575 38.0694 35.277 37.3517 34.6812 36.8101C34.1124 36.2684 33.3676 35.9975 32.4468 35.9975C31.526 35.9975 30.7676 36.2684 30.1718 36.8101C29.603 37.3517 29.3186 38.0694 29.3186 38.9632C29.3186 39.857 29.603 40.5747 30.1718 41.1163C30.7676 41.658 31.526 41.9289 32.4468 41.9289Z" fill="#0A0A0A"/>
<rect x="0.925042" y="0.483635" width="63.0327" height="64.5091" rx="31.5164" stroke="url(#paint0_linear_3425_4083)" stroke-width="0.967271"/>
<defs>
<linearGradient id="paint0_linear_3425_4083" x1="58.6814" y1="-2.44315" x2="27.4562" y2="81.4781" gradientUnits="userSpaceOnUse">
<stop stop-color="#A1FFDD"/>
<stop offset="1" stop-color="#9CC3FF"/>
</linearGradient>
</defs>
</svg>
