<svg width="65" height="65" viewBox="0 0 65 65" fill="none" xmlns="http://www.w3.org/2000/svg">
<rect x="0.925042" y="0.483635" width="63.0327" height="63.5091" rx="31.5164" fill="white"/>
<path d="M24.5529 19.3005V47.7383H14.9654V26.5318H10.0903V19.3005H24.5529ZM40.9237 48.3883C38.4049 48.3883 36.1705 47.806 34.2205 46.6414C32.2976 45.4497 30.7809 43.7435 29.6705 41.5226C28.5871 39.2747 28.0455 36.6069 28.0455 33.5194C28.0455 30.4319 28.5871 27.7777 29.6705 25.5568C30.7809 23.3089 32.2976 21.6026 34.2205 20.438C36.1705 19.2464 38.4049 18.6505 40.9237 18.6505C43.4425 18.6505 45.6633 19.2464 47.5863 20.438C49.5363 21.6026 51.053 23.3089 52.1363 25.5568C53.2467 27.7777 53.8019 30.4319 53.8019 33.5194C53.8019 36.6069 53.2467 39.2747 52.1363 41.5226C51.053 43.7435 49.5363 45.4497 47.5863 46.6414C45.6633 47.806 43.4425 48.3883 40.9237 48.3883ZM40.9237 40.7101C43.0904 40.7101 44.1737 38.3132 44.1737 33.5194C44.1737 28.7256 43.0904 26.3287 40.9237 26.3287C38.757 26.3287 37.6737 28.7256 37.6737 33.5194C37.6737 38.3132 38.757 40.7101 40.9237 40.7101Z" fill="#0A0A0A"/>
<rect x="0.925042" y="0.483635" width="63.0327" height="63.5091" rx="31.5164" stroke="url(#paint0_linear_3425_4093)" stroke-width="0.967271"/>
<defs>
<linearGradient id="paint0_linear_3425_4093" x1="58.6814" y1="-2.40583" x2="28.2907" y2="80.5394" gradientUnits="userSpaceOnUse">
<stop stop-color="#A1FFDD"/>
<stop offset="1" stop-color="#9CC3FF"/>
</linearGradient>
</defs>
</svg>
