<svg width="1440" height="1335" viewBox="0 0 1440 1335" fill="none" xmlns="http://www.w3.org/2000/svg">
<g opacity="0.05">
<path d="M109.539 915.583C112.409 922.827 119.408 944.715 110.754 963.814C102.268 982.542 105.081 994.662 107.895 1006.78" stroke="#069A95" stroke-width="6.15976" stroke-linejoin="round"/>
<path d="M283.186 926.773C278.215 930.955 263.193 941.154 250.085 928.544C237.232 916.179 228.914 920.279 220.597 924.378" stroke="#069A95" stroke-width="6.15976" stroke-linejoin="round"/>
<path d="M11.851 998.562C16.822 994.38 31.8444 984.181 44.9521 996.791C57.8052 1009.16 66.1227 1005.06 74.4402 1000.96" stroke="#069A95" stroke-width="6.15976" stroke-linejoin="round"/>
<path d="M184.897 915.583C182.027 922.827 175.027 944.715 183.682 963.814C192.168 982.542 189.354 994.662 186.541 1006.78" stroke="#069A95" stroke-width="6.15976" stroke-linejoin="round"/>
<path d="M283.186 998.562C278.215 994.38 263.193 984.181 250.085 996.791C237.232 1009.16 228.914 1005.06 220.597 1000.96" stroke="#069A95" stroke-width="6.15976" stroke-linejoin="round"/>
<path d="M11.851 926.772C16.822 930.954 31.8444 941.153 44.9521 928.543C57.8052 916.177 66.1227 920.277 74.4402 924.377" stroke="#069A95" stroke-width="6.15976" stroke-linejoin="round"/>
<path d="M147.061 1052.43L147.061 869.247" stroke="#069A95" stroke-width="6" stroke-linejoin="round"/>
<path d="M109.531 386.759C112.401 394.002 119.401 415.891 110.746 434.99C102.26 453.718 105.073 465.837 107.887 477.956" stroke="#069A95" stroke-width="6.15976" stroke-linejoin="round"/>
<path d="M283.186 397.946C278.215 402.128 263.193 412.327 250.085 399.717C237.232 387.352 228.914 391.452 220.597 395.551" stroke="#069A95" stroke-width="6.15976" stroke-linejoin="round"/>
<path d="M11.851 469.736C16.822 465.554 31.8444 455.355 44.9521 467.965C57.8052 480.331 66.1227 476.231 74.4402 472.131" stroke="#069A95" stroke-width="6.15976" stroke-linejoin="round"/>
<path d="M184.897 386.759C182.027 394.002 175.027 415.891 183.682 434.99C192.168 453.718 189.354 465.837 186.541 477.956" stroke="#069A95" stroke-width="6.15976" stroke-linejoin="round"/>
<path d="M283.186 469.738C278.215 465.556 263.193 455.356 250.085 467.967C237.232 480.332 228.914 476.232 220.597 472.132" stroke="#069A95" stroke-width="6.15976" stroke-linejoin="round"/>
<path d="M11.851 397.946C16.822 402.128 31.8444 412.327 44.9521 399.717C57.8052 387.352 66.1227 391.452 74.4402 395.551" stroke="#069A95" stroke-width="6.15976" stroke-linejoin="round"/>
<path d="M147.061 523.608L147.061 340.421" stroke="#069A95" stroke-width="6" stroke-linejoin="round"/>
<path d="M612.425 915.583C615.295 922.827 622.295 944.715 613.641 963.814C605.154 982.542 607.968 994.662 610.782 1006.78" stroke="#069A95" stroke-width="6.15976" stroke-linejoin="round"/>
<path d="M786.073 926.773C781.102 930.955 766.079 941.154 752.972 928.544C740.119 916.179 731.801 920.279 723.484 924.378" stroke="#069A95" stroke-width="6.15976" stroke-linejoin="round"/>
<path d="M514.742 998.562C519.713 994.38 534.735 984.181 547.843 996.791C560.696 1009.16 569.013 1005.06 577.331 1000.96" stroke="#069A95" stroke-width="6.15976" stroke-linejoin="round"/>
<path d="M687.784 915.583C684.914 922.827 677.914 944.715 686.568 963.814C695.055 982.542 692.241 994.662 689.427 1006.78" stroke="#069A95" stroke-width="6.15976" stroke-linejoin="round"/>
<path d="M786.073 998.562C781.102 994.38 766.079 984.181 752.972 996.791C740.119 1009.16 731.801 1005.06 723.484 1000.96" stroke="#069A95" stroke-width="6.15976" stroke-linejoin="round"/>
<path d="M514.742 926.772C519.713 930.954 534.735 941.153 547.843 928.543C560.696 916.177 569.013 920.277 577.331 924.377" stroke="#069A95" stroke-width="6.15976" stroke-linejoin="round"/>
<path d="M649.949 1052.43L649.949 869.247" stroke="#069A95" stroke-width="6" stroke-linejoin="round"/>
<path d="M612.419 386.759C615.289 394.002 622.289 415.891 613.635 434.99C605.148 453.718 607.962 465.837 610.776 477.956" stroke="#069A95" stroke-width="6.15976" stroke-linejoin="round"/>
<path d="M786.073 397.946C781.102 402.128 766.079 412.327 752.972 399.717C740.119 387.352 731.801 391.452 723.484 395.551" stroke="#069A95" stroke-width="6.15976" stroke-linejoin="round"/>
<path d="M514.742 469.736C519.713 465.554 534.735 455.355 547.843 467.965C560.696 480.331 569.013 476.231 577.331 472.131" stroke="#069A95" stroke-width="6.15976" stroke-linejoin="round"/>
<path d="M687.784 386.759C684.914 394.002 677.914 415.891 686.568 434.99C695.055 453.718 692.241 465.837 689.427 477.956" stroke="#069A95" stroke-width="6.15976" stroke-linejoin="round"/>
<path d="M786.073 469.738C781.102 465.556 766.079 455.356 752.972 467.967C740.119 480.332 731.801 476.232 723.484 472.132" stroke="#069A95" stroke-width="6.15976" stroke-linejoin="round"/>
<path d="M514.742 397.946C519.713 402.128 534.735 412.327 547.843 399.717C560.696 387.352 569.013 391.452 577.331 395.551" stroke="#069A95" stroke-width="6.15976" stroke-linejoin="round"/>
<path d="M649.949 523.608L649.949 340.421" stroke="#069A95" stroke-width="6" stroke-linejoin="round"/>
<path d="M466.758 650.26C461.787 654.441 446.765 664.641 433.657 652.03C420.804 639.665 412.487 643.765 404.169 647.865" stroke="#069A95" stroke-width="6.15976" stroke-linejoin="round"/>
<path d="M313.113 755.011C318.084 750.829 333.106 740.63 346.214 753.24C359.067 765.605 367.384 761.506 375.702 757.406" stroke="#069A95" stroke-width="6.15976" stroke-linejoin="round"/>
<path d="M313.113 650.26C318.084 654.441 333.106 664.641 346.214 652.03C359.067 639.665 367.384 643.765 375.702 647.865" stroke="#069A95" stroke-width="6.15976" stroke-linejoin="round"/>
<path d="M466.758 755.011C461.787 750.829 446.765 740.63 433.657 753.24C420.804 765.605 412.487 761.506 404.169 757.406" stroke="#069A95" stroke-width="6.15976" stroke-linejoin="round"/>
<path d="M310.742 703.337L472.046 703.337" stroke="#069A95" stroke-width="6" stroke-linejoin="round"/>
<path d="M391.396 730.991L391.396 675.689" stroke="#069A95" stroke-width="6" stroke-linejoin="round"/>
<path d="M466.932 1164.4C461.961 1168.58 446.939 1178.78 433.831 1166.17C420.978 1153.81 412.66 1157.91 404.343 1162.01" stroke="#069A95" stroke-width="6.15976" stroke-linejoin="round"/>
<path d="M313.287 1269.15C318.258 1264.97 333.28 1254.77 346.388 1267.38C359.241 1279.75 367.558 1275.65 375.876 1271.55" stroke="#069A95" stroke-width="6.15976" stroke-linejoin="round"/>
<path d="M313.287 1164.4C318.258 1168.58 333.28 1178.78 346.388 1166.17C359.241 1153.81 367.558 1157.91 375.876 1162.01" stroke="#069A95" stroke-width="6.15976" stroke-linejoin="round"/>
<path d="M466.932 1269.15C461.961 1264.97 446.939 1254.77 433.831 1267.38C420.978 1279.75 412.66 1275.65 404.343 1271.55" stroke="#069A95" stroke-width="6.15976" stroke-linejoin="round"/>
<path d="M310.918 1217.48L472.222 1217.48" stroke="#069A95" stroke-width="6" stroke-linejoin="round"/>
<path d="M391.572 1245.13L391.572 1189.83" stroke="#069A95" stroke-width="6" stroke-linejoin="round"/>
<path d="M466.758 121.435C461.787 125.617 446.765 135.816 433.657 123.206C420.804 110.841 412.487 114.94 404.169 119.04" stroke="#069A95" stroke-width="6.15976" stroke-linejoin="round"/>
<path d="M313.113 226.187C318.084 222.005 333.106 211.806 346.214 224.416C359.067 236.782 367.384 232.682 375.702 228.582" stroke="#069A95" stroke-width="6.15976" stroke-linejoin="round"/>
<path d="M313.113 121.435C318.084 125.617 333.106 135.816 346.214 123.206C359.067 110.841 367.384 114.94 375.702 119.04" stroke="#069A95" stroke-width="6.15976" stroke-linejoin="round"/>
<path d="M466.758 226.188C461.787 222.006 446.765 211.807 433.657 224.417C420.804 236.782 412.487 232.682 404.169 228.583" stroke="#069A95" stroke-width="6.15976" stroke-linejoin="round"/>
<path d="M310.742 174.514L472.046 174.514" stroke="#069A95" stroke-width="6" stroke-linejoin="round"/>
<path d="M391.396 202.166L391.396 146.864" stroke="#069A95" stroke-width="6" stroke-linejoin="round"/>
<path d="M1080.24 915.583C1083.11 922.827 1090.11 944.715 1081.45 963.814C1072.97 982.542 1075.78 994.662 1078.59 1006.78" stroke="#069A95" stroke-width="6.15976" stroke-linejoin="round"/>
<path d="M1253.89 926.773C1248.91 930.955 1233.89 941.154 1220.78 928.544C1207.93 916.179 1199.61 920.279 1191.3 924.378" stroke="#069A95" stroke-width="6.15976" stroke-linejoin="round"/>
<path d="M982.554 998.562C987.525 994.38 1002.55 984.181 1015.66 996.791C1028.51 1009.16 1036.83 1005.06 1045.14 1000.96" stroke="#069A95" stroke-width="6.15976" stroke-linejoin="round"/>
<path d="M1155.59 915.583C1152.72 922.827 1145.72 944.715 1154.38 963.814C1162.87 982.542 1160.05 994.662 1157.24 1006.78" stroke="#069A95" stroke-width="6.15976" stroke-linejoin="round"/>
<path d="M1253.89 998.562C1248.91 994.38 1233.89 984.181 1220.78 996.791C1207.93 1009.16 1199.61 1005.06 1191.3 1000.96" stroke="#069A95" stroke-width="6.15976" stroke-linejoin="round"/>
<path d="M982.554 926.772C987.525 930.954 1002.55 941.153 1015.66 928.543C1028.51 916.177 1036.83 920.277 1045.14 924.377" stroke="#069A95" stroke-width="6.15976" stroke-linejoin="round"/>
<path d="M1117.76 1052.43L1117.76 869.247" stroke="#069A95" stroke-width="6" stroke-linejoin="round"/>
<path d="M1080.23 386.759C1083.1 394.002 1090.1 415.891 1081.45 434.99C1072.96 453.718 1075.77 465.837 1078.59 477.956" stroke="#069A95" stroke-width="6.15976" stroke-linejoin="round"/>
<path d="M1253.89 397.946C1248.91 402.128 1233.89 412.327 1220.78 399.717C1207.93 387.352 1199.61 391.452 1191.3 395.551" stroke="#069A95" stroke-width="6.15976" stroke-linejoin="round"/>
<path d="M982.554 469.736C987.525 465.554 1002.55 455.355 1015.66 467.965C1028.51 480.331 1036.83 476.231 1045.14 472.131" stroke="#069A95" stroke-width="6.15976" stroke-linejoin="round"/>
<path d="M1155.59 386.759C1152.72 394.002 1145.72 415.891 1154.38 434.99C1162.87 453.718 1160.05 465.837 1157.24 477.956" stroke="#069A95" stroke-width="6.15976" stroke-linejoin="round"/>
<path d="M1253.89 469.738C1248.91 465.556 1233.89 455.356 1220.78 467.967C1207.93 480.332 1199.61 476.232 1191.3 472.132" stroke="#069A95" stroke-width="6.15976" stroke-linejoin="round"/>
<path d="M982.554 397.946C987.525 402.128 1002.55 412.327 1015.66 399.717C1028.51 387.352 1036.83 391.452 1045.14 395.551" stroke="#069A95" stroke-width="6.15976" stroke-linejoin="round"/>
<path d="M1117.76 523.608L1117.76 340.421" stroke="#069A95" stroke-width="6" stroke-linejoin="round"/>
<path d="M1437.53 650.26C1432.56 654.441 1417.54 664.641 1404.43 652.03C1391.58 639.665 1383.26 643.765 1374.94 647.865" stroke="#069A95" stroke-width="6.15976" stroke-linejoin="round"/>
<path d="M1283.89 755.011C1288.86 750.829 1303.88 740.63 1316.99 753.24C1329.84 765.605 1338.16 761.506 1346.48 757.406" stroke="#069A95" stroke-width="6.15976" stroke-linejoin="round"/>
<path d="M1283.89 650.26C1288.86 654.441 1303.88 664.641 1316.99 652.03C1329.84 639.665 1338.16 643.765 1346.48 647.865" stroke="#069A95" stroke-width="6.15976" stroke-linejoin="round"/>
<path d="M1437.53 755.011C1432.56 750.829 1417.54 740.63 1404.43 753.24C1391.58 765.605 1383.26 761.506 1374.94 757.406" stroke="#069A95" stroke-width="6.15976" stroke-linejoin="round"/>
<path d="M1281.52 703.337L1442.82 703.337" stroke="#069A95" stroke-width="6" stroke-linejoin="round"/>
<path d="M1362.17 730.991L1362.17 675.689" stroke="#069A95" stroke-width="6" stroke-linejoin="round"/>
<path d="M1437.71 1164.4C1432.74 1168.58 1417.72 1178.78 1404.61 1166.17C1391.76 1153.81 1383.44 1157.91 1375.12 1162.01" stroke="#069A95" stroke-width="6.15976" stroke-linejoin="round"/>
<path d="M1284.07 1269.15C1289.04 1264.97 1304.06 1254.77 1317.17 1267.38C1330.02 1279.75 1338.34 1275.65 1346.66 1271.55" stroke="#069A95" stroke-width="6.15976" stroke-linejoin="round"/>
<path d="M1284.07 1164.4C1289.04 1168.58 1304.06 1178.78 1317.17 1166.17C1330.02 1153.81 1338.34 1157.91 1346.66 1162.01" stroke="#069A95" stroke-width="6.15976" stroke-linejoin="round"/>
<path d="M1437.71 1269.15C1432.74 1264.97 1417.72 1254.77 1404.61 1267.38C1391.76 1279.75 1383.44 1275.65 1375.12 1271.55" stroke="#069A95" stroke-width="6.15976" stroke-linejoin="round"/>
<path d="M1281.7 1217.48L1443 1217.48" stroke="#069A95" stroke-width="6" stroke-linejoin="round"/>
<path d="M1362.35 1245.13L1362.35 1189.83" stroke="#069A95" stroke-width="6" stroke-linejoin="round"/>
<path d="M1437.53 121.436C1432.56 125.618 1417.54 135.817 1404.43 123.207C1391.58 110.841 1383.26 114.941 1374.94 119.041" stroke="#069A95" stroke-width="6.15976" stroke-linejoin="round"/>
<path d="M1283.89 226.187C1288.86 222.005 1303.88 211.806 1316.99 224.416C1329.84 236.782 1338.16 232.682 1346.48 228.582" stroke="#069A95" stroke-width="6.15976" stroke-linejoin="round"/>
<path d="M1283.89 121.435C1288.86 125.617 1303.88 135.816 1316.99 123.206C1329.84 110.841 1338.16 114.94 1346.48 119.04" stroke="#069A95" stroke-width="6.15976" stroke-linejoin="round"/>
<path d="M1437.53 226.187C1432.56 222.005 1417.54 211.806 1404.43 224.416C1391.58 236.782 1383.26 232.682 1374.94 228.582" stroke="#069A95" stroke-width="6.15976" stroke-linejoin="round"/>
<path d="M1281.52 174.514L1442.82 174.514" stroke="#069A95" stroke-width="6" stroke-linejoin="round"/>
<path d="M1362.17 202.166L1362.17 146.864" stroke="#069A95" stroke-width="6" stroke-linejoin="round"/>
<path d="M1044.23 721.175C1048.29 715.261 1060.99 699.744 1075.89 706.982C1090.5 714.078 1097.8 706.982 1105.11 699.885" stroke="#069A95" stroke-width="6.15976" stroke-linejoin="round"/>
<path d="M1218.18 721.175C1214.12 715.261 1201.42 699.744 1186.52 706.982C1171.91 714.078 1164.6 706.982 1157.3 699.885" stroke="#069A95" stroke-width="6.15976" stroke-linejoin="round"/>
<path d="M1132 585.824V668.777" stroke="#069A95" stroke-width="6" stroke-linejoin="round"/>
<path d="M1132 737.905V820.858" stroke="#069A95" stroke-width="6" stroke-linejoin="round"/>
<rect x="1120.13" y="686.06" width="24.4791" height="35.668" rx="5.15976" fill="#069A95"/>
<path d="M1044.41 1235.32C1048.47 1229.4 1061.16 1213.89 1076.06 1221.12C1090.68 1228.22 1097.98 1221.12 1105.29 1214.03" stroke="#069A95" stroke-width="6.15976" stroke-linejoin="round"/>
<path d="M1218.36 1235.32C1214.3 1229.4 1201.6 1213.89 1186.7 1221.12C1172.09 1228.22 1164.78 1221.12 1157.48 1214.03" stroke="#069A95" stroke-width="6.15976" stroke-linejoin="round"/>
<path d="M1132.17 1099.97V1182.92" stroke="#069A95" stroke-width="6" stroke-linejoin="round"/>
<path d="M1132.17 1252.05V1335" stroke="#069A95" stroke-width="6" stroke-linejoin="round"/>
<rect x="1120.31" y="1200.2" width="24.4791" height="35.668" rx="5.15976" fill="#069A95"/>
<path d="M1044.23 192.351C1048.29 186.437 1060.99 170.92 1075.89 178.158C1090.5 185.255 1097.8 178.158 1105.11 171.061" stroke="#069A95" stroke-width="6.15976" stroke-linejoin="round"/>
<path d="M1218.18 192.351C1214.12 186.437 1201.42 170.92 1186.52 178.157C1171.91 185.254 1164.6 178.157 1157.3 171.06" stroke="#069A95" stroke-width="6.15976" stroke-linejoin="round"/>
<path d="M1132 57V139.953" stroke="#069A95" stroke-width="6" stroke-linejoin="round"/>
<path d="M1132 209.08V292.032" stroke="#069A95" stroke-width="6" stroke-linejoin="round"/>
<rect x="1120.13" y="157.235" width="24.4791" height="35.668" rx="5.15976" fill="#069A95"/>
<path d="M1367.71 925.652C1371.77 919.738 1384.47 904.221 1399.37 911.458C1413.98 918.555 1421.29 911.458 1428.59 904.361" stroke="#069A95" stroke-width="6.15976" stroke-linejoin="round"/>
<path d="M1342.4 1017.32C1338.34 1023.23 1325.64 1038.75 1310.74 1031.51C1296.13 1024.41 1288.83 1031.51 1281.52 1038.61" stroke="#069A95" stroke-width="6.15976" stroke-linejoin="round"/>
<path d="M1428.59 1039.16C1424.53 1033.25 1411.83 1017.73 1396.93 1024.97C1382.32 1032.06 1375.02 1024.97 1367.71 1017.87" stroke="#069A95" stroke-width="6.15976" stroke-linejoin="round"/>
<path d="M1281.52 903.808C1285.58 909.722 1298.28 925.239 1313.18 918.002C1327.79 910.905 1335.1 918.002 1342.4 925.099" stroke="#069A95" stroke-width="6.15976" stroke-linejoin="round"/>
<rect x="1391.23" y="954.384" width="22.8304" height="33.2657" rx="4.81225" fill="#069A95"/>
<rect x="1344.68" y="954.384" width="22.8304" height="33.2657" rx="4.81225" fill="#069A95"/>
<rect x="1320.95" y="986.788" width="22.8304" height="33.2657" rx="4.81225" transform="rotate(-180 1320.95 986.788)" fill="#069A95"/>
<path d="M1367.71 396.829C1371.77 390.915 1384.47 375.398 1399.37 382.635C1413.98 389.732 1421.29 382.635 1428.59 375.538" stroke="#069A95" stroke-width="6.15976" stroke-linejoin="round"/>
<path d="M1342.4 488.494C1338.34 494.408 1325.64 509.925 1310.74 502.688C1296.13 495.591 1288.83 502.688 1281.52 509.785" stroke="#069A95" stroke-width="6.15976" stroke-linejoin="round"/>
<path d="M1428.59 510.337C1424.53 504.423 1411.83 488.906 1396.93 496.144C1382.32 503.24 1375.02 496.144 1367.71 489.047" stroke="#069A95" stroke-width="6.15976" stroke-linejoin="round"/>
<path d="M1281.52 374.985C1285.58 380.899 1298.28 396.416 1313.18 389.179C1327.79 382.082 1335.1 389.179 1342.4 396.275" stroke="#069A95" stroke-width="6.15976" stroke-linejoin="round"/>
<rect x="1391.23" y="425.561" width="22.8304" height="33.2657" rx="4.81225" fill="#069A95"/>
<rect x="1344.68" y="425.561" width="22.8304" height="33.2657" rx="4.81225" fill="#069A95"/>
<rect x="1320.95" y="457.964" width="22.8304" height="33.2657" rx="4.81225" transform="rotate(-180 1320.95 457.964)" fill="#069A95"/>
<path d="M969.721 650.26C964.75 654.441 949.728 664.641 936.62 652.03C923.767 639.665 915.45 643.765 907.132 647.865" stroke="#069A95" stroke-width="6.15976" stroke-linejoin="round"/>
<path d="M816.076 755.011C821.047 750.829 836.069 740.63 849.177 753.24C862.03 765.605 870.347 761.506 878.665 757.406" stroke="#069A95" stroke-width="6.15976" stroke-linejoin="round"/>
<path d="M816.076 650.26C821.047 654.441 836.069 664.641 849.177 652.03C862.03 639.665 870.347 643.765 878.665 647.865" stroke="#069A95" stroke-width="6.15976" stroke-linejoin="round"/>
<path d="M969.721 755.011C964.75 750.829 949.728 740.63 936.62 753.24C923.767 765.605 915.45 761.506 907.132 757.406" stroke="#069A95" stroke-width="6.15976" stroke-linejoin="round"/>
<path d="M813.707 703.337L975.011 703.337" stroke="#069A95" stroke-width="6" stroke-linejoin="round"/>
<path d="M894.361 730.991L894.361 675.689" stroke="#069A95" stroke-width="6" stroke-linejoin="round"/>
<path d="M969.901 1164.4C964.93 1168.58 949.908 1178.78 936.8 1166.17C923.947 1153.81 915.629 1157.91 907.312 1162.01" stroke="#069A95" stroke-width="6.15976" stroke-linejoin="round"/>
<path d="M816.255 1269.15C821.226 1264.97 836.249 1254.77 849.356 1267.38C862.21 1279.75 870.527 1275.65 878.844 1271.55" stroke="#069A95" stroke-width="6.15976" stroke-linejoin="round"/>
<path d="M816.255 1164.4C821.226 1168.58 836.249 1178.78 849.356 1166.17C862.21 1153.81 870.527 1157.91 878.844 1162.01" stroke="#069A95" stroke-width="6.15976" stroke-linejoin="round"/>
<path d="M969.901 1269.15C964.93 1264.97 949.908 1254.77 936.8 1267.38C923.947 1279.75 915.629 1275.65 907.312 1271.55" stroke="#069A95" stroke-width="6.15976" stroke-linejoin="round"/>
<path d="M813.885 1217.48L975.188 1217.48" stroke="#069A95" stroke-width="6" stroke-linejoin="round"/>
<path d="M894.539 1245.13L894.539 1189.83" stroke="#069A95" stroke-width="6" stroke-linejoin="round"/>
<path d="M969.721 121.436C964.75 125.618 949.728 135.817 936.62 123.207C923.767 110.841 915.45 114.941 907.132 119.041" stroke="#069A95" stroke-width="6.15976" stroke-linejoin="round"/>
<path d="M816.076 226.187C821.047 222.005 836.069 211.806 849.177 224.416C862.03 236.782 870.347 232.682 878.665 228.582" stroke="#069A95" stroke-width="6.15976" stroke-linejoin="round"/>
<path d="M816.076 121.435C821.047 125.617 836.069 135.816 849.177 123.206C862.03 110.841 870.347 114.94 878.665 119.04" stroke="#069A95" stroke-width="6.15976" stroke-linejoin="round"/>
<path d="M969.721 226.187C964.75 222.005 949.728 211.806 936.62 224.416C923.767 236.782 915.45 232.682 907.132 228.582" stroke="#069A95" stroke-width="6.15976" stroke-linejoin="round"/>
<path d="M813.707 174.514L975.011 174.514" stroke="#069A95" stroke-width="6" stroke-linejoin="round"/>
<path d="M894.361 202.166L894.361 146.864" stroke="#069A95" stroke-width="6" stroke-linejoin="round"/>
<path d="M59.293 721.175C63.3518 715.261 76.0505 699.744 90.9515 706.982C105.563 714.078 112.869 706.982 120.175 699.885" stroke="#069A95" stroke-width="6.15976" stroke-linejoin="round"/>
<path d="M233.244 721.175C229.185 715.261 216.487 699.744 201.586 706.982C186.974 714.078 179.668 706.982 172.362 699.885" stroke="#069A95" stroke-width="6.15976" stroke-linejoin="round"/>
<path d="M147.061 585.824V668.777" stroke="#069A95" stroke-width="6" stroke-linejoin="round"/>
<path d="M147.061 737.905V820.858" stroke="#069A95" stroke-width="6" stroke-linejoin="round"/>
<rect x="135.197" y="686.06" width="24.4791" height="35.668" rx="5.15976" fill="#069A95"/>
<path d="M59.4707 1235.32C63.5295 1229.4 76.2283 1213.89 91.1293 1221.12C105.741 1228.22 113.047 1221.12 120.353 1214.03" stroke="#069A95" stroke-width="6.15976" stroke-linejoin="round"/>
<path d="M233.422 1235.32C229.363 1229.4 216.664 1213.89 201.763 1221.12C187.152 1228.22 179.846 1221.12 172.54 1214.03" stroke="#069A95" stroke-width="6.15976" stroke-linejoin="round"/>
<path d="M147.238 1099.97V1182.92" stroke="#069A95" stroke-width="6" stroke-linejoin="round"/>
<path d="M147.238 1252.05V1335" stroke="#069A95" stroke-width="6" stroke-linejoin="round"/>
<rect x="135.375" y="1200.2" width="24.4791" height="35.668" rx="5.15976" fill="#069A95"/>
<path d="M59.293 192.351C63.3518 186.437 76.0505 170.92 90.9515 178.158C105.563 185.255 112.869 178.158 120.175 171.061" stroke="#069A95" stroke-width="6.15976" stroke-linejoin="round"/>
<path d="M233.244 192.351C229.185 186.437 216.487 170.92 201.586 178.157C186.974 185.254 179.668 178.157 172.362 171.06" stroke="#069A95" stroke-width="6.15976" stroke-linejoin="round"/>
<path d="M147.061 57V139.953" stroke="#069A95" stroke-width="6" stroke-linejoin="round"/>
<path d="M147.061 209.08V292.032" stroke="#069A95" stroke-width="6" stroke-linejoin="round"/>
<rect x="135.197" y="157.235" width="24.4791" height="35.668" rx="5.15976" fill="#069A95"/>
<path d="M576.416 721.175C580.475 715.261 593.174 699.744 608.075 706.982C622.686 714.078 629.992 706.982 637.298 699.885" stroke="#069A95" stroke-width="6.15976" stroke-linejoin="round"/>
<path d="M750.367 721.175C746.308 715.261 733.61 699.744 718.709 706.982C704.097 714.078 696.791 706.982 689.485 699.885" stroke="#069A95" stroke-width="6.15976" stroke-linejoin="round"/>
<path d="M664.184 585.824V668.777" stroke="#069A95" stroke-width="6" stroke-linejoin="round"/>
<path d="M664.184 737.904V820.857" stroke="#069A95" stroke-width="6" stroke-linejoin="round"/>
<rect x="652.32" y="686.06" width="24.4791" height="35.668" rx="5.15976" fill="#069A95"/>
<path d="M576.594 1235.32C580.653 1229.4 593.351 1213.89 608.252 1221.12C622.864 1228.22 630.17 1221.12 637.476 1214.03" stroke="#069A95" stroke-width="6.15976" stroke-linejoin="round"/>
<path d="M750.545 1235.32C746.486 1229.4 733.787 1213.89 718.886 1221.12C704.275 1228.22 696.969 1221.12 689.663 1214.03" stroke="#069A95" stroke-width="6.15976" stroke-linejoin="round"/>
<path d="M664.361 1099.97V1182.92" stroke="#069A95" stroke-width="6" stroke-linejoin="round"/>
<path d="M664.361 1252.05V1335" stroke="#069A95" stroke-width="6" stroke-linejoin="round"/>
<rect x="652.498" y="1200.2" width="24.4791" height="35.668" rx="5.15976" fill="#069A95"/>
<path d="M576.416 192.351C580.475 186.437 593.174 170.92 608.075 178.158C622.686 185.255 629.992 178.158 637.298 171.061" stroke="#069A95" stroke-width="6.15976" stroke-linejoin="round"/>
<path d="M750.367 192.351C746.308 186.437 733.61 170.92 718.709 178.157C704.097 185.254 696.791 178.157 689.485 171.06" stroke="#069A95" stroke-width="6.15976" stroke-linejoin="round"/>
<path d="M664.184 57V139.953" stroke="#069A95" stroke-width="6" stroke-linejoin="round"/>
<path d="M664.184 209.08V292.032" stroke="#069A95" stroke-width="6" stroke-linejoin="round"/>
<rect x="652.32" y="157.235" width="24.4791" height="35.668" rx="5.15976" fill="#069A95"/>
<path d="M396.932 925.652C400.99 919.738 413.689 904.221 428.59 911.458C443.202 918.555 450.508 911.458 457.814 904.362" stroke="#069A95" stroke-width="6.15976" stroke-linejoin="round"/>
<path d="M371.625 1017.32C367.566 1023.23 354.867 1038.75 339.966 1031.51C325.355 1024.41 318.049 1031.51 310.743 1038.61" stroke="#069A95" stroke-width="6.15976" stroke-linejoin="round"/>
<path d="M457.816 1039.16C453.758 1033.25 441.059 1017.73 426.158 1024.97C411.546 1032.06 404.24 1024.97 396.935 1017.87" stroke="#069A95" stroke-width="6.15976" stroke-linejoin="round"/>
<path d="M310.742 903.808C314.801 909.722 327.5 925.239 342.401 918.002C357.012 910.905 364.318 918.002 371.624 925.099" stroke="#069A95" stroke-width="6.15976" stroke-linejoin="round"/>
<rect x="420.453" y="954.384" width="22.8304" height="33.2657" rx="4.81225" fill="#069A95"/>
<rect x="373.898" y="954.384" width="22.8304" height="33.2657" rx="4.81225" fill="#069A95"/>
<rect x="350.178" y="986.788" width="22.8304" height="33.2657" rx="4.81225" transform="rotate(-180 350.178 986.788)" fill="#069A95"/>
<path d="M396.932 396.829C400.99 390.915 413.689 375.398 428.59 382.635C443.202 389.732 450.508 382.635 457.814 375.538" stroke="#069A95" stroke-width="6.15976" stroke-linejoin="round"/>
<path d="M371.625 488.494C367.566 494.408 354.867 509.925 339.966 502.688C325.355 495.591 318.049 502.688 310.743 509.785" stroke="#069A95" stroke-width="6.15976" stroke-linejoin="round"/>
<path d="M457.816 510.337C453.758 504.423 441.059 488.906 426.158 496.143C411.546 503.24 404.24 496.143 396.935 489.047" stroke="#069A95" stroke-width="6.15976" stroke-linejoin="round"/>
<path d="M310.742 374.985C314.801 380.899 327.5 396.416 342.401 389.179C357.012 382.082 364.318 389.179 371.624 396.275" stroke="#069A95" stroke-width="6.15976" stroke-linejoin="round"/>
<rect x="420.453" y="425.561" width="22.8304" height="33.2657" rx="4.81225" fill="#069A95"/>
<rect x="373.898" y="425.561" width="22.8304" height="33.2657" rx="4.81225" fill="#069A95"/>
<rect x="350.178" y="457.964" width="22.8304" height="33.2657" rx="4.81225" transform="rotate(-180 350.178 457.964)" fill="#069A95"/>
<path d="M899.896 925.652C903.955 919.738 916.654 904.221 931.555 911.458C946.167 918.555 953.473 911.458 960.778 904.362" stroke="#069A95" stroke-width="6.15976" stroke-linejoin="round"/>
<path d="M874.59 1017.32C870.531 1023.23 857.832 1038.75 842.931 1031.51C828.32 1024.41 821.014 1031.51 813.708 1038.61" stroke="#069A95" stroke-width="6.15976" stroke-linejoin="round"/>
<path d="M960.779 1039.16C956.721 1033.25 944.022 1017.73 929.121 1024.97C914.509 1032.06 907.203 1024.97 899.897 1017.87" stroke="#069A95" stroke-width="6.15976" stroke-linejoin="round"/>
<path d="M813.707 903.808C817.766 909.722 830.465 925.239 845.366 918.002C859.977 910.905 867.283 918.002 874.589 925.099" stroke="#069A95" stroke-width="6.15976" stroke-linejoin="round"/>
<rect x="923.42" y="954.384" width="22.8304" height="33.2657" rx="4.81225" fill="#069A95"/>
<rect x="876.863" y="954.384" width="22.8304" height="33.2657" rx="4.81225" fill="#069A95"/>
<rect x="853.141" y="986.788" width="22.8304" height="33.2657" rx="4.81225" transform="rotate(-180 853.141 986.788)" fill="#069A95"/>
<path d="M899.896 396.828C903.955 390.914 916.654 375.397 931.555 382.635C946.167 389.731 953.473 382.635 960.778 375.538" stroke="#069A95" stroke-width="6.15976" stroke-linejoin="round"/>
<path d="M874.59 488.494C870.531 494.408 857.832 509.925 842.931 502.687C828.32 495.591 821.014 502.687 813.708 509.784" stroke="#069A95" stroke-width="6.15976" stroke-linejoin="round"/>
<path d="M960.779 510.337C956.721 504.423 944.022 488.906 929.121 496.143C914.509 503.24 907.203 496.143 899.897 489.046" stroke="#069A95" stroke-width="6.15976" stroke-linejoin="round"/>
<path d="M813.707 374.985C817.766 380.899 830.465 396.415 845.366 389.178C859.977 382.081 867.283 389.178 874.589 396.275" stroke="#069A95" stroke-width="6.15976" stroke-linejoin="round"/>
<rect x="923.42" y="425.561" width="22.8304" height="33.2657" rx="4.81225" fill="#069A95"/>
<rect x="876.863" y="425.56" width="22.8304" height="33.2657" rx="4.81225" fill="#069A95"/>
<rect x="853.141" y="457.963" width="22.8304" height="33.2657" rx="4.81225" transform="rotate(-180 853.141 457.963)" fill="#069A95"/>
</g>
</svg>
