<svg width="61" height="62" viewBox="0 0 61 62" fill="none" xmlns="http://www.w3.org/2000/svg">
<path d="M28.8714 27.4016C29.177 27.2816 29.3734 26.9761 29.3734 26.6487V6.85436C29.3734 6.40697 29.0133 6.04688 28.5659 6.04688C23.1863 6.04688 18.1013 8.10924 14.2275 11.8521C14.0748 12.0048 13.9875 12.2012 13.9766 12.4195C13.9766 12.6377 14.0529 12.845 14.2057 12.9978L27.9767 27.2161C28.1294 27.3798 28.3477 27.4671 28.555 27.4671C28.675 27.4562 28.7732 27.4453 28.8714 27.4016ZM27.7584 24.6518L15.9516 12.4631C19.2361 9.53871 23.3718 7.85827 27.7584 7.68367V24.6518Z" fill="#231F20"/>
<path d="M28.4984 30.8826C28.5202 30.6426 28.4438 30.4134 28.2692 30.2388L14.4983 16.0205C14.3455 15.8677 14.1491 15.7804 13.9309 15.7695C13.7126 15.7695 13.5053 15.8459 13.3525 15.9987C9.30417 19.9161 7.07812 25.1757 7.07812 30.7953C7.07812 35.0947 8.38756 39.2085 10.8755 42.7112C11.0283 42.9295 11.2902 43.0495 11.5411 43.0495C11.7048 43.0495 11.8685 43.0059 12.0103 42.8967L28.1601 31.4501C28.3565 31.33 28.4765 31.1227 28.4984 30.8826ZM11.7485 41.1181C9.75156 38.0409 8.70401 34.4945 8.70401 30.8063C8.70401 25.8959 10.5481 21.291 13.9199 17.7446L26.4578 30.6862L11.7485 41.1181Z" fill="#231F20"/>
<path d="M52.8882 30.1628C52.8446 29.8246 52.79 29.4972 52.7355 29.1589C52.6045 28.4278 52.4299 27.7185 52.2335 27.0529C52.1462 26.7583 52.0589 26.4637 51.9607 26.169C51.7425 25.5361 51.5024 24.9142 51.2187 24.3031C51.0987 24.0412 50.9786 23.7793 50.8477 23.5174C50.564 22.95 50.2475 22.3935 49.9093 21.8479C49.7565 21.6078 49.6146 21.3787 49.451 21.1495C49.069 20.5821 48.6435 20.0256 48.207 19.5018C48.0324 19.2945 47.8578 19.0871 47.6723 18.8798C47.2686 18.4324 46.8321 17.9959 46.3738 17.5704C46.1774 17.3849 45.97 17.1994 45.7627 17.0248C45.2935 16.621 44.8024 16.2391 44.3114 15.879C44.0823 15.7153 43.8531 15.5517 43.624 15.4098C43.0784 15.0497 42.5328 14.7224 41.9981 14.4277C41.7471 14.2968 41.4961 14.1658 41.2342 14.0349C40.5795 13.7185 39.892 13.4238 39.2046 13.1728C38.9209 13.0746 38.6263 12.9655 38.3425 12.8782C37.666 12.6709 36.9785 12.4854 36.2693 12.3435C35.9419 12.2781 35.6145 12.2235 35.2872 12.1689C34.5233 12.0489 33.7159 11.9725 32.9084 11.9398C32.6247 11.9289 32.3519 11.918 32.0682 11.918C31.4025 11.918 30.8678 12.4527 30.8678 13.1183V32.3016L15.2309 43.3882C14.9691 43.5737 14.7945 43.8574 14.7399 44.1738C14.6853 44.4903 14.7617 44.8067 14.9472 45.0686L15.0236 45.1668C15.3619 45.636 15.7438 46.1162 16.1803 46.6181C16.3549 46.8254 16.5404 47.0328 16.7259 47.2292C17.1296 47.6657 17.577 48.1021 18.0462 48.5168C18.2536 48.7023 18.4609 48.8769 18.6682 49.0515C19.2466 49.5316 19.7813 49.9353 20.3159 50.2954C20.5124 50.4264 20.7088 50.5464 20.9052 50.6774L21.0252 50.7537C21.5708 51.092 22.1273 51.4085 22.6948 51.6922C22.9566 51.8231 23.2076 51.9432 23.4695 52.0632C24.0478 52.3251 24.6589 52.5651 25.3464 52.7943C25.641 52.8925 25.9247 52.9907 26.2193 53.0671C26.9504 53.2853 27.6379 53.449 28.3253 53.569C28.6636 53.6345 28.991 53.6782 29.3292 53.7218C30.2349 53.8418 31.1515 53.9073 32.0136 53.9073C32.0245 53.9073 32.0791 53.9073 32.09 53.9073C32.4719 53.9073 32.8429 53.8964 33.2139 53.8746C34.2069 53.82 35.2108 53.7 36.1929 53.5036C36.6839 53.4054 37.1859 53.2853 37.7206 53.1326C39.2482 52.707 40.7214 52.1178 42.0854 51.3648C43.4603 50.6119 44.7697 49.7062 45.9591 48.6477C46.6248 48.0585 47.2576 47.4256 47.836 46.7709C48.8944 45.5706 49.8111 44.272 50.5531 42.8971C51.2951 41.5331 51.8952 40.06 52.3208 38.5323C52.4736 37.9976 52.5936 37.4957 52.6918 37.0046C52.8882 36.0226 53.0083 35.0187 53.0628 34.0257C53.0847 33.6547 53.0956 33.2727 53.0956 32.9017V32.8472C53.0737 31.996 53.0083 31.0903 52.8882 30.1628ZM51.426 33.9711C51.3715 34.8877 51.2624 35.8152 51.0768 36.7209C50.9896 37.1683 50.8804 37.6266 50.7386 38.1286C50.3457 39.5362 49.8001 40.9002 49.1127 42.1551C48.4252 43.4209 47.585 44.6212 46.6029 45.7342C46.0682 46.3344 45.4899 46.9236 44.8679 47.4692C43.7658 48.4404 42.5655 49.2915 41.2997 49.979C40.0339 50.6665 38.6808 51.2121 37.2732 51.6049C36.7821 51.7467 36.3238 51.8559 35.8655 51.9432C34.9598 52.1287 34.0323 52.2378 33.1157 52.2923C32.7665 52.3142 32.4282 52.3251 32.0791 52.3251C32.0682 52.3251 32.0354 52.3251 32.0245 52.3251C31.2061 52.3251 30.3659 52.2596 29.5257 52.1505C29.2201 52.1068 28.9037 52.0632 28.5981 52.0086C27.9652 51.8886 27.3323 51.7358 26.6558 51.5394C26.383 51.463 26.1102 51.3757 25.8483 51.2775C25.2154 51.0593 24.648 50.841 24.1242 50.601C23.8842 50.4919 23.6441 50.3718 23.404 50.2518C22.8912 49.9899 22.3674 49.6953 21.8654 49.3897L21.7454 49.3134C21.5708 49.2042 21.3853 49.0951 21.2107 48.9751C20.7306 48.6477 20.2286 48.2658 19.694 47.8293C19.4975 47.6657 19.312 47.502 19.1156 47.3274C18.6791 46.9346 18.2754 46.5417 17.9044 46.138C17.7298 45.9525 17.5661 45.767 17.4024 45.5815C17.0751 45.1995 16.7805 44.8394 16.5186 44.4794L32.1554 33.3928C32.3737 33.24 32.4937 32.989 32.4937 32.7271V13.5548C32.6138 13.5548 32.7338 13.5657 32.8538 13.5657C33.6067 13.5984 34.3378 13.6639 35.0471 13.773C35.3527 13.8167 35.6582 13.8712 35.9528 13.9367C36.5966 14.0676 37.2404 14.2313 37.8624 14.4277C38.1243 14.515 38.3971 14.6023 38.659 14.7005C39.2919 14.9297 39.9248 15.2025 40.5359 15.4971C40.7759 15.6171 41.0051 15.7372 41.2451 15.8572C41.7362 16.1191 42.249 16.4246 42.751 16.7629C42.9692 16.9048 43.1766 17.0466 43.3839 17.1994C43.8422 17.5267 44.2896 17.8868 44.7261 18.2578C44.9116 18.4215 45.108 18.5852 45.2935 18.7598C45.7081 19.1526 46.1119 19.5564 46.4829 19.971C46.6575 20.1565 46.8212 20.3529 46.9849 20.5494C47.3886 21.0404 47.7814 21.5533 48.1306 22.077C48.2725 22.2844 48.4143 22.5026 48.5453 22.7208C48.8617 23.2228 49.1454 23.7466 49.4073 24.2594C49.5273 24.4995 49.6365 24.7396 49.7565 24.9905C50.0075 25.547 50.2366 26.1254 50.433 26.7146C50.5203 26.9874 50.6076 27.2493 50.684 27.533C50.8695 28.155 51.0223 28.7988 51.1423 29.4754C51.1969 29.7809 51.2514 30.0864 51.2842 30.4029C51.3933 31.254 51.4588 32.0942 51.4588 32.9017V32.9563C51.4588 33.2836 51.4479 33.6328 51.426 33.9711Z" fill="#231F20"/>
</svg>
