<svg width="75" height="61" viewBox="0 0 75 61" fill="none" xmlns="http://www.w3.org/2000/svg">
<path d="M30 48.7969H63.75V26.2969H30V48.7969ZM7.5 60.0469C5.4375 60.0469 3.6725 59.3131 2.205 57.8456C0.735 56.3756 0 54.6094 0 52.5469V7.54688C0 5.48438 0.735 3.71937 2.205 2.25187C3.6725 0.781874 5.4375 0.046875 7.5 0.046875H67.5C69.5625 0.046875 71.3288 0.781874 72.7988 2.25187C74.2663 3.71937 75 5.48438 75 7.54688V52.5469C75 54.6094 74.2663 56.3756 72.7988 57.8456C71.3288 59.3131 69.5625 60.0469 67.5 60.0469H7.5Z" fill="#FFC121"/>
</svg>
