<svg width="53" height="69" viewBox="0 0 53 69" fill="none" xmlns="http://www.w3.org/2000/svg">
<path fill-rule="evenodd" clip-rule="evenodd" d="M0.25 6.17188V62.4219C0.25 63.9137 0.842632 65.3445 1.89752 66.3993C2.95242 67.4542 4.38316 68.0469 5.875 68.0469H30.25V61.4188C28.8202 60.5932 27.7027 59.319 27.0709 57.7937C26.4391 56.2684 26.3282 54.5772 26.7556 52.9824C27.1829 51.3877 28.1245 49.9785 29.4343 48.9734C30.7441 47.9683 32.349 47.4236 34 47.4236C35.651 47.4236 37.2559 47.9683 38.5657 48.9734C39.8755 49.9785 40.8171 51.3877 41.2444 52.9824C41.6718 54.5772 41.5609 56.2684 40.9291 57.7937C40.2973 59.319 39.1798 60.5932 37.75 61.4188V68.0469H47.125C48.6168 68.0469 50.0476 67.4542 51.1025 66.3993C52.1574 65.3445 52.75 63.9137 52.75 62.4219V6.17188C52.75 4.68003 52.1574 3.24929 51.1025 2.1944C50.0476 1.13951 48.6168 0.546875 47.125 0.546875H5.875C4.38316 0.546875 2.95242 1.13951 1.89752 2.1944C0.842632 3.24929 0.25 4.68003 0.25 6.17188ZM34 58.6719C34.9946 58.6719 35.9484 58.2768 36.6516 57.5735C37.3549 56.8703 37.75 55.9164 37.75 54.9219C37.75 53.9273 37.3549 52.9735 36.6516 52.2702C35.9484 51.567 34.9946 51.1719 34 51.1719C33.0054 51.1719 32.0516 51.567 31.3484 52.2702C30.6451 52.9735 30.25 53.9273 30.25 54.9219C30.25 55.9164 30.6451 56.8703 31.3484 57.5735C32.0516 58.2768 33.0054 58.6719 34 58.6719ZM15.25 13.6719C15.25 13.1746 15.4475 12.6977 15.7992 12.3461C16.1508 11.9944 16.6277 11.7969 17.125 11.7969H35.875C36.3723 11.7969 36.8492 11.9944 37.2008 12.3461C37.5525 12.6977 37.75 13.1746 37.75 13.6719C37.75 14.1692 37.5525 14.6461 37.2008 14.9977C36.8492 15.3493 36.3723 15.5469 35.875 15.5469H17.125C16.6277 15.5469 16.1508 15.3493 15.7992 14.9977C15.4475 14.6461 15.25 14.1692 15.25 13.6719ZM9.625 23.0469C9.12772 23.0469 8.65081 23.2444 8.29918 23.596C7.94754 23.9477 7.75 24.4246 7.75 24.9219C7.75 25.4192 7.94754 25.8961 8.29918 26.2477C8.65081 26.5993 9.12772 26.7969 9.625 26.7969H43.375C43.8723 26.7969 44.3492 26.5993 44.7008 26.2477C45.0525 25.8961 45.25 25.4192 45.25 24.9219C45.25 24.4246 45.0525 23.9477 44.7008 23.596C44.3492 23.2444 43.8723 23.0469 43.375 23.0469H9.625ZM7.75 32.4219C7.75 31.9246 7.94754 31.4477 8.29918 31.096C8.65081 30.7444 9.12772 30.5469 9.625 30.5469H43.375C43.8723 30.5469 44.3492 30.7444 44.7008 31.096C45.0525 31.4477 45.25 31.9246 45.25 32.4219C45.25 32.9192 45.0525 33.3961 44.7008 33.7477C44.3492 34.0993 43.8723 34.2969 43.375 34.2969H9.625C9.12772 34.2969 8.65081 34.0993 8.29918 33.7477C7.94754 33.3961 7.75 32.9192 7.75 32.4219ZM9.625 38.0469C9.12772 38.0469 8.65081 38.2444 8.29918 38.596C7.94754 38.9477 7.75 39.4246 7.75 39.9219C7.75 40.4192 7.94754 40.8961 8.29918 41.2477C8.65081 41.5993 9.12772 41.7969 9.625 41.7969H43.375C43.8723 41.7969 44.3492 41.5993 44.7008 41.2477C45.0525 40.8961 45.25 40.4192 45.25 39.9219C45.25 39.4246 45.0525 38.9477 44.7008 38.596C44.3492 38.2444 43.8723 38.0469 43.375 38.0469H9.625Z" fill="#FFC121"/>
</svg>
