<svg width="64" height="72" viewBox="0 0 64 72" fill="none" xmlns="http://www.w3.org/2000/svg">
<path d="M38.4625 67.7969C34.45 61.9094 30.25 54.1469 30.25 47.1719C30.25 40.3094 33.85 34.0469 39.25 30.2969H37.75V22.7969H45.25V27.4094C47.125 26.8844 49 26.5469 50.875 26.5469C51.5125 26.5469 52.15 26.5469 52.75 26.6594V0.296875H0.25V67.7969H22.75V54.6719H30.25V67.7969H38.4625ZM37.75 7.79688H45.25V15.2969H37.75V7.79688ZM15.25 60.2969H7.75V52.7969H15.25V60.2969ZM15.25 45.2969H7.75V37.7969H15.25V45.2969ZM15.25 30.2969H7.75V22.7969H15.25V30.2969ZM15.25 15.2969H7.75V7.79688H15.25V15.2969ZM22.75 7.79688H30.25V15.2969H22.75V7.79688ZM22.75 22.7969H30.25V30.2969H22.75V22.7969ZM22.75 45.2969V37.7969H30.25V45.2969H22.75ZM50.875 34.0469C43.75 34.0469 37.75 40.0844 37.75 47.1719C37.75 56.9594 50.875 71.5469 50.875 71.5469C50.875 71.5469 64 56.9594 64 47.1719C64 40.0844 58 34.0469 50.875 34.0469ZM50.875 52.0844C48.25 52.0844 46.375 49.8344 46.375 47.5844C46.375 44.9594 48.625 43.0844 50.875 43.0844C53.125 43.0844 55.375 45.2969 55.375 47.5844C55.75 49.8344 53.5 52.0844 50.875 52.0844Z" fill="#FFC121"/>
</svg>
