<svg width="61" height="62" viewBox="0 0 61 62" fill="none" xmlns="http://www.w3.org/2000/svg">
<path d="M12.9091 29.0412C12.4652 29.007 12.0667 29.3258 12.0098 29.7584C11.9415 30.2023 12.2375 30.6121 12.6701 30.7032C15.812 31.3862 18.6352 31.6936 21.2193 31.6936C33.4113 31.6936 39.7293 24.7153 44.2145 17.3045L46.9238 18.9324C47.2084 19.1031 47.5613 19.0918 47.8345 18.9096C48.1077 18.7275 48.2444 18.3973 48.1874 18.0672L46.4457 7.75352C46.4002 7.50308 46.2408 7.2754 46.0131 7.15018C45.7855 7.02496 45.5122 7.01358 45.2732 7.11603L36.0409 11.0321C35.7336 11.1573 35.5287 11.4533 35.5287 11.7834C35.5173 12.1135 35.6994 12.4209 36.0068 12.5689L38.7958 13.9235C31.3508 30.2934 13.6605 29.0981 12.9091 29.0412ZM40.6628 13.8666C40.8335 13.4568 40.6628 12.9787 40.253 12.7738L38.4088 11.8744L44.9544 9.09681L46.218 16.5532L44.3511 15.4376C44.1576 15.3237 43.9299 15.2896 43.7022 15.3465C43.4859 15.4034 43.2924 15.54 43.1786 15.7336C38.6478 23.429 32.7283 30.2706 20.6501 30.0316C27.1616 28.6314 36.0865 24.7153 40.6628 13.8666Z" fill="#231F20"/>
<path d="M15.6174 39.833C13.9895 39.833 12.7031 41.4267 12.7031 43.4644V49.828C12.7031 51.8657 13.9781 53.4594 15.6174 53.4594H19.6017C21.241 53.4594 22.5159 51.8657 22.5159 49.828V43.4644C22.5159 41.4267 21.241 39.833 19.6017 39.833H15.6174ZM20.8198 43.4644V49.828C20.8198 50.8639 20.2506 51.7632 19.6017 51.7632H15.6174C14.9685 51.7632 14.3993 50.8525 14.3993 49.828V43.4644C14.3993 42.4285 14.9685 41.5292 15.6174 41.5292H19.6017C20.2506 41.5178 20.8198 42.4285 20.8198 43.4644Z" fill="#231F20"/>
<path d="M27.6486 33.8672C26.0207 33.8672 24.7344 35.4609 24.7344 37.4986V49.8158C24.7344 51.8535 26.0094 53.4473 27.6486 53.4473H31.6329C33.2608 53.4473 34.5472 51.8535 34.5472 49.8158V37.4986C34.5472 35.4609 33.2722 33.8672 31.6329 33.8672H27.6486ZM32.8396 37.4986V49.8158C32.8396 50.8518 32.2704 51.7511 31.6216 51.7511H27.6372C26.9884 51.7511 26.4192 50.8404 26.4192 49.8158V37.4986C26.4192 36.4627 26.9884 35.5634 27.6372 35.5634H31.6216C32.2704 35.5634 32.8396 36.4627 32.8396 37.4986Z" fill="#231F20"/>
<path d="M44.8517 26.7188H40.8674C39.2395 26.7188 37.9531 28.3125 37.9531 30.3502V49.8278C37.9531 51.8655 39.2281 53.4592 40.8674 53.4592H44.8517C46.491 53.4592 47.7659 51.8655 47.7659 49.8278V30.3388C47.7545 28.3125 46.4796 26.7188 44.8517 26.7188ZM46.0698 49.8164C46.0698 50.8523 45.5006 51.7517 44.8517 51.7517H40.8674C40.2185 51.7517 39.6493 50.841 39.6493 49.8164V30.3388C39.6493 29.3029 40.2185 28.4035 40.8674 28.4035H44.8517C45.5006 28.4035 46.0698 29.3142 46.0698 30.3388V49.8164Z" fill="#231F20"/>
</svg>
