<svg width="1434" height="1592" viewBox="0 0 1434 1592" fill="none" xmlns="http://www.w3.org/2000/svg">
<g opacity="0.2443">
<path opacity="0.2443" d="M836.293 1142.52L934.009 991.648L965.91 1135.2L836.293 1142.52ZM932.859 998.617L841.753 1139.38L962.749 1132.42L932.859 998.617Z" fill="#B2F4DC" fill-opacity="0.2"/>
</g>
<g opacity="0.5038">
<path opacity="0.5038" d="M1148.68 1355.41L1349 1381.2L1347.28 1383.29L1199.84 1579.81L1148.68 1355.41ZM1343.83 1383.64L1152.13 1358.9L1201.28 1573.88L1343.83 1383.64Z" fill="#B2F4DC" fill-opacity="0.2"/>
</g>
<g opacity="0.8777">
<path opacity="0.8777" d="M1198.12 1578.41L1346.7 1379.8L1432.92 1591.65H1327.16L1198.12 1578.41ZM1346.13 1385.38L1203.29 1575.97L1327.45 1588.87H1428.9L1346.13 1385.38Z" fill="#B2F4DC" fill-opacity="0.2"/>
</g>
<g opacity="0.5761">
<path opacity="0.5761" d="M920.774 437.287L921.923 434.499L1004.12 484.326L1011.3 510.458L920.774 437.287ZM1002.11 486.416L938.88 448.088L1006.71 503.141L1002.11 486.416Z" fill="#B2F4DC" fill-opacity="0.2"/>
</g>
<g opacity="0.1811">
<path opacity="0.1811" d="M1031.71 349.83L1048.09 171.082L1146.38 267.599L1031.71 349.83ZM1049.82 177.006L1034.59 343.906L1141.79 267.25L1049.82 177.006Z" fill="#B2F4DC" fill-opacity="0.2"/>
</g>
<g opacity="0.6975">
<path opacity="0.6975" d="M237.91 1067.96L239.059 1066.21L327.004 952.275L312.921 1103.5L237.91 1067.96ZM323.842 961.334L242.221 1066.91L310.909 1099.66L323.842 961.334Z" fill="#B2F4DC" fill-opacity="0.2"/>
</g>
<g opacity="0.054651">
<path opacity="0.054651" d="M962.452 1134.86L986.019 1075.97L987.168 1076.67L1189.79 1194.79L962.452 1134.86ZM987.168 1080.15L966.188 1132.76L1169.09 1186.08L987.168 1080.15Z" fill="#B2F4DC" fill-opacity="0.2"/>
</g>
<g opacity="0.341">
<path opacity="0.341" d="M1163.34 725.791L1330.32 836.245L1217.94 854.016L1217.66 852.97L1163.34 725.791ZM1322.27 834.503L1169.37 733.108L1219.38 850.88L1322.27 834.503Z" fill="#B2F4DC" fill-opacity="0.2"/>
</g>
<g opacity="0.4395">
<path opacity="0.4395" d="M1324.58 836.592L1383.5 681.19L1410.52 869.693L1324.58 836.592ZM1382.35 691.294L1328.03 834.501L1407.07 865.163L1382.35 691.294Z" fill="#B2F4DC" fill-opacity="0.2"/>
</g>
<g opacity="0.8687">
<path opacity="0.8687" d="M1142.36 268.643L1180.58 125.436L1182.02 126.481L1398.14 313.591L1142.36 268.643ZM1181.73 130.314L1145.52 266.204L1388.08 308.713L1181.73 130.314Z" fill="#B2F4DC" fill-opacity="0.2"/>
</g>
<g opacity="0.6378">
<path opacity="0.6378" d="M233.023 1062.38L314.645 1101.4L290.216 1119.17L233.023 1062.38ZM309.184 1101.75L247.393 1072.48L290.79 1115.34L309.184 1101.75Z" fill="#B2F4DC" fill-opacity="0.2"/>
</g>
<g opacity="0.6534">
<path opacity="0.6534" d="M227.568 1478.41L275.851 1225.8L340.229 1512.21L227.568 1478.41ZM276.138 1238.34L230.729 1476.32L336.492 1508.38L276.138 1238.34Z" fill="#B2F4DC" fill-opacity="0.2"/>
</g>
<g opacity="0.4075">
<path opacity="0.4075" d="M281.589 1179.45L289.349 1116.04L314.928 1097.57L281.589 1179.45ZM291.648 1118.13L286.475 1160.64L308.892 1105.59L291.648 1118.13Z" fill="#B2F4DC" fill-opacity="0.2"/>
</g>
<g opacity="0.1929">
<path opacity="0.1929" d="M551.186 1022.31L684.252 822.307L726.787 1037.29L551.186 1022.31ZM682.815 828.927L556.072 1019.87L723.338 1034.16L682.815 828.927Z" fill="#B2F4DC" fill-opacity="0.2"/>
</g>
<g opacity="0.1666">
<path opacity="0.1666" d="M500.888 1558.2L586.246 1591.65H512.384L500.888 1558.2ZM570.152 1588.52L505.199 1563.08L513.821 1588.52H570.152Z" fill="#B2F4DC" fill-opacity="0.2"/>
</g>
<g opacity="0.3403">
<path opacity="0.3403" d="M1381.48 687.114L1391.54 478.401L1433.5 576.66V714.292L1381.48 687.114ZM1393.55 489.9L1384.07 685.372L1430.91 709.762V577.009L1393.55 489.9Z" fill="#B2F4DC" fill-opacity="0.2"/>
</g>
<g opacity="0.9176">
<path opacity="0.9176" d="M1000.67 481.191L1081.14 556.104L1079.71 558.543L1007.86 508.02L1000.67 481.191ZM1063.9 543.909L1005.56 489.553L1009.87 505.581L1063.9 543.909Z" fill="#B2F4DC" fill-opacity="0.2"/>
</g>
<g opacity="0.1984">
<path opacity="0.1984" d="M1077.71 555.057L1195.25 585.371L1166.8 733.805L1077.71 555.057ZM1192.38 587.81L1082.88 559.587L1165.94 725.791L1192.38 587.81Z" fill="#B2F4DC" fill-opacity="0.2"/>
</g>
<g opacity="0.2669">
<path opacity="0.2669" d="M1162.19 732.063L1299.57 583.281L1385.21 687.463L1162.19 732.063ZM1299.57 587.462L1170.53 727.184L1380.33 685.372L1299.57 587.462Z" fill="#B2F4DC" fill-opacity="0.2"/>
</g>
<g opacity="0.7806">
<path opacity="0.7806" d="M1175.41 1188.17L1362.8 1226.14L1347.28 1385.73L1345.55 1383.64L1175.41 1188.17ZM1360.21 1228.58L1183.17 1192.7L1345.27 1379.46L1360.21 1228.58Z" fill="#B2F4DC" fill-opacity="0.2"/>
</g>
<g opacity="0.9353">
<path opacity="0.9353" d="M1357.63 1227.19L1433.5 1199.66V1262.38L1357.63 1227.19ZM1430.91 1203.84L1365.39 1227.54L1430.91 1257.85V1203.84Z" fill="#B2F4DC" fill-opacity="0.2"/>
</g>
<g opacity="0.4956">
<path opacity="0.4956" d="M227.86 1490.95L228.722 1244.96L277.867 1229.98L227.86 1490.95ZM231.021 1247.4L230.446 1463.78L274.418 1234.16L231.021 1247.4Z" fill="#B2F4DC" fill-opacity="0.2"/>
</g>
<g opacity="0.6271">
<path opacity="0.6271" d="M795.754 371.432L923.359 435.196L854.096 549.483L795.754 371.432ZM919.336 436.59L800.065 377.007L854.671 543.211L919.336 436.59Z" fill="#B2F4DC" fill-opacity="0.2"/>
</g>
<g opacity="0.7557">
<path opacity="0.7557" d="M850.655 545.998L1010.16 505.231L1008.73 641.121L850.655 545.998ZM1007.58 508.716L858.415 547.044L1006.43 635.895L1007.58 508.716Z" fill="#B2F4DC" fill-opacity="0.2"/>
</g>
<g opacity="0.3556">
<path opacity="0.3556" d="M983.422 1078.06L1218.8 943.563L1180.29 1192.69L983.422 1078.06ZM1215.35 948.79L989.17 1078.06L1178.57 1188.16L1215.35 948.79Z" fill="#B2F4DC" fill-opacity="0.2"/>
</g>
<g opacity="0.058722">
<path opacity="0.058722" d="M970.218 802.446L1219.97 851.575L1218.24 948.788L970.218 802.446ZM1217.38 854.014L986.6 808.717L1215.66 943.91L1217.38 854.014Z" fill="#B2F4DC" fill-opacity="0.2"/>
</g>
<g opacity="0.5999">
<path opacity="0.5999" d="M721.908 1036.25L837.73 948.094L785.998 1053.32L721.908 1036.25ZM830.258 957.502L728.518 1034.85L785.136 1049.84L830.258 957.502Z" fill="#B2F4DC" fill-opacity="0.2"/>
</g>
<g opacity="0.7881">
<path opacity="0.7881" d="M723.333 1038.69L751.498 878.057L836.281 952.622L723.333 1038.69ZM753.223 883.284L727.069 1032.41L831.97 952.622L753.223 883.284Z" fill="#B2F4DC" fill-opacity="0.2"/>
</g>
<g opacity="0.397">
<path opacity="0.397" d="M778.801 1062.38L833.12 951.226L869.332 948.439L778.801 1062.38ZM834.557 954.362L792.021 1041.47L863.009 952.272L834.557 954.362Z" fill="#B2F4DC" fill-opacity="0.2"/>
</g>
<g opacity="0.1352">
<path opacity="0.1352" d="M782.245 781.191L868.465 951.925L833.115 954.364L782.245 781.191ZM864.154 949.137L792.591 807.672L834.839 951.228L864.154 949.137Z" fill="#B2F4DC" fill-opacity="0.2"/>
</g>
<g opacity="0.302">
<path opacity="0.302" d="M431.637 1591.65L433.649 1576.32L450.893 1591.65H431.637ZM435.373 1581.9L434.511 1588.52H443.133L435.373 1581.9Z" fill="#B2F4DC" fill-opacity="0.2"/>
</g>
<g opacity="0.5835">
<path opacity="0.5835" d="M-3.50056 1365.17L126.404 1324.06L77.8336 1425.8L-3.50056 1365.17ZM121.231 1328.93L2.82227 1366.22L77.2589 1421.62L121.231 1328.93Z" fill="#B2F4DC" fill-opacity="0.2"/>
</g>
<g opacity="0.7245">
<path opacity="0.7245" d="M310.341 1104.19L324.424 953.668L403.459 1046L310.341 1104.19ZM326.436 960.288L313.503 1098.97L399.435 1045.31L326.436 960.288Z" fill="#B2F4DC" fill-opacity="0.2"/>
</g>
<g opacity="0.6437">
<path opacity="0.6437" d="M320.975 954.016L391.101 977.71L403.459 1050.18L320.975 954.016ZM389.089 980.149L329.885 960.288L399.435 1041.47L389.089 980.149Z" fill="#B2F4DC" fill-opacity="0.2"/>
</g>
<g opacity="0.593">
<path opacity="0.593" d="M945.779 1591.65L952.101 1551.93L1002.4 1591.65H945.779ZM953.826 1557.16L948.94 1588.52H994.062L953.826 1557.16Z" fill="#B2F4DC" fill-opacity="0.2"/>
</g>
<g opacity="0.4081">
<path opacity="0.4081" d="M501.172 1565.17L548.306 1271.79L630.215 1408.72L629.353 1409.77L501.172 1565.17ZM549.743 1279.11L505.196 1555.76L627.053 1408.03L549.743 1279.11Z" fill="#B2F4DC" fill-opacity="0.2"/>
</g>
<g opacity="0.9412">
<path opacity="0.9412" d="M761.281 1399.32L911.879 1335.55L851.237 1573.53L761.281 1399.32ZM907.855 1340.43L765.017 1401.06L850.375 1566.22L907.855 1340.43Z" fill="#B2F4DC" fill-opacity="0.2"/>
</g>
<g opacity="0.2546">
<path opacity="0.2546" d="M1030.58 346.693L1144.67 265.159L1206.46 475.614L1030.58 346.693ZM1143.52 269.688L1035.75 346.693L1202.15 468.645L1143.52 269.688Z" fill="#B2F4DC" fill-opacity="0.2"/>
</g>
<g opacity="0.5939">
<path opacity="0.5939" d="M1192.37 588.855L1203.29 468.993L1276 554.012L1192.37 588.855ZM1205.3 475.614L1195.53 584.325L1271.4 552.618L1205.3 475.614Z" fill="#B2F4DC" fill-opacity="0.2"/>
</g>
<g opacity="0.7674">
<path opacity="0.7674" d="M1387.52 50.1747L1433.5 0V35.192L1387.52 50.1747ZM1430.91 6.96871L1397 43.9029L1430.91 33.1014V6.96871Z" fill="#B2F4DC" fill-opacity="0.2"/>
</g>
<g opacity="0.2255">
<path opacity="0.2255" d="M274.693 1233.81L283.028 1167.61L360.051 1214.99L274.693 1233.81ZM285.039 1172.49L277.854 1230.33L352.578 1213.95L285.039 1172.49Z" fill="#B2F4DC" fill-opacity="0.2"/>
</g>
<g opacity="0.1251">
<path opacity="0.1251" d="M282.169 1170.74L311.771 1097.92L358.617 1217.78L282.169 1170.74ZM311.771 1105.24L285.618 1169.35L353.444 1210.81L311.771 1105.24Z" fill="#B2F4DC" fill-opacity="0.2"/>
</g>
<g opacity="0.2913">
<path opacity="0.2913" d="M310.353 1101.06L403.758 1042.87L356.624 1218.83L310.353 1101.06ZM399.447 1048.79L313.802 1102.45L356.049 1210.46L399.447 1048.79Z" fill="#B2F4DC" fill-opacity="0.2"/>
</g>
<g opacity="0.7893">
<path opacity="0.7893" d="M348.274 1213.6L575.895 1194.78L549.741 1277.36L348.274 1213.6ZM572.158 1197.92L364.081 1215.34L548.304 1273.53L572.158 1197.92Z" fill="#B2F4DC" fill-opacity="0.2"/>
</g>
<g opacity="0.7612">
<path opacity="0.7612" d="M94.2287 1445.66L96.8153 1445.31L122.969 1592H108.024L94.2287 1445.66ZM119.807 1588.52L99.6893 1475.27L110.323 1588.52H119.807Z" fill="#B2F4DC" fill-opacity="0.2"/>
</g>
<g opacity="0.3186">
<path opacity="0.3186" d="M326.155 1591.65L337.363 1507.68L437.953 1579.81L383.347 1591.3L326.155 1591.65ZM339.375 1512.56L329.316 1588.52H383.347L431.056 1578.41L339.375 1512.56Z" fill="#B2F4DC" fill-opacity="0.2"/>
</g>
<g opacity="0.769">
<path opacity="0.769" d="M122.369 1329.28L130.129 1176.32L232.156 1245.66L122.369 1329.28ZM132.716 1181.54L125.531 1323.71L227.558 1246.35L132.716 1181.54Z" fill="#B2F4DC" fill-opacity="0.2"/>
</g>
<g opacity="0.7914">
<path opacity="0.7914" d="M130.7 1178.06L236.751 1058.9L241.924 1067.61L132.424 1180.15L130.7 1178.06ZM236.176 1063.43L174.96 1132.07L238.188 1066.91L236.176 1063.43Z" fill="#B2F4DC" fill-opacity="0.2"/>
</g>
<g opacity="0.7235">
<path opacity="0.7235" d="M359.774 950.183L409.207 895.479L391.101 981.542L359.774 950.183ZM404.609 904.887L363.798 950.183L389.664 976.316L404.609 904.887Z" fill="#B2F4DC" fill-opacity="0.2"/>
</g>
<g opacity="0.1424">
<path opacity="0.1424" d="M1089.21 1490.61L1202.73 1576.67L1186.64 1591.3H1153.87L1089.21 1490.61ZM1198.42 1577.02L1100.13 1502.45L1155.6 1588.52H1186.06L1198.42 1577.02Z" fill="#B2F4DC" fill-opacity="0.2"/>
</g>
<g opacity="0.3504">
<path opacity="0.3504" d="M918.475 436.59L1036.02 342.861L992.624 464.117L918.475 436.59ZM1030.27 350.875L924.223 435.545L990.9 460.284L1030.27 350.875Z" fill="#B2F4DC" fill-opacity="0.2"/>
</g>
<g opacity="0.5955">
<path opacity="0.5955" d="M990.327 462.025L1031.71 345.996L1034.01 347.041L1003.26 489.203L990.327 462.025ZM1027.69 365.856L993.201 462.025L1002.69 481.537L1027.69 365.856Z" fill="#B2F4DC" fill-opacity="0.2"/>
</g>
<g opacity="0.8014">
<path opacity="0.8014" d="M1215.65 954.016L1217.38 849.485L1243.24 877.709L1215.65 954.016ZM1219.96 856.106L1218.53 938.685L1240.37 878.406L1219.96 856.106Z" fill="#B2F4DC" fill-opacity="0.2"/>
</g>
<g opacity="0.38">
<path opacity="0.38" d="M1215.94 851.576L1335.79 832.412L1241.81 879.451L1215.94 851.576ZM1316.82 838.684L1221.4 854.015L1241.81 876.315L1316.82 838.684Z" fill="#B2F4DC" fill-opacity="0.2"/>
</g>
<g opacity="0.9285">
<path opacity="0.9285" d="M718.461 1032.42L791.461 1051.93L754.386 1060.99L718.461 1032.42ZM779.39 1051.58L731.682 1038.69L755.249 1057.15L779.39 1051.58Z" fill="#B2F4DC" fill-opacity="0.2"/>
</g>
<g opacity="0.9356">
<path opacity="0.9356" d="M573.312 1195.13L725.059 1033.81L757.248 1059.24L574.749 1197.57L573.312 1195.13ZM725.059 1037.64L586.532 1185.03L752.65 1059.24L725.059 1037.64Z" fill="#B2F4DC" fill-opacity="0.2"/>
</g>
</svg>
