<svg width="61" height="62" viewBox="0 0 61 62" fill="none" xmlns="http://www.w3.org/2000/svg">
<path d="M53.0396 45.7928C53.0396 45.3725 52.7549 44.9929 52.3347 44.8709L42.4108 42.051C42.2888 42.0239 42.1668 42.0103 42.0448 42.0239C41.7601 42.0645 41.5025 42.2408 41.3805 42.4984C41.272 42.7424 41.272 43.0136 41.3941 43.244L45.8137 52.5713C46.0035 52.9916 46.478 53.2085 46.9118 53.1C47.2507 53.0051 47.4948 52.7205 47.5219 52.4086L47.9557 50.009L50.0977 51.8257C50.518 52.1917 51.101 52.3137 51.6297 52.1782C51.9686 52.0968 52.2669 51.907 52.4974 51.6359C53.1074 50.9173 53.0125 49.8463 52.294 49.2363L50.1248 47.4061L52.4025 46.6062C52.7956 46.4977 53.0396 46.1724 53.0396 45.7928ZM48.3218 47.0671L51.711 49.9412C52.0364 50.2259 52.0771 50.714 51.8059 51.0394C51.6975 51.1614 51.5619 51.2563 51.4128 51.2969C51.1687 51.3647 50.8976 51.2969 50.7078 51.1343L47.3456 48.2873L46.6407 52.1646L42.2617 42.9729L52.05 45.7656L48.3218 47.0671Z" fill="#231F20"/>
<path d="M7 34.9474C7 37.4826 9.06068 39.5433 11.5959 39.5433H14.0904L7.14913 51.3109C6.98644 51.5956 6.97289 51.9481 7.13557 52.2328C7.29826 52.5175 7.61007 52.6937 7.93544 52.6937H17.5339H19.6488H38.561C38.8864 52.6937 39.1982 52.5175 39.3609 52.2328C39.5236 51.9481 39.5236 51.5956 39.3473 51.3109L32.4061 39.5433H34.9006C37.4358 39.5433 39.4964 37.4826 39.4964 34.9474V11.6427C39.4964 9.10756 37.4358 7.04688 34.9006 7.04688H11.5959C9.06068 7.04688 7 9.10756 7 11.6427V29.728V31.5853V34.9474ZM36.9477 50.8499H9.5623L23.255 27.6402L36.9477 50.8499ZM8.84377 11.6427C8.84377 10.1243 10.0775 8.8771 11.6094 8.8771H34.9141C36.4325 8.8771 37.6798 10.1108 37.6798 11.6427V34.9474C37.6798 36.4658 36.4461 37.7131 34.9141 37.7131H31.335L24.0549 25.3761C23.8922 25.0914 23.5939 24.9287 23.2686 24.9287C22.9432 24.9287 22.6449 25.105 22.4822 25.3761L15.2021 37.7131H11.5959C10.0775 37.7131 8.83021 36.4794 8.83021 34.9474V11.6427H8.84377Z" fill="#231F20"/>
</svg>
