<svg width="61" height="62" viewBox="0 0 61 62" fill="none" xmlns="http://www.w3.org/2000/svg">
<path d="M55.3087 50.9688C53.4127 38.0634 51.5294 25.1707 49.6334 12.2654C49.3553 10.4073 49.0899 8.53658 48.8118 6.67851C48.736 6.17291 48.1419 5.99595 47.7248 6.05915C43.5157 6.67851 39.2939 7.29787 35.0848 7.91722C34.5793 7.99306 34.4149 8.5745 34.4655 9.00426C35.2871 14.6164 36.1087 20.2412 36.9429 25.8533C32.974 22.036 29.005 18.2061 25.0361 14.3889C23.6836 13.087 22.3185 11.7724 20.966 10.4705C20.6248 10.1419 20.056 10.1166 19.7273 10.4705C16.7696 13.542 13.8245 16.6009 10.8667 19.6724C10.5381 20.0136 10.5128 20.5824 10.8667 20.9111C11.6125 21.6315 12.3456 22.3394 13.0914 23.0472C12.4846 22.7691 11.8779 22.5037 11.2712 22.2256C10.8794 22.0487 10.2727 22.0739 10.0704 22.5416C8.31347 26.4221 6.56917 30.3025 4.81222 34.183C4.63526 34.5748 4.66054 35.1689 5.12822 35.3838C7.26436 36.3444 9.38786 37.3051 11.524 38.2657C10.1715 38.253 8.81907 38.2278 7.4666 38.2151C6.98628 38.2151 6.59445 38.6196 6.58181 39.0999C6.53125 43.3596 6.48069 47.6192 6.43013 51.8789C6.41749 52.3592 6.83461 52.751 7.31493 52.7637C18.5265 52.8901 29.7508 53.0291 40.9624 53.1555C40.975 53.2061 40.9751 53.244 40.9877 53.2946C41.0635 53.8002 41.645 53.9645 42.0747 53.9139C43.0986 53.7622 44.1224 53.6106 45.1462 53.4589C45.4117 53.5853 45.6771 53.699 45.9425 53.8254C46.3344 54.0024 46.9411 53.9771 47.1433 53.5094C47.1812 53.421 47.2192 53.3325 47.2697 53.2314C48.875 53.244 50.4803 53.2693 52.0982 53.2819C52.5785 53.2819 52.9703 52.8774 52.983 52.3971C52.983 52.3592 52.983 52.3339 52.983 52.296C53.5644 52.2075 54.1458 52.1317 54.7273 52.0432C55.2455 51.9674 55.4098 51.5755 55.3466 51.1837C55.3214 51.1205 55.3214 51.0447 55.3087 50.9688ZM12.7374 20.2538C15.2907 17.612 17.8313 14.9703 20.372 12.3159C26.0346 17.7764 31.6973 23.2242 37.36 28.6846C38.2322 34.6254 39.1043 40.5535 39.9765 46.4943C32.0386 38.8598 24.1134 31.2126 16.1755 23.5781C15.0379 22.4658 13.8877 21.3661 12.7374 20.2538ZM11.1575 36.1927C9.67859 35.5228 8.19972 34.8529 6.72085 34.1956C8.23764 30.846 9.74179 27.4965 11.2586 24.1469C13.1166 24.9938 14.9874 25.828 16.8454 26.6749C24.2398 33.8038 31.6468 40.9327 39.0411 48.049C39.4962 48.4787 39.9386 48.9211 40.3936 49.3509C40.3936 49.3762 40.3936 49.3888 40.4062 49.4141C30.6609 45.0028 20.9155 40.5914 11.1575 36.1927ZM12.9523 51.0573C11.3723 51.0447 9.7797 51.0194 8.18707 51.0067C8.23763 47.3412 8.27555 43.6629 8.31347 39.9974C10.7024 40.0226 13.104 40.0606 15.5056 40.0858C23.8479 43.8525 32.1903 47.6319 40.5327 51.3986C31.3561 51.2722 22.1542 51.1711 12.9523 51.0573ZM42.555 52.0685C40.697 39.4159 38.8389 26.776 36.9935 14.1234C36.766 12.5814 36.5384 11.0393 36.3109 9.50985C39.9512 8.97898 43.5789 8.4481 47.2192 7.90458C49.0772 20.5572 50.9353 33.1971 52.7807 45.8496C53.0083 47.3917 53.2358 48.9338 53.4633 50.4632C49.8356 50.9941 46.1953 51.525 42.555 52.0685Z" fill="#231F20"/>
<path d="M47.3748 43.7129C45.7442 43.7129 44.4297 45.0401 44.4297 46.658C44.4297 48.2885 45.7442 49.6031 47.3748 49.6031C49.0053 49.6031 50.3199 48.2759 50.3199 46.658C50.3325 45.0401 49.0053 43.7129 47.3748 43.7129ZM47.3748 48.6677C46.2625 48.6677 45.365 47.7703 45.365 46.658C45.365 45.5457 46.2625 44.6482 47.3748 44.6482C48.4871 44.6482 49.3845 45.5457 49.3845 46.658C49.3845 47.7703 48.4871 48.6677 47.3748 48.6677Z" fill="#231F20"/>
</svg>
