<svg width="61" height="62" viewBox="0 0 61 62" fill="none" xmlns="http://www.w3.org/2000/svg">
<path d="M5.73779 42.5988C5.89709 42.7581 6.11767 42.8562 6.33824 42.8562H20.0014C19.8421 43.763 19.7318 44.7433 19.7195 45.7971C19.7195 46.0299 19.8053 46.2505 19.9646 46.4098C20.1239 46.5691 20.3445 46.6671 20.5651 46.6671H39.3994C39.8528 46.6671 40.2327 46.2995 40.2449 45.8461C40.2449 45.7236 40.2817 44.5227 40.0243 42.8684H53.7733C54.2389 42.8684 54.6065 42.5008 54.6188 42.0474C54.631 41.7533 54.8026 34.8543 50.477 30.8963C50.1706 30.6145 49.7172 30.6022 49.3864 30.8473C49.3373 30.8841 44.3132 34.6583 39.6322 30.8473C39.3136 30.59 38.848 30.59 38.5416 30.8596C38.4436 30.9453 37.0589 32.1707 35.8703 34.5357C35.5884 34.4132 35.2698 34.45 35.0125 34.6338C34.8041 34.7931 29.9026 38.4325 25.2461 34.6338C25.0132 34.45 24.7192 34.4009 24.4496 34.4867C23.8491 33.2001 23.0159 31.9379 21.864 30.8841C21.5576 30.6022 21.1042 30.59 20.7734 30.8351C20.7244 30.8718 15.7002 34.646 11.0192 30.8351C10.7006 30.5777 10.235 30.5777 9.92864 30.8473C9.74483 31.0066 5.59075 34.7073 5.48047 41.9861C5.49272 42.219 5.57849 42.4395 5.73779 42.5988ZM39.1911 32.6241C43.6392 35.7244 48.1855 33.5677 49.8152 32.5874C52.3395 35.3077 52.8297 39.4128 52.9155 41.1406H39.6935C39.2646 39.4006 38.5049 37.4522 37.1692 35.7979C37.8799 34.2539 38.6887 33.1878 39.1911 32.6241ZM24.8172 36.4228C29.2654 39.5231 33.8116 37.3664 35.4414 36.3861C37.9657 39.1065 38.4558 43.2115 38.5416 44.9393H21.4596C21.7537 40.3686 23.8614 37.5012 24.8172 36.4228ZM10.5781 32.6241C15.0263 35.7244 19.5725 33.5677 21.2023 32.5874C22.0723 33.5187 22.6973 34.6215 23.1507 35.7366C22.3051 36.7782 21.1288 38.5795 20.3935 41.1406H7.23277C7.52687 36.5699 9.62231 33.7025 10.5781 32.6241Z" fill="#231F20"/>
<path d="M15.7584 30.1486C17.9151 30.1486 19.9247 29.3153 21.4442 27.7835C21.6526 27.5752 21.8486 27.3547 22.0324 27.1218C22.6206 30.9818 25.9659 33.9473 29.973 33.9473C32.1174 33.9473 34.1393 33.114 35.6588 31.5823C36.9332 30.3079 37.7175 28.6903 37.938 26.9503C39.4085 28.8864 41.7368 30.1486 44.3469 30.1486C46.4913 30.1486 48.5132 29.3153 50.0327 27.7835C51.5522 26.2641 52.3977 24.2422 52.3977 22.0977C52.3977 17.6618 48.7828 14.0469 44.3469 14.0469C42.2024 14.0469 40.1805 14.8801 38.661 16.4119C37.3866 17.6863 36.6024 19.3038 36.3818 21.0439C34.9113 19.1078 32.5953 17.8456 29.973 17.8456C27.8285 17.8456 25.8066 18.6911 24.2871 20.2106C24.0788 20.4189 23.8828 20.6395 23.699 20.8723C23.0985 17.0123 19.7654 14.0469 15.7461 14.0469C13.6017 14.0469 11.5798 14.8801 10.0603 16.4119C8.54083 17.9314 7.69531 19.9533 7.69531 22.0977C7.70757 26.5336 11.3225 30.1486 15.7584 30.1486ZM39.8742 17.6128C41.075 16.4119 42.6681 15.7502 44.3591 15.7502C47.8637 15.7502 50.7067 18.5931 50.7067 22.0977C50.7067 23.7888 50.0449 25.3818 48.8441 26.5827C47.6432 27.7836 46.0502 28.4453 44.3591 28.4453C40.8545 28.4453 38.0116 25.6023 38.0116 22.0977C38.0116 20.4067 38.6733 18.8137 39.8742 17.6128ZM25.5003 21.4115C26.7012 20.2106 28.2942 19.5489 29.9852 19.5489C33.4899 19.5489 36.3328 22.3918 36.3328 25.8964C36.3328 27.5875 35.6711 29.1805 34.4702 30.3814C33.2693 31.5823 31.6763 32.244 29.9852 32.244C26.4806 32.244 23.6377 29.4011 23.6377 25.8964C23.6377 24.2054 24.2994 22.6124 25.5003 21.4115ZM11.2735 17.6128C12.4743 16.4119 14.0674 15.7502 15.7584 15.7502C19.263 15.7502 22.1059 18.5931 22.1059 22.0977C22.1059 23.7888 21.4442 25.3818 20.2434 26.5827C19.0425 27.7836 17.4495 28.4453 15.7584 28.4453C12.2538 28.4453 9.41086 25.6023 9.41086 22.0977C9.41086 20.4067 10.0726 18.8137 11.2735 17.6128Z" fill="#231F20"/>
</svg>
