<svg width="61" height="62" viewBox="0 0 61 62" fill="none" xmlns="http://www.w3.org/2000/svg">
<path d="M22.9584 50.0469C23.0739 50.0469 23.1903 50.0197 23.297 49.9634L30.9842 45.9219L38.6714 49.9634C38.9168 50.0925 39.2137 50.0711 39.4378 49.9082C39.6619 49.7452 39.7744 49.4697 39.7269 49.1961L38.2591 40.6368L44.4775 34.5745C44.6754 34.3815 44.7472 34.0924 44.6618 33.8285C44.5765 33.5656 44.3485 33.3735 44.0749 33.3337L35.4807 32.0852L31.6371 24.2971C31.5148 24.0488 31.2616 23.8916 30.9842 23.8916C30.7077 23.8916 30.4545 24.0488 30.3313 24.2971L26.4877 32.0852L17.8934 33.3337C17.6189 33.3735 17.3919 33.5656 17.3065 33.8285C17.2212 34.0924 17.292 34.3815 17.4908 34.5745L23.7093 40.6368L22.2415 49.1961C22.1949 49.4687 22.3065 49.7452 22.5306 49.9082C22.6577 50.0003 22.8071 50.0469 22.9584 50.0469ZM30.9842 44.3727C30.8678 44.3727 30.7514 44.4008 30.6456 44.4561L23.9247 47.9893L25.2081 40.5058C25.2489 40.2701 25.1703 40.0285 24.9986 39.8616L19.562 34.5619L27.0756 33.4705C27.3123 33.4366 27.517 33.2872 27.6237 33.0728L30.9842 26.2645L34.3447 33.0728C34.4504 33.2872 34.6551 33.4366 34.8928 33.4705L42.4054 34.5619L36.9679 39.8616C36.7961 40.0285 36.7185 40.2701 36.7583 40.5058L38.0418 47.9893L31.3208 44.4561C31.216 44.3998 31.1006 44.3727 30.9842 44.3727Z" fill="#474747"/>
<path d="M40.7998 43.0183H54.7724C55.0644 43.0183 55.3273 42.8437 55.4418 42.575C55.5562 42.3063 55.499 41.9958 55.2962 41.7853L52.1521 38.5209L55.2962 35.2565C55.499 35.0459 55.5562 34.7355 55.4418 34.4668C55.3273 34.1981 55.0644 34.0234 54.7724 34.0234H46.8039C46.4022 34.0234 46.0763 34.3494 46.0763 34.751C46.0763 35.1527 46.4022 35.4786 46.8039 35.4786H53.0611L50.6174 38.0155C50.3457 38.2968 50.3457 38.743 50.6174 39.0254L53.0611 41.5622H40.7998C40.3982 41.5622 40.0722 41.8882 40.0722 42.2898C40.0722 42.6924 40.3982 43.0183 40.7998 43.0183Z" fill="#474747"/>
<path d="M7.27836 43.0183H21.2509C21.6526 43.0183 21.9785 42.6924 21.9785 42.2908C21.9785 41.8891 21.6526 41.5632 21.2509 41.5632H8.98965L11.4334 39.0263C11.705 38.745 11.705 38.2987 11.4334 38.0164L8.98965 35.4796H15.2479C15.6495 35.4796 15.9754 35.1536 15.9754 34.752C15.9754 34.3504 15.6495 34.0244 15.2479 34.0244H7.27933C6.98733 34.0244 6.72443 34.199 6.60995 34.4678C6.49548 34.7365 6.55272 35.0469 6.75547 35.2574L9.89961 38.5219L6.75547 41.7863C6.55272 41.9968 6.49548 42.3073 6.60995 42.576C6.72346 42.8437 6.98636 43.0183 7.27836 43.0183Z" fill="#474747"/>
<path d="M30.8673 17.1542C33.5467 17.1542 35.7266 14.9743 35.7266 12.2949C35.7266 9.6154 33.5467 7.43555 30.8673 7.43555C28.1878 7.43555 26.0079 9.6154 26.0079 12.2949C26.0079 14.9733 28.1878 17.1542 30.8673 17.1542ZM30.8673 8.88975C32.7444 8.88975 34.2714 10.4167 34.2714 12.2939C34.2714 14.1711 32.7444 15.698 30.8673 15.698C28.9901 15.698 27.4631 14.1711 27.4631 12.2939C27.4631 10.4167 28.9901 8.88975 30.8673 8.88975Z" fill="#474747"/>
<path d="M38.713 31.4661C38.7634 31.4661 38.8148 31.4613 38.8662 31.4496C39.2591 31.3652 39.5094 30.9781 39.425 30.5853L37.7496 22.7952C37.1511 20.012 34.6501 17.9922 31.8038 17.9922H29.8151C26.9261 17.9922 24.4174 20.0488 23.8508 22.8816L22.3083 30.5959C22.2297 30.9898 22.4849 31.373 22.8787 31.4525C23.2726 31.5311 23.6558 31.276 23.7354 30.8821L25.2778 23.1677C25.7086 21.0122 27.6168 19.4483 29.8151 19.4483H31.8038C33.9691 19.4483 35.8715 20.985 36.3275 23.1028L38.0028 30.8928C38.0756 31.2323 38.3773 31.4661 38.713 31.4661Z" fill="#474747"/>
<path d="M45.9093 21.1023C48.2686 21.1023 50.1875 19.1834 50.1875 16.8241C50.1875 14.4648 48.2686 12.5459 45.9093 12.5459C43.55 12.5459 41.6311 14.4648 41.6311 16.8241C41.6311 19.1834 43.55 21.1023 45.9093 21.1023ZM45.9093 14.0011C47.4654 14.0011 48.7323 15.2671 48.7323 16.8241C48.7323 18.3802 47.4663 19.6471 45.9093 19.6471C44.3523 19.6471 43.0863 18.3811 43.0863 16.8241C43.0863 15.268 44.3523 14.0011 45.9093 14.0011Z" fill="#474747"/>
<path d="M52.393 32.9171C52.4386 32.9171 52.4842 32.9132 52.5298 32.9045C52.9246 32.8288 53.1836 32.4485 53.108 32.0537L51.9235 25.845C51.9225 25.8391 51.9215 25.8333 51.9205 25.8285C51.3957 23.3896 49.2052 21.6201 46.711 21.6201H45.0026C42.4716 21.6201 40.2733 23.4216 39.7776 25.9041C39.699 26.298 39.9542 26.6812 40.348 26.7608C40.7419 26.8393 41.1251 26.5842 41.2046 26.1903C41.5655 24.3859 43.1633 23.0763 45.0026 23.0763H46.711C48.5213 23.0763 50.1122 24.3588 50.4964 26.1273L51.679 32.3273C51.7459 32.6736 52.0505 32.9171 52.393 32.9171Z" fill="#474747"/>
<path d="M16.0362 21.1023C18.3956 21.1023 20.3145 19.1834 20.3145 16.8241C20.3145 14.4648 18.3956 12.5459 16.0362 12.5459C13.6769 12.5459 11.758 14.4648 11.758 16.8241C11.758 19.1834 13.6779 21.1023 16.0362 21.1023ZM16.0362 14.0011C17.5923 14.0011 18.8593 15.2671 18.8593 16.8241C18.8593 18.3802 17.5933 19.6471 16.0362 19.6471C14.4802 19.6471 13.2132 18.3811 13.2132 16.8241C13.2132 15.268 14.4802 14.0011 16.0362 14.0011Z" fill="#474747"/>
<path d="M9.55178 32.9161C9.89423 32.9161 10.1988 32.6736 10.2658 32.3243L11.4483 26.1243C11.8325 24.3558 13.4235 23.0733 15.2337 23.0733H16.9421C18.7824 23.0733 20.3792 24.383 20.7401 26.1874C20.8187 26.5813 21.2019 26.8374 21.5967 26.7578C21.9906 26.6792 22.2467 26.2961 22.1672 25.9012C21.6705 23.4187 19.4731 21.6172 16.9421 21.6172H15.2337C12.7396 21.6172 10.5491 23.3867 10.0242 25.8255C10.0233 25.8314 10.0223 25.8362 10.0203 25.842L8.83583 32.0508C8.76016 32.4456 9.01918 32.8269 9.41402 32.9016C9.46058 32.9113 9.50618 32.9161 9.55178 32.9161Z" fill="#474747"/>
</svg>
