<svg width="50" height="49" viewBox="0 0 50 49" fill="none" xmlns="http://www.w3.org/2000/svg">
<path d="M43.3272 23.9806C40.5782 23.9806 38.3418 21.7442 38.3418 18.9952C38.3418 16.2462 40.5782 14.0098 43.3272 14.0098C46.0762 14.0098 48.3126 16.2462 48.3126 18.9952C48.3126 21.7442 46.0762 23.9806 43.3272 23.9806ZM43.3272 15.5027C41.4013 15.5027 39.8347 17.0693 39.8347 18.9952C39.8347 20.9211 41.4013 22.4876 43.3272 22.4876C45.2531 22.4876 46.8197 20.9211 46.8197 18.9952C46.8197 17.0693 45.2521 15.5027 43.3272 15.5027Z" fill="#474747"/>
<path d="M42.4374 36.9099H34.2163C32.8866 36.9099 31.8047 35.828 31.8047 34.4983C31.8047 33.1686 32.8866 32.0867 34.2163 32.0867H40.8041L41.0599 29.278C41.0977 28.8669 41.46 28.5654 41.871 28.6022C42.2821 28.64 42.5837 29.0023 42.5469 29.4133L42.2294 32.9008C42.1945 33.285 41.872 33.5796 41.4859 33.5796H34.2163C33.7097 33.5796 33.2976 33.9917 33.2976 34.4983C33.2976 35.0049 33.7097 35.4169 34.2163 35.4169H42.4374C43.4615 35.4169 44.3215 34.6526 44.4439 33.6374L44.8858 27.1242C44.9137 26.7131 45.27 26.4016 45.681 26.4295C46.0921 26.4573 46.4026 26.8136 46.3747 27.2247L45.9318 33.7558C45.9308 33.7667 45.9298 33.7777 45.9288 33.7886C45.7278 35.5692 44.2269 36.9099 42.4374 36.9099Z" fill="#474747"/>
<path d="M48.9286 42.6747C48.5166 42.6747 48.1821 42.3403 48.1821 41.9282V28.9347C48.1821 26.2633 46.0084 24.0896 43.3371 24.0896C41.4052 24.0896 39.7401 25.4014 39.2882 27.2805L38.4711 30.6784C38.3746 31.0795 37.9725 31.3264 37.5704 31.2298C37.1693 31.1333 36.9224 30.7302 37.019 30.3291L37.8361 26.9312C38.4502 24.3792 40.7115 22.5967 43.3361 22.5967C46.8305 22.5967 49.6741 25.4402 49.6741 28.9347V41.9282C49.6751 42.3403 49.3407 42.6747 48.9286 42.6747Z" fill="#474747"/>
<path d="M6.84674 23.9806C4.09774 23.9806 1.86133 21.7442 1.86133 18.9952C1.86133 16.2462 4.09774 14.0098 6.84674 14.0098C9.59573 14.0098 11.8321 16.2462 11.8321 18.9952C11.8321 21.7442 9.59573 23.9806 6.84674 23.9806ZM6.84674 15.5027C4.92085 15.5027 3.35426 17.0693 3.35426 18.9952C3.35426 20.9211 4.92085 22.4876 6.84674 22.4876C8.77262 22.4876 10.3392 20.9211 10.3392 18.9952C10.3392 17.0693 8.77262 15.5027 6.84674 15.5027Z" fill="#474747"/>
<path d="M15.959 36.9099H7.73793C5.94741 36.9099 4.44651 35.5682 4.24646 33.7896C4.24546 33.7787 4.24447 33.7677 4.24347 33.7568L3.80057 27.2257C3.7727 26.8146 4.08323 26.4583 4.49528 26.4304C4.90733 26.4026 5.26265 26.7131 5.29052 27.1252L5.73243 33.6383C5.85385 34.6535 6.71378 35.4179 7.73893 35.4179H15.96C16.4666 35.4179 16.8787 35.0059 16.8787 34.4993C16.8787 33.9927 16.4666 33.5806 15.96 33.5806H8.69043C8.30426 33.5806 7.98178 33.286 7.94695 32.9018L7.62945 29.4143C7.59163 29.0033 7.8942 28.641 8.30525 28.6032C8.71531 28.5653 9.07859 28.8679 9.11641 29.279L9.3722 32.0877H15.96C17.2897 32.0877 18.3716 33.1696 18.3716 34.4993C18.3716 35.829 17.2887 36.9099 15.959 36.9099Z" fill="#474747"/>
<path d="M1.24647 42.6747C0.834418 42.6747 0.5 42.3403 0.5 41.9282V28.9347C0.5 25.4402 3.34355 22.5967 6.83801 22.5967C9.46259 22.5967 11.7249 24.3792 12.338 26.9312L13.1551 30.3291C13.2517 30.7302 13.0048 31.1333 12.6037 31.2298C12.2026 31.3264 11.7995 31.0795 11.703 30.6784L10.8859 27.2805C10.434 25.4024 8.76887 24.0896 6.83701 24.0896C4.16566 24.0896 1.99194 26.2633 1.99194 28.9347V41.9282C1.99294 42.3403 1.65852 42.6747 1.24647 42.6747Z" fill="#474747"/>
<path d="M25.0772 37.3888C22.3282 37.3888 20.0918 35.1524 20.0918 32.4034C20.0918 29.6544 22.3282 27.418 25.0772 27.418C27.8262 27.418 30.0626 29.6544 30.0626 32.4034C30.0626 35.1524 27.8262 37.3888 25.0772 37.3888ZM25.0772 28.9109C23.1513 28.9109 21.5847 30.4775 21.5847 32.4034C21.5847 34.3293 23.1513 35.8958 25.0772 35.8958C27.0031 35.8958 28.5697 34.3293 28.5697 32.4034C28.5697 30.4775 27.0031 28.9109 25.0772 28.9109Z" fill="#474747"/>
<path d="M17.3645 48.3753C17.3127 48.3753 17.261 48.3703 17.2082 48.3584C16.8051 48.2728 16.5473 47.8757 16.6339 47.4726L17.8034 41.9776C18.1627 40.3065 19.0923 38.7956 20.421 37.7227C21.7497 36.6498 23.4218 36.0586 25.1297 36.0586C28.6889 36.0586 31.7793 38.5916 32.478 42.0821L33.5439 47.4835C33.6235 47.8876 33.3608 48.2808 32.9557 48.3604C32.5516 48.44 32.1585 48.1772 32.0789 47.7722L31.0139 42.3727C30.4555 39.5799 27.9812 37.5505 25.1307 37.5505C22.322 37.5505 19.8547 39.5431 19.2645 42.2891L18.095 47.7831C18.0194 48.1345 17.7098 48.3753 17.3645 48.3753Z" fill="#474747"/>
<path d="M14.1956 46.3248H3.07219C2.78256 46.3248 2.51881 46.1575 2.39639 45.8948C2.27397 45.632 2.31378 45.3225 2.49891 45.1005L10.2433 35.8075C10.507 35.491 10.9778 35.4482 11.2943 35.712C11.6108 35.9757 11.6536 36.4465 11.3898 36.763L4.66565 44.8318H14.1946C14.6066 44.8318 14.941 45.1662 14.941 45.5783C14.941 45.9903 14.6076 46.3248 14.1956 46.3248Z" fill="#474747"/>
<path d="M47.0144 46.3248H35.891C35.4789 46.3248 35.1445 45.9903 35.1445 45.5783C35.1445 45.1662 35.4789 44.8318 35.891 44.8318H45.4199L38.6957 36.763C38.432 36.4465 38.4748 35.9757 38.7913 35.712C39.1078 35.4482 39.5786 35.491 39.8423 35.8075L47.5867 45.1005C47.7718 45.3235 47.8116 45.633 47.6892 45.8948C47.5667 46.1575 47.304 46.3248 47.0144 46.3248Z" fill="#474747"/>
<path d="M18.6525 14.4092C18.4614 14.4092 18.2703 14.3366 18.125 14.1903C17.8333 13.8987 17.8333 13.4259 18.125 13.1343L24.9746 6.28569C25.2662 5.99407 25.7389 5.99407 26.0306 6.28569L29.3329 9.58806L36.8693 2.05172C37.1609 1.7601 37.6337 1.7601 37.9253 2.05172C38.2169 2.34334 38.2169 2.81611 37.9253 3.10773L29.8614 11.1716C29.7211 11.3119 29.532 11.3905 29.3339 11.3905C29.1359 11.3905 28.9458 11.3119 28.8064 11.1716L25.504 7.8692L19.182 14.1913C19.0347 14.3366 18.8436 14.4092 18.6525 14.4092Z" fill="#474747"/>
<path d="M37.8454 5.06445C37.6494 5.06445 37.4593 4.98781 37.3179 4.84548L35.0467 2.57423C34.8655 2.39309 34.7899 2.13232 34.8466 1.88251C34.9034 1.63269 35.0835 1.42965 35.3244 1.34306L38.8487 0.0899879C39.1204 -0.00655521 39.423 0.0621208 39.627 0.26516C39.831 0.469195 39.8987 0.77176 39.8022 1.04347L38.5491 4.5678C38.4635 4.80866 38.2595 4.9898 38.0097 5.04554C37.9549 5.05748 37.8992 5.06445 37.8454 5.06445ZM36.9367 2.35328L37.5369 2.95344L37.8683 2.02185L36.9367 2.35328Z" fill="#474747"/>
<path d="M25.0289 22.4206C25.0279 22.4206 25.0269 22.4206 25.0259 22.4206C24.7612 22.4196 24.5173 22.2783 24.384 22.0493L22.5785 18.947H19.7559C19.3607 18.947 18.9586 18.9182 18.5575 18.8614L14.4689 21.1277C14.2211 21.265 13.9175 21.2501 13.6836 21.0899C13.4507 20.9296 13.3283 20.65 13.3681 20.3703L13.8996 16.63C12.1738 15.0116 11.1914 12.7583 11.1914 10.3835V8.78908C11.1914 4.06643 15.0332 0.224609 19.7559 0.224609H30.7807C31.1928 0.224609 31.5272 0.559027 31.5272 0.971077C31.5272 1.38313 31.1928 1.71754 30.7807 1.71754H19.7559C15.8563 1.71754 12.6843 4.88954 12.6843 8.78908V10.3835C12.6843 12.4597 13.593 14.4234 15.1785 15.771C15.3736 15.9373 15.4702 16.1911 15.4343 16.4449L15.0571 19.0953L18.0579 17.4322C18.2062 17.3496 18.3794 17.3207 18.5466 17.3496C18.9517 17.4192 19.3588 17.4551 19.7559 17.4551H23.0075C23.2732 17.4551 23.5191 17.5964 23.6524 17.8263L25.0349 20.2021L26.4462 17.8213C26.5806 17.5944 26.8244 17.4561 27.0882 17.4561H30.7797C31.0743 17.4561 31.3829 17.4352 31.6974 17.3944C31.8556 17.3735 32.0159 17.4043 32.1552 17.482L35.0684 19.0973L34.734 16.7425C34.6962 16.4727 34.8067 16.204 35.0246 16.0408C36.8211 14.6902 37.8513 12.6289 37.8513 10.3855V8.79107C37.8513 8.37902 38.1857 8.04461 38.5977 8.04461C39.0098 8.04461 39.3442 8.37902 39.3442 8.79107V10.3855C39.3442 12.9534 38.2305 15.3232 36.2727 16.9564L36.7584 20.3723C36.7982 20.6529 36.6758 20.9316 36.4429 21.0919C36.21 21.2521 35.9055 21.267 35.6576 21.1297L31.6416 18.9042C31.349 18.9341 31.0594 18.949 30.7797 18.949H27.5132L25.6699 22.0573C25.5365 22.2812 25.2927 22.4206 25.0289 22.4206Z" fill="#474747"/>
</svg>
