<svg width="220" height="232" viewBox="0 0 220 232" fill="none" xmlns="http://www.w3.org/2000/svg">
<path d="M-287.615 231.006L-287.615 225.986L-282.595 225.986L-282.595 231.006L-287.615 231.006Z" fill="white"/>
<path d="M-287.615 205.907L-287.615 200.887L-282.595 200.887L-282.595 205.907L-287.615 205.907Z" fill="white"/>
<path d="M-287.615 180.808L-287.615 175.788L-282.595 175.788L-282.595 180.808L-287.615 180.808Z" fill="white"/>
<path d="M-287.615 155.709L-287.615 150.689L-282.595 150.689L-282.595 155.709L-287.615 155.709Z" fill="white"/>
<path d="M-287.615 130.61L-287.615 125.59L-282.595 125.59L-282.595 130.61L-287.615 130.61Z" fill="white"/>
<path d="M-287.615 105.511L-287.615 100.491L-282.595 100.491L-282.595 105.511L-287.615 105.511Z" fill="white"/>
<path d="M-287.615 80.4116L-287.615 75.3918L-282.595 75.3918L-282.595 80.4116L-287.615 80.4116Z" fill="white"/>
<path d="M-287.615 55.3125L-287.615 50.2927L-282.595 50.2927L-282.595 55.3125L-287.615 55.3125Z" fill="white"/>
<path d="M-287.615 30.2135L-287.615 25.1937L-282.595 25.1937L-282.595 30.2135L-287.615 30.2135Z" fill="white"/>
<path d="M-287.615 5.11452L-287.615 0.0947266L-282.595 0.0947263L-282.595 5.11452L-287.615 5.11452Z" fill="white"/>
<path d="M-262.516 231.006L-262.516 225.986L-257.496 225.986L-257.496 231.006L-262.516 231.006Z" fill="white"/>
<path d="M-262.516 205.907L-262.516 200.887L-257.496 200.887L-257.496 205.907L-262.516 205.907Z" fill="white"/>
<path d="M-262.516 180.808L-262.516 175.788L-257.496 175.788L-257.496 180.808L-262.516 180.808Z" fill="white"/>
<path d="M-262.516 155.709L-262.516 150.689L-257.496 150.689L-257.496 155.709L-262.516 155.709Z" fill="white"/>
<path d="M-262.516 130.61L-262.516 125.59L-257.496 125.59L-257.496 130.61L-262.516 130.61Z" fill="white"/>
<path d="M-262.516 105.511L-262.516 100.491L-257.496 100.491L-257.496 105.511L-262.516 105.511Z" fill="white"/>
<path d="M-262.516 80.4116L-262.516 75.3918L-257.496 75.3918L-257.496 80.4116L-262.516 80.4116Z" fill="white"/>
<path d="M-262.516 55.3125L-262.516 50.2927L-257.496 50.2927L-257.496 55.3125L-262.516 55.3125Z" fill="white"/>
<path d="M-262.516 30.2135L-262.516 25.1937L-257.496 25.1937L-257.496 30.2135L-262.516 30.2135Z" fill="white"/>
<path d="M-262.516 5.11452L-262.516 0.0947255L-257.496 0.0947252L-257.496 5.11452L-262.516 5.11452Z" fill="white"/>
<path d="M-237.417 231.006L-237.417 225.986L-232.397 225.986L-232.397 231.006L-237.417 231.006Z" fill="white"/>
<path d="M-237.417 205.907L-237.417 200.887L-232.397 200.887L-232.397 205.907L-237.417 205.907Z" fill="white"/>
<path d="M-237.417 180.808L-237.417 175.788L-232.397 175.788L-232.397 180.808L-237.417 180.808Z" fill="white"/>
<path d="M-237.417 155.709L-237.417 150.689L-232.397 150.689L-232.397 155.709L-237.417 155.709Z" fill="white"/>
<path d="M-237.417 130.61L-237.417 125.59L-232.397 125.59L-232.397 130.61L-237.417 130.61Z" fill="white"/>
<path d="M-237.417 105.511L-237.417 100.491L-232.397 100.491L-232.397 105.511L-237.417 105.511Z" fill="white"/>
<path d="M-237.417 80.4116L-237.417 75.3918L-232.397 75.3918L-232.397 80.4116L-237.417 80.4116Z" fill="white"/>
<path d="M-237.417 55.3125L-237.417 50.2927L-232.397 50.2927L-232.397 55.3125L-237.417 55.3125Z" fill="white"/>
<path d="M-237.417 30.2135L-237.417 25.1937L-232.397 25.1937L-232.397 30.2135L-237.417 30.2135Z" fill="white"/>
<path d="M-237.417 5.11452L-237.417 0.0947244L-232.397 0.0947241L-232.397 5.11451L-237.417 5.11452Z" fill="white"/>
<path d="M-212.318 231.006L-212.318 225.986L-207.298 225.986L-207.298 231.006L-212.318 231.006Z" fill="white"/>
<path d="M-212.318 205.907L-212.318 200.887L-207.298 200.887L-207.298 205.907L-212.318 205.907Z" fill="white"/>
<path d="M-212.318 180.808L-212.318 175.788L-207.298 175.788L-207.298 180.808L-212.318 180.808Z" fill="white"/>
<path d="M-212.318 155.709L-212.318 150.689L-207.298 150.689L-207.298 155.709L-212.318 155.709Z" fill="white"/>
<path d="M-212.318 130.61L-212.318 125.59L-207.298 125.59L-207.298 130.61L-212.318 130.61Z" fill="white"/>
<path d="M-212.318 105.511L-212.318 100.491L-207.298 100.491L-207.298 105.511L-212.318 105.511Z" fill="white"/>
<path d="M-212.318 80.4116L-212.318 75.3918L-207.298 75.3918L-207.298 80.4116L-212.318 80.4116Z" fill="white"/>
<path d="M-212.318 55.3125L-212.318 50.2927L-207.298 50.2927L-207.298 55.3125L-212.318 55.3125Z" fill="white"/>
<path d="M-212.318 30.2135L-212.318 25.1937L-207.298 25.1937L-207.298 30.2135L-212.318 30.2135Z" fill="white"/>
<path d="M-212.318 5.11451L-212.318 0.0947233L-207.298 0.0947231L-207.298 5.11451L-212.318 5.11451Z" fill="white"/>
<path d="M-187.219 231.006L-187.219 225.986L-182.199 225.986L-182.199 231.006L-187.219 231.006Z" fill="white"/>
<path d="M-187.219 205.907L-187.219 200.887L-182.199 200.887L-182.199 205.907L-187.219 205.907Z" fill="white"/>
<path d="M-187.219 180.808L-187.219 175.788L-182.199 175.788L-182.199 180.808L-187.219 180.808Z" fill="white"/>
<path d="M-187.219 155.709L-187.219 150.689L-182.199 150.689L-182.199 155.709L-187.219 155.709Z" fill="white"/>
<path d="M-187.219 130.61L-187.219 125.59L-182.199 125.59L-182.199 130.61L-187.219 130.61Z" fill="white"/>
<path d="M-187.219 105.511L-187.219 100.491L-182.199 100.491L-182.199 105.511L-187.219 105.511Z" fill="white"/>
<path d="M-187.219 80.4116L-187.219 75.3917L-182.199 75.3917L-182.199 80.4116L-187.219 80.4116Z" fill="white"/>
<path d="M-187.219 55.3125L-187.219 50.2927L-182.199 50.2927L-182.199 55.3125L-187.219 55.3125Z" fill="white"/>
<path d="M-187.219 30.2135L-187.219 25.1937L-182.199 25.1937L-182.199 30.2135L-187.219 30.2135Z" fill="white"/>
<path d="M-187.219 5.11451L-187.219 0.0947222L-182.199 0.094722L-182.199 5.11451L-187.219 5.11451Z" fill="white"/>
<path d="M-162.12 231.006L-162.12 225.986L-157.1 225.986L-157.1 231.006L-162.12 231.006Z" fill="white"/>
<path d="M-162.12 205.907L-162.12 200.887L-157.1 200.887L-157.1 205.907L-162.12 205.907Z" fill="white"/>
<path d="M-162.12 180.808L-162.12 175.788L-157.1 175.788L-157.1 180.808L-162.12 180.808Z" fill="white"/>
<path d="M-162.12 155.709L-162.12 150.689L-157.1 150.689L-157.1 155.709L-162.12 155.709Z" fill="white"/>
<path d="M-162.12 130.61L-162.12 125.59L-157.1 125.59L-157.1 130.61L-162.12 130.61Z" fill="white"/>
<path d="M-162.12 105.511L-162.12 100.491L-157.1 100.491L-157.1 105.511L-162.12 105.511Z" fill="white"/>
<path d="M-162.12 80.4116L-162.12 75.3917L-157.1 75.3917L-157.1 80.4116L-162.12 80.4116Z" fill="white"/>
<path d="M-162.12 55.3125L-162.12 50.2927L-157.1 50.2927L-157.1 55.3125L-162.12 55.3125Z" fill="white"/>
<path d="M-162.12 30.2135L-162.12 25.1937L-157.1 25.1937L-157.1 30.2135L-162.12 30.2135Z" fill="white"/>
<path d="M-162.12 5.11451L-162.12 0.0947211L-157.1 0.0947209L-157.1 5.11451L-162.12 5.11451Z" fill="white"/>
<path d="M-137.021 231.006L-137.021 225.986L-132.001 225.986L-132.001 231.006L-137.021 231.006Z" fill="white"/>
<path d="M-137.021 205.907L-137.021 200.887L-132.001 200.887L-132.001 205.907L-137.021 205.907Z" fill="white"/>
<path d="M-137.021 180.808L-137.021 175.788L-132.001 175.788L-132.001 180.808L-137.021 180.808Z" fill="white"/>
<path d="M-137.021 155.709L-137.021 150.689L-132.001 150.689L-132.001 155.709L-137.021 155.709Z" fill="white"/>
<path d="M-137.021 130.61L-137.021 125.59L-132.001 125.59L-132.001 130.61L-137.021 130.61Z" fill="white"/>
<path d="M-137.021 105.511L-137.021 100.491L-132.001 100.491L-132.001 105.511L-137.021 105.511Z" fill="white"/>
<path d="M-137.021 80.4116L-137.021 75.3917L-132.001 75.3917L-132.001 80.4116L-137.021 80.4116Z" fill="white"/>
<path d="M-137.021 55.3125L-137.021 50.2927L-132.001 50.2927L-132.001 55.3125L-137.021 55.3125Z" fill="white"/>
<path d="M-137.021 30.2135L-137.021 25.1937L-132.001 25.1937L-132.001 30.2135L-137.021 30.2135Z" fill="white"/>
<path d="M-137.021 5.11451L-137.021 0.09472L-132.001 0.0947198L-132.001 5.11451L-137.021 5.11451Z" fill="white"/>
<path d="M-111.922 231.006L-111.922 225.986L-106.902 225.986L-106.902 231.006L-111.922 231.006Z" fill="white"/>
<path d="M-111.922 205.907L-111.922 200.887L-106.902 200.887L-106.902 205.907L-111.922 205.907Z" fill="white"/>
<path d="M-111.922 180.808L-111.922 175.788L-106.902 175.788L-106.902 180.808L-111.922 180.808Z" fill="white"/>
<path d="M-111.922 155.709L-111.922 150.689L-106.902 150.689L-106.902 155.709L-111.922 155.709Z" fill="white"/>
<path d="M-111.922 130.61L-111.922 125.59L-106.902 125.59L-106.902 130.61L-111.922 130.61Z" fill="white"/>
<path d="M-111.922 105.511L-111.922 100.491L-106.902 100.491L-106.902 105.511L-111.922 105.511Z" fill="white"/>
<path d="M-111.922 80.4116L-111.922 75.3917L-106.902 75.3917L-106.902 80.4116L-111.922 80.4116Z" fill="white"/>
<path d="M-111.922 55.3125L-111.922 50.2927L-106.902 50.2927L-106.902 55.3125L-111.922 55.3125Z" fill="white"/>
<path d="M-111.922 30.2135L-111.922 25.1937L-106.902 25.1937L-106.902 30.2135L-111.922 30.2135Z" fill="white"/>
<path d="M-111.922 5.11451L-111.922 0.0947189L-106.902 0.0947187L-106.902 5.11451L-111.922 5.11451Z" fill="white"/>
<path d="M-86.8232 231.006L-86.8232 225.986L-81.8033 225.986L-81.8033 231.006L-86.8232 231.006Z" fill="white"/>
<path d="M-86.8232 205.907L-86.8232 200.887L-81.8033 200.887L-81.8033 205.907L-86.8232 205.907Z" fill="white"/>
<path d="M-86.8232 180.808L-86.8232 175.788L-81.8033 175.788L-81.8033 180.808L-86.8232 180.808Z" fill="white"/>
<path d="M-86.8232 155.709L-86.8232 150.689L-81.8033 150.689L-81.8033 155.709L-86.8232 155.709Z" fill="white"/>
<path d="M-86.8232 130.61L-86.8232 125.59L-81.8033 125.59L-81.8033 130.61L-86.8232 130.61Z" fill="white"/>
<path d="M-86.8232 105.511L-86.8232 100.491L-81.8034 100.491L-81.8034 105.511L-86.8232 105.511Z" fill="white"/>
<path d="M-86.8232 80.4116L-86.8232 75.3917L-81.8034 75.3917L-81.8034 80.4116L-86.8232 80.4116Z" fill="white"/>
<path d="M-86.8232 55.3125L-86.8232 50.2927L-81.8034 50.2927L-81.8034 55.3125L-86.8232 55.3125Z" fill="white"/>
<path d="M-86.8232 30.2135L-86.8232 25.1937L-81.8034 25.1937L-81.8034 30.2135L-86.8232 30.2135Z" fill="white"/>
<path d="M-86.8232 5.11451L-86.8232 0.0947178L-81.8034 0.0947176L-81.8034 5.11451L-86.8232 5.11451Z" fill="white"/>
<path d="M-61.7241 231.006L-61.7241 225.986L-56.7043 225.986L-56.7043 231.006L-61.7241 231.006Z" fill="white"/>
<path d="M-61.7241 205.907L-61.7241 200.887L-56.7043 200.887L-56.7043 205.907L-61.7241 205.907Z" fill="white"/>
<path d="M-61.7241 180.808L-61.7241 175.788L-56.7043 175.788L-56.7043 180.808L-61.7241 180.808Z" fill="white"/>
<path d="M-61.7241 155.709L-61.7241 150.689L-56.7043 150.689L-56.7043 155.709L-61.7241 155.709Z" fill="white"/>
<path d="M-61.7241 130.61L-61.7241 125.59L-56.7044 125.59L-56.7044 130.61L-61.7241 130.61Z" fill="white"/>
<path d="M-61.7241 105.511L-61.7241 100.491L-56.7044 100.491L-56.7044 105.511L-61.7241 105.511Z" fill="white"/>
<path d="M-61.7241 80.4116L-61.7241 75.3917L-56.7044 75.3917L-56.7044 80.4115L-61.7241 80.4116Z" fill="white"/>
<path d="M-61.7241 55.3125L-61.7241 50.2927L-56.7044 50.2927L-56.7044 55.3125L-61.7241 55.3125Z" fill="white"/>
<path d="M-61.7241 30.2135L-61.7241 25.1937L-56.7044 25.1937L-56.7044 30.2135L-61.7241 30.2135Z" fill="white"/>
<path d="M-61.7241 5.11451L-61.7241 0.0947167L-56.7044 0.0947165L-56.7044 5.11451L-61.7241 5.11451Z" fill="white"/>
<path d="M-36.6251 231.006L-36.6251 225.986L-31.6053 225.986L-31.6053 231.006L-36.6251 231.006Z" fill="white"/>
<path d="M-36.6251 205.907L-36.6251 200.887L-31.6053 200.887L-31.6053 205.907L-36.6251 205.907Z" fill="white"/>
<path d="M-36.6251 180.808L-36.6251 175.788L-31.6053 175.788L-31.6053 180.808L-36.6251 180.808Z" fill="white"/>
<path d="M-36.6251 155.709L-36.6251 150.689L-31.6053 150.689L-31.6053 155.709L-36.6251 155.709Z" fill="white"/>
<path d="M-36.6251 130.61L-36.6251 125.59L-31.6053 125.59L-31.6053 130.61L-36.6251 130.61Z" fill="white"/>
<path d="M-36.6251 105.511L-36.6251 100.491L-31.6053 100.491L-31.6053 105.511L-36.6251 105.511Z" fill="white"/>
<path d="M-36.6251 80.4115L-36.6251 75.3917L-31.6053 75.3917L-31.6053 80.4115L-36.6251 80.4115Z" fill="white"/>
<path d="M-36.6251 55.3125L-36.6251 50.2927L-31.6053 50.2927L-31.6053 55.3125L-36.6251 55.3125Z" fill="white"/>
<path d="M-36.6251 30.2135L-36.6251 25.1937L-31.6053 25.1937L-31.6053 30.2135L-36.6251 30.2135Z" fill="white"/>
<path d="M-36.6251 5.11451L-36.6251 0.0947156L-31.6053 0.0947154L-31.6053 5.11451L-36.6251 5.11451Z" fill="white"/>
<path d="M-11.5261 231.006L-11.5261 225.986L-6.50632 225.986L-6.50632 231.006L-11.5261 231.006Z" fill="white"/>
<path d="M-11.5261 205.907L-11.5261 200.887L-6.50632 200.887L-6.50632 205.907L-11.5261 205.907Z" fill="white"/>
<path d="M-11.5261 180.808L-11.5261 175.788L-6.50632 175.788L-6.50632 180.808L-11.5261 180.808Z" fill="white"/>
<path d="M-11.5261 155.709L-11.5261 150.689L-6.50632 150.689L-6.50632 155.709L-11.5261 155.709Z" fill="white"/>
<path d="M-11.5261 130.61L-11.5261 125.59L-6.50632 125.59L-6.50632 130.61L-11.5261 130.61Z" fill="white"/>
<path d="M-11.5261 105.511L-11.5261 100.491L-6.50632 100.491L-6.50632 105.511L-11.5261 105.511Z" fill="white"/>
<path d="M-11.5261 80.4115L-11.5261 75.3917L-6.50632 75.3917L-6.50632 80.4115L-11.5261 80.4115Z" fill="white"/>
<path d="M-11.5261 55.3125L-11.5261 50.2927L-6.50633 50.2927L-6.50632 55.3125L-11.5261 55.3125Z" fill="white"/>
<path d="M-11.5261 30.2135L-11.5261 25.1937L-6.50633 25.1937L-6.50633 30.2135L-11.5261 30.2135Z" fill="white"/>
<path d="M-11.5261 5.11451L-11.5261 0.0947145L-6.50633 0.0947143L-6.50633 5.1145L-11.5261 5.11451Z" fill="white"/>
<path d="M13.5729 231.006L13.5729 225.986L18.5927 225.986L18.5927 231.006L13.5729 231.006Z" fill="white"/>
<path d="M13.5729 205.907L13.5729 200.887L18.5927 200.887L18.5927 205.907L13.5729 205.907Z" fill="white"/>
<path d="M13.5729 180.808L13.5729 175.788L18.5927 175.788L18.5927 180.808L13.5729 180.808Z" fill="white"/>
<path d="M13.5729 155.709L13.5729 150.689L18.5927 150.689L18.5927 155.709L13.5729 155.709Z" fill="white"/>
<path d="M13.5729 130.61L13.5729 125.59L18.5927 125.59L18.5927 130.61L13.5729 130.61Z" fill="white"/>
<path d="M13.5729 105.511L13.5729 100.491L18.5927 100.491L18.5927 105.511L13.5729 105.511Z" fill="white"/>
<path d="M13.5729 80.4115L13.5729 75.3917L18.5927 75.3917L18.5927 80.4115L13.5729 80.4115Z" fill="white"/>
<path d="M13.5729 55.3125L13.5729 50.2927L18.5927 50.2927L18.5927 55.3125L13.5729 55.3125Z" fill="white"/>
<path d="M13.5729 30.2135L13.5729 25.1937L18.5927 25.1937L18.5927 30.2135L13.5729 30.2135Z" fill="white"/>
<path d="M13.5729 5.1145L13.5729 0.0947134L18.5927 0.0947132L18.5927 5.1145L13.5729 5.1145Z" fill="white"/>
<path d="M38.6719 231.006L38.6719 225.986L43.6917 225.986L43.6917 231.006L38.6719 231.006Z" fill="white"/>
<path d="M38.6719 205.907L38.6719 200.887L43.6917 200.887L43.6917 205.907L38.6719 205.907Z" fill="white"/>
<path d="M38.6719 180.808L38.6719 175.788L43.6917 175.788L43.6917 180.808L38.6719 180.808Z" fill="white"/>
<path d="M38.6719 155.709L38.6719 150.689L43.6917 150.689L43.6917 155.709L38.6719 155.709Z" fill="white"/>
<path d="M38.6719 130.61L38.6719 125.59L43.6917 125.59L43.6917 130.61L38.6719 130.61Z" fill="white"/>
<path d="M38.6719 105.511L38.6719 100.491L43.6917 100.491L43.6917 105.511L38.6719 105.511Z" fill="white"/>
<path d="M38.6719 80.4115L38.6719 75.3917L43.6917 75.3917L43.6917 80.4115L38.6719 80.4115Z" fill="white"/>
<path d="M38.6719 55.3125L38.6719 50.2927L43.6917 50.2927L43.6917 55.3125L38.6719 55.3125Z" fill="white"/>
<path d="M38.6719 30.2135L38.6719 25.1937L43.6917 25.1937L43.6917 30.2135L38.6719 30.2135Z" fill="white"/>
<path d="M38.6719 5.1145L38.6719 0.0947123L43.6917 0.0947121L43.6917 5.1145L38.6719 5.1145Z" fill="white"/>
<path d="M63.7709 231.006L63.7709 225.986L68.7907 225.986L68.7907 231.006L63.7709 231.006Z" fill="white"/>
<path d="M63.7709 205.907L63.7709 200.887L68.7907 200.887L68.7907 205.907L63.7709 205.907Z" fill="white"/>
<path d="M63.7709 180.808L63.7709 175.788L68.7907 175.788L68.7907 180.808L63.7709 180.808Z" fill="white"/>
<path d="M63.7709 155.709L63.7709 150.689L68.7907 150.689L68.7907 155.709L63.7709 155.709Z" fill="white"/>
<path d="M63.7709 130.61L63.7709 125.59L68.7907 125.59L68.7907 130.61L63.7709 130.61Z" fill="white"/>
<path d="M63.7709 105.511L63.7709 100.491L68.7907 100.491L68.7907 105.511L63.7709 105.511Z" fill="white"/>
<path d="M63.7709 80.4115L63.7709 75.3917L68.7907 75.3917L68.7907 80.4115L63.7709 80.4115Z" fill="white"/>
<path d="M63.7709 55.3125L63.7709 50.2927L68.7907 50.2927L68.7907 55.3125L63.7709 55.3125Z" fill="white"/>
<path d="M63.7709 30.2135L63.7709 25.1937L68.7907 25.1937L68.7907 30.2135L63.7709 30.2135Z" fill="white"/>
<path d="M63.7709 5.1145L63.7709 0.0947112L68.7907 0.094711L68.7907 5.1145L63.7709 5.1145Z" fill="white"/>
<path d="M88.8699 231.006L88.8699 225.986L93.8897 225.986L93.8897 231.006L88.8699 231.006Z" fill="white"/>
<path d="M88.8699 205.907L88.8699 200.887L93.8897 200.887L93.8897 205.907L88.8699 205.907Z" fill="white"/>
<path d="M88.8699 180.808L88.8699 175.788L93.8897 175.788L93.8897 180.808L88.8699 180.808Z" fill="white"/>
<path d="M88.8699 155.709L88.8699 150.689L93.8897 150.689L93.8897 155.709L88.8699 155.709Z" fill="white"/>
<path d="M88.8699 130.61L88.8699 125.59L93.8897 125.59L93.8897 130.61L88.8699 130.61Z" fill="white"/>
<path d="M88.8699 105.511L88.8699 100.491L93.8897 100.491L93.8897 105.511L88.8699 105.511Z" fill="white"/>
<path d="M88.8699 80.4115L88.8699 75.3917L93.8897 75.3917L93.8897 80.4115L88.8699 80.4115Z" fill="white"/>
<path d="M88.8699 55.3125L88.8699 50.2927L93.8897 50.2927L93.8897 55.3125L88.8699 55.3125Z" fill="white"/>
<path d="M88.8699 30.2135L88.8699 25.1937L93.8897 25.1937L93.8897 30.2135L88.8699 30.2135Z" fill="white"/>
<path d="M88.8699 5.1145L88.8699 0.0947101L93.8897 0.0947099L93.8897 5.1145L88.8699 5.1145Z" fill="white"/>
<path d="M113.969 231.006L113.969 225.986L118.989 225.986L118.989 231.006L113.969 231.006Z" fill="white"/>
<path d="M113.969 205.907L113.969 200.887L118.989 200.887L118.989 205.907L113.969 205.907Z" fill="white"/>
<path d="M113.969 180.808L113.969 175.788L118.989 175.788L118.989 180.808L113.969 180.808Z" fill="white"/>
<path d="M113.969 155.709L113.969 150.689L118.989 150.689L118.989 155.709L113.969 155.709Z" fill="white"/>
<path d="M113.969 130.61L113.969 125.59L118.989 125.59L118.989 130.61L113.969 130.61Z" fill="white"/>
<path d="M113.969 105.511L113.969 100.491L118.989 100.491L118.989 105.511L113.969 105.511Z" fill="white"/>
<path d="M113.969 80.4115L113.969 75.3917L118.989 75.3917L118.989 80.4115L113.969 80.4115Z" fill="white"/>
<path d="M113.969 55.3125L113.969 50.2927L118.989 50.2927L118.989 55.3125L113.969 55.3125Z" fill="white"/>
<path d="M113.969 30.2135L113.969 25.1937L118.989 25.1937L118.989 30.2135L113.969 30.2135Z" fill="white"/>
<path d="M113.969 5.1145L113.969 0.094709L118.989 0.0947088L118.989 5.1145L113.969 5.1145Z" fill="white"/>
<path d="M139.068 231.006L139.068 225.986L144.088 225.986L144.088 231.006L139.068 231.006Z" fill="white"/>
<path d="M139.068 205.907L139.068 200.887L144.088 200.887L144.088 205.907L139.068 205.907Z" fill="white"/>
<path d="M139.068 180.808L139.068 175.788L144.088 175.788L144.088 180.808L139.068 180.808Z" fill="white"/>
<path d="M139.068 155.709L139.068 150.689L144.088 150.689L144.088 155.709L139.068 155.709Z" fill="white"/>
<path d="M139.068 130.61L139.068 125.59L144.088 125.59L144.088 130.61L139.068 130.61Z" fill="white"/>
<path d="M139.068 105.511L139.068 100.491L144.088 100.491L144.088 105.511L139.068 105.511Z" fill="white"/>
<path d="M139.068 80.4115L139.068 75.3917L144.088 75.3917L144.088 80.4115L139.068 80.4115Z" fill="white"/>
<path d="M139.068 55.3125L139.068 50.2927L144.088 50.2927L144.088 55.3125L139.068 55.3125Z" fill="white"/>
<path d="M139.068 30.2135L139.068 25.1937L144.088 25.1937L144.088 30.2135L139.068 30.2135Z" fill="white"/>
<path d="M139.068 5.1145L139.068 0.0947079L144.088 0.0947077L144.088 5.1145L139.068 5.1145Z" fill="white"/>
<path d="M164.167 231.006L164.167 225.986L169.187 225.986L169.187 231.006L164.167 231.006Z" fill="white"/>
<path d="M164.167 205.907L164.167 200.887L169.187 200.887L169.187 205.907L164.167 205.907Z" fill="white"/>
<path d="M164.167 180.808L164.167 175.788L169.187 175.788L169.187 180.808L164.167 180.808Z" fill="white"/>
<path d="M164.167 155.709L164.167 150.689L169.187 150.689L169.187 155.709L164.167 155.709Z" fill="white"/>
<path d="M164.167 130.61L164.167 125.59L169.187 125.59L169.187 130.61L164.167 130.61Z" fill="white"/>
<path d="M164.167 105.511L164.167 100.491L169.187 100.491L169.187 105.511L164.167 105.511Z" fill="white"/>
<path d="M164.167 80.4115L164.167 75.3917L169.187 75.3917L169.187 80.4115L164.167 80.4115Z" fill="white"/>
<path d="M164.167 55.3125L164.167 50.2927L169.187 50.2927L169.187 55.3125L164.167 55.3125Z" fill="white"/>
<path d="M164.167 30.2135L164.167 25.1937L169.187 25.1937L169.187 30.2135L164.167 30.2135Z" fill="white"/>
<path d="M164.167 5.1145L164.167 0.0947068L169.187 0.0947066L169.187 5.1145L164.167 5.1145Z" fill="white"/>
<path d="M189.266 231.006L189.266 225.986L194.286 225.986L194.286 231.006L189.266 231.006Z" fill="white"/>
<path d="M189.266 205.907L189.266 200.887L194.286 200.887L194.286 205.907L189.266 205.907Z" fill="white"/>
<path d="M189.266 180.808L189.266 175.788L194.286 175.788L194.286 180.808L189.266 180.808Z" fill="white"/>
<path d="M189.266 155.709L189.266 150.689L194.286 150.689L194.286 155.709L189.266 155.709Z" fill="white"/>
<path d="M189.266 130.61L189.266 125.59L194.286 125.59L194.286 130.61L189.266 130.61Z" fill="white"/>
<path d="M189.266 105.511L189.266 100.491L194.286 100.491L194.286 105.511L189.266 105.511Z" fill="white"/>
<path d="M189.266 80.4115L189.266 75.3917L194.286 75.3917L194.286 80.4115L189.266 80.4115Z" fill="white"/>
<path d="M189.266 55.3125L189.266 50.2927L194.286 50.2927L194.286 55.3125L189.266 55.3125Z" fill="white"/>
<path d="M189.266 30.2135L189.266 25.1937L194.286 25.1937L194.286 30.2135L189.266 30.2135Z" fill="white"/>
<path d="M189.266 5.1145L189.266 0.0947057L194.286 0.0947055L194.286 5.1145L189.266 5.1145Z" fill="white"/>
<path d="M214.365 231.006L214.365 225.986L219.385 225.986L219.385 231.006L214.365 231.006Z" fill="white"/>
<path d="M214.365 205.907L214.365 200.887L219.385 200.887L219.385 205.907L214.365 205.907Z" fill="white"/>
<path d="M214.365 180.808L214.365 175.788L219.385 175.788L219.385 180.808L214.365 180.808Z" fill="white"/>
<path d="M214.365 155.709L214.365 150.689L219.385 150.689L219.385 155.709L214.365 155.709Z" fill="white"/>
<path d="M214.365 130.61L214.365 125.59L219.385 125.59L219.385 130.61L214.365 130.61Z" fill="white"/>
<path d="M214.365 105.511L214.365 100.491L219.385 100.491L219.385 105.511L214.365 105.511Z" fill="white"/>
<path d="M214.365 80.4115L214.365 75.3917L219.385 75.3917L219.385 80.4115L214.365 80.4115Z" fill="white"/>
<path d="M214.365 55.3125L214.365 50.2927L219.385 50.2927L219.385 55.3125L214.365 55.3125Z" fill="white"/>
<path d="M214.365 30.2135L214.365 25.1937L219.385 25.1937L219.385 30.2135L214.365 30.2135Z" fill="white"/>
<path d="M214.365 5.1145L214.365 0.0947046L219.385 0.0947044L219.385 5.1145L214.365 5.1145Z" fill="white"/>
</svg>
