<svg width="164" height="91" viewBox="0 0 164 91" fill="none" xmlns="http://www.w3.org/2000/svg">
<path d="M-34 91L-34 89.0217L-32.0396 89.0217L-32.0396 91L-34 91Z" fill="white"/>
<path d="M-34 81.1087L-34 79.1304L-32.0396 79.1304L-32.0396 81.1087L-34 81.1087Z" fill="white"/>
<path d="M-34 71.2174L-34 69.2391L-32.0396 69.2391L-32.0396 71.2174L-34 71.2174Z" fill="white"/>
<path d="M-34 61.3261L-34 59.3478L-32.0396 59.3478L-32.0396 61.3261L-34 61.3261Z" fill="white"/>
<path d="M-34 51.4348L-34 49.4565L-32.0396 49.4565L-32.0396 51.4348L-34 51.4348Z" fill="white"/>
<path d="M-34 41.5435L-34 39.5652L-32.0396 39.5652L-32.0396 41.5435L-34 41.5435Z" fill="white"/>
<path d="M-34 31.6522L-34 29.6739L-32.0396 29.6739L-32.0396 31.6522L-34 31.6522Z" fill="white"/>
<path d="M-34 21.7609L-34 19.7826L-32.0396 19.7826L-32.0396 21.7609L-34 21.7609Z" fill="white"/>
<path d="M-34 11.8696L-34 9.8913L-32.0396 9.8913L-32.0396 11.8696L-34 11.8696Z" fill="white"/>
<path d="M-34 1.97826L-34 7.62939e-06L-32.0396 7.5437e-06L-32.0396 1.97826L-34 1.97826Z" fill="white"/>
<path d="M-24.198 91L-24.198 89.0217L-22.2376 89.0217L-22.2376 91L-24.198 91Z" fill="white"/>
<path d="M-24.198 81.1087L-24.198 79.1304L-22.2376 79.1304L-22.2376 81.1087L-24.198 81.1087Z" fill="white"/>
<path d="M-24.198 71.2174L-24.198 69.2391L-22.2376 69.2391L-22.2376 71.2174L-24.198 71.2174Z" fill="white"/>
<path d="M-24.198 61.3261L-24.198 59.3478L-22.2376 59.3478L-22.2376 61.3261L-24.198 61.3261Z" fill="white"/>
<path d="M-24.198 51.4348L-24.198 49.4565L-22.2376 49.4565L-22.2376 51.4348L-24.198 51.4348Z" fill="white"/>
<path d="M-24.198 41.5435L-24.198 39.5652L-22.2376 39.5652L-22.2376 41.5435L-24.198 41.5435Z" fill="white"/>
<path d="M-24.198 31.6522L-24.198 29.6739L-22.2376 29.6739L-22.2376 31.6522L-24.198 31.6522Z" fill="white"/>
<path d="M-24.198 21.7609L-24.198 19.7826L-22.2376 19.7826L-22.2376 21.7609L-24.198 21.7609Z" fill="white"/>
<path d="M-24.198 11.8696L-24.198 9.8913L-22.2376 9.8913L-22.2376 11.8696L-24.198 11.8696Z" fill="white"/>
<path d="M-24.198 1.97826L-24.198 7.20094e-06L-22.2376 7.11524e-06L-22.2376 1.97826L-24.198 1.97826Z" fill="white"/>
<path d="M-14.396 91L-14.396 89.0217L-12.4356 89.0217L-12.4356 91L-14.396 91Z" fill="white"/>
<path d="M-14.396 81.1087L-14.396 79.1304L-12.4356 79.1304L-12.4356 81.1087L-14.396 81.1087Z" fill="white"/>
<path d="M-14.396 71.2174L-14.396 69.2391L-12.4356 69.2391L-12.4356 71.2174L-14.396 71.2174Z" fill="white"/>
<path d="M-14.396 61.3261L-14.396 59.3478L-12.4356 59.3478L-12.4356 61.3261L-14.396 61.3261Z" fill="white"/>
<path d="M-14.396 51.4348L-14.396 49.4565L-12.4356 49.4565L-12.4356 51.4348L-14.396 51.4348Z" fill="white"/>
<path d="M-14.396 41.5435L-14.396 39.5652L-12.4356 39.5652L-12.4356 41.5435L-14.396 41.5435Z" fill="white"/>
<path d="M-14.396 31.6522L-14.396 29.6739L-12.4356 29.6739L-12.4356 31.6522L-14.396 31.6522Z" fill="white"/>
<path d="M-14.396 21.7609L-14.396 19.7826L-12.4356 19.7826L-12.4356 21.7609L-14.396 21.7609Z" fill="white"/>
<path d="M-14.396 11.8696L-14.396 9.8913L-12.4356 9.8913L-12.4356 11.8696L-14.396 11.8696Z" fill="white"/>
<path d="M-14.396 1.97826L-14.396 6.77248e-06L-12.4356 6.68679e-06L-12.4356 1.97826L-14.396 1.97826Z" fill="white"/>
<path d="M-4.59406 91L-4.59406 89.0217L-2.63366 89.0217L-2.63366 91L-4.59406 91Z" fill="white"/>
<path d="M-4.59406 81.1087L-4.59406 79.1304L-2.63366 79.1304L-2.63366 81.1087L-4.59406 81.1087Z" fill="white"/>
<path d="M-4.59406 71.2174L-4.59406 69.2391L-2.63366 69.2391L-2.63366 71.2174L-4.59406 71.2174Z" fill="white"/>
<path d="M-4.59406 61.3261L-4.59406 59.3478L-2.63366 59.3478L-2.63366 61.3261L-4.59406 61.3261Z" fill="white"/>
<path d="M-4.59406 51.4348L-4.59406 49.4565L-2.63366 49.4565L-2.63366 51.4348L-4.59406 51.4348Z" fill="white"/>
<path d="M-4.59406 41.5435L-4.59406 39.5652L-2.63366 39.5652L-2.63366 41.5435L-4.59406 41.5435Z" fill="white"/>
<path d="M-4.59406 31.6522L-4.59406 29.6739L-2.63366 29.6739L-2.63366 31.6522L-4.59406 31.6522Z" fill="white"/>
<path d="M-4.59406 21.7609L-4.59406 19.7826L-2.63366 19.7826L-2.63366 21.7609L-4.59406 21.7609Z" fill="white"/>
<path d="M-4.59406 11.8696L-4.59406 9.8913L-2.63366 9.8913L-2.63366 11.8696L-4.59406 11.8696Z" fill="white"/>
<path d="M-4.59406 1.97826L-4.59406 6.34402e-06L-2.63367 6.25833e-06L-2.63367 1.97826L-4.59406 1.97826Z" fill="white"/>
<path d="M5.20792 91L5.20792 89.0217L7.16832 89.0217L7.16832 91L5.20792 91Z" fill="white"/>
<path d="M5.20792 81.1087L5.20792 79.1304L7.16832 79.1304L7.16832 81.1087L5.20792 81.1087Z" fill="white"/>
<path d="M5.20792 71.2174L5.20792 69.2391L7.16832 69.2391L7.16832 71.2174L5.20792 71.2174Z" fill="white"/>
<path d="M5.20792 61.3261L5.20792 59.3478L7.16832 59.3478L7.16832 61.3261L5.20792 61.3261Z" fill="white"/>
<path d="M5.20792 51.4348L5.20792 49.4565L7.16832 49.4565L7.16832 51.4348L5.20792 51.4348Z" fill="white"/>
<path d="M5.20792 41.5435L5.20792 39.5652L7.16832 39.5652L7.16832 41.5435L5.20792 41.5435Z" fill="white"/>
<path d="M5.20792 31.6522L5.20792 29.6739L7.16832 29.6739L7.16832 31.6522L5.20792 31.6522Z" fill="white"/>
<path d="M5.20792 21.7609L5.20792 19.7826L7.16832 19.7826L7.16832 21.7609L5.20792 21.7609Z" fill="white"/>
<path d="M5.20792 11.8696L5.20792 9.8913L7.16832 9.8913L7.16832 11.8696L5.20792 11.8696Z" fill="white"/>
<path d="M5.20792 1.97826L5.20792 5.91556e-06L7.16832 5.82987e-06L7.16832 1.97826L5.20792 1.97826Z" fill="white"/>
<path d="M15.0099 91L15.0099 89.0217L16.9703 89.0217L16.9703 91L15.0099 91Z" fill="white"/>
<path d="M15.0099 81.1087L15.0099 79.1304L16.9703 79.1304L16.9703 81.1087L15.0099 81.1087Z" fill="white"/>
<path d="M15.0099 71.2174L15.0099 69.2391L16.9703 69.2391L16.9703 71.2174L15.0099 71.2174Z" fill="white"/>
<path d="M15.0099 61.3261L15.0099 59.3478L16.9703 59.3478L16.9703 61.3261L15.0099 61.3261Z" fill="white"/>
<path d="M15.0099 51.4348L15.0099 49.4565L16.9703 49.4565L16.9703 51.4348L15.0099 51.4348Z" fill="white"/>
<path d="M15.0099 41.5435L15.0099 39.5652L16.9703 39.5652L16.9703 41.5435L15.0099 41.5435Z" fill="white"/>
<path d="M15.0099 31.6522L15.0099 29.6739L16.9703 29.6739L16.9703 31.6522L15.0099 31.6522Z" fill="white"/>
<path d="M15.0099 21.7609L15.0099 19.7826L16.9703 19.7826L16.9703 21.7609L15.0099 21.7609Z" fill="white"/>
<path d="M15.0099 11.8696L15.0099 9.8913L16.9703 9.8913L16.9703 11.8696L15.0099 11.8696Z" fill="white"/>
<path d="M15.0099 1.97826L15.0099 5.4871e-06L16.9703 5.40141e-06L16.9703 1.97826L15.0099 1.97826Z" fill="white"/>
<path d="M24.8119 91L24.8119 89.0217L26.7723 89.0217L26.7723 91L24.8119 91Z" fill="white"/>
<path d="M24.8119 81.1087L24.8119 79.1304L26.7723 79.1304L26.7723 81.1087L24.8119 81.1087Z" fill="white"/>
<path d="M24.8119 71.2174L24.8119 69.2391L26.7723 69.2391L26.7723 71.2174L24.8119 71.2174Z" fill="white"/>
<path d="M24.8119 61.3261L24.8119 59.3478L26.7723 59.3478L26.7723 61.3261L24.8119 61.3261Z" fill="white"/>
<path d="M24.8119 51.4348L24.8119 49.4565L26.7723 49.4565L26.7723 51.4348L24.8119 51.4348Z" fill="white"/>
<path d="M24.8119 41.5435L24.8119 39.5652L26.7723 39.5652L26.7723 41.5435L24.8119 41.5435Z" fill="white"/>
<path d="M24.8119 31.6522L24.8119 29.6739L26.7723 29.6739L26.7723 31.6522L24.8119 31.6522Z" fill="white"/>
<path d="M24.8119 21.7609L24.8119 19.7826L26.7723 19.7826L26.7723 21.7609L24.8119 21.7609Z" fill="white"/>
<path d="M24.8119 11.8696L24.8119 9.8913L26.7723 9.8913L26.7723 11.8696L24.8119 11.8696Z" fill="white"/>
<path d="M24.8119 1.97826L24.8119 5.05865e-06L26.7723 4.97295e-06L26.7723 1.97826L24.8119 1.97826Z" fill="white"/>
<path d="M34.6139 91L34.6139 89.0217L36.5743 89.0217L36.5743 91L34.6139 91Z" fill="white"/>
<path d="M34.6139 81.1087L34.6139 79.1304L36.5743 79.1304L36.5743 81.1087L34.6139 81.1087Z" fill="white"/>
<path d="M34.6139 71.2174L34.6139 69.2391L36.5743 69.2391L36.5743 71.2174L34.6139 71.2174Z" fill="white"/>
<path d="M34.6139 61.3261L34.6139 59.3478L36.5743 59.3478L36.5743 61.3261L34.6139 61.3261Z" fill="white"/>
<path d="M34.6139 51.4348L34.6139 49.4565L36.5743 49.4565L36.5743 51.4348L34.6139 51.4348Z" fill="white"/>
<path d="M34.6139 41.5435L34.6139 39.5652L36.5743 39.5652L36.5743 41.5435L34.6139 41.5435Z" fill="white"/>
<path d="M34.6139 31.6522L34.6139 29.6739L36.5743 29.6739L36.5743 31.6522L34.6139 31.6522Z" fill="white"/>
<path d="M34.6139 21.7609L34.6139 19.7826L36.5743 19.7826L36.5743 21.7609L34.6139 21.7609Z" fill="white"/>
<path d="M34.6139 11.8696L34.6139 9.8913L36.5743 9.8913L36.5743 11.8696L34.6139 11.8696Z" fill="white"/>
<path d="M34.6139 1.97826L34.6139 4.63019e-06L36.5743 4.5445e-06L36.5743 1.97826L34.6139 1.97826Z" fill="white"/>
<path d="M44.4158 91L44.4158 89.0217L46.3762 89.0217L46.3762 91L44.4158 91Z" fill="white"/>
<path d="M44.4158 81.1087L44.4158 79.1304L46.3762 79.1304L46.3762 81.1087L44.4158 81.1087Z" fill="white"/>
<path d="M44.4158 71.2174L44.4158 69.2391L46.3762 69.2391L46.3762 71.2174L44.4158 71.2174Z" fill="white"/>
<path d="M44.4158 61.3261L44.4158 59.3478L46.3762 59.3478L46.3762 61.3261L44.4158 61.3261Z" fill="white"/>
<path d="M44.4158 51.4348L44.4158 49.4565L46.3762 49.4565L46.3762 51.4348L44.4158 51.4348Z" fill="white"/>
<path d="M44.4158 41.5435L44.4158 39.5652L46.3762 39.5652L46.3762 41.5435L44.4158 41.5435Z" fill="white"/>
<path d="M44.4158 31.6522L44.4158 29.6739L46.3762 29.6739L46.3762 31.6522L44.4158 31.6522Z" fill="white"/>
<path d="M44.4158 21.7609L44.4158 19.7826L46.3762 19.7826L46.3762 21.7609L44.4158 21.7609Z" fill="white"/>
<path d="M44.4158 11.8696L44.4158 9.8913L46.3762 9.8913L46.3762 11.8696L44.4158 11.8696Z" fill="white"/>
<path d="M44.4158 1.97826L44.4158 4.20173e-06L46.3762 4.11604e-06L46.3762 1.97826L44.4158 1.97826Z" fill="white"/>
<path d="M54.2178 91L54.2178 89.0217L56.1782 89.0217L56.1782 91L54.2178 91Z" fill="white"/>
<path d="M54.2178 81.1087L54.2178 79.1304L56.1782 79.1304L56.1782 81.1087L54.2178 81.1087Z" fill="white"/>
<path d="M54.2178 71.2174L54.2178 69.2391L56.1782 69.2391L56.1782 71.2174L54.2178 71.2174Z" fill="white"/>
<path d="M54.2178 61.3261L54.2178 59.3478L56.1782 59.3478L56.1782 61.3261L54.2178 61.3261Z" fill="white"/>
<path d="M54.2178 51.4348L54.2178 49.4565L56.1782 49.4565L56.1782 51.4348L54.2178 51.4348Z" fill="white"/>
<path d="M54.2178 41.5435L54.2178 39.5652L56.1782 39.5652L56.1782 41.5435L54.2178 41.5435Z" fill="white"/>
<path d="M54.2178 31.6522L54.2178 29.6739L56.1782 29.6739L56.1782 31.6522L54.2178 31.6522Z" fill="white"/>
<path d="M54.2178 21.7609L54.2178 19.7826L56.1782 19.7826L56.1782 21.7609L54.2178 21.7609Z" fill="white"/>
<path d="M54.2178 11.8696L54.2178 9.8913L56.1782 9.8913L56.1782 11.8696L54.2178 11.8696Z" fill="white"/>
<path d="M54.2178 1.97826L54.2178 3.77327e-06L56.1782 3.68758e-06L56.1782 1.97826L54.2178 1.97826Z" fill="white"/>
<path d="M64.0198 91L64.0198 89.0217L65.9802 89.0217L65.9802 91L64.0198 91Z" fill="white"/>
<path d="M64.0198 81.1087L64.0198 79.1304L65.9802 79.1304L65.9802 81.1087L64.0198 81.1087Z" fill="white"/>
<path d="M64.0198 71.2174L64.0198 69.2391L65.9802 69.2391L65.9802 71.2174L64.0198 71.2174Z" fill="white"/>
<path d="M64.0198 61.3261L64.0198 59.3478L65.9802 59.3478L65.9802 61.3261L64.0198 61.3261Z" fill="white"/>
<path d="M64.0198 51.4348L64.0198 49.4565L65.9802 49.4565L65.9802 51.4348L64.0198 51.4348Z" fill="white"/>
<path d="M64.0198 41.5435L64.0198 39.5652L65.9802 39.5652L65.9802 41.5435L64.0198 41.5435Z" fill="white"/>
<path d="M64.0198 31.6522L64.0198 29.6739L65.9802 29.6739L65.9802 31.6522L64.0198 31.6522Z" fill="white"/>
<path d="M64.0198 21.7609L64.0198 19.7826L65.9802 19.7826L65.9802 21.7609L64.0198 21.7609Z" fill="white"/>
<path d="M64.0198 11.8696L64.0198 9.8913L65.9802 9.8913L65.9802 11.8696L64.0198 11.8696Z" fill="white"/>
<path d="M64.0198 1.97826L64.0198 3.34481e-06L65.9802 3.25912e-06L65.9802 1.97826L64.0198 1.97826Z" fill="white"/>
<path d="M73.8218 91L73.8218 89.0217L75.7822 89.0217L75.7822 91L73.8218 91Z" fill="white"/>
<path d="M73.8218 81.1087L73.8218 79.1304L75.7822 79.1304L75.7822 81.1087L73.8218 81.1087Z" fill="white"/>
<path d="M73.8218 71.2174L73.8218 69.2391L75.7822 69.2391L75.7822 71.2174L73.8218 71.2174Z" fill="white"/>
<path d="M73.8218 61.3261L73.8218 59.3478L75.7822 59.3478L75.7822 61.3261L73.8218 61.3261Z" fill="white"/>
<path d="M73.8218 51.4348L73.8218 49.4565L75.7822 49.4565L75.7822 51.4348L73.8218 51.4348Z" fill="white"/>
<path d="M73.8218 41.5435L73.8218 39.5652L75.7822 39.5652L75.7822 41.5435L73.8218 41.5435Z" fill="white"/>
<path d="M73.8218 31.6522L73.8218 29.6739L75.7822 29.6739L75.7822 31.6522L73.8218 31.6522Z" fill="white"/>
<path d="M73.8218 21.7609L73.8218 19.7826L75.7822 19.7826L75.7822 21.7609L73.8218 21.7609Z" fill="white"/>
<path d="M73.8218 11.8696L73.8218 9.8913L75.7822 9.8913L75.7822 11.8696L73.8218 11.8696Z" fill="white"/>
<path d="M73.8218 1.97826L73.8218 2.91635e-06L75.7822 2.83066e-06L75.7822 1.97826L73.8218 1.97826Z" fill="white"/>
<path d="M83.6238 91L83.6238 89.0217L85.5842 89.0217L85.5842 91L83.6238 91Z" fill="white"/>
<path d="M83.6238 81.1087L83.6238 79.1304L85.5842 79.1304L85.5842 81.1087L83.6238 81.1087Z" fill="white"/>
<path d="M83.6238 71.2174L83.6238 69.2391L85.5842 69.2391L85.5842 71.2174L83.6238 71.2174Z" fill="white"/>
<path d="M83.6238 61.3261L83.6238 59.3478L85.5842 59.3478L85.5842 61.3261L83.6238 61.3261Z" fill="white"/>
<path d="M83.6238 51.4348L83.6238 49.4565L85.5842 49.4565L85.5842 51.4348L83.6238 51.4348Z" fill="white"/>
<path d="M83.6238 41.5435L83.6238 39.5652L85.5842 39.5652L85.5842 41.5435L83.6238 41.5435Z" fill="white"/>
<path d="M83.6238 31.6522L83.6238 29.6739L85.5842 29.6739L85.5842 31.6522L83.6238 31.6522Z" fill="white"/>
<path d="M83.6238 21.7609L83.6238 19.7826L85.5842 19.7826L85.5842 21.7609L83.6238 21.7609Z" fill="white"/>
<path d="M83.6238 11.8696L83.6238 9.8913L85.5842 9.8913L85.5842 11.8696L83.6238 11.8696Z" fill="white"/>
<path d="M83.6238 1.97826L83.6238 2.4879e-06L85.5842 2.4022e-06L85.5842 1.97826L83.6238 1.97826Z" fill="white"/>
<path d="M93.4258 91L93.4258 89.0217L95.3862 89.0217L95.3862 91L93.4258 91Z" fill="white"/>
<path d="M93.4258 81.1087L93.4258 79.1304L95.3862 79.1304L95.3862 81.1087L93.4258 81.1087Z" fill="white"/>
<path d="M93.4257 71.2174L93.4257 69.2391L95.3862 69.2391L95.3862 71.2174L93.4257 71.2174Z" fill="white"/>
<path d="M93.4257 61.3261L93.4257 59.3478L95.3862 59.3478L95.3862 61.3261L93.4257 61.3261Z" fill="white"/>
<path d="M93.4257 51.4348L93.4257 49.4565L95.3862 49.4565L95.3862 51.4348L93.4257 51.4348Z" fill="white"/>
<path d="M93.4257 41.5435L93.4257 39.5652L95.3862 39.5652L95.3862 41.5435L93.4257 41.5435Z" fill="white"/>
<path d="M93.4257 31.6522L93.4257 29.6739L95.3862 29.6739L95.3862 31.6522L93.4257 31.6522Z" fill="white"/>
<path d="M93.4257 21.7609L93.4257 19.7826L95.3862 19.7826L95.3862 21.7609L93.4257 21.7609Z" fill="white"/>
<path d="M93.4257 11.8696L93.4257 9.8913L95.3862 9.8913L95.3862 11.8696L93.4257 11.8696Z" fill="white"/>
<path d="M93.4257 1.97826L93.4257 2.05944e-06L95.3862 1.97375e-06L95.3862 1.97826L93.4257 1.97826Z" fill="white"/>
<path d="M103.228 91L103.228 89.0217L105.188 89.0217L105.188 91L103.228 91Z" fill="white"/>
<path d="M103.228 81.1087L103.228 79.1304L105.188 79.1304L105.188 81.1087L103.228 81.1087Z" fill="white"/>
<path d="M103.228 71.2174L103.228 69.2391L105.188 69.2391L105.188 71.2174L103.228 71.2174Z" fill="white"/>
<path d="M103.228 61.3261L103.228 59.3478L105.188 59.3478L105.188 61.3261L103.228 61.3261Z" fill="white"/>
<path d="M103.228 51.4348L103.228 49.4565L105.188 49.4565L105.188 51.4348L103.228 51.4348Z" fill="white"/>
<path d="M103.228 41.5435L103.228 39.5652L105.188 39.5652L105.188 41.5435L103.228 41.5435Z" fill="white"/>
<path d="M103.228 31.6522L103.228 29.6739L105.188 29.6739L105.188 31.6522L103.228 31.6522Z" fill="white"/>
<path d="M103.228 21.7609L103.228 19.7826L105.188 19.7826L105.188 21.7609L103.228 21.7609Z" fill="white"/>
<path d="M103.228 11.8696L103.228 9.8913L105.188 9.8913L105.188 11.8696L103.228 11.8696Z" fill="white"/>
<path d="M103.228 1.97826L103.228 1.63098e-06L105.188 1.54529e-06L105.188 1.97826L103.228 1.97826Z" fill="white"/>
<path d="M113.03 91L113.03 89.0217L114.99 89.0217L114.99 91L113.03 91Z" fill="white"/>
<path d="M113.03 81.1087L113.03 79.1304L114.99 79.1304L114.99 81.1087L113.03 81.1087Z" fill="white"/>
<path d="M113.03 71.2174L113.03 69.2391L114.99 69.2391L114.99 71.2174L113.03 71.2174Z" fill="white"/>
<path d="M113.03 61.3261L113.03 59.3478L114.99 59.3478L114.99 61.3261L113.03 61.3261Z" fill="white"/>
<path d="M113.03 51.4348L113.03 49.4565L114.99 49.4565L114.99 51.4348L113.03 51.4348Z" fill="white"/>
<path d="M113.03 41.5435L113.03 39.5652L114.99 39.5652L114.99 41.5435L113.03 41.5435Z" fill="white"/>
<path d="M113.03 31.6522L113.03 29.6739L114.99 29.6739L114.99 31.6522L113.03 31.6522Z" fill="white"/>
<path d="M113.03 21.7609L113.03 19.7826L114.99 19.7826L114.99 21.7609L113.03 21.7609Z" fill="white"/>
<path d="M113.03 11.8696L113.03 9.8913L114.99 9.8913L114.99 11.8696L113.03 11.8696Z" fill="white"/>
<path d="M113.03 1.97826L113.03 1.20252e-06L114.99 1.11683e-06L114.99 1.97826L113.03 1.97826Z" fill="white"/>
<path d="M122.832 91L122.832 89.0217L124.792 89.0217L124.792 91L122.832 91Z" fill="white"/>
<path d="M122.832 81.1087L122.832 79.1304L124.792 79.1304L124.792 81.1087L122.832 81.1087Z" fill="white"/>
<path d="M122.832 71.2174L122.832 69.2391L124.792 69.2391L124.792 71.2174L122.832 71.2174Z" fill="white"/>
<path d="M122.832 61.3261L122.832 59.3478L124.792 59.3478L124.792 61.3261L122.832 61.3261Z" fill="white"/>
<path d="M122.832 51.4348L122.832 49.4565L124.792 49.4565L124.792 51.4348L122.832 51.4348Z" fill="white"/>
<path d="M122.832 41.5435L122.832 39.5652L124.792 39.5652L124.792 41.5435L122.832 41.5435Z" fill="white"/>
<path d="M122.832 31.6522L122.832 29.6739L124.792 29.6739L124.792 31.6522L122.832 31.6522Z" fill="white"/>
<path d="M122.832 21.7609L122.832 19.7826L124.792 19.7826L124.792 21.7609L122.832 21.7609Z" fill="white"/>
<path d="M122.832 11.8696L122.832 9.8913L124.792 9.8913L124.792 11.8696L122.832 11.8696Z" fill="white"/>
<path d="M122.832 1.97826L122.832 7.74063e-07L124.792 6.88372e-07L124.792 1.97826L122.832 1.97826Z" fill="white"/>
<path d="M132.634 91L132.634 89.0217L134.594 89.0217L134.594 91L132.634 91Z" fill="white"/>
<path d="M132.634 81.1087L132.634 79.1304L134.594 79.1304L134.594 81.1087L132.634 81.1087Z" fill="white"/>
<path d="M132.634 71.2174L132.634 69.2391L134.594 69.2391L134.594 71.2174L132.634 71.2174Z" fill="white"/>
<path d="M132.634 61.3261L132.634 59.3478L134.594 59.3478L134.594 61.3261L132.634 61.3261Z" fill="white"/>
<path d="M132.634 51.4348L132.634 49.4565L134.594 49.4565L134.594 51.4348L132.634 51.4348Z" fill="white"/>
<path d="M132.634 41.5435L132.634 39.5652L134.594 39.5652L134.594 41.5435L132.634 41.5435Z" fill="white"/>
<path d="M132.634 31.6522L132.634 29.6739L134.594 29.6739L134.594 31.6522L132.634 31.6522Z" fill="white"/>
<path d="M132.634 21.7609L132.634 19.7826L134.594 19.7826L134.594 21.7609L132.634 21.7609Z" fill="white"/>
<path d="M132.634 11.8696L132.634 9.8913L134.594 9.8913L134.594 11.8696L132.634 11.8696Z" fill="white"/>
<path d="M132.634 1.97826L132.634 3.45606e-07L134.594 2.59914e-07L134.594 1.97826L132.634 1.97826Z" fill="white"/>
<path d="M142.436 91L142.436 89.0217L144.396 89.0217L144.396 91L142.436 91Z" fill="white"/>
<path d="M142.436 81.1087L142.436 79.1304L144.396 79.1304L144.396 81.1087L142.436 81.1087Z" fill="white"/>
<path d="M142.436 71.2174L142.436 69.2391L144.396 69.2391L144.396 71.2174L142.436 71.2174Z" fill="white"/>
<path d="M142.436 61.3261L142.436 59.3478L144.396 59.3478L144.396 61.3261L142.436 61.3261Z" fill="white"/>
<path d="M142.436 51.4348L142.436 49.4565L144.396 49.4565L144.396 51.4348L142.436 51.4348Z" fill="white"/>
<path d="M142.436 41.5435L142.436 39.5652L144.396 39.5652L144.396 41.5435L142.436 41.5435Z" fill="white"/>
<path d="M142.436 31.6522L142.436 29.6739L144.396 29.6739L144.396 31.6522L142.436 31.6522Z" fill="white"/>
<path d="M142.436 21.7609L142.436 19.7826L144.396 19.7826L144.396 21.7609L142.436 21.7609Z" fill="white"/>
<path d="M142.436 11.8696L142.436 9.8913L144.396 9.8913L144.396 11.8696L142.436 11.8696Z" fill="white"/>
<path d="M142.436 1.97826L142.436 -8.28528e-08L144.396 -1.68545e-07L144.396 1.97826L142.436 1.97826Z" fill="white"/>
<path d="M152.238 91L152.238 89.0217L154.198 89.0217L154.198 91L152.238 91Z" fill="white"/>
<path d="M152.238 81.1087L152.238 79.1304L154.198 79.1304L154.198 81.1087L152.238 81.1087Z" fill="white"/>
<path d="M152.238 71.2174L152.238 69.2391L154.198 69.2391L154.198 71.2174L152.238 71.2174Z" fill="white"/>
<path d="M152.238 61.3261L152.238 59.3478L154.198 59.3478L154.198 61.3261L152.238 61.3261Z" fill="white"/>
<path d="M152.238 51.4348L152.238 49.4565L154.198 49.4565L154.198 51.4348L152.238 51.4348Z" fill="white"/>
<path d="M152.238 41.5435L152.238 39.5652L154.198 39.5652L154.198 41.5435L152.238 41.5435Z" fill="white"/>
<path d="M152.238 31.6522L152.238 29.6739L154.198 29.6739L154.198 31.6522L152.238 31.6522Z" fill="white"/>
<path d="M152.238 21.7609L152.238 19.7826L154.198 19.7826L154.198 21.7609L152.238 21.7609Z" fill="white"/>
<path d="M152.238 11.8696L152.238 9.8913L154.198 9.8913L154.198 11.8696L152.238 11.8696Z" fill="white"/>
<path d="M152.238 1.97826L152.238 -5.11311e-07L154.198 -5.97003e-07L154.198 1.97826L152.238 1.97826Z" fill="white"/>
<path d="M162.04 91L162.04 89.0217L164 89.0217L164 91L162.04 91Z" fill="white"/>
<path d="M162.04 81.1087L162.04 79.1304L164 79.1304L164 81.1087L162.04 81.1087Z" fill="white"/>
<path d="M162.04 71.2174L162.04 69.2391L164 69.2391L164 71.2174L162.04 71.2174Z" fill="white"/>
<path d="M162.04 61.3261L162.04 59.3478L164 59.3478L164 61.3261L162.04 61.3261Z" fill="white"/>
<path d="M162.04 51.4348L162.04 49.4565L164 49.4565L164 51.4348L162.04 51.4348Z" fill="white"/>
<path d="M162.04 41.5435L162.04 39.5652L164 39.5652L164 41.5435L162.04 41.5435Z" fill="white"/>
<path d="M162.04 31.6522L162.04 29.6739L164 29.6739L164 31.6522L162.04 31.6522Z" fill="white"/>
<path d="M162.04 21.7609L162.04 19.7826L164 19.7826L164 21.7609L162.04 21.7609Z" fill="white"/>
<path d="M162.04 11.8696L162.04 9.8913L164 9.8913L164 11.8696L162.04 11.8696Z" fill="white"/>
<path d="M162.04 1.97826L162.04 -9.39769e-07L164 -1.02546e-06L164 1.97826L162.04 1.97826Z" fill="white"/>
</svg>
