<svg width="61" height="62" viewBox="0 0 61 62" fill="none" xmlns="http://www.w3.org/2000/svg">
<path d="M50.8379 32.7504V32.75L50.838 32.7394C50.8465 29.3504 50.855 25.9701 50.8465 22.5816L50.8465 22.5812C50.8465 21.5825 50.6158 20.7509 50.1436 20.0937C49.6719 19.4371 48.949 18.9405 47.9391 18.6291C47.1495 18.3868 46.3604 18.1437 45.5715 17.9007C42.6345 16.996 39.7006 16.0922 36.7558 15.2291L36.7558 15.229C34.3335 14.5184 31.9066 13.8211 29.4797 13.1237C25.3771 11.9448 21.2743 10.7658 17.1932 9.52274L17.193 9.5227C15.3276 8.95235 13.6411 9.15403 12.4219 9.94547C11.2054 10.7351 10.432 12.1259 10.4153 13.9828C10.3926 16.718 10.3926 19.4562 10.3926 22.194C10.3926 23.5632 10.3926 24.9323 10.3898 26.3008C10.3898 26.3009 10.3898 26.3009 10.3898 26.301L50.8379 32.7504ZM50.8379 32.7504C50.8379 33.7495 50.8402 34.7482 50.8425 35.7465C50.8479 38.0743 50.8533 40.3998 50.8294 42.7219V42.7222C50.8169 44.2479 50.3259 45.4053 49.466 46.1365C48.6054 46.8683 47.3511 47.1938 45.7708 47.0051M50.8379 32.7504L45.7708 47.0051M45.7708 47.0051C44.5845 46.8596 43.4034 46.536 42.2575 46.1692C41.8679 46.0431 41.5309 45.8478 41.3369 45.5895C41.1509 45.3418 41.0839 45.0207 41.2605 44.5963C41.4147 44.2298 41.6462 44.0454 41.9197 43.9765C42.2025 43.9053 42.552 43.9523 42.9422 44.0982C42.9423 44.0982 42.9423 44.0982 42.9424 44.0983L42.9949 43.9578M45.7708 47.0051L48.6045 22.9327C48.6057 23.8646 48.6073 24.7964 48.6089 25.7283C48.6182 31.3196 48.6276 36.9101 48.562 42.4945C48.5364 44.4891 47.2596 45.2657 45.3018 44.7098C44.5271 44.4891 43.7525 44.2439 42.9949 43.9578M42.9949 43.9578C42.1863 43.6553 41.4627 43.7289 41.1222 44.5382L42.9949 43.9578ZM46.7218 20.3524C47.3957 20.5428 47.9072 20.86 48.2495 21.3008C48.5922 21.7422 48.7545 22.2936 48.7545 22.9325L46.7218 20.3524ZM46.7218 20.3524C39.8612 18.3988 33.0176 16.4288 26.1653 14.4505L26.1651 14.4505C24.8038 14.059 23.4415 13.6604 22.0781 13.2615C20.0854 12.6785 18.0907 12.0949 16.0944 11.5319C15.0167 11.2268 14.1824 11.2283 13.6152 11.6317C13.0451 12.0372 12.801 12.8076 12.7967 13.8909M46.7218 20.3524L11.6053 28.2761M12.7967 13.8909C12.7967 13.8909 12.7967 13.8908 12.7967 13.8907L12.9467 13.8916L12.7967 13.891C12.7967 13.891 12.7967 13.891 12.7967 13.8909ZM12.7967 13.8909C12.7797 16.6275 12.7853 19.3683 12.791 22.1071C12.7939 23.4757 12.7967 24.8438 12.7967 26.2107C12.7967 26.2583 12.7968 26.3059 12.797 26.3534C12.7984 26.8133 12.7998 27.2631 12.6678 27.6187C12.5973 27.8085 12.4909 27.9634 12.3298 28.075C12.1678 28.1872 11.9378 28.2646 11.6053 28.2761M11.6053 28.2761L11.6103 28.426L11.6051 28.2761C11.6051 28.2761 11.6052 28.2761 11.6053 28.2761Z" fill="#231F20" stroke="#FAFAFB" stroke-width="0.3"/>
<path d="M38.1465 37.2217C38.1465 40.606 38.1551 43.9985 38.1465 47.3828C38.138 49.7043 37.1761 50.9632 35.4056 51.045C33.7372 51.1185 32.3071 49.5245 32.2986 47.4155C32.2731 40.5079 32.2646 33.6004 32.3071 26.6929C32.3242 24.5021 33.967 22.9734 35.7801 23.3168C37.5677 23.6601 38.121 24.8945 38.121 26.4721C38.1295 30.0526 38.121 33.6413 38.121 37.2217C38.121 37.2217 38.1295 37.2217 38.1465 37.2217Z" fill="black"/>
<path d="M30.2092 37.2632C30.2092 40.0017 30.1922 42.732 30.2092 45.4705C30.2177 47.179 29.3835 48.1844 27.6045 48.3071C25.9872 48.4133 24.6933 47.2525 24.6763 45.5032C24.6167 39.969 24.5997 34.4348 24.6763 28.9006C24.7018 27.1022 25.9531 26.0967 27.6981 26.203C29.5453 26.3174 30.2518 27.3556 30.2263 29.0641C30.1752 31.7944 30.2092 34.5329 30.2092 37.2632Z" fill="#231F20"/>
<path d="M16.9849 37.0015C16.9849 35.244 16.9849 33.4865 16.9849 31.7289C16.9849 30.0858 17.8702 29.1866 19.5471 29.0722C21.2325 28.9496 22.4242 29.8897 22.4668 31.59C22.5519 35.2931 22.5519 39.0043 22.4753 42.7156C22.4413 44.3342 21.1219 45.4868 19.6067 45.3396C17.8617 45.168 16.9594 44.2034 16.9849 42.4785C17.0104 40.6474 16.9934 38.8245 16.9849 37.0015Z" fill="#231F20"/>
<path d="M14.8542 37.2297C14.7436 38.3823 14.9649 39.5431 14.6074 40.7039C14.1732 42.0772 13.3135 42.7802 11.8409 42.772C10.215 42.7639 9.24465 41.7666 9.12548 40.4096C8.9297 38.227 8.98928 36.0035 9.12548 33.8045C9.2106 32.3821 10.3427 31.6056 11.7302 31.5483C13.1092 31.4911 14.1137 32.1533 14.5648 33.5593C14.9564 34.7855 14.7521 36.0035 14.8542 37.2297Z" fill="#231F20"/>
</svg>
