<svg width="61" height="62" viewBox="0 0 61 62" fill="none" xmlns="http://www.w3.org/2000/svg">
<path d="M43.1116 8.89367C43.0116 8.85367 42.9316 8.77367 42.8816 8.67367C42.8616 8.62367 42.8516 8.57367 42.8516 8.51367C42.8516 8.56367 42.8616 8.62367 42.8816 8.67367C42.9316 8.77367 43.0116 8.85367 43.1116 8.89367L48.1116 10.9137C48.1616 10.9337 48.2116 10.9437 48.2716 10.9437C48.2216 10.9437 48.1616 10.9337 48.1116 10.9137L43.1116 8.89367Z" fill="#231F20"/>
<path d="M11.1316 20.5742H7.56156C7.31156 20.5742 7.10156 20.7842 7.10156 21.0342C7.10156 21.2842 7.31156 21.4942 7.56156 21.4942H11.1316C11.3816 21.4942 11.5916 21.2842 11.5916 21.0342C11.5916 20.7742 11.3816 20.5742 11.1316 20.5742Z" fill="#231F20"/>
<path d="M49.46 21.4845H53.03C53.28 21.4845 53.49 21.2745 53.49 21.0245C53.49 20.7745 53.28 20.5645 53.03 20.5645H49.46C49.21 20.5645 49 20.7745 49 21.0245C49 21.2845 49.2 21.4845 49.46 21.4845Z" fill="#231F20"/>
<path d="M52.81 16.8838H46.14L48.65 10.6838L48.95 9.93382C49.5 8.57382 48.65 6.95382 47.06 6.31382C46.3 6.00382 45.49 5.96382 44.77 6.19382C44.02 6.43382 43.46 6.93382 43.19 7.60382L42.88 8.35382L39.43 16.8838L39.26 17.2938H7.31C5.5 17.2938 4.03 19.0138 4.03 20.8238L4 50.4138C4 52.2238 5.62 53.8438 7.43 53.8438H52.81C54.62 53.8438 56.09 52.3738 56.09 50.5638V25.2638V20.1638C56.08 18.3538 54.62 16.8838 52.81 16.8838ZM43.96 7.91382C44.14 7.47382 44.52 7.14382 45.03 6.98382C45.57 6.81382 46.18 6.84382 46.76 7.08382C47.92 7.55382 48.57 8.69382 48.19 9.62382L48.04 9.99382L43.81 8.28382L43.96 7.91382ZM43.5 9.05382L47.73 10.7638L37.2 36.7738C37.19 36.8038 37.17 36.8238 37.15 36.8538L32.94 35.1538C32.95 35.1238 32.96 35.0938 32.97 35.0638L43.5 9.05382ZM36.67 37.5538L33.41 41.3338C33.08 41.1838 32.76 41.0438 32.47 40.9138L32.75 35.9738L36.67 37.5538ZM5.69 24.4338V20.5738C5.69 19.6838 6.42 18.9538 7.31 18.9538H38.6L36.38 24.4338H5.81H5.69ZM54.43 50.5638C54.43 51.4538 53.7 52.1838 52.81 52.1838H7.43C6.54 52.1838 5.81 51.4538 5.81 50.5638V26.0938H35.71L32.21 34.7538C32.2 34.7838 32.19 34.8138 32.18 34.8438L31.98 34.7638L31.6 41.4238L31.86 41.5438C31.91 41.5738 31.98 41.5938 32.03 41.6238L31.78 43.7838C31.76 43.9138 31.94 43.9838 32.01 43.8738L33.22 42.1538C33.26 42.1738 33.31 42.1938 33.36 42.2138L33.64 42.3338L38.06 37.2138L37.94 37.1638C37.95 37.1338 37.97 37.1138 37.98 37.0738L42.42 26.0838H54.43V50.5638ZM54.43 24.4338H43.09L45.47 18.5438H52.81C53.7 18.5438 54.43 19.2738 54.43 20.1638V24.4338Z" fill="#231F20"/>
</svg>
