<svg width="99" height="98" viewBox="0 0 99 98" fill="none" xmlns="http://www.w3.org/2000/svg">
<g clip-path="url(#clip0_2843_8007)">
<path d="M37.4311 58.1714C38.1354 58.1714 38.8107 58.4511 39.3087 58.9491C39.8066 59.447 40.0864 60.1224 40.0864 60.8266V92.6894C40.0864 93.3937 39.8066 94.069 39.3087 94.567C38.8107 95.0649 38.1354 95.3447 37.4311 95.3447H5.56829C4.86408 95.3447 4.18871 95.0649 3.69075 94.567C3.1928 94.069 2.91305 93.3937 2.91305 92.6894V60.8266C2.91305 60.1224 3.1928 59.447 3.69075 58.9491C4.18871 58.4511 4.86408 58.1714 5.56829 58.1714H37.4311ZM5.56829 55.5161C4.15986 55.5161 2.80912 56.0756 1.81322 57.0715C0.817308 58.0674 0.257813 59.4182 0.257812 60.8266L0.257813 92.6894C0.257813 94.0979 0.817308 95.4486 1.81322 96.4445C2.80912 97.4404 4.15986 97.9999 5.56829 97.9999H37.4311C38.8396 97.9999 40.1903 97.4404 41.1862 96.4445C42.1821 95.4486 42.7416 94.0979 42.7416 92.6894V60.8266C42.7416 59.4182 42.1821 58.0674 41.1862 57.0715C40.1903 56.0756 38.8396 55.5161 37.4311 55.5161H5.56829Z" fill="#285E8C"/>
<path d="M29.386 68.7124C29.7576 68.344 30.2593 68.1367 30.7825 68.1353C31.3057 68.1338 31.8085 68.3384 32.1821 68.7047C32.5557 69.071 32.7702 69.5696 32.7791 70.0927C32.788 70.6159 32.5907 71.1216 32.2298 71.5004L21.6301 84.75C21.4479 84.9462 21.228 85.1037 20.9836 85.213C20.7392 85.3223 20.4752 85.3812 20.2075 85.3861C19.9398 85.3911 19.6739 85.342 19.4256 85.2418C19.1773 85.1417 18.9517 84.9925 18.7624 84.8031L11.7393 77.7774C11.5436 77.595 11.3867 77.3752 11.2779 77.1309C11.169 76.8866 11.1105 76.6229 11.1058 76.3555C11.1011 76.0881 11.1502 75.8225 11.2504 75.5746C11.3506 75.3266 11.4996 75.1014 11.6887 74.9123C11.8778 74.7231 12.1031 74.5741 12.3511 74.4739C12.599 74.3738 12.8646 74.3246 13.132 74.3293C13.3994 74.334 13.6631 74.3925 13.9074 74.5014C14.1517 74.6102 14.3715 74.7671 14.5538 74.9628L20.1139 80.5202L29.3356 68.7708C29.352 68.7502 29.3697 68.7307 29.3887 68.7124H29.386Z" fill="#285E8C"/>
</g>
<g clip-path="url(#clip1_2843_8007)">
<path d="M37.4311 2.65524C38.1354 2.65524 38.8107 2.93499 39.3087 3.43294C39.8066 3.93089 40.0864 4.60626 40.0864 5.31048V37.1733C40.0864 37.8775 39.8066 38.5529 39.3087 39.0509C38.8107 39.5488 38.1354 39.8286 37.4311 39.8286H5.56829C4.86408 39.8286 4.18871 39.5488 3.69075 39.0509C3.1928 38.5529 2.91305 37.8775 2.91305 37.1733V5.31048C2.91305 4.60626 3.1928 3.93089 3.69075 3.43294C4.18871 2.93499 4.86408 2.65524 5.56829 2.65524H37.4311ZM5.56829 0C4.15986 0 2.80912 0.559495 1.81322 1.5554C0.817308 2.55131 0.257813 3.90205 0.257812 5.31048L0.257813 37.1733C0.257813 38.5818 0.817308 39.9325 1.81322 40.9284C2.80912 41.9243 4.15986 42.4838 5.56829 42.4838H37.4311C38.8396 42.4838 40.1903 41.9243 41.1862 40.9284C42.1821 39.9325 42.7416 38.5818 42.7416 37.1733V5.31048C42.7416 3.90205 42.1821 2.55131 41.1862 1.5554C40.1903 0.559495 38.8396 0 37.4311 0L5.56829 0Z" fill="#285E8C"/>
<path d="M29.386 13.1963C29.7576 12.8279 30.2593 12.6206 30.7825 12.6191C31.3057 12.6177 31.8085 12.8222 32.1821 13.1885C32.5557 13.5548 32.7702 14.0535 32.7791 14.5766C32.788 15.0998 32.5907 15.6054 32.2298 15.9843L21.6301 29.2339C21.4479 29.4301 21.228 29.5876 20.9836 29.6969C20.7392 29.8062 20.4752 29.8651 20.2075 29.87C19.9398 29.875 19.6739 29.8259 19.4256 29.7257C19.1773 29.6256 18.9517 29.4763 18.7624 29.287L11.7393 22.2612C11.5436 22.0789 11.3867 21.8591 11.2779 21.6148C11.169 21.3705 11.1105 21.1068 11.1058 20.8394C11.1011 20.572 11.1502 20.3064 11.2504 20.0585C11.3506 19.8105 11.4996 19.5852 11.6887 19.3961C11.8778 19.207 12.1031 19.058 12.3511 18.9578C12.599 18.8576 12.8646 18.8085 13.132 18.8132C13.3994 18.8179 13.6631 18.8764 13.9074 18.9853C14.1517 19.0941 14.3715 19.251 14.5538 19.4467L20.1139 25.0041L29.3356 13.2547C29.352 13.2341 29.3697 13.2146 29.3887 13.1963H29.386Z" fill="#285E8C"/>
</g>
<g clip-path="url(#clip2_2843_8007)">
<path d="M92.9468 2.65524C93.651 2.65524 94.3264 2.93499 94.8243 3.43294C95.3223 3.93089 95.602 4.60626 95.602 5.31048V37.1733C95.602 37.8775 95.3223 38.5529 94.8243 39.0509C94.3264 39.5488 93.651 39.8286 92.9468 39.8286H61.0839C60.3797 39.8286 59.7043 39.5488 59.2064 39.0509C58.7084 38.5529 58.4287 37.8775 58.4287 37.1733V5.31048C58.4287 4.60626 58.7084 3.93089 59.2064 3.43294C59.7043 2.93499 60.3797 2.65524 61.0839 2.65524H92.9468ZM61.0839 0C59.6755 0 58.3247 0.559495 57.3288 1.5554C56.3329 2.55131 55.7734 3.90205 55.7734 5.31048V37.1733C55.7734 38.5818 56.3329 39.9325 57.3288 40.9284C58.3247 41.9243 59.6755 42.4838 61.0839 42.4838H92.9468C94.3552 42.4838 95.7059 41.9243 96.7018 40.9284C97.6978 39.9325 98.2572 38.5818 98.2572 37.1733V5.31048C98.2572 3.90205 97.6978 2.55131 96.7018 1.5554C95.7059 0.559495 94.3552 0 92.9468 0L61.0839 0Z" fill="#285E8C"/>
<path d="M84.9016 13.1963C85.2732 12.8279 85.7749 12.6206 86.2981 12.6191C86.8213 12.6177 87.3241 12.8222 87.6977 13.1885C88.0714 13.5548 88.2858 14.0535 88.2947 14.5766C88.3037 15.0998 88.1063 15.6054 87.7454 15.9843L77.1457 29.2339C76.9635 29.4301 76.7436 29.5876 76.4992 29.6969C76.2548 29.8062 75.9908 29.8651 75.7231 29.87C75.4554 29.875 75.1895 29.8259 74.9412 29.7257C74.6929 29.6256 74.4673 29.4763 74.278 29.287L67.2549 22.2612C67.0593 22.0789 66.9023 21.8591 66.7935 21.6148C66.6846 21.3705 66.6261 21.1068 66.6214 20.8394C66.6167 20.572 66.6659 20.3064 66.766 20.0585C66.8662 19.8105 67.0153 19.5852 67.2044 19.3961C67.3935 19.207 67.6187 19.058 67.8667 18.9578C68.1147 18.8576 68.3803 18.8085 68.6477 18.8132C68.915 18.8179 69.1787 18.8764 69.423 18.9853C69.6673 19.0941 69.8872 19.251 70.0695 19.4467L75.6295 25.0041L84.8512 13.2547C84.8676 13.2341 84.8854 13.2146 84.9043 13.1963H84.9016Z" fill="#285E8C"/>
</g>
<g clip-path="url(#clip3_2843_8007)">
<path d="M61.0839 55.5161C59.6755 55.5161 58.3247 56.0756 57.3288 57.0715C56.3329 58.0674 55.7734 59.4182 55.7734 60.8266V92.6894C55.7734 94.0979 56.3329 95.4486 57.3288 96.4445C58.3247 97.4404 59.6755 97.9999 61.0839 97.9999H92.9468C94.3552 97.9999 95.7059 97.4404 96.7018 96.4445C97.6978 95.4486 98.2572 94.0979 98.2572 92.6894V60.8266C98.2572 59.4182 97.6978 58.0674 96.7018 57.0715C95.7059 56.0756 94.3552 55.5161 92.9468 55.5161H61.0839ZM87.716 68.7126C88.0848 69.0811 88.2944 69.5794 88.2999 70.1007C88.3053 70.622 88.1062 71.1246 87.7452 71.5006L77.1454 84.7503C76.9633 84.9465 76.7434 85.104 76.499 85.2133C76.2546 85.3226 75.9906 85.3815 75.7229 85.3864C75.4552 85.3914 75.1893 85.3423 74.941 85.2421C74.6927 85.1419 74.4671 84.9927 74.2778 84.8034L67.2547 77.7776C67.059 77.5953 66.9021 77.3755 66.7933 77.1312C66.6844 76.8869 66.6259 76.6232 66.6212 76.3558C66.6165 76.0884 66.6656 75.8228 66.7658 75.5749C66.866 75.3269 67.015 75.1016 67.2041 74.9125C67.3932 74.7234 67.6185 74.5743 67.8665 74.4742C68.1144 74.374 68.38 74.3248 68.6474 74.3296C68.9148 74.3343 69.1785 74.3928 69.4228 74.5016C69.6671 74.6105 69.8869 74.7674 70.0692 74.9631L75.6293 80.5205L84.851 68.7711C85.0328 68.5745 85.2523 68.4166 85.4966 68.3068C85.7408 68.1971 86.0047 68.1377 86.2724 68.1322C86.5401 68.1268 86.8061 68.1754 87.0546 68.2751C87.3031 68.3748 87.5289 68.5236 87.7186 68.7126H87.716Z" fill="#285E8C"/>
</g>
<defs>
<clipPath id="clip0_2843_8007">
<rect width="42.4838" height="42.4838" fill="white" transform="translate(0.257812 55.5161)"/>
</clipPath>
<clipPath id="clip1_2843_8007">
<rect width="42.4838" height="42.4838" fill="white" transform="translate(0.257812)"/>
</clipPath>
<clipPath id="clip2_2843_8007">
<rect width="42.4838" height="42.4838" fill="white" transform="translate(55.7734)"/>
</clipPath>
<clipPath id="clip3_2843_8007">
<rect width="42.4838" height="42.4838" fill="white" transform="translate(55.7734 55.5161)"/>
</clipPath>
</defs>
</svg>
