<svg width="93" height="98" viewBox="0 0 93 98" fill="none" xmlns="http://www.w3.org/2000/svg">
<g clip-path="url(#clip0_2843_8002)">
<path d="M43.2565 48.9998C55.913 48.9998 66.1732 38.7397 66.1732 26.0832C66.1732 13.4266 55.913 3.1665 43.2565 3.1665C30.6 3.1665 20.3398 13.4266 20.3398 26.0832C20.3398 38.7397 30.6 48.9998 43.2565 48.9998Z" stroke="#285E8C" stroke-width="5"/>
<path d="M66.1741 94.8332H12.3933C11.0934 94.8335 9.80825 94.5573 8.62323 94.0229C7.43822 93.4886 6.3804 92.7083 5.51999 91.7339C4.65958 90.7595 4.01626 89.6132 3.63271 88.3712C3.24916 87.1291 3.13417 85.8197 3.29536 84.5299L5.08286 70.2115C5.49855 66.885 7.11518 63.825 9.62875 61.6068C12.1423 59.3887 15.3797 58.1652 18.732 58.1665H20.3408" stroke="#285E8C" stroke-width="5" stroke-linecap="round" stroke-linejoin="round"/>
<path d="M61.5898 67.3332L71.9023 76.4998L89.0898 58.1665" stroke="#285E8C" stroke-width="5" stroke-linecap="round" stroke-linejoin="round"/>
</g>
<defs>
<clipPath id="clip0_2843_8002">
<rect width="92" height="98" fill="white" transform="translate(0.257812)"/>
</clipPath>
</defs>
</svg>
