<svg width="97" height="98" viewBox="0 0 97 98" fill="none" xmlns="http://www.w3.org/2000/svg">
<path d="M73.9458 46.1652C73.7577 45.4137 73.3746 44.7252 72.8353 44.1692C72.296 43.6132 71.6194 43.2094 70.8741 42.9985C68.1508 42.3335 57.2574 42.3335 57.2574 42.3335C57.2574 42.3335 46.3641 42.3335 43.6407 43.0618C42.8954 43.2727 42.2189 43.6765 41.6795 44.2326C41.1402 44.7886 40.7572 45.4771 40.5691 46.2285C40.0707 48.9923 39.8269 51.796 39.8407 54.6043C39.823 57.4338 40.0668 60.2589 40.5691 63.0435C40.7764 63.7716 41.1681 64.4339 41.7061 64.9664C42.2442 65.499 42.9105 65.8837 43.6407 66.0835C46.3641 66.8118 57.2574 66.8118 57.2574 66.8118C57.2574 66.8118 68.1508 66.8118 70.8741 66.0835C71.6194 65.8726 72.296 65.4688 72.8353 64.9128C73.3746 64.3568 73.7577 63.6683 73.9458 62.9168C74.4403 60.1738 74.6841 57.3915 74.6741 54.6043C74.6918 51.7748 74.448 48.9498 73.9458 46.1652Z" fill="#285E8C" stroke="#285E8C" stroke-width="1.5" stroke-linecap="round" stroke-linejoin="round"/>
<path d="M53.6953 59.7822L62.7995 54.6047L53.6953 49.4272V59.7822Z" fill="white" stroke="white" stroke-width="1.5" stroke-linecap="round" stroke-linejoin="round"/>
<path d="M87.5078 28H26.8411C22.653 28 19.2578 31.3952 19.2578 35.5833V73.5C19.2578 77.6882 22.653 81.0833 26.8411 81.0833H87.5078C91.696 81.0833 95.0911 77.6882 95.0911 73.5V35.5833C95.0911 31.3952 91.696 28 87.5078 28Z" stroke="#285E8C" stroke-width="3" stroke-linecap="round" stroke-linejoin="round"/>
<path d="M42.0078 96.25H72.3411" stroke="#285E8C" stroke-width="3" stroke-linecap="round" stroke-linejoin="round"/>
<path d="M57.1758 81.0835V96.2502" stroke="#285E8C" stroke-width="3" stroke-linecap="round" stroke-linejoin="round"/>
<circle cx="21.2578" cy="21" r="21" fill="#285E8C"/>
<g clip-path="url(#clip0_2843_8023)">
<path d="M21.2578 8.26514V33.7344" stroke="white" stroke-width="1.63439" stroke-linecap="round" stroke-linejoin="round"/>
<path d="M27.0471 12.8965H18.3644C17.2898 12.8965 16.2592 13.3234 15.4993 14.0833C14.7394 14.8431 14.3125 15.8738 14.3125 16.9484C14.3125 18.023 14.7394 19.0537 15.4993 19.8135C16.2592 20.5734 17.2898 21.0003 18.3644 21.0003H24.1529C25.2275 21.0003 26.2581 21.4272 27.018 22.1871C27.7779 22.947 28.2048 23.9776 28.2048 25.0523C28.2048 26.1269 27.7779 27.1575 27.018 27.9174C26.2581 28.6773 25.2275 29.1042 24.1529 29.1042H14.3125" stroke="white" stroke-width="1.63439" stroke-linecap="round" stroke-linejoin="round"/>
</g>
<path d="M81.4115 18.2904C81.3366 18.2148 81.2474 18.1548 81.1491 18.1138C81.0508 18.0729 80.9454 18.0518 80.839 18.0518C80.7325 18.0518 80.6271 18.0729 80.5288 18.1138C80.4305 18.1548 80.3413 18.2148 80.2664 18.2904L77.9115 20.6452V14.1936C77.9115 13.338 77.5717 12.5175 76.9667 11.9126C76.3618 11.3076 75.5413 10.9678 74.6857 10.9678H42.6131C42.3992 10.9678 42.1941 11.0527 42.0429 11.204C41.8916 11.3552 41.8067 11.5603 41.8067 11.7742C41.8067 11.9881 41.8916 12.1932 42.0429 12.3445C42.1941 12.4957 42.3992 12.5807 42.6131 12.5807H74.6857C75.1135 12.5807 75.5237 12.7506 75.8262 13.0531C76.1287 13.3556 76.2986 13.7658 76.2986 14.1936V20.6452L73.9438 18.2904C73.793 18.1353 73.5868 18.0465 73.3705 18.0434C73.1542 18.0404 72.9456 18.1234 72.7906 18.2742C72.6355 18.425 72.5467 18.6312 72.5437 18.8475C72.5406 19.0638 72.6236 19.2724 72.7744 19.4275L76.5002 23.1613C76.5784 23.2349 76.6684 23.2949 76.7664 23.3387C76.8629 23.3814 76.9673 23.4034 77.0728 23.4034C77.1784 23.4034 77.2827 23.3814 77.3793 23.3387C77.4789 23.298 77.5694 23.2376 77.6454 23.1613L81.3793 19.4275C81.5338 19.2807 81.624 19.0786 81.6301 18.8656C81.6361 18.6525 81.5575 18.4457 81.4115 18.2904Z" fill="#285E8C"/>
<defs>
<clipPath id="clip0_2843_8023">
<rect width="27.7846" height="27.7846" fill="white" transform="translate(7.36523 7.10791)"/>
</clipPath>
</defs>
</svg>
