<svg width="92" height="98" viewBox="0 0 92 98" fill="none" xmlns="http://www.w3.org/2000/svg">
<path d="M42.9997 48.9998C55.6562 48.9998 65.9163 38.7397 65.9163 26.0832C65.9163 13.4266 55.6562 3.1665 42.9997 3.1665C30.3431 3.1665 20.083 13.4266 20.083 26.0832C20.083 38.7397 30.3431 48.9998 42.9997 48.9998Z" stroke="#069A95" stroke-width="5"/>
<path d="M65.9163 94.8332H12.1355C10.8355 94.8335 9.55043 94.5573 8.36542 94.0229C7.18041 93.4886 6.12259 92.7083 5.26218 91.7339C4.40177 90.7595 3.75844 89.6132 3.3749 88.3712C2.99135 87.1291 2.87635 85.8197 3.03754 84.5299L4.82504 70.2115C5.24074 66.885 6.85737 63.825 9.37094 61.6068C11.8845 59.3887 15.1219 58.1652 18.4742 58.1665H20.083" stroke="#069A95" stroke-width="5" stroke-linecap="round" stroke-linejoin="round"/>
<path d="M61.333 67.3332L71.6455 76.4998L88.833 58.1665" stroke="#069A95" stroke-width="5" stroke-linecap="round" stroke-linejoin="round"/>
</svg>
