<svg width="98" height="98" viewBox="0 0 98 98" fill="none" xmlns="http://www.w3.org/2000/svg">
<g clip-path="url(#clip0_2834_8685)">
<path d="M37.1733 58.1714C37.8775 58.1714 38.5529 58.4511 39.0509 58.9491C39.5488 59.447 39.8286 60.1224 39.8286 60.8266V92.6894C39.8286 93.3937 39.5488 94.069 39.0509 94.567C38.5529 95.0649 37.8775 95.3447 37.1733 95.3447H5.31048C4.60626 95.3447 3.93089 95.0649 3.43294 94.567C2.93499 94.069 2.65524 93.3937 2.65524 92.6894V60.8266C2.65524 60.1224 2.93499 59.447 3.43294 58.9491C3.93089 58.4511 4.60626 58.1714 5.31048 58.1714H37.1733ZM5.31048 55.5161C3.90205 55.5161 2.55131 56.0756 1.5554 57.0715C0.559495 58.0674 0 59.4182 0 60.8266L0 92.6894C0 94.0979 0.559495 95.4486 1.5554 96.4445C2.55131 97.4404 3.90205 97.9999 5.31048 97.9999H37.1733C38.5818 97.9999 39.9325 97.4404 40.9284 96.4445C41.9243 95.4486 42.4838 94.0979 42.4838 92.6894V60.8266C42.4838 59.4182 41.9243 58.0674 40.9284 57.0715C39.9325 56.0756 38.5818 55.5161 37.1733 55.5161H5.31048Z" fill="#069A95"/>
<path d="M29.1282 68.7124C29.4998 68.344 30.0014 68.1367 30.5247 68.1353C31.0479 68.1338 31.5507 68.3384 31.9243 68.7047C32.2979 69.071 32.5124 69.5696 32.5213 70.0927C32.5302 70.6159 32.3329 71.1216 31.972 71.5004L21.3722 84.75C21.1901 84.9462 20.9702 85.1037 20.7258 85.213C20.4814 85.3223 20.2174 85.3812 19.9497 85.3861C19.682 85.3911 19.4161 85.342 19.1678 85.2418C18.9195 85.1417 18.6939 84.9925 18.5046 84.8031L11.4815 77.7774C11.2858 77.595 11.1289 77.3752 11.0201 77.1309C10.9112 76.8866 10.8527 76.6229 10.848 76.3555C10.8432 76.0881 10.8924 75.8225 10.9926 75.5746C11.0928 75.3266 11.2418 75.1014 11.4309 74.9123C11.62 74.7231 11.8453 74.5741 12.0933 74.4739C12.3412 74.3738 12.6068 74.3246 12.8742 74.3293C13.1416 74.334 13.4053 74.3925 13.6496 74.5014C13.8939 74.6102 14.1137 74.7671 14.296 74.9628L19.8561 80.5202L29.0777 68.7708C29.0942 68.7502 29.1119 68.7307 29.1308 68.7124H29.1282Z" fill="#069A95"/>
</g>
<g clip-path="url(#clip1_2834_8685)">
<path d="M37.1733 2.65524C37.8775 2.65524 38.5529 2.93499 39.0509 3.43294C39.5488 3.93089 39.8286 4.60626 39.8286 5.31048V37.1733C39.8286 37.8775 39.5488 38.5529 39.0509 39.0509C38.5529 39.5488 37.8775 39.8286 37.1733 39.8286H5.31048C4.60626 39.8286 3.93089 39.5488 3.43294 39.0509C2.93499 38.5529 2.65524 37.8775 2.65524 37.1733V5.31048C2.65524 4.60626 2.93499 3.93089 3.43294 3.43294C3.93089 2.93499 4.60626 2.65524 5.31048 2.65524H37.1733ZM5.31048 0C3.90205 0 2.55131 0.559495 1.5554 1.5554C0.559495 2.55131 0 3.90205 0 5.31048L0 37.1733C0 38.5818 0.559495 39.9325 1.5554 40.9284C2.55131 41.9243 3.90205 42.4838 5.31048 42.4838H37.1733C38.5818 42.4838 39.9325 41.9243 40.9284 40.9284C41.9243 39.9325 42.4838 38.5818 42.4838 37.1733V5.31048C42.4838 3.90205 41.9243 2.55131 40.9284 1.5554C39.9325 0.559495 38.5818 0 37.1733 0L5.31048 0Z" fill="#069A95"/>
<path d="M29.1282 13.1963C29.4998 12.8279 30.0014 12.6206 30.5247 12.6191C31.0479 12.6177 31.5507 12.8222 31.9243 13.1885C32.2979 13.5548 32.5124 14.0535 32.5213 14.5766C32.5302 15.0998 32.3329 15.6054 31.972 15.9843L21.3722 29.2339C21.1901 29.4301 20.9702 29.5876 20.7258 29.6969C20.4814 29.8062 20.2174 29.8651 19.9497 29.87C19.682 29.875 19.4161 29.8259 19.1678 29.7257C18.9195 29.6256 18.6939 29.4763 18.5046 29.287L11.4815 22.2612C11.2858 22.0789 11.1289 21.8591 11.0201 21.6148C10.9112 21.3705 10.8527 21.1068 10.848 20.8394C10.8432 20.572 10.8924 20.3064 10.9926 20.0585C11.0928 19.8105 11.2418 19.5852 11.4309 19.3961C11.62 19.207 11.8453 19.058 12.0933 18.9578C12.3412 18.8576 12.6068 18.8085 12.8742 18.8132C13.1416 18.8179 13.4053 18.8764 13.6496 18.9853C13.8939 19.0941 14.1137 19.251 14.296 19.4467L19.8561 25.0041L29.0777 13.2547C29.0942 13.2341 29.1119 13.2146 29.1308 13.1963H29.1282Z" fill="#069A95"/>
</g>
<g clip-path="url(#clip2_2834_8685)">
<path d="M92.6899 2.65524C93.3941 2.65524 94.0695 2.93499 94.5675 3.43294C95.0654 3.93089 95.3452 4.60626 95.3452 5.31048V37.1733C95.3452 37.8775 95.0654 38.5529 94.5675 39.0509C94.0695 39.5488 93.3941 39.8286 92.6899 39.8286H60.8271C60.1229 39.8286 59.4475 39.5488 58.9495 39.0509C58.4516 38.5529 58.1718 37.8775 58.1718 37.1733V5.31048C58.1718 4.60626 58.4516 3.93089 58.9495 3.43294C59.4475 2.93499 60.1229 2.65524 60.8271 2.65524H92.6899ZM60.8271 0C59.4187 0 58.0679 0.559495 57.072 1.5554C56.0761 2.55131 55.5166 3.90205 55.5166 5.31048V37.1733C55.5166 38.5818 56.0761 39.9325 57.072 40.9284C58.0679 41.9243 59.4187 42.4838 60.8271 42.4838H92.6899C94.0984 42.4838 95.4491 41.9243 96.445 40.9284C97.4409 39.9325 98.0004 38.5818 98.0004 37.1733V5.31048C98.0004 3.90205 97.4409 2.55131 96.445 1.5554C95.4491 0.559495 94.0984 0 92.6899 0L60.8271 0Z" fill="#069A95"/>
<path d="M84.6448 13.1963C85.0164 12.8279 85.518 12.6206 86.0413 12.6191C86.5645 12.6177 87.0673 12.8222 87.4409 13.1885C87.8145 13.5548 88.029 14.0535 88.0379 14.5766C88.0468 15.0998 87.8495 15.6054 87.4886 15.9843L76.8888 29.2339C76.7067 29.4301 76.4868 29.5876 76.2424 29.6969C75.998 29.8062 75.734 29.8651 75.4663 29.87C75.1986 29.875 74.9327 29.8259 74.6844 29.7257C74.4361 29.6256 74.2105 29.4763 74.0212 29.287L66.9981 22.2612C66.8024 22.0789 66.6455 21.8591 66.5367 21.6148C66.4278 21.3705 66.3693 21.1068 66.3646 20.8394C66.3598 20.572 66.409 20.3064 66.5092 20.0585C66.6094 19.8105 66.7584 19.5852 66.9475 19.3961C67.1366 19.207 67.3619 19.058 67.6099 18.9578C67.8578 18.8576 68.1234 18.8085 68.3908 18.8132C68.6582 18.8179 68.9219 18.8764 69.1662 18.9853C69.4105 19.0941 69.6303 19.251 69.8126 19.4467L75.3727 25.0041L84.5943 13.2547C84.6108 13.2341 84.6285 13.2146 84.6475 13.1963H84.6448Z" fill="#069A95"/>
</g>
<g clip-path="url(#clip3_2834_8685)">
<path d="M60.8271 55.5161C59.4187 55.5161 58.0679 56.0756 57.072 57.0715C56.0761 58.0674 55.5166 59.4182 55.5166 60.8266V92.6894C55.5166 94.0979 56.0761 95.4486 57.072 96.4445C58.0679 97.4404 59.4187 97.9999 60.8271 97.9999H92.6899C94.0984 97.9999 95.4491 97.4404 96.445 96.4445C97.4409 95.4486 98.0004 94.0979 98.0004 92.6894V60.8266C98.0004 59.4182 97.4409 58.0674 96.445 57.0715C95.4491 56.0756 94.0984 55.5161 92.6899 55.5161H60.8271ZM87.4591 68.7126C87.8279 69.0811 88.0376 69.5794 88.043 70.1007C88.0485 70.622 87.8493 71.1246 87.4883 71.5006L76.8886 84.7503C76.7064 84.9465 76.4866 85.104 76.2421 85.2133C75.9977 85.3226 75.7338 85.3815 75.4661 85.3864C75.1984 85.3914 74.9324 85.3423 74.6841 85.2421C74.4358 85.1419 74.2103 84.9927 74.021 84.8034L66.9979 77.7776C66.8022 77.5953 66.6453 77.3755 66.5364 77.1312C66.4276 76.8869 66.3691 76.6232 66.3643 76.3558C66.3596 76.0884 66.4088 75.8228 66.509 75.5749C66.6091 75.3269 66.7582 75.1016 66.9473 74.9125C67.1364 74.7234 67.3617 74.5743 67.6096 74.4742C67.8576 74.374 68.1232 74.3248 68.3906 74.3296C68.658 74.3343 68.9217 74.3928 69.166 74.5016C69.4102 74.6105 69.6301 74.7674 69.8124 74.9631L75.3725 80.5205L84.5941 68.7711C84.7759 68.5745 84.9955 68.4166 85.2397 68.3068C85.484 68.1971 85.7478 68.1377 86.0155 68.1322C86.2832 68.1268 86.5493 68.1754 86.7978 68.2751C87.0463 68.3748 87.2721 68.5236 87.4618 68.7126H87.4591Z" fill="#069A95"/>
</g>
<defs>
<clipPath id="clip0_2834_8685">
<rect width="42.4838" height="42.4838" fill="white" transform="translate(0 55.5161)"/>
</clipPath>
<clipPath id="clip1_2834_8685">
<rect width="42.4838" height="42.4838" fill="white"/>
</clipPath>
<clipPath id="clip2_2834_8685">
<rect width="42.4838" height="42.4838" fill="white" transform="translate(55.5166)"/>
</clipPath>
<clipPath id="clip3_2834_8685">
<rect width="42.4838" height="42.4838" fill="white" transform="translate(55.5166 55.5161)"/>
</clipPath>
</defs>
</svg>
