<svg width="187" height="30" viewBox="0 0 187 30" fill="none" xmlns="http://www.w3.org/2000/svg">
<g clip-path="url(#clip0_3250_15508)">
<path d="M36.6094 17.1217C36.6094 12.3022 40.308 8.91699 45.3477 8.91699C48.4194 8.91699 50.8399 10.0393 52.3872 12.056L49.0463 15.0361C48.1274 13.8725 47.0296 13.1982 45.6168 13.1982C43.4211 13.1982 41.941 14.7242 41.941 17.1217C41.941 19.5191 43.4211 21.0451 45.6168 21.0451C47.0296 21.0451 48.1274 20.3723 49.0463 19.2057L52.3872 22.1873C50.846 24.2056 48.4194 25.3263 45.3477 25.3263C40.308 25.3202 36.6094 21.935 36.6094 17.1217Z" fill="white"/>
<path d="M62.545 12.4751V16.9582C62.175 16.8985 61.8004 16.8679 61.4243 16.8679C59.8998 16.8679 58.8234 17.5636 58.8234 19.5131V24.9595H53.7578V12.6999H58.5757V14.024C59.4733 12.9904 60.8402 12.4751 62.545 12.4751Z" fill="white"/>
<path d="M76.8453 20.007H68.3272C68.685 20.9489 69.5381 21.4427 70.7935 21.4427C71.9142 21.4427 72.5427 21.1507 73.35 20.5437L75.9952 23.2118C74.8071 24.5115 73.0824 25.1842 70.6375 25.1842C66.133 25.1842 63.2188 22.4718 63.2188 18.819C63.2188 15.0928 66.2003 12.4751 70.1681 12.4751C73.7995 12.4751 76.9141 14.6708 76.9141 18.819C76.9126 19.1783 76.8682 19.6477 76.8453 20.007ZM68.237 17.5652H72.1818C71.98 16.5377 71.2399 15.9276 70.2094 15.9276C69.159 15.9261 68.4418 16.5316 68.24 17.5636L68.237 17.5652Z" fill="white"/>
<path d="M90.2963 18.371V24.9595H85.59V23.3479C85.0059 24.5803 83.8408 25.1858 82.1207 25.1858C79.1161 25.1858 77.5703 23.4825 77.5703 21.374C77.5703 18.9979 79.3623 17.6753 83.1741 17.6753H85.2138C85.0563 16.7335 84.3408 16.2411 82.9004 16.2411C81.8011 16.2411 80.5702 16.5989 79.7629 17.2044L78.1483 13.8635C79.5825 12.9644 81.7583 12.4736 83.6619 12.4736C87.8758 12.4752 90.2963 14.2947 90.2963 18.371ZM85.2322 20.9765V20.1248H83.9769C82.9004 20.1248 82.4356 20.4826 82.4356 21.1523C82.4356 21.7119 82.8836 22.1385 83.6466 22.1385C84.3347 22.1339 84.9615 21.7777 85.2322 20.9765Z" fill="white"/>
<path d="M101.529 24.5347C100.745 24.9827 99.6011 25.1845 98.413 25.1845C95.0278 25.1845 93.0554 23.5928 93.0554 20.2076V17.0701H91.375V13.3729H93.0554V9.94336H98.1225V13.3729H100.633V17.0716H98.1225V20.1648C98.1225 20.9262 98.5705 21.3528 99.176 21.3528C99.5812 21.3559 99.9787 21.2382 100.318 21.0164L101.529 24.5347Z" fill="white"/>
<path d="M102.293 9.13602C102.293 7.67887 103.481 6.55811 105.34 6.55811C107.2 6.55811 108.389 7.5856 108.389 9.0458C108.389 10.587 107.201 11.7139 105.34 11.7139C103.479 11.7139 102.293 10.5932 102.293 9.13602ZM102.807 12.7001H107.874V24.9613H102.808L102.807 12.7001Z" fill="white"/>
<path d="M123.766 12.6998L118.835 24.9609H113.587L108.656 12.6982H113.856L116.324 19.2684L118.969 12.6998H123.766Z" fill="white"/>
<path d="M137.193 20.007H128.675C129.034 20.9489 129.886 21.4427 131.141 21.4427C132.262 21.4427 132.89 21.1507 133.698 20.5437L136.343 23.2118C135.155 24.5115 133.43 25.1842 130.985 25.1842C126.481 25.1842 123.566 22.4718 123.566 18.819C123.566 15.0928 126.548 12.4751 130.516 12.4751C134.147 12.4751 137.263 14.6708 137.263 18.819C137.262 19.1783 137.216 19.6477 137.193 20.007ZM128.583 17.5652H132.528C132.326 16.5377 131.586 15.9276 130.556 15.9276C129.505 15.9261 128.788 16.5316 128.586 17.5636L128.583 17.5652Z" fill="white"/>
<path d="M154.479 9.27051V24.9612H149.189V19.1785H144.299V24.9612H139.012V9.27051H144.299V14.83H149.181V9.27051H154.479Z" fill="white"/>
<path d="M170.281 12.7002V24.9613H165.461V23.7947C164.542 24.7366 163.31 25.1846 161.992 25.1846C159.055 25.1846 156.836 23.4583 156.836 19.4691V12.7002H161.903V18.5961C161.903 20.3452 162.509 20.9263 163.493 20.9263C164.368 20.9263 165.219 20.278 165.219 18.4615V12.7002H170.281Z" fill="white"/>
<path d="M186.625 18.8191C186.625 22.764 183.914 25.1844 180.708 25.1844C179.183 25.1844 178.085 24.7808 177.345 23.9505V24.9597H172.527V8.32861H177.593V13.5242C178.333 12.8071 179.364 12.4707 180.709 12.4707C183.914 12.4753 186.625 14.8743 186.625 18.8191ZM181.493 18.8191C181.493 17.2274 180.619 16.4201 179.498 16.4201C178.377 16.4201 177.503 17.2274 177.503 18.8191C177.503 20.4108 178.377 21.2396 179.498 21.2396C180.619 21.2396 181.492 20.4108 181.493 18.8191Z" fill="white"/>
<path d="M14.7595 0C6.60838 0 0 6.60838 0 14.7595C0 22.9107 6.60838 29.5191 14.7595 29.5191C22.9107 29.5191 29.5191 22.9137 29.5191 14.7595C29.5191 6.60532 22.9092 0 14.7595 0ZM20.7701 14.7794C20.3053 15.1158 19.7747 15.3497 19.2135 15.4659L19.1218 15.4843V19.4719H16.2075V15.2779L15.7549 15.1708C15.2075 15.0439 14.6418 14.914 14.1388 14.8834C14.0271 14.8788 13.9155 14.8803 13.8039 14.8895L13.6969 14.8987V22.6202H10.7872V15.8665L9.88811 16.5057L8.20619 14.1265L9.14195 13.4583C9.60677 13.122 10.1373 12.888 10.6985 12.7718L10.7902 12.7535V7.72303H13.7045V11.9798L13.8238 11.9752C13.8911 11.9721 13.9599 11.9721 14.0271 11.9721C14.1265 11.9706 14.2259 11.9752 14.3253 11.9859H14.3345C14.9201 12.0211 15.5026 12.1098 16.073 12.2504L16.2106 12.2841V7.69398H19.1249V12.3712L20.0239 11.7321L21.7089 14.1097L20.7701 14.7794Z" fill="white"/>
</g>
<defs>
<clipPath id="clip0_3250_15508">
<rect width="186.623" height="29.5175" fill="white"/>
</clipPath>
</defs>
</svg>
