<svg width="59" height="50" viewBox="0 0 59 50" fill="none" xmlns="http://www.w3.org/2000/svg">
<path d="M33.638 39.583H29.4714V35.4163C29.4697 33.7592 28.8107 32.1705 27.6389 30.9987C26.4672 29.827 24.8784 29.168 23.2214 29.1663H14.888C13.2309 29.168 11.6422 29.827 10.4704 30.9987C9.29869 32.1705 8.63968 33.7592 8.63802 35.4163V39.583H4.47135V35.4163C4.47466 32.6546 5.57319 30.007 7.52598 28.0543C9.47877 26.1015 12.1264 25.0029 14.888 24.9996H23.2214C25.983 25.0029 28.6306 26.1015 30.5834 28.0543C32.5362 30.007 33.6347 32.6546 33.638 35.4163V39.583ZM19.0547 4.1663C20.2908 4.1663 21.4992 4.53286 22.527 5.21962C23.5548 5.90637 24.3559 6.88249 24.8289 8.02453C25.302 9.16657 25.4258 10.4232 25.1846 11.6356C24.9434 12.848 24.3482 13.9616 23.4741 14.8357C22.6 15.7098 21.4864 16.3051 20.274 16.5462C19.0616 16.7874 17.805 16.6636 16.6629 16.1905C15.5209 15.7175 14.5448 14.9164 13.858 13.8886C13.1712 12.8608 12.8047 11.6524 12.8047 10.4163C12.8047 8.7587 13.4632 7.16899 14.6353 5.99688C15.8074 4.82478 17.3971 4.1663 19.0547 4.1663ZM19.0547 -0.000366211C16.9945 -0.000366211 14.9805 0.61056 13.2675 1.75516C11.5545 2.89976 10.2194 4.52662 9.43094 6.43001C8.64253 8.33341 8.43624 10.4279 8.83817 12.4485C9.2401 14.4691 10.2322 16.3252 11.689 17.782C13.1458 19.2388 15.0019 20.2309 17.0225 20.6328C19.0431 21.0347 21.1376 20.8285 23.041 20.04C24.9444 19.2516 26.5712 17.9165 27.7158 16.2035C28.8604 14.4905 29.4714 12.4765 29.4714 10.4163C29.4714 7.65363 28.3739 5.00411 26.4204 3.0506C24.4669 1.0971 21.8174 -0.000366211 19.0547 -0.000366211ZM0.304688 45.833H58.638V49.9996H0.304688V45.833ZM53.0193 8.33297C52.2781 8.33304 51.5445 8.48168 50.8618 8.77009C50.179 9.0585 49.561 9.48083 49.0443 10.0121L48.2214 10.8538L47.3984 10.0101C46.8816 9.47886 46.2636 9.05663 45.5809 8.76832C44.8981 8.48001 44.1645 8.33147 43.4234 8.33147C42.6823 8.33147 41.9487 8.48001 41.266 8.76832C40.5833 9.05663 39.9652 9.47886 39.4484 10.0101C38.3946 11.0982 37.8053 12.5536 37.8053 14.0684C37.8053 15.5832 38.3946 17.0386 39.4484 18.1267L48.2214 27.083L56.9922 18.1288C58.0461 17.0407 58.6353 15.5853 58.6353 14.0705C58.6353 12.5557 58.0461 11.1002 56.9922 10.0121C56.4759 9.48133 55.8586 9.05929 55.1766 8.7709C54.4946 8.4825 53.7618 8.3336 53.0214 8.33297H53.0193Z" fill="url(#paint0_linear_5188_12872)"/>
<defs>
<linearGradient id="paint0_linear_5188_12872" x1="-6.37083" y1="-1.72173" x2="40.8878" y2="62.41" gradientUnits="userSpaceOnUse">
<stop stop-color="#FF6BDF"/>
<stop offset="1" stop-color="#A400CD"/>
</linearGradient>
</defs>
</svg>
