<svg width="92" height="98" viewBox="0 0 92 98" fill="none" xmlns="http://www.w3.org/2000/svg">
<path d="M43 48.9998C55.6566 48.9998 65.9167 38.7397 65.9167 26.0832C65.9167 13.4266 55.6566 3.1665 43 3.1665C30.3435 3.1665 20.0834 13.4266 20.0834 26.0832C20.0834 38.7397 30.3435 48.9998 43 48.9998Z" stroke="#9153BE" stroke-width="5"/>
<path d="M65.9167 94.8332H12.1358C10.8359 94.8335 9.5508 94.5573 8.36579 94.0229C7.18077 93.4886 6.12296 92.7083 5.26255 91.7339C4.40214 90.7595 3.75881 89.6132 3.37526 88.3712C2.99172 87.1291 2.87672 85.8197 3.03791 84.5299L4.82541 70.2115C5.2411 66.885 6.85773 63.825 9.37131 61.6068C11.8849 59.3887 15.1222 58.1652 18.4746 58.1665H20.0833" stroke="#9153BE" stroke-width="5" stroke-linecap="round" stroke-linejoin="round"/>
<path d="M61.3334 67.3332L71.6459 76.4998L88.8334 58.1665" stroke="#9153BE" stroke-width="5" stroke-linecap="round" stroke-linejoin="round"/>
</svg>
