<svg width="97" height="98" viewBox="0 0 97 98" fill="none" xmlns="http://www.w3.org/2000/svg">
<path d="M73.6884 46.1652C73.5003 45.4137 73.1173 44.7252 72.578 44.1692C72.0386 43.6132 71.3621 43.2094 70.6168 42.9985C67.8934 42.3335 57.0001 42.3335 57.0001 42.3335C57.0001 42.3335 46.1068 42.3335 43.3834 43.0618C42.6381 43.2727 41.9616 43.6765 41.4222 44.2326C40.8829 44.7886 40.4998 45.4771 40.3118 46.2285C39.8133 48.9923 39.5695 51.796 39.5834 54.6043C39.5657 57.4338 39.8095 60.2589 40.3118 63.0435C40.5191 63.7716 40.9107 64.4339 41.4488 64.9664C41.9869 65.499 42.6532 65.8837 43.3834 66.0835C46.1068 66.8118 57.0001 66.8118 57.0001 66.8118C57.0001 66.8118 67.8934 66.8118 70.6168 66.0835C71.3621 65.8726 72.0386 65.4688 72.578 64.9128C73.1173 64.3568 73.5003 63.6683 73.6884 62.9168C74.183 60.1738 74.4268 57.3915 74.4168 54.6043C74.4345 51.7748 74.1907 48.9498 73.6884 46.1652Z" fill="#9153BE" stroke="#9153BE" stroke-width="1.5" stroke-linecap="round" stroke-linejoin="round"/>
<path d="M53.4375 59.7822L62.5417 54.6047L53.4375 49.4272V59.7822Z" fill="white" stroke="white" stroke-width="1.5" stroke-linecap="round" stroke-linejoin="round"/>
<path d="M87.25 28H26.5833C22.3952 28 19 31.3952 19 35.5833V73.5C19 77.6882 22.3952 81.0833 26.5833 81.0833H87.25C91.4382 81.0833 94.8333 77.6882 94.8333 73.5V35.5833C94.8333 31.3952 91.4382 28 87.25 28Z" stroke="#9153BE" stroke-width="3" stroke-linecap="round" stroke-linejoin="round"/>
<path d="M41.75 96.25H72.0833" stroke="#9153BE" stroke-width="3" stroke-linecap="round" stroke-linejoin="round"/>
<path d="M56.9166 81.0835V96.2502" stroke="#9153BE" stroke-width="3" stroke-linecap="round" stroke-linejoin="round"/>
<circle cx="21" cy="21" r="21" fill="#9153BE"/>
<g clip-path="url(#clip0_2812_8708)">
<path d="M21 8.26514V33.7344" stroke="white" stroke-width="1.63439" stroke-linecap="round" stroke-linejoin="round"/>
<path d="M26.7884 12.8965H18.1058C17.0311 12.8965 16.0005 13.3234 15.2406 14.0833C14.4807 14.8431 14.0538 15.8738 14.0538 16.9484C14.0538 18.023 14.4807 19.0537 15.2406 19.8135C16.0005 20.5734 17.0311 21.0003 18.1058 21.0003H23.8942C24.9689 21.0003 25.9995 21.4272 26.7594 22.1871C27.5192 22.947 27.9461 23.9776 27.9461 25.0523C27.9461 26.1269 27.5192 27.1575 26.7594 27.9174C25.9995 28.6773 24.9689 29.1042 23.8942 29.1042H14.0538" stroke="white" stroke-width="1.63439" stroke-linecap="round" stroke-linejoin="round"/>
</g>
<path d="M81.1533 18.2904C81.0783 18.2148 80.9891 18.1548 80.8909 18.1138C80.7926 18.0729 80.6872 18.0518 80.5807 18.0518C80.4743 18.0518 80.3688 18.0729 80.2706 18.1138C80.1723 18.1548 80.0831 18.2148 80.0081 18.2904L77.6533 20.6452V14.1936C77.6533 13.338 77.3134 12.5175 76.7085 11.9126C76.1035 11.3076 75.283 10.9678 74.4275 10.9678H42.3549C42.141 10.9678 41.9359 11.0527 41.7846 11.204C41.6334 11.3552 41.5484 11.5603 41.5484 11.7742C41.5484 11.9881 41.6334 12.1932 41.7846 12.3445C41.9359 12.4957 42.141 12.5807 42.3549 12.5807H74.4275C74.8553 12.5807 75.2655 12.7506 75.568 13.0531C75.8705 13.3556 76.0404 13.7658 76.0404 14.1936V20.6452L73.6856 18.2904C73.5348 18.1353 73.3286 18.0465 73.1123 18.0434C72.896 18.0404 72.6874 18.1234 72.5323 18.2742C72.3773 18.425 72.2884 18.6312 72.2854 18.8475C72.2824 19.0638 72.3654 19.2724 72.5162 19.4275L76.242 23.1613C76.3202 23.2349 76.4101 23.2949 76.5081 23.3387C76.6047 23.3814 76.709 23.4034 76.8146 23.4034C76.9201 23.4034 77.0245 23.3814 77.121 23.3387C77.2207 23.298 77.3112 23.2376 77.3872 23.1613L81.121 19.4275C81.2756 19.2807 81.3658 19.0786 81.3718 18.8656C81.3779 18.6525 81.2993 18.4457 81.1533 18.2904Z" fill="#9153BE"/>
<defs>
<clipPath id="clip0_2812_8708">
<rect width="27.7846" height="27.7846" fill="white" transform="translate(7.10767 7.10791)"/>
</clipPath>
</defs>
</svg>
